<svg id="Capa_1" data-name="Capa 1" xmlns="http://www.w3.org/2000/svg" viewBox="0 0 121.45 93.85"><defs><style>.cls-1{fill:#cdcccc;}</style></defs><path class="cls-1" d="M58.54,55.28c1.55-2.7-.43-5.35-.12-8.05.19-1.65-.54-3.55,1.73-4.32-.26,1.81,1.15,2,2.35,2.51C69.61,48.2,76.73,51,83.83,53.79c1.1.43,2.08.68,2.66-.62.65-1.45,3.21-2.33,1.4-4.54a5.36,5.36,0,0,0,4.21-2.42c3.16-4.4,6.58-8.62,9.86-12.94,1.2-1.58,2.49-2.45,4.66-1.81s1,2.34,1.36,3.57c.14.57-.16,1.37,1.23,1.39.08-1.38.16-2.78.24-4.17a22.48,22.48,0,0,1,2.67-9.08c2-3.82,3.86-7.66,5.65-11.57.34-.44.51-.88-.06-1.25,0,0-.38.42-.59.64-3.56.14-5.27-3.61-8.66-3.88.64-.32,1.42-.19,1.67-.5.47-.55-.26-.76-.65-1.05C102.31.08,96.35.62,90.39,7.15c-8.54,9.36-16,19.64-24.21,29.23l-.58-.54C73.62,24.32,82.09,13.18,92,3.2c3-3,6.36-3.95,10.47-2.57C107.9,2.43,113,5,118.21,7.17c.89.38,1.79.91,1.93,1.86.82,5.43,2.76,11.1-.6,16.19-9.21,13.91-19.06,27.36-29.19,40.62-1.5,2-3,1.87-4.77.79-2.31-1.43-4-1.09-5.65,1.2-2,2.64-4.73,4.7-6.56,7.41-2.48,3.65-5.09,4.27-8.9,2.16s-7.71-3.48-11.41-5.5C49.62,70,49.7,65.09,53,63a2.7,2.7,0,0,0,.7,3.91c-.19.26-.34.67-.59.76-.89.3-.42.71,0,.69,1.11-.07-.36-1.26.56-1.52,3,1,6,1.91,8.93,2.94,6.29,2.19,6.52,2.12,10.42-4.17-1.85,1.17-2.86,0-4.06-.44-.76-.27-2-.59-1.28-1.89a1.73,1.73,0,0,1,2.29-1c.73.3,1.66.46,2.1,1,2.83,3.52,3.89.12,5.49-1.3s1-2.2-.56-2.87c-2.89-1.26-5.83-2.41-8.68-3.76-3.07-1.46-6.06-3.35-8.89.38C59.4,55.75,58.85,55.43,58.54,55.28Zm34.24-5.82-.51.07.07.32.35-.46c.66.17.78-.25.83-.76,2.3.21,2.3-2.49,3.93-3.13-.38-.79,2.33-.22.69-1.64-.86-.75-1.32-.75-2,.22-1,1.41-2.06,2.72-3.1,4.08C92.75,48.54,92.32,48.9,92.78,49.46ZM55.25,69.37c.29-.36.2-.63-.24-.75-.09,0-.23.08-.35.13l.68.55c.2.87.9.81,1.54.85.42,1,1.42.75,2.18,1a1.73,1.73,0,0,0,1.85.54c.15.76.68.85,1.31.69a.42.42,0,0,0,.18-.29,1.13,1.13,0,0,0-1.52-.38c0-1.12-.88-.78-1.49-.9-.38-.94-1.45-.67-2.08-1.17C56.62,69.61,56.09,68.31,55.25,69.37ZM91.7,53.17c-6.22,2-3.37,6.52-3.52,10.88C92.86,61,92.39,57.17,91.7,53.17Zm14.86-18.64c-2.77.36-1.14,4.4-4.2,4.4-.24,0,.68,1.22,1.15,1.73.62.69,1.41-.18,1.5-.51C105.49,38.3,107.3,36.84,106.56,34.53ZM99.13,50.22c3.55-2.74.76-5.54,1-6.9C101.09,44.75,98.82,47.25,99.13,50.22ZM72,72.51c-1.3.27-3-.2-2.5,1.72.16.57-.08,2,.77,1.55a2.89,2.89,0,0,0,1.85-3.09C72.05,72.5,71.84,72.34,72,72.51Zm-7.38.91c1,.93,1.71,1.76,3.32,1.32C67,73.68,66.28,73,64.59,73.42Zm-.52-.52c-.09-.08-.19-.24-.25-.23a2.62,2.62,0,0,0-.52.22c.08.08.18.24.25.23A2.14,2.14,0,0,0,64.07,72.9Z" transform="translate(0 0)"/><path class="cls-1" d="M9.91,55.89c2.08-4.48,6-3.89,9.56-3,5.64,1.37,11.19,3.12,17,3.85,6,.77,7,8.54,5.93,13.58-1,4.41-3.27,8.34-5.29,12.33C29.74,97.08,33.33,94.26,18.35,92,13.93,91.38,9.46,91,5.19,89.39A6.33,6.33,0,0,1,1,84.68a18.83,18.83,0,0,1,1.34-15.2C4.8,64.87,6.66,59.94,10,55.82c1,.8,0,1.32-.3,1.86C7.24,61.91,5.12,66.3,3,70.67S.48,79.4,2.61,83.86c.66,1.39.66,3.31,2.56,3.71,3,.62,6,.5,9,1.52.58.2.7-.89.87-1.53.63-2.33,2.39-.39,3.52-.89,1.17,4.46,5,2.77,7.75,3.08,1.86.21,1.56-2.22,1.82-3.56.11-.57.1-1.58-1.53-1.48A40.91,40.91,0,0,1,10.7,82.53c-2.13-.74-2.39.18-2.57,2-.7-3.35-5-3.19-5.91-6.77C9.44,81.22,17.13,81,24.37,82.86a3.15,3.15,0,0,0,4.15-1.94c3-6.33,6.11-12.59,9.05-18.94.41-.87,2-2.06.4-3s-3.34-1.47-4.68-.1c-.88.89-2.52,1.38-2.45,3.07v-.08c-1.59-1.74-2.25,0-3.32.81l.93-2.71c.4-.1.61-.33.35-.71,0-.06-.5.19-.77.29-1.35-.94-2.48.8-3.79.3.15-.43.29-.86.44-1.3l1.65-2.4a4.48,4.48,0,0,0-1.4-.42c-1.44.09-.47,1.53-1.09,2.1-.26.48-.53.95-.8,1.43l-3.88,6.17c-.88-4.7,2.63-7,4.56-9.79C19,53.24,14.34,52.5,9.91,55.89Z" transform="translate(0 0)"/><path class="cls-1" d="M67.28,40c-1.46.27-2.78-1.29-4.29-.34a2.76,2.76,0,0,1,1.48-2.46l.51.41C65.23,38.86,67.57,38.15,67.28,40Z" transform="translate(0 0)"/><path class="cls-1" d="M57,58.12c-.32,1.35-.72,2.6-2.5,2.45C55.09,59.54,55.48,58.27,57,58.12Z" transform="translate(0 0)"/><path class="cls-1" d="M54.54,60.5c.74,1.06,0,1.39-.83,1.71C53,61.16,53.85,60.87,54.54,60.5Z" transform="translate(0 0)"/><path class="cls-1" d="M58.5,55.34c1.14,1.26,0,1.63-.82,2.1C57.12,56.41,58.2,56,58.5,55.34Z" transform="translate(0 0)"/><path class="cls-1" d="M64.47,37.16l1.13-1.32.58.54L65,37.57Z" transform="translate(0 0)"/><path class="cls-1" d="M53.79,62.11c0,.59-.23,1-.9.88C52.7,62.19,52.79,61.69,53.79,62.11Z" transform="translate(0 0)"/><path class="cls-1" d="M57.77,57.33c0,.57-.2,1-.9.89C56.72,57.47,56.91,57.06,57.77,57.33Z" transform="translate(0 0)"/><path class="cls-1" d="M60.2,58c1.33.92,3.47.5,3.89,2.3A1.93,1.93,0,0,1,62,62.2c-1.37-.23-3.09-.48-3.58-2C58,59.16,59.12,58.44,60.2,58Z" transform="translate(0 0)"/><path class="cls-1" d="M67.2,39.85c7.22,2.26,14.65,4,20.78,8.83C81.1,45.62,73.71,43.78,67.2,39.85Z" transform="translate(0 0)"/><path class="cls-1" d="M110,18.15c-.18.15-.44.44-.52.4a3.43,3.43,0,0,1-.72-.61c.21-.09.44-.27.63-.23S109.78,18,110,18.15Z" transform="translate(0 0)"/><path class="cls-1" d="M107.79,17c-.2.35-.28.63-.41.66a1.36,1.36,0,0,1-.67-.13c-.38-.16-.37-.36,0-.46A7.59,7.59,0,0,1,107.79,17Z" transform="translate(0 0)"/><path class="cls-1" d="M13.71,60.21c.89,1.62-.94,2.56-1,3.94l.05,0c-.81-1.59.58-2.6,1-3.86Z" transform="translate(0 0)"/><path class="cls-1" d="M30.84,61.9c-.28.85.73.33.8.77,0,0-.15.13-.23.19-.19-.34-.39-.68-.58-1Z" transform="translate(0 0)"/><path class="cls-1" d="M22.51,62.67c0,.31.06.63.06.94a2.34,2.34,0,0,1-.33.07l.35-.9Z" transform="translate(0 0)"/><path class="cls-1" d="M23.82,60.05a.44.44,0,0,0,.48-.35c.65.38.3.84,0,1.22-.1.16-.41.17-.63.25Z" transform="translate(0 0)"/><path class="cls-1" d="M15,60.17c-.92-1-.33-1.52.61-1.93l-.08-.07c-.19.64-.38,1.28-.57,1.9A.69.69,0,0,0,15,60.17Z" transform="translate(0 0)"/><path class="cls-1" d="M15.63,58.24c-.24-.77-.12-1.38.74-1.64l-.07-.09c.44.86.09,1.38-.75,1.66Z" transform="translate(0 0)"/><path class="cls-1" d="M12.7,64.15H12c.25-.77.47.11.71,0Z" transform="translate(0 0)"/><path class="cls-1" d="M22.59,62.78l.7-.37,0,.34-.8-.07Z" transform="translate(0 0)"/><path class="cls-1" d="M13.78,60.31c.38-.29.68-1.16,1.23-.15,0,0,0-.1,0-.09-.39.28-.76.84-1.27.15Z" transform="translate(0 0)"/><path class="cls-1" d="M17.22,55.86c-.15.43,0,1.24-.92.65l.07.09a.87.87,0,0,1,.46-1.12Z" transform="translate(0 0)"/><path class="cls-1" d="M16.83,55.48c.28-.26.47-.92,1-.25,0,.05-.36.41-.56.63Z" transform="translate(0 0)"/></svg>