<svg id="Capa_1" data-name="Capa 1" xmlns="http://www.w3.org/2000/svg" viewBox="0 0 148.98 133.97"><defs><style>.cls-1{fill:#cdcccc;}</style></defs><path class="cls-1" d="M139.5.78c0-.1-.12-.3-.14-.24l.13.35Z"/><path class="cls-1" d="M139,.25a2.52,2.52,0,0,0,.28.81c-.11-.35,0-.22-.16-.64,0,0,.11.08.16.22,0-.1.09,0,0-.18s-.24-.23-.2,0A.89.89,0,0,1,139,.25Z"/><path class="cls-1" d="M135.05,1.52l0,0A.06.06,0,0,0,135.05,1.52Z"/><path class="cls-1" d="M132.74,2.59a.09.09,0,0,0,0-.08A.12.12,0,0,0,132.74,2.59Z"/><path class="cls-1" d="M132.15,2.46h0S132.14,2.43,132.15,2.46Z"/><path class="cls-1" d="M135.05,1.52l-.11-.08C135,1.55,135,1.51,135.05,1.52Z"/><path class="cls-1" d="M138.84,1.31a.41.41,0,0,0,0-.1s0,0,0,.05Z"/><path class="cls-1" d="M135.9.72h0l-.06-.15Z"/><path class="cls-1" d="M136.65.28a1.85,1.85,0,0,0,.17.42c0-.13-.07-.19-.06-.22Z"/><path class="cls-1" d="M138.12.21v0Z"/><path class="cls-1" d="M135.32.94l-.06-.1Z"/><path class="cls-1" d="M118.94,17.91l0,0Z"/><polygon class="cls-1" points="117.08 17.73 117.07 17.71 116.93 17.6 117.08 17.73"/><path class="cls-1" d="M131.25,2.53h0S131.25,2.51,131.25,2.53Z"/><path class="cls-1" d="M125.41,7.07c.25.17.13.37.43.54C125.75,7.52,125.61,7.15,125.41,7.07Z"/><path class="cls-1" d="M138.8,1.28s0,0,0,0S138.8,1.3,138.8,1.28Z"/><path class="cls-1" d="M125.84,7.61h0l0,0Z"/><path class="cls-1" d="M129.8,3.71l.09.11A.35.35,0,0,0,129.8,3.71Z"/><path class="cls-1" d="M131.2,3.34l0,0Z"/><path class="cls-1" d="M129.47,4.49s-.06,0-.06,0l0,0S129.42,4.46,129.47,4.49Z"/><path class="cls-1" d="M128.86,4.92l0,0v0Z"/><path class="cls-1" d="M120.16,16.12a1.67,1.67,0,0,1-.24-.16C120.1,16.1,120.1,16.23,120.16,16.12Z"/><path class="cls-1" d="M138.76,1.15c0,.07.05.11,0,.13l0,0A.36.36,0,0,0,138.76,1.15Z"/><path class="cls-1" d="M130.9,6.59l-.12,0A.17.17,0,0,0,130.9,6.59Z"/><path class="cls-1" d="M123.56,12.33v0S123.58,12.36,123.56,12.33Z"/><path class="cls-1" d="M130.53,6.85a.93.93,0,0,0-.18-.15l0,.08Z"/><path class="cls-1" d="M119.91,16h0Z"/><path class="cls-1" d="M120,17c.07-.08-.29-.3-.47-.47,0-.17.28.15.48.25,0-.13-.3-.42-.25-.46a.67.67,0,0,1,.14.11c-.21-.27.15-.2-.12-.55l.09.06a5,5,0,0,1-.45-.36s-.15-.24.07-.08c0,0,.06.09.12.16l-.06-.12c.33.22.06.15.29.33,0-.16-.22-.46-.09-.44.31.23,0,.22.32.36h-.19c.53.32-.07,0,.48.38.19-.05,0-.26.14-.3-.14-.17-.25-.2-.39-.37-.15-.41.86.51.57.05-.17-.2-.54-.53-.26-.45l.31.32c.13-.09-.43-.48-.1-.41.11.14,0,.19.09.21.33.15-.15-.22-.09-.28l.3.24c.06-.16,0-.48,0-.66a.88.88,0,0,0,.27.24c0-.3.35-.33.67-.32l-.2-.29s.14.08.17.14-.15-.15-.22-.27.18.08.24.17c-.11-.29-.17-.72.2-.59l0,.09c.18,0-.41-.57-.1-.44l0,.06c.28-.09.26-.52.76-.31-.32-.36.34,0-.13-.52.35.13.4.25.71.26.06,0-.24-.36-.24-.46l.25.25-.2-.33.34.26,0-.11s-.15-.07-.22-.15.35,0,.48.13l0-.38a.71.71,0,0,1,.14.25c-.16-.35.28.25.13-.07a1.8,1.8,0,0,1-.19-.21c.19.11.29,0,.3-.11l.15.19c.17-.08.19-.34.34-.48-.13,0-.41-.35-.39-.42l.27.26c-.13-.2-.14-.06-.28-.32.09,0,.33.27.38.39l0-.16a3.11,3.11,0,0,1,.2.25c-.13-.2.37.16.13-.17l.08.08c.15-.14.13-.29.23-.42-.21-.24-.12-.23-.26-.45.16,0,.43.09.52,0s-.16-.23-.25-.4c.2.21.29.1.37.3a.67.67,0,0,0,.13-.51c-.09-.08-.15-.1-.2-.18s.15,0,.24.14v0c-.1-.5,1,.27.73-.32v0l0-.37c.11,0,.1.2.27.29-.14-.51.32-.16.24-.53.66.58.35-.36.84,0l-.13-.16c-.09-.18.11.06.17.07-.1-.12-.15-.11-.2-.21.16-.46.86-.3,1.3-.41.15,0-.58-.89-.13-.62l.19.33c0-.55.51-.37.53-.86,0,.08.11.17.08.19.22.18.2-.13.07-.31,0,0,.13.16.22.23s-.08-.38.11-.18a.21.21,0,0,1,0,.11c0-.13.18-.09,0-.32.18.06.1-.24.28-.15-.15-.32.26,0,0-.39.29.43.4.22.32,0,.07.14.15.1.25.29.06,0,.07-.17-.1-.38.48.42,0-.58.5,0a2.72,2.72,0,0,1,.24-.88c.28.44-.17.18.14.63.05-.29-.09-.73.15-.75.09,0,.1.21.13.29.06-.29.37-.18.38-.51a.57.57,0,0,1,0,.14s.11,0,0-.18V5c-.24-.25-.26-.68-.35-.83.3.6.24,0,.62.81a.79.79,0,0,0-.13-.29c.06,0,.11.09.18.26,0-.18-.13-.36,0-.42a2.09,2.09,0,0,1,.13.26c-.07-.22-.14-.44,0-.41s.09.13.06.15c.13-.13-.05-.67.22-.59.21.46.14.11.37.47l0-.16-.14-.16c.08,0,0-.35.13-.27l0,.19.11-.16-.17-.09c0-.23-.29-.46-.12-.42,0,0,.08,0,.25.16h0c0-.14-.06-.29.05-.23s.23.41.28.48c-.14-.33.14-.19,0-.55a1.54,1.54,0,0,0,.17.32l-.11-.27a.58.58,0,0,1,.19.26c.14,0-.3-.45-.06-.33a.29.29,0,0,1,0,.11c.19,0,.16-.3.35-.25.25.36,0,.15.17.45.13-.17.1-.66.32-.66l-.05,0c-.27-.54.27.2.22-.1a.88.88,0,0,0,.11.25c.16,0,.16-.26.25-.53l.05.15c.14.09.22,0,.33,0-.06-.15,0-.15-.13-.34.64.67.21-.66.76-.1,0,0,0,.15,0,.14l.11-.22c-.13-.23-.09-.13-.22-.29s-.06-.29,0-.31c0,.2.19.38.29.49l-.11-.22c.31.37-.23-.49,0-.27l.06.13c0-.09,0-.27,0-.26.16.26,0,.15.13.38.06-.05-.12-.59.08-.35,0,.09,0,.11,0,.2.23.29.2.21.28.23h0l.19.08-.07-.07c-.27-.76.11-.22,0-.75.11.5.11.27.25.58a.64.64,0,0,1,.2.24c-.07-.28.19.15.09-.26.05.1.07,0,.18.24,0-.11-.11-.16-.16-.29-.05-.41.47.29.41-.26,0-.26-.08-.61,0-.85a.77.77,0,0,1,.13.39c.15.12.19.06.2-.08a1,1,0,0,0,.15.26c0-.05-.13-.38,0-.27a3.19,3.19,0,0,1,.13.44c0-.12,0-.34,0-.47a1.31,1.31,0,0,1,.11.42.67.67,0,0,0,0-.54l-.09-.08s.12.23.13.29c0,.25-.14,0-.19-.15l0-.09c-.32-.57-.15.18-.26.19l-.16-.45.07.41a1,1,0,0,1-.19-.43c-.16-.18,0,.18-.16,0a.13.13,0,0,1,0-.07V.37c0-.1-.15-.3-.08-.26-.24-.19,0,.41-.24.11v0c-.1.22.14.32.19.75L137.51.2l.13.32s-.06,0-.12-.14c0,.25.08.13.14.36-.22-.25-.17.24-.43-.25.09.25.17.14.16.35-.28-.52,0,.15-.25-.06s0-.18-.17-.39c.19.49-.19,0-.21.09.18.38-.07.23-.11.4-.06-.12-.31-.1-.47-.18l0-.07c.17.39,0,.37,0,.48A1.12,1.12,0,0,1,136,.67l-.07,0A.46.46,0,0,1,136,1l-.13-.29c-.08.06,0,.42-.23.3.13.26.47.67.44.91a1.59,1.59,0,0,1-.21-.45s0,.14,0,.09l-.07-.26c-.11-.08.07.21,0,.21-.11-.2-.11-.12-.19-.29,0,0,.08.07.06,0a.57.57,0,0,1-.29-.24c.06.11.14.27.12.32s-.16-.23-.27-.3c.05.15-.08,0,.07.34,0,0-.1-.12-.16-.2,0,.16-.2.16,0,.45h0v0h0c0,.38-.42,0-.51.22l-.05-.1c0,.16-.17.18-.12.43,0,0-.16-.15-.22-.27,0,.11,0,.22-.17.12,0-.21-.11-.14,0-.17-.14,0-.25-.18-.2.15-.11-.27-.25-.28-.25-.18l.17.15c0,.06-.08.06-.14.07l-.17-.35c-.42-.29.06.88-.47.29.09.26.2.11.31.4-.11,0-.48-.41-.51-.4-.22-.11.18.55,0,.5.09.1.29.41.26.57s-.4-.43-.4-.55,0,0,.07,0a.27.27,0,0,0-.1-.24l.06.12c-.12-.09-.23,0-.31-.22a.23.23,0,0,0,.17.24c-.21-.1-.18.1-.36,0,.06.06.16.18.14.19-.25,0,.06.27,0,.39-.17-.14-.23-.44-.25-.22a.7.7,0,0,1-.24-.41c0,.29-.28,0-.36,0V2.25c0,.08,0,.09-.05.11l.18.21c-.06,0-.09,0-.15-.1.06.17.27.37.33.62-.11-.09-.05.2-.25-.09.19,0-.21-.3-.13-.42,0,0,0,.06-.08,0a.12.12,0,0,1,0-.09c-.3-.19.16.39,0,.46-.09-.18-.23-.31-.23-.25s.2.27.24.43c-.17-.08,0,.15-.08.17l.09,0c.09.18,0,.18,0,.27-.09-.13,0-.12-.06-.17.13.34-.35-.22-.31,0-.11-.09-.21-.32-.3-.37.05.29-.26-.16-.24.09a.67.67,0,0,1,.22.42l.06-.27.11.4c.05,0,0-.21.07-.2a.55.55,0,0,0,.19.34c-.3-.3,0,.29-.24.12l-.37-.57c-.29-.17,0,.44-.28.4l.11.07c.13.23-.07.09-.06.22a1.52,1.52,0,0,0-.31-.34c.1.14-.12.07.12.45l-.24-.2c-.2,0,.22.63,0,.65-.1-.23-.25-.32-.27-.52,0,0-.1,0,0,.15-.11-.1.06.32-.1.17,0,.1.17.29.11.31a.43.43,0,0,1-.06-.09c.06.09,0,.17.2.35-.53-.49-.32.29-.78-.12a.93.93,0,0,1-.17.33c0-.06-.07-.09,0-.09-.23-.09.31.58.05.48-.28-.25-.05-.21-.17-.29-.46-.59-.09.19-.43-.1v0c-.21-.16,0,.34-.12.37L128,5.53a1,1,0,0,1,.06.72,1.28,1.28,0,0,0-.24-.38c0,.07.3.37.26.51a2.44,2.44,0,0,1-.47-.41l.07-.08c-.29-.3-.1.09-.19.07l-.1-.15c-.09.15.18.51,0,.59l.1.09c.2.41-.22-.15-.09.17l-.3-.34a2.14,2.14,0,0,1,.06.62,2.75,2.75,0,0,1-.22-.73.27.27,0,0,0,0,.36c0-.05,0-.16,0-.12.16.33.19.52.09.59-.53-.7-.39,0-.89-.45,0,.4-.42.18-.59.38.51.47,0,.06.42.59,0,.08,0,.08-.08.05l-.4-.21c-.17-.12-.06-.15-.16-.27-.14,0-.24-.19-.43-.28.18.18.2.31.08.28l.29.18c.1.4-.5-.35-.41.05l-.09-.2c0,.16-.28.22,0,.71-.06,0-.2-.18-.21-.25-.22.09,0,.79-.34.65l-.1-.14c0,.06.16.29,0,.19s-.1-.14-.12-.13.12.3,0,.26l-.09-.18c-.32,0,.06.58,0,.79-.34-.38-.58-.38-.7-.38l0-.06c-.23.14,0,.61-.07.92-.48-.3-.52.18-.91.12a.9.9,0,0,1,.28.35c-.12,0,.13.36-.19,0h0c-.34-.29-.35-.13-.42-.07l.42.44c-.79-.46-.2.66-.85.2.07.14,0,.19.08.34l-.23-.23a.4.4,0,0,0-.33.27l-.14-.19c-.09.06.57.75.52.83L121,11.3c-.13.14-.57,0-.38.43,0-.05-.15-.15-.14-.19s-.48,0,0,.46c-.32-.29-.16.12-.09.32l-.23-.23c.24.35.33.42.33.59,0,0-.21-.16-.12-.13-.19,0,.17.26,0,.23l-.12-.17c-.09.05,0,.12.14.32s-.19.08-.41-.1c.12.13.26.32.16.31A.41.41,0,0,1,120,13c-.28,0,.11.43-.2.31a.56.56,0,0,0-.15-.11c.09-.1.17-.16.18-.14-.22-.2-.32-.15-.57-.49.11.22.37.65.2.63l-.08-.06,0,0s0,0,0,.08-.1,0-.12,0c-.19-.15-.18,0-.22,0,.24.21.16.22.4.35,0,0,0,0,0-.07a.08.08,0,0,0,0,0l0,0,.07-.11c.09.14.17.26,0,.19l.34.4c-.38-.24-.66-.3-.88-.47,0,.24-.16.37.24.84,0,.08-.17-.08-.25-.12s0-.08-.06-.15c.06.17-.13.24.18.53-.22,0-.26-.3-.31-.13l-.08-.1c-.72-.19.51,1.08-.37.79a.53.53,0,0,1,.14.06c-.55.07-.23.84-.94.78-.16,0,0,.18.16.36l-.28-.19.24.33c.14.31-.84-.29-.52.21l.2.12c-.08,0,0,.27-.24.1,0,0,.18.16.07.11l-.15-.11.14.33c-.19,0-.57-.44-.72-.3a1.41,1.41,0,0,0,.41.54s.14,0,.29.11l0,.11a3.86,3.86,0,0,0,1.24.77l-.2-.28.23.12,0,.09c.23.1.07-.05,0-.17a.88.88,0,0,0,.26.13l-.34-.4c.17.12.3.29.44.3-.16-.18-.41-.24-.48-.4.23.1.37.23.25.06a.67.67,0,0,1,.21.19c-.1-.14,0-.16-.18-.36.28.14.06-.2.46.11-.09-.09-.26-.32-.24-.37.42.44.15-.14.65.28-.39-.39,0-.36-.2-.64,0,0,.09.1.06.09s.22.05.33.08a2.54,2.54,0,0,1-.54-.65c.39.2.38.37.72.6-.29-.22-.19-.34-.44-.5a1.43,1.43,0,0,1,.45.24c-.43-.36,0-.11-.27-.37.27.1.42.31.36.12A.64.64,0,0,1,120,17Zm.87-2.55h0l0,0Zm.14-.16a.13.13,0,0,0-.07.06c-.09-.07-.17-.15-.15-.16A.76.76,0,0,0,121.05,14.31Zm-2-1.13c0-.06.05,0,.1,0a.15.15,0,0,0,0,.07l0,0Z"/><path class="cls-1" d="M119.35,13.5v0l.07,0-.07-.08Z"/><path class="cls-1" d="M135.1,1.55h0l0,0Z"/><polygon class="cls-1" points="123.51 12.61 123.45 12.55 123.49 12.61 123.51 12.61"/><path class="cls-1" d="M136.67,2l.05.07Z"/><path class="cls-1" d="M137.16,1.81l.11.07Z"/><path class="cls-1" d="M137.58,1.78l-.06-.13h0Z"/><path class="cls-1" d="M132.39,5.14v0C132.39,5.23,132.39,5.19,132.39,5.14Z"/><path class="cls-1" d="M133.56,3.53a1.43,1.43,0,0,1,0,.16S133.65,3.69,133.56,3.53Z"/><polygon class="cls-1" points="130.91 6.59 130.91 6.58 130.9 6.59 130.91 6.59"/><path class="cls-1" d="M133.51,3.73c.06,0,.08,0,.08,0S133.51,3.67,133.51,3.73Z"/><path class="cls-1" d="M139.17,1.2h0l0-.05Z"/><path class="cls-1" d="M139.17,1.15v0S139.16,1.12,139.17,1.15Z"/><path class="cls-1" d="M139.18,1v.09S139.21,1.1,139.18,1Z"/><path class="cls-1" d="M138.64,1.28l0,.1Z"/><path class="cls-1" d="M138.51,1.37s.19.19.21.1l0-.09C138.73,1.55,138.46,1.18,138.51,1.37Z"/><path class="cls-1" d="M137.29.34l.16,0c-.07-.1-.17-.24-.13-.29C137-.19,137.47.31,137.29.34Z"/><path class="cls-1" d="M136.84.37c0-.09-.08-.16-.11-.23C136.74.26,136.74.29,136.84.37Z"/><path class="cls-1" d="M134.15,1.77,134,1.51C134,1.58,134.07,1.61,134.15,1.77Z"/><polygon class="cls-1" points="134.4 3.38 134.54 3.51 134.43 3.26 134.4 3.38"/><polygon class="cls-1" points="133.06 1.74 133.06 1.69 133.04 1.83 133.06 1.74"/><path class="cls-1" d="M128.81,4.61l.22.29C129,4.82,128.79,4.48,128.81,4.61Z"/><path class="cls-1" d="M127.25,6.23c-.13-.13-.25-.19-.17,0C127.14,6.2,127.26,6.28,127.25,6.23Z"/><polygon class="cls-1" points="121.87 10.14 121.82 10.03 121.83 10.16 121.87 10.14"/><path class="cls-1" d="M148.92,27.44c0-.09.09-.31,0-.28l-.12.36Z"/><path class="cls-1" d="M148.87,26.7a2.88,2.88,0,0,0-.28.81c.13-.34.1-.19.26-.6,0,0,0,.14,0,.27,0-.09,0,.09.12-.13s0-.32-.15-.1A1.49,1.49,0,0,1,148.87,26.7Z"/><path class="cls-1" d="M145.64,25.33v.05S145.65,25.34,145.64,25.33Z"/><path class="cls-1" d="M143.56,24.72a.08.08,0,0,0,0-.07A.15.15,0,0,0,143.56,24.72Z"/><path class="cls-1" d="M143.26,24.25l0,0S143.27,24.22,143.26,24.25Z"/><path class="cls-1" d="M145.64,25.33l0-.13C145.58,25.32,145.62,25.3,145.64,25.33Z"/><path class="cls-1" d="M148.18,27.47l.06-.09,0,0Z"/><path class="cls-1" d="M146.64,25.23h0l0-.15Z"/><path class="cls-1" d="M147.36,25.34a3.55,3.55,0,0,0-.13.43.61.61,0,0,1,.09-.21C147.33,25.5,147.34,25.43,147.36,25.34Z"/><path class="cls-1" d="M148.35,26.16l0,0Z"/><path class="cls-1" d="M146.14,25.05l0-.12Z"/><path class="cls-1" d="M126,26.49v0S126,26.49,126,26.49Z"/><polygon class="cls-1" points="125 25.01 125.01 24.99 124.99 24.81 125 25.01"/><path class="cls-1" d="M142.65,23.73h0S142.67,23.71,142.65,23.73Z"/><path class="cls-1" d="M136.39,23.32c.05.29-.13.37,0,.69C136.34,23.89,136.47,23.51,136.39,23.32Z"/><path class="cls-1" d="M148.17,27.42h0Z"/><path class="cls-1" d="M136.34,24h0v0Z"/><path class="cls-1" d="M141.07,23.7v.15A.62.62,0,0,0,141.07,23.7Z"/><path class="cls-1" d="M142.16,24.32l0-.05A.06.06,0,0,0,142.16,24.32Z"/><path class="cls-1" d="M140.41,24.08s0-.07,0,0v0C140.38,24,140.4,24,140.41,24.08Z"/><path class="cls-1" d="M139.78,24v.07l0,0Z"/><path class="cls-1" d="M127.83,26.15c0-.09,0-.19,0-.29C127.81,26.09,127.73,26.18,127.83,26.15Z"/><path class="cls-1" d="M148.23,27.29c0,.08,0,.12-.06.13h0Z"/><path class="cls-1" d="M140.08,26.6l-.09-.06S140.05,26.6,140.08,26.6Z"/><path class="cls-1" d="M132.17,25.88l0,0S132.16,25.92,132.17,25.88Z"/><path class="cls-1" d="M139.71,26.56a1.88,1.88,0,0,0,0-.23l0,.08Z"/><path class="cls-1" d="M127.78,25.86Z"/><path class="cls-1" d="M127.22,26.68c.09,0,0-.42,0-.66s.08.31.13.52c.06-.12.08-.51.13-.5a.9.9,0,0,1,0,.18c0-.34.21,0,.26-.46l0,.1a5,5,0,0,1-.07-.58s.06-.27.1,0c0,0,0,.11,0,.2l0-.13c.07.39,0,.14,0,.44.08-.14.15-.48.22-.37.05.39-.14.14,0,.48l-.11-.14c.12.61-.07,0,.06.61.14.1.13-.21.27-.11,0-.21,0-.31,0-.53.16-.4.23,1,.32.44,0-.26,0-.76.11-.5v.44c.13,0,0-.64.18-.35,0,.17-.09.15-.07.2.12.34.05-.25.11-.26l0,.39c.14-.07.27-.36.41-.44a1,1,0,0,0,0,.35c.18-.2.41,0,.6.25l.06-.34a.59.59,0,0,1,0,.22c.08.12,0-.22,0-.35s.06.19,0,.29c.11-.29.33-.63.48-.27l0,.1c.1.13.08-.7.19-.39v.06c.23.14.46-.18.65.33,0-.49.23.21.22-.47.14.33.11.46.29.68,0,0,.06-.43.12-.5V26l.07-.38.05.42.06-.09a.49.49,0,0,1-.05-.26c.08-.16.21.25.22.43l.2-.31a.91.91,0,0,1-.06.29c.1-.37,0,.37.12,0a1.41,1.41,0,0,1,0-.29c.06.22.17.22.25.13v.24c.15.07.32-.11.49-.11a1,1,0,0,1,0-.57l0,.37c0-.23-.05-.14,0-.42.06,0,0,.42,0,.54l.08-.13c0,.12,0,.18,0,.32,0-.23.13.37.18,0v.11c.17,0,.25-.12.39-.14,0-.32.06-.25.11-.51.1.1.21.36.33.34s0-.27.07-.47c0,.3.13.27.06.48.15,0,.19,0,.38-.28a1.42,1.42,0,0,1,0-.28s.07.13.07.27v0c.22-.43.45.87.64.26v0l.19-.3c.07.05-.06.21,0,.4.21-.48.29.09.46-.23.07.87.43,0,.55.52v-.2c0-.2,0,.12.07.16,0-.15,0-.18,0-.29.36-.23.7.35,1,.56.13.07.16-1,.29-.55l-.08.38c.3-.44.54.06.83-.3,0,.09,0,.2-.06.2,0,.28.2,0,.23-.19,0,0,0,.2,0,.32s.17-.34.17-.06a.29.29,0,0,1,0,.11c.05-.13.16,0,.16-.27.08.16.2-.12.26.07.09-.35.14.19.22-.31-.07.52.12.43.21.2,0,.15,0,.17,0,.38.08,0,.15-.08.17-.35.05.63.32-.46.3.34a2.26,2.26,0,0,1,.66-.51c-.08.51-.21,0-.28.56.21-.19.37-.61.53-.47s-.06.22-.08.31c.2-.19.33.1.53-.16a.39.39,0,0,1,0,.13s.06.09.09-.14l0,.06a3.51,3.51,0,0,1,.26-.87c-.15.66.13.19-.08,1a.7.7,0,0,0,.09-.3.47.47,0,0,1,0,.31c.13-.1.13-.36.23-.34a1.82,1.82,0,0,1-.08.29c.09-.22.18-.43.25-.32s0,.16-.05.15c.15,0,.35-.54.47-.31-.12.49,0,.17,0,.6l.11-.11v-.21c.07,0,.19-.28.23-.13l-.08.16.15,0,0-.17c.11-.21.08-.54.17-.4s.07,0,.07.27h0c.06-.13.12-.26.16-.15s-.09.47-.1.56c.1-.35.19-.07.31-.43a3.34,3.34,0,0,0-.08.35l.09-.28a.64.64,0,0,1,0,.32c.1.07.07-.54.15-.29,0,0,0,.07,0,.1s.27-.13.36,0c0,.43-.12.08-.14.45.18-.05.44-.45.58-.31l0,0c.14-.6.06.31.2,0,0,0-.09.33-.08.26.1.12.26-.1.47-.25l-.06.15c0,.15.16.11.21.19a.64.64,0,0,0,.11-.34c0,.92.52-.38.55.39,0,0-.08.12-.06.12l.19-.1a1.22,1.22,0,0,0,0-.37c.06-.15.13-.26.17-.25a1.06,1.06,0,0,0-.09.57l.06-.25c0,.48.13-.51.18-.18l0,.14c.06-.06.14-.23.18-.18,0,.3-.08.13-.14.37.07,0,.26-.53.25-.22,0,.08-.08.07-.13.14,0,.37,0,.28,0,.35h0l.08.18v-.1c.27-.76.2-.1.43-.58-.22.45-.08.27-.17.61a.75.75,0,0,1,0,.3c.12-.26,0,.24.2-.14,0,.11.06,0,0,.29.09-.07,0-.19.07-.33.2-.34.13.52.41,0,.18-.17.3-.53.47-.68a1,1,0,0,1-.14.39c0,.17.08.16.18.05a.84.84,0,0,0-.06.3c.06,0,.13-.39.16-.21s-.11.31-.16.42c.08-.08.19-.27.28-.35a1.61,1.61,0,0,1-.17.39.68.68,0,0,0,.32-.42v-.11s-.06.26-.09.3c-.12.22-.06-.12,0-.23l.06-.06c.12-.64-.2.06-.28,0l.16-.45-.19.36a1,1,0,0,1,.13-.45c0-.24-.1.15-.09-.12a.15.15,0,0,1,0-.08l-.1.13c0-.1.08-.33.1-.26,0-.29-.27.3-.22-.06l0,0c-.2.11-.1.33-.32.7l.13-.86-.1.34s0-.05,0-.18c-.11.21,0,.15-.11.36,0-.33-.25.09-.13-.46-.09.26,0,.22-.1.38.12-.59-.12.08-.13-.2s.13-.12.12-.41c-.16.5-.11-.14-.19-.06-.1.41-.17.14-.3.25,0-.13-.14-.26-.2-.43l0-.07c-.11.41-.19.31-.28.38a1.56,1.56,0,0,1,.16-.45h-.07a.43.43,0,0,1-.13.23l.08-.3c-.09,0-.25.32-.32.09-.07.28-.08.82-.24,1a2.55,2.55,0,0,1,.12-.48s-.06.13-.07.05l.11-.25c0-.12-.08.22-.11.18,0-.22,0-.16,0-.34,0,0,0,.1.05,0a.57.57,0,0,1-.05-.36.78.78,0,0,1-.11.32c-.09,0,0-.28,0-.4-.05.15-.07,0-.14.31,0,0,0-.16,0-.26-.08.14-.22,0-.25.37v0h0c-.22.3-.27-.25-.44-.14l0-.11c-.12.11-.21,0-.32.26,0,0,0-.21,0-.34-.08.07-.11.19-.17,0,.1-.18,0-.18.09-.13-.07-.11-.05-.29-.2,0,.08-.28,0-.37-.06-.29l0,.22s-.09,0-.13,0l.1-.37c-.1-.49-.47.72-.47-.07-.1.26.06.21,0,.5-.08-.06-.07-.62-.09-.62-.08-.23-.21.53-.3.36a1.3,1.3,0,0,1-.17.61,1.17,1.17,0,0,1,.07-.68s0,0,0,.09a.29.29,0,0,0,.08-.25l0,.13c0-.14-.13-.15-.07-.37a.3.3,0,0,0,0,.3c-.07-.21-.16,0-.25-.19a1.1,1.1,0,0,1,0,.24c-.14-.19-.12.24-.23.28,0-.21.1-.48,0-.33a.7.7,0,0,1,.09-.46c-.15.24-.16-.2-.22-.26l.08-.1c-.05.06-.07.06-.1.05V24c0-.05-.05-.05,0-.16a6.16,6.16,0,0,1-.15.68c0-.15-.15.12-.11-.23.11.14,0-.37.16-.41s0,0-.08,0a.62.62,0,0,1,0-.1c-.07-.34-.12.4-.25.37,0-.2,0-.39,0-.35s0,.34-.09.49c-.06-.17-.11.1-.15.08l0,.08c0,.2-.09.16-.15.22,0-.16.07-.1,0-.17-.11.34-.09-.39-.21-.17,0-.14.05-.38,0-.47-.14.24-.07-.3-.21-.09a.74.74,0,0,1-.1.46l.2-.17-.17.38c.05,0,.13-.15.16-.1a.59.59,0,0,0-.08.37c0-.41-.17.22-.22-.07l.1-.67c-.09-.31-.27.32-.41.13l0,.12c-.06.27-.11,0-.17.13a1.66,1.66,0,0,0,0-.45c0,.16-.11,0-.19.41l0-.3c-.12-.14-.23.62-.34.53.06-.24,0-.41.13-.57s-.07-.06-.09.1c0-.15-.16.29-.17.07,0,.09-.06.33-.11.3a.54.54,0,0,1,0-.11.93.93,0,0,0-.08.4c0-.72-.37,0-.41-.6a.94.94,0,0,1-.3.13c0-.06,0-.11,0-.09-.09-.22-.14.64-.24.4s.09-.19.06-.34c.06-.74-.17.09-.21-.35l0,0c0-.26-.19.26-.29.2a1.05,1.05,0,0,0,0-.12,1,1,0,0,1-.38.58,1.31,1.31,0,0,0,.07-.44c-.05,0,0,.47-.13.55a2.84,2.84,0,0,1-.06-.62h.09c0-.42-.11,0-.15-.07l0-.18c-.15.05-.18.49-.33.45v.14c-.12.44-.05-.26-.16.07v-.46a2,2,0,0,1-.32.5,3.27,3.27,0,0,1,.29-.68s-.18,0-.22.23c0,0,.05-.15.07-.07-.09.35-.19.51-.29.5.08-.88-.26-.25-.29-.93-.21.32-.36-.16-.58-.12,0,.69-.07,0-.09.72-.06,0-.07,0-.08,0l-.13-.42c0-.21.06-.15.06-.31s0-.3-.09-.49c0,.25-.06.36-.12.26l.07.32c-.17.37-.1-.59-.28-.23l.06-.22c-.08.13-.29,0-.4.54a.67.67,0,0,1,0-.32c-.19-.09-.45.59-.59.24l0-.17s-.07.32-.11.14,0-.17,0-.18-.1.3-.14.2l0-.2c-.18-.23-.3.47-.46.58a1,1,0,0,0-.2-.76v-.07c-.22-.06-.38.42-.58.62-.12-.55-.42-.24-.63-.54a.9.9,0,0,1,0,.44c0-.1-.12.35-.12-.11h0c0-.45-.14-.33-.21-.34v.6c-.21-.87-.52.34-.64-.45,0,.15-.1.15-.15.31v-.33a.31.31,0,0,0-.37,0l0-.23c-.09,0-.09.94-.17,1l0-.49c-.16,0-.34-.4-.49,0,0-.07,0-.21,0-.23s-.31-.31-.26.35c0-.43-.16,0-.24.16v-.32c-.06.41-.05.52-.15.64,0,0,0-.25,0-.17-.09-.17,0,.3-.15.14l0-.21c-.08,0-.07.09-.1.33s-.16-.08-.19-.36c0,.17,0,.41-.09.33a.58.58,0,0,1,0-.21c-.15-.21-.18.38-.3.07a1.3,1.3,0,0,0,0-.18c.11,0,.2,0,.19,0a2.36,2.36,0,0,1-.06-.75c-.06.23-.16.72-.25.58l0-.1v0s0,0-.05.05-.06-.08-.08-.08c0-.24-.11-.13-.16-.13,0,.32,0,.27,0,.53,0,0,0,0,0-.05l0,0v0l.11,0c0,.17-.06.31-.12.13,0,.21,0,.42,0,.53-.09-.45-.23-.68-.26-1-.13.19-.32.14-.36.75,0,.08-.05-.17-.07-.26s0-.06.05-.14c-.07.16-.23.07-.21.49-.11-.18,0-.39-.11-.31v-.13c-.32-.65-.33,1.12-.7.28a.29.29,0,0,1,.05.14c-.37-.34-.64.42-1-.14-.1-.11-.08.16-.12.37l-.06-.34,0,.4c-.1.31-.33-.81-.44-.24l0,.23c-.07,0-.18.16-.2-.11,0,0,0,.24,0,.13l0-.18-.11.32c-.13-.11-.07-.71-.25-.73a1.45,1.45,0,0,0-.07.66.49.49,0,0,1,.1.29l0,.1a4.66,4.66,0,0,0,.27,1.43l.06-.34.06.26-.08,0c.08.24.08,0,.1-.13a1.21,1.21,0,0,0,.07.28l0-.52c0,.21,0,.42.09.53,0-.25-.1-.46,0-.63.08.24.09.44.12.22a.58.58,0,0,1,0,.29c0-.17.12-.08.11-.37.09.29.16-.1.21.41a1.05,1.05,0,0,1,.08-.43c0,.61.17,0,.23.66,0-.55.19-.27.26-.58,0,0,0,.13,0,.1s.1.2.15.3a3.15,3.15,0,0,1,.07-.84,5.08,5.08,0,0,1,.07.94c0-.36.1-.37,0-.67a2.39,2.39,0,0,1,.13.49c0-.56,0-.1,0-.44.11.26.08.52.15.34A.68.68,0,0,1,127.22,26.68Zm2.05-1.14h0l-.05,0Zm.19,0h-.08c0-.11,0-.23,0-.22A.59.59,0,0,0,129.46,25.52Zm-.53-2.2c0-.05,0,0,0,.08l0,0v-.12Z"/><path class="cls-1" d="M128.9,23.75s0,0,0,0l0,.07v-.1Z"/><path class="cls-1" d="M145.65,25.39h0v0Z"/><polygon class="cls-1" points="131.97 26.05 131.97 25.96 131.96 26.04 131.97 26.05"/><path class="cls-1" d="M146.41,26.68s0,.06,0,.08A.19.19,0,0,0,146.41,26.68Z"/><path class="cls-1" d="M146.82,26.85l0,.12A.5.5,0,0,0,146.82,26.85Z"/><path class="cls-1" d="M147.1,27.08l0-.13h0Z"/><path class="cls-1" d="M141.87,26.45l0,0C141.81,26.52,141.84,26.5,141.87,26.45Z"/><path class="cls-1" d="M143.54,26l-.08.14S143.5,26.14,143.54,26Z"/><polygon class="cls-1" points="140.09 26.61 140.09 26.6 140.08 26.6 140.09 26.61"/><path class="cls-1" d="M143.39,26.08c0,.07,0,.06.07,0S143.42,26,143.39,26.08Z"/><path class="cls-1" d="M148.46,27.57v0l0-.05Z"/><path class="cls-1" d="M148.49,27.54l0,0S148.5,27.51,148.49,27.54Z"/><path class="cls-1" d="M148.57,27.44l-.06.07S148.54,27.53,148.57,27.44Z"/><path class="cls-1" d="M148.07,27.32l0,.11Z"/><path class="cls-1" d="M147.93,27.32s0,.26.08.2l0-.09C148,27.59,148,27.13,147.93,27.32Z"/><path class="cls-1" d="M147.74,25.78l.09.11c0-.12,0-.29.08-.31C147.86,25.19,147.87,25.86,147.74,25.78Z"/><path class="cls-1" d="M147.43,25.52c.08,0,0-.18.07-.24C147.43,25.38,147.41,25.4,147.43,25.52Z"/><path class="cls-1" d="M144.92,25l.06-.28S145,24.8,144.92,25Z"/><polygon class="cls-1" points="144.16 26.37 144.17 26.56 144.24 26.3 144.16 26.37"/><polygon class="cls-1" points="144.25 24.27 144.28 24.23 144.18 24.32 144.25 24.27"/><path class="cls-1" d="M139.93,23.74l0,.36C139.94,24,140,23.64,139.93,23.74Z"/><path class="cls-1" d="M138,23.93c0-.18,0-.3-.09-.13S138,24,138,23.93Z"/><polygon class="cls-1" points="132.42 23.14 132.46 23.02 132.39 23.12 132.42 23.14"/><path class="cls-1" d="M116.07,93.81c-.33-.4-.51-1.11-1.26-.59.38-.74-.22-.56-.57-.61h0c-.24-.95-1.12-1.2-1.81-1.65a58.38,58.38,0,0,1-11.51-9.39,1.73,1.73,0,0,0-1.28-1.06l-.06,0a5.47,5.47,0,0,0-2.33-1.93l-1-.92-1.34-1-.6-.45a8.8,8.8,0,0,0-2.88-2.3l-.48-.4-3.2-2.67a.59.59,0,0,0-.43-.37,7.8,7.8,0,0,0-2.68-2.19c-.48-.54-.75-1.55-1.8-.78l-.09-.06a.55.55,0,0,0-.2-.88L80,64.28,76.21,61l-1.76-1.59-.6-.57-2.63-2.18-1.33-1.17a80,80,0,0,0-8.76-7.24l-1.29-1.14-.45-.44L57.7,45.37a26.19,26.19,0,0,0-2.64-2.21c-.87-.58-1.27-.23-.89.79-1.53.62-2.13-.89-3-1.49A2.93,2.93,0,0,0,48,42.17c1.21-1.9,1.21-1.9,3.32-.7l1.28,1c.31.17.55.69,1,.28s.09-.67-.23-.92l-1.49-1.09c-.45-.4-.88-.82-1.35-1.19-6.84-5.23-6.83-5.2-14.4-1.52A198.9,198.9,0,0,0,8.66,53.54c-.53.36-1.37.46-1.39,1.36l.07-.07A4.85,4.85,0,0,0,6.18,55C.86,57.26.4,59.6,4.7,63.57c3.78,3.49,7.73,6.8,11.61,10.17a1.48,1.48,0,0,0,2.08.35c-2.72-2.47-5.23-4.81-7.79-7.07-2.4-2.12-2.47-2.52.51-3.77,2.2-.92,3.89-3,6.53-2.87C15.78,61.55,14,62.81,12,63.85c-1.37.74-1.55,1.3-.35,2.37,6.87,6.12,13.7,12.3,20.56,18.43q15.61,13.93,31.27,27.83c3.33,2.94,6.85,5.67,10.18,8.61,1.4,1.24,2.41,1.16,3.88,0,6.63-5,13-10.26,20.17-14.49.58-.34,1-1.38,2-.68L81,120.25a8.67,8.67,0,0,0-1.67,1.3c-2.34,3-4.76,2.37-7.25.25a9.9,9.9,0,0,0-3-2.45,5.94,5.94,0,0,0-3-1.93c.54,1.61,1.61,2.07,2.49,2.71a9.44,9.44,0,0,0,3,2.43,36.92,36.92,0,0,0,7.8,6.15,4.73,4.73,0,0,0,5.82-.31c11.65-8.5,24-16,35.59-24.59,1.93-1.43,3-2.79,2.59-5.17,1.91,0,1.51,1.58,1.36,2.49a10.68,10.68,0,0,1-2.66,6c-2.84,2.94-6.23,5.14-9.51,7.49-8.45,6.07-16.7,12.41-25.65,17.77-4,2.42-7.26,2.13-11.11-1C59.2,117.7,43.63,103,27.52,88.82,20.14,82.35,12.7,76,5.31,69.52c-2.48-2.16-4.46-4.61-5.15-8a5.35,5.35,0,0,1,2.65-6.18A394.83,394.83,0,0,1,39.6,34.92c3.14-1.51,5.54-1.21,8.31.89C59.36,44.5,70.11,54,81.08,63.27c13.6,11.47,27.61,22.44,41.41,33.67.47.38,1.59.67.9,1.75C120.6,97.58,118.69,95.17,116.07,93.81ZM30.45,86.15Q43,97.76,55.65,109.34c.25.23.64.31,1.27.09C48.61,101.2,40.39,92.94,31.2,85.7l-.66-.57-.66-.54-1.07-1a.84.84,0,0,0-.39-.38l-.71-.63A8.13,8.13,0,0,0,25,80.32l-.61-.61-.63-.58-.87-.9-2.6-2.3a2.79,2.79,0,0,0-2.22-1.48c.07,1.26,1,1.54,1.56,2.09l2.73,2.17,1,1,.6.55.53.46L27.21,83l.6.61.6.62,1.1,1.07.66.58A1.2,1.2,0,0,0,30.45,86.15Zm35.4,31.36a28.3,28.3,0,0,0-8.64-7.62A23.47,23.47,0,0,0,65.85,117.51Z"/><path class="cls-1" d="M43.53,84.74c10.38,4.91,21.61,7.38,32.31,11.38C65.31,91.63,54.07,89.19,43.53,84.74Z"/><path class="cls-1" d="M61.33,66.43c.1,0,.26.12.28.09a1.78,1.78,0,0,0-.89-3c-2-.6-3.06-4.47-6-2a1.45,1.45,0,0,0-.56,1c.29,2.26,2.58,3,3.75,4.6.83,1.15,2.58.72,3.76-.36,0,0-.15-.31-.24-.47-.47.13-.95.28-1.42.4a1.89,1.89,0,0,1-2.31-.87c-.42-.76.13-1.37.8-1.67a1.89,1.89,0,0,1,2.41.54A2.74,2.74,0,0,1,61.33,66.43Z"/><path class="cls-1" d="M37.83,72.15c1,.48,1.46-.42,2.16-.67s1.19-.93,1.84-.09-.19,1-.44,1.5c-1.16,2.24,0,3.71,1.86,4.65,2.28,1.14,3.24-.33,3.84-2.27-1-.59-.9.45-1.2.81-1,1.22-2.08,1-3.12.11a1.93,1.93,0,0,1-.42-2.91c.61-.72,1.82-1,.5-2.22-1-.86-1.75-1.7-3-.51C39.21,71.12,38.07,71.05,37.83,72.15Z"/><path class="cls-1" d="M56.79,77.49c5.57,3.09,11.64,4.73,17.67,6.46C68.65,81.58,62.53,80,56.79,77.49Z"/><path class="cls-1" d="M56.68,86.27,45.9,82.36A34.29,34.29,0,0,0,56.68,86.27Z"/><path class="cls-1" d="M72,98.81l-9.75-3.3-.18.54,9.82,3.22Z"/><path class="cls-1" d="M48.06,42.14a23.17,23.17,0,0,0-8,4.29A17.85,17.85,0,0,0,48.06,42.14Z"/><path class="cls-1" d="M61.73,74.52c2.63,1.08,5,2.89,7.89,3.26C67,76.76,64.69,74.81,61.73,74.52Z"/><path class="cls-1" d="M65,72.59a18.87,18.87,0,0,0,8.18,3Z"/><path class="cls-1" d="M69.8,104.31l-6.89-3.39A13.66,13.66,0,0,0,69.8,104.31Z"/><path class="cls-1" d="M85.45,82.86l-7.2-2.41-.12.38L85.4,83Z"/><path class="cls-1" d="M45,67.39c1.24,2.93,2.66,1.41,4.1.48A4.47,4.47,0,0,0,45,67.39Z"/><path class="cls-1" d="M114.88,93.17l-.63-.25c-.68,1,1.6,2.61-.66,3.31,1.89.25,2.66-.65,2.51-2.48C115.36,94.25,115.1,93.75,114.88,93.17Z"/><path class="cls-1" d="M71.68,78.66c1.73.58,3.36,1.52,6.09,1.72-2.56-.86-4.2-1.87-6.17-1.64Z"/><path class="cls-1" d="M41.71,80.66A5.17,5.17,0,0,0,45,82.16,5.1,5.1,0,0,0,41.71,80.66Z"/><path class="cls-1" d="M31,51.83a5.16,5.16,0,0,0-3.12,1.89C29.3,53.66,30.54,53.36,31,51.83Z"/><path class="cls-1" d="M104.49,103a4.54,4.54,0,0,0,3.12-1.89A3.4,3.4,0,0,0,104.49,103Z"/><path class="cls-1" d="M34.06,50A6.4,6.4,0,0,0,31,51.89,2.82,2.82,0,0,0,34.06,50Z"/><path class="cls-1" d="M80.88,66.49l-1.46-1.64-1.07-.25A2.76,2.76,0,0,0,80.88,66.49Z"/><path class="cls-1" d="M57.16,46.42a1.63,1.63,0,0,0-.08-.58c-.91-.24-1.34-1.39-2.43-1.3C55.16,45.61,55.71,46.62,57.16,46.42Z"/><path class="cls-1" d="M59.35,47.82l-.61-.58L57.69,47c.47,1.13,1.05,2.11,2.52,1.88C59.93,48.5,59.64,48.16,59.35,47.82Z"/><path class="cls-1" d="M91,74.49l-.63-.56-1.08-.21c0,1.2,1.15,1.35,1.87,1.9C91.75,75.16,91.06,74.86,91,74.49Z"/><path class="cls-1" d="M87.38,71.45l-.67-.53c-.48-.14-1.09-.63-1.13.42,1,.06,1.22,1.87,2.58,1.21Z"/><path class="cls-1" d="M74,59.88l-.68-.51L72,59.14l2.14,2.19C75,60.77,74.09,60.36,74,59.88Z"/><path class="cls-1" d="M22.54,57.34c-1.36-.63-1.85.49-2.53,1.24C21.19,58.86,21.83,58,22.54,57.34Z"/><path class="cls-1" d="M102,104.13c1.23.36,1.9-.41,2.54-1.24C103.37,102.57,102.8,103.53,102,104.13Z"/><path class="cls-1" d="M37.73,48.22c-1.26-.43-1.84.52-2.53,1.25C36.39,49.74,37.06,49,37.73,48.22Z"/><path class="cls-1" d="M39.55,47c-1.07-.24-1.77.09-1.89,1.27A2.51,2.51,0,0,0,39.55,47Z"/><path class="cls-1" d="M26.77,54.26c-.8.18-1.61.36-1.89,1.29C25.87,55.64,26.65,55.43,26.77,54.26Z"/><path class="cls-1" d="M110.56,98.69a1.91,1.91,0,0,0,1.91-1.27C111.33,97.08,110.85,97.74,110.56,98.69Z"/><path class="cls-1" d="M99.63,106c.79-.2,1.6-.37,1.9-1.29C100.6,104.69,99.69,104.72,99.63,106Z"/><path class="cls-1" d="M23.73,56.08c-.62.24-1.59.15-1.25,1.3C23.05,57.1,24,57.17,23.73,56.08Z"/><path class="cls-1" d="M107.54,101.13c.66-.2,1.49-.23,1.25-1.3C108.26,100.15,107.36,100.12,107.54,101.13Z"/><path class="cls-1" d="M18.87,59.12c-.64.23-1.62.12-1.25,1.3C18.19,60.14,19.15,60.22,18.87,59.12Z"/><path class="cls-1" d="M112.4,97.49c.64-.22,1.59-.15,1.25-1.31C113.06,96.45,112.19,96.45,112.4,97.49Z"/><path class="cls-1" d="M76.6,100.44,75.21,100l0,.41h1.52Z"/><path class="cls-1" d="M108.73,99.88c.82.56,1.09,0,1.31-.64C109.34,98.9,109,99.37,108.73,99.88Z"/><path class="cls-1" d="M73.12,99.51c.16.1.28.26.41.26s.28-.15.42-.24c-.09-.06-.17-.17-.25-.16A3,3,0,0,0,73.12,99.51Z"/><path class="cls-1" d="M76.68,100.36c-.06.33,0,.59.41.51a.32.32,0,0,0,0-.16l-.53-.27Z"/><path class="cls-1" d="M35.3,49.41a1.09,1.09,0,0,0-1.32.65C34.79,50.58,35.17,50.25,35.3,49.41Z"/><path class="cls-1" d="M28,53.66a1.13,1.13,0,0,0-1.31.66C27.47,54.78,27.91,54.57,28,53.66Z"/><path class="cls-1" d="M25,55.48a1.07,1.07,0,0,0-1.32.66C24.47,56.68,24.8,56.26,25,55.48Z"/><path class="cls-1" d="M20.1,58.52c-.59-.09-1.1,0-1.3.66C19.61,59.71,20,59.37,20.1,58.52Z"/><path class="cls-1" d="M75.91,61.65c-.5,0-1-.95-1.5,0,.53.22.79,1.11,1.6.63C76,62,76,61.84,75.91,61.65Z"/><path class="cls-1" d="M92.42,76.2c-.24-.63-.49-1.22-1.31-.63C91.45,76,91.7,76.57,92.42,76.2Z"/><path class="cls-1" d="M71.6,78.74c.11-.52-.26-.58-.62-.6-.07,0-.14.11-.22.17l.92.35Z"/><path class="cls-1" d="M60.73,48.87l-.6-.08c-.44.89.13.78.68.69Z"/><path class="cls-1" d="M61.41,50.34c.12-.56-.07-.9-.67-1C60.44,50.08,61.05,50.12,61.41,50.34Z"/><path class="cls-1" d="M76.61,62.84c0-.48-.26-.65-.68-.68C75.7,62.84,75.94,63.06,76.61,62.84Z"/><path class="cls-1" d="M77.22,63.45c0-.47-.23-.68-.68-.68C76.32,63.44,76.6,63.61,77.22,63.45Z"/><path class="cls-1" d="M77.82,64.06c.07-.52-.19-.71-.68-.68C77,64,77.19,64.24,77.82,64.06Z"/><path class="cls-1" d="M78.43,64.67c.09-.54-.19-.71-.68-.68C77.55,64.63,77.88,64.77,78.43,64.67Z"/><path class="cls-1" d="M81.55,67.09a.74.74,0,0,0-.76-.68C80.65,67.07,81,67.19,81.55,67.09Z"/><path class="cls-1" d="M88.77,73.17a.61.61,0,0,0-.68-.68C87.65,73.38,88.15,73.33,88.77,73.17Z"/><path class="cls-1" d="M54.73,44.62c.06-.51-.26-.65-.67-.7C53.66,44.76,54.25,44.64,54.73,44.62Z"/><path class="cls-1" d="M89.36,73.79c.13-.58-.22-.68-.67-.69C88.42,73.81,88.79,73.9,89.36,73.79Z"/><path class="cls-1" d="M93,77.13a.7.7,0,0,0-.66-1C92.14,76.74,92.67,76.87,93,77.13Z"/><path class="cls-1" d="M110,99.31c.47,0,.77-.14.68-.69C110.11,98.55,109.74,98.64,110,99.31Z"/><path class="cls-1" d="M101.45,104.77c.42,0,1,.13.67-.69C101.76,104.18,101.24,104.13,101.45,104.77Z"/><path class="cls-1" d="M57.77,47.05c0-.51-.26-.65-.68-.69C56.65,47.25,57.24,47.12,57.77,47.05Z"/><path class="cls-1" d="M40.15,46.36c-.39.07-1-.1-.67.69C39.85,47,40.44,47.08,40.15,46.36Z"/><path class="cls-1" d="M22.46,47.37c.23.19.56.68.82.65,2-.27,3.67-1.45,5.34-2.49.52-.32,0-.89-.3-1.27a.58.58,0,0,0-.26-.13C27.37,43.88,22.44,46.62,22.46,47.37Z"/><path class="cls-1" d="M7.34,54.83c.31.59-.3.87-.44,1.3-.34,1.15.24,1.73,1.29,1.9a1.65,1.65,0,0,0,2-1.35A1.38,1.38,0,0,0,9,54.92a10.22,10.22,0,0,0-1.75,0Z"/><path class="cls-1" d="M40.9,40.13a2.32,2.32,0,0,0-.49-.27,2.27,2.27,0,0,0-.52,0c0,.1.07.28.12.28C40.26,40.18,40.53,40.15,40.9,40.13Z"/><path class="cls-1" d="M37.14,39.77c.33-.3,1.24.12,1.08-.41s-.95-.24-1.45,0v0l.44.46Z"/><polygon class="cls-1" points="37.66 43.64 37.45 43.7 37.68 43.68 37.66 43.64"/><path class="cls-1" d="M37.2,39.84l-1.09,0c0,.09.06.23.13.25a.64.64,0,0,0,.89-.38Z"/><path class="cls-1" d="M35.34,44.26c.18.08.35.22.5.21s.32-.16.48-.25a1.34,1.34,0,0,0-.5-.21C35.67,44,35.51,44.16,35.34,44.26Z"/><path class="cls-1" d="M36.77,39.41,36.9,39l-.14.35Z"/><path class="cls-1" d="M95.35,112.56a20.59,20.59,0,0,1,6.53-4.72c1.5-.63,2.54.75,3.42,1.9,1,1.36,0,2.06-.87,2.71a50.8,50.8,0,0,1-4.91,3.49c-1.55,1-4.46-.78-4.5-2.6A2.14,2.14,0,0,1,95.35,112.56Zm3.73,1.72a31,31,0,0,0,4.24-3c.34-.29,1.21-1.14.05-1.63a2.4,2.4,0,0,0-2.7.77c-1,1.17-2.94,1.21-3.47,2.79C97.54,114.34,98.32,114.72,99.08,114.28Z"/><path class="cls-1" d="M111.37,103.82c0,.86.53,1.07,1,.94a4.82,4.82,0,0,0,3.29-2.73c.17-.38-.16-1.22-.73-1A7.88,7.88,0,0,0,111.37,103.82Z"/><path class="cls-1" d="M87.13,121.32c-.71.4-1.44.26-1.94.84s-1.56.94-1.77,1.88c0,.19.48.68.79.73,1.24.21,2-.68,2.71-1.47C87.23,122.93,87.06,122.16,87.13,121.32Z"/></svg>