<svg id="Capa_1" data-name="Capa 1" xmlns="http://www.w3.org/2000/svg" viewBox="0 0 142.43 133.47"><defs><style>.cls-1{fill:#cdcccc;}</style></defs><path class="cls-1" d="M138,44.72A149.15,149.15,0,0,0,124,36Q100,22.84,76,9.72C70.69,6.81,65.35,3.91,59.93,1.16c-4-2-6-1.46-8.46,2.22-1.17,1.7-2.18,3.51-3.26,5.27-.63.62-1.55,1.06-1.33,2.18-1,.08-1.37.7-1.28,1.66-2.61,2.13-4.05,5.12-5.81,7.87,1.5-1.24,3.26-.75,5.11-.58-.84-1-2.25-.7-2.89-1.76,1.15-1.33,2.66,0,4-.62-.84-.62-1.85-.38-2.43-1.28,1-.42,1.79-1.12,2.36-1l-1.18-.64,2.86-.9c-.59-.62-1.65-.13-1.93-1,2.46-.89,4.63.57,7,1-1.63-1.68-4-1.32-5.68-2.67,2.36-.72,4.52.12,6.69,1a7.66,7.66,0,0,0-2.2-1.33A5.5,5.5,0,0,0,49.32,10c-1.12,0-.81-.8-1-1.3l4.45.36c-.91-1.11-2.27-.5-2.84-1.72a6.85,6.85,0,0,1,6.17,1.06l0,0c-.91-2.28-3.47-1.54-5.28-2.73,2.27-.45,4.11.22,6.1.84-1.29-1.65-3.37-1.15-4.93-2.34l2.88-.92-1.87-1,3.94.33c-.37-1.15-1.76-.25-2-1.36,1.8-.82,3.15.3,4.52,1,21.41,10.92,42,23.4,63.31,34.44,5,2.56,10,5.21,14.12,9.06,1.59,1.48,3.49,2.38,3.29,5.57A13,13,0,0,1,138.29,57c-.57,1-1.3.9-2.16.57.21,1.94-2.43,2.92-1.7,5-1.11-.13-.13,2.67-2,1.44h0c-.24-.17-.43-.64-.78-.16,0,0,.28.3.43.46,1.31,2-2.41,2.42-1.39,4.34-2.32.6-2.27,3.07-3.28,4.58-2,3-2.88,6.58-5.09,9.51a72.68,72.68,0,0,0-4,6.25q-5.6,9.25-11.14,18.53a42,42,0,0,0-3.92-2.9c-7.47-4.34-15-8.61-22.46-12.89-20.93-11.94-42.18-23.32-62.69-36-1.45-.9-1.22-1.32-.6-2.5.71-1.33,2.35-2.17,2.15-4a25.3,25.3,0,0,0,5.88-8.67,7.75,7.75,0,0,0,3.27-4.9c1.77-.9,2.37-2.68,3.23-4.28,2.26,0,4.53-.08,6.48,1.39.24-1.57-1.2-1.17-1.91-1.61-1-.62-2.52-.09-3.22-1.4a19.33,19.33,0,0,1,6.8.69c-1.63-1.22-3.7-1.26-5.62-1.92,1-1.43,2.29-.35,3.49-1.08L35.82,27c.78-1.47,2.07-.33,2.88-1-.18-.7-1.29-.06-1.45-1.16l3.6.29c-.77-1.25-2.57-.26-3-1.84,1.14-.83,2.45-.3,3.73-.37-.33-1-2.08,0-2-1.5-1.65-.37-1.6.87-1.8,1.88a13.31,13.31,0,0,0-4.54,6.47c-1.14,0-1.35.73-1.31,1.66-1.73.95-2.29,2.78-3.24,4.33h0a23.7,23.7,0,0,0-3.28,4.9h0a62.56,62.56,0,0,0-5.9,8.71l0,0c-1.19,1.66-2.5,3.25-3.52,5-1.28,2.2-.3,4.33,2.16,5.21,0,1.2,1.07,1.48,1.77,2,8.22,6.34,17.1,11.67,26.05,16.9Q65,89.54,84,100.42c5.86,3.33,11.82,6.49,17.8,9.58,3.62,1.88,4.74,1.45,6.87-2Q124.54,82,140.34,56.11C143.64,50.71,143.15,48.34,138,44.72ZM23.7,62.65c-.06.06-.15.17-.18.16a6.61,6.61,0,0,1-.55-.37l-4.66-2.88c-.47-1.05-1.94-1.54-1.68-3.36,2.73,1,4.74,2.92,7,4.48.81.57-.52,1-.41,1.6Zm2.88,2.23a8.54,8.54,0,0,1-.72-.63L25,63.93c-.3-.26-1.05-.48-.77-.83.43-.52.9-.05,1.17.46l.69.52c.28.18.54.37.81.56C26.81,64.72,26.62,64.91,26.58,64.88Zm73.1,42.27c-4.19-2.29-7.87-5.52-12.58-6.85-.95-.27-.72-1.52-1.54-1.89-1.62-.74-2.56-2.59-5-2.2-1.71.28-2.56-2.08-4.3-2.89-4.79-2.24-9.28-5.25-14-7.5-3.54-1.68-7.17-3.08-10.38-5.4.38-.44,1,.22,1.26-.39a56.59,56.59,0,0,0-13.28-6.55c-.66-.21-2.33-.11-.94-1.77.49-.59-.7-1.18-1.25-1.66-1.78-1.55-4.23-2.13-5.82-4-.31-.21-1.11-.19-.68-.8.28-.38.78.13,1.14.36a115.65,115.65,0,0,1,13.83,8.58c6.1,4.28,13,7.47,19.5,11.13a60.52,60.52,0,0,1,7.41,4.24c2.56,2,5.87,2,8.41,3.9.43.32,1.25.32,1.07,1.16.91-.44,1.57.29,2.06.73,5.34,4.88,12.28,7.27,17.92,11.66.73.57,1.73.84,2.1,2A12.08,12.08,0,0,1,99.68,107.15Z" transform="translate(0 0)"/><path class="cls-1" d="M38.52,32.88h0a1.29,1.29,0,0,1,.44,0c.26.09.39,0,.21-.16s-.43.09-.66.15h0Z" transform="translate(0 0)"/><path class="cls-1" d="M118.25,59.54c.87-16-12.45-27.18-24.45-28.31C73.9,29.36,63.68,41.35,62.11,58.36c-1.32,14.3,10.83,26,27.76,28.52C100.25,89,117.4,75.24,118.25,59.54Zm-50.16,14c-9.3-13.05-4.52-32.32,10.06-39a27.3,27.3,0,0,1,26.43,1.66l.78.35c4.69,4.54,10.14,8.63,11.16,15.69C117.93,62,116,70.7,108.2,77.58,104,81.3,99.71,85.1,93.93,85.24,83.58,85.5,74.35,82.33,68.09,73.53Z" transform="translate(0 0)"/><path class="cls-1" d="M38.1,58.71h0c-1,.11-1.53-1.07-2.53-1,.81.4,1.53,1.07,2.54,1a.7.7,0,0,0,.18.2,1.12,1.12,0,0,1-.17-.2Z" transform="translate(0 0)"/><path class="cls-1" d="M45.25,47.42c-.16,1-.32,2-.47,2.9-1-.23-.6-.87-.82-1.25-.89.74-2.63.63-2.45,2.45.17.22.65.39.28.75s-.6,0-.85-.22c-.93.19-1.62,1.1-1.2,1.69s.57,1.12-.27,1.11c-1,0-.75.36-.83,1.06a8.13,8.13,0,0,0,.38,3c.08.36-.4.29-.73,0A4.48,4.48,0,0,0,41,60.46c2.46.51,2.86.81,2.75,2.94.14-.5.64-1.15,2.4-3.39l.69,1.65c1-.64,2.56-1.11,2.83-2,.46-1.47-1-2.3-2.27-2.88-.3-.13-.4-.73-.7-.86-.83-.36-1.66-.84-1.18-1.79s1,1.18,1.73.19c0-1.19-2.18-.71-1.87-2.27,2.93.71,5.36,3.45,8.8,1.85.07.68.14,1.49.25,2.57.29-1.87.31-2,1.57-1.76.47.09.44-.17.44-.26,0-1.86,2.19-3.17,1.34-5.24-1.31-.13-1.8,1-2.53,2A1.56,1.56,0,0,0,54,49.92c-.45-.1-.5-.48-.59-.84a4.64,4.64,0,0,1,.09-3c-1.06,1.39-.36,2.8-1.3,3.75-.88-.82-.1-1.75-.48-2.49-.68.36.13,2-1,1.62-1.41-.43-.17-1.92-.63-2.87-.54.68.08,2.09-1.37,2.17-1-.57.19-1.62-.49-2.26-.21.77.28,1.82-.75,2.39-.79-1,.17-1.94-.29-2.88-.52,1.27.65,3-.85,3.62C45.34,49.56,45.72,48,45.25,47.42Zm-2.3,6a1.9,1.9,0,0,1-.57-.78c-.06-.16.09-.55.43-.35a5.59,5.59,0,0,1,.85.78C43.31,53.26,43,53.48,43,53.43Zm1.36.88a7.06,7.06,0,0,1-.42-.69c-.18-.42.28-.38.44-.55l.32.47C44.94,54.23,44.47,54.14,44.31,54.31Z" transform="translate(0 0)"/><path class="cls-1" d="M43.72,64.05c0-.24,0-.45,0-.65A2.27,2.27,0,0,0,43.72,64.05Z" transform="translate(0 0)"/><path class="cls-1" d="M134.34,52.36c-1-.68-1.93-1.64-3.32-1.6C132.17,51.18,132.82,52.68,134.34,52.36Z" transform="translate(0 0)"/><path class="cls-1" d="M134.45,52.34s-.07,0-.11,0l0,0h0l.07,0Z" transform="translate(0 0)"/><path class="cls-1" d="M35.32,56.76h-.15l.11,0c0,.32.1.63.15,1,0,0,.06-.06,0-.06-.06-.3-.12-.62-.17-.94Z" transform="translate(0 0)"/><path class="cls-1" d="M35.17,56.75l-1.3-.54C34.07,56.94,34.66,56.75,35.17,56.75Z" transform="translate(0 0)"/><path class="cls-1" d="M35.43,57.76h.14l-.09,0S35.43,57.76,35.43,57.76Z" transform="translate(0 0)"/><path class="cls-1" d="M40.86,61.29a.53.53,0,0,0,.51.74,3.07,3.07,0,0,0,.84-.23,4.57,4.57,0,0,0-.78-.83C41.34,60.91,40.92,61.13,40.86,61.29Z" transform="translate(0 0)"/><path class="cls-1" d="M38.06,51.84l-.66-.07.33.07.26,0h0l0,0,0-.09Zm0,0h0Z" transform="translate(0 0)"/><path class="cls-1" d="M46.28,20.16a2.36,2.36,0,0,0-.46,0l.17.28.47-.1C46.4,20.26,46.34,20.17,46.28,20.16Z" transform="translate(0 0)"/><path class="cls-1" d="M134.47,53.25l.08,0h0l-.06,0Z" transform="translate(0 0)"/><path class="cls-1" d="M136.1,53.59v0l0,0h0l0,0c-.5-.16-.93-.7-1.54-.38C135,53.64,135.45,54,136.1,53.59Z" transform="translate(0 0)"/><path class="cls-1" d="M47.93,54.6c-.45.24,0,.57.11.85l2.09,1.36c0-1.53-.84-1.55-1.64-1.67C48.4,54.85,48.44,54.32,47.93,54.6Z" transform="translate(0 0)"/><path class="cls-1" d="M57.49,54l.19-.1-.1-.2c-.06,0-.16.06-.17.11S57.46,53.93,57.49,54Z" transform="translate(0 0)"/><path class="cls-1" d="M38.16,52.37,38,51.93l-.18.34Z" transform="translate(0 0)"/><path class="cls-1" d="M136.61,54.75c-.06-.13-.11-.26-.16-.39C136.35,54.52,136.2,54.69,136.61,54.75Z" transform="translate(0 0)"/><path class="cls-1" d="M136.42,54.31l0,0a.31.31,0,0,0,.05-.12h-.12a.3.3,0,0,1,0,.08Z" transform="translate(0 0)"/><path class="cls-1" d="M135.87,54.11a1,1,0,0,0,.51.12c-.09-.21-.18-.42-.28-.62C136,53.76,135.54,53.79,135.87,54.11Z" transform="translate(0 0)"/><path class="cls-1" d="M134.54,53.2c.44-.33.07-.56-.16-.81C133.83,52.73,134.29,53,134.54,53.2Z" transform="translate(0 0)"/><path class="cls-1" d="M56.25,8.29l-.14.07h.23S56.27,8.29,56.25,8.29Z" transform="translate(0 0)"/><path class="cls-1" d="M56.11,8.36H56l0,0Z" transform="translate(0 0)"/><path class="cls-1" d="M79.94,93.7h0c-.4-.34-.8-.71-1.37-.42a.48.48,0,0,0-.12.42c.24.56.75.25,1.14.32a16.61,16.61,0,0,0,2.25,1.54c1.39.67.44-.47.56-.81C81.41,94.82,80.86,93.8,79.94,93.7Z" transform="translate(0 0)"/><path class="cls-1" d="M82.46,94.68a.13.13,0,0,0-.06.07.48.48,0,0,0,.12,0l0,0,0,0s0-.07,0-.1l-.08,0Z" transform="translate(0 0)"/><path class="cls-1" d="M105.94,68.24c5.18-9.76,3.38-17.77-4.87-24.76-.51,0-1.07.07-1.13-.66-.45,0-1,0-.55-.63a39.9,39.9,0,0,0-8.57-1.3c-7.16,0-14.07,4.5-16.17,10.56C70.2,64.26,78.89,76,92.43,75.36,98,75.11,103.22,73.37,105.94,68.24Zm-18.09,5.7c-8-1-14.06-9.23-13.15-17.54,1-8.79,8.65-16.16,19.93-14,8.14,1.51,13.82,8.1,12.65,16.77C106.54,71.75,97.59,75.11,87.85,73.94Z" transform="translate(0 0)"/><path class="cls-1" d="M99.94,42.82H100l0,0,0,0s0,0,0-.08h-.09S99.94,42.8,99.94,42.82Z" transform="translate(0 0)"/><path class="cls-1" d="M101,43.45l0,0h0Z" transform="translate(0 0)"/><path class="cls-1" d="M100,42.74c.53-.05,1.08-.12,1.07.69.46-.13,1.23-.22,1.25-.39.27-2.3,1.62-4.11,2.61-6.08l-.64-.48c-.58-.14-1.58-.81-1.65.07-.17,2.44-2.39,3.59-3.14,5.61C99.79,42.27,100.15,42.31,100,42.74Z" transform="translate(0 0)"/><path class="cls-1" d="M99.52,42.16l-.09,0,0,.07.11,0S99.51,42.18,99.52,42.16Z" transform="translate(0 0)"/><path class="cls-1" d="M101.09,43.48v0l-.06,0Z" transform="translate(0 0)"/><path class="cls-1" d="M75.82,78.58a5.08,5.08,0,0,0,2.44,1.48c.37.17.77.28.91-.51a6.7,6.7,0,0,1,3.06-4.7l-3-1.49C78.47,75.42,78.27,77.69,75.82,78.58Z" transform="translate(0 0)"/><path class="cls-1" d="M109.4,70.11c1-1.16,2-1,3.18-.78-1.06-.87-.12-4.16-3.12-2.33C107.87,68,110.1,69,109.4,70.11Z" transform="translate(0 0)"/><path class="cls-1" d="M72.91,44.71c-1.07.34-1.41,1.45-1.9,2.34-.19.33,0,.91.44.87,1.3-.16,1.62-1.39,2.21-2.25C73.67,45.09,73.46,44.53,72.91,44.71Z" transform="translate(0 0)"/><path class="cls-1" d="M83.51,34.64a8.22,8.22,0,0,0,.71,5.42C83.93,37.83,83.72,36.24,83.51,34.64Z" transform="translate(0 0)"/><path class="cls-1" d="M86.08,56.8c.64,1.36,2.85.44,4.71.78-1-1.85-1.74-3.39-2.64-5.16C86.94,53.92,85.53,55.64,86.08,56.8Z" transform="translate(0 0)"/><path class="cls-1" d="M95.93,56.61a.75.75,0,0,0-1.14.38c-.61,1.2-1.64,2.27-1.17,4.07,1.57-.78,2.07-2.17,2.63-3.49A.73.73,0,0,0,95.93,56.61Z" transform="translate(0 0)"/><path class="cls-1" d="M92.8,55.87c-1.31,1-1.88,2.25-1.56,4.66,1.21-1.72,2.36-2.7,2.4-4.31A.51.51,0,0,0,92.8,55.87Z" transform="translate(0 0)"/><path class="cls-1" d="M11,106.86c0-.09.14-.29.16-.23L11,107Z" transform="translate(0 0)"/><path class="cls-1" d="M11.55,106.36a2.55,2.55,0,0,1-.33.8c.12-.35,0-.22.2-.63,0-.06-.12.08-.18.2,0-.09-.09,0,0-.17s.25-.22.2,0A.85.85,0,0,0,11.55,106.36Z" transform="translate(0 0)"/><path class="cls-1" d="M15.38,107.86l0,0S15.37,107.86,15.38,107.86Z" transform="translate(0 0)"/><path class="cls-1" d="M17.63,109.06a.09.09,0,0,1,0-.08A.11.11,0,0,1,17.63,109.06Z" transform="translate(0 0)"/><path class="cls-1" d="M18.23,109h0S18.24,108.93,18.23,109Z" transform="translate(0 0)"/><path class="cls-1" d="M15.38,107.86l.12-.07C15.44,107.9,15.42,107.85,15.38,107.86Z" transform="translate(0 0)"/><path class="cls-1" d="M11.61,107.44a.65.65,0,0,1,0-.11.07.07,0,0,0,0,0Z" transform="translate(0 0)"/><path class="cls-1" d="M14.58,107h0l.07-.14Z" transform="translate(0 0)"/><path class="cls-1" d="M13.86,106.53a3.56,3.56,0,0,1-.19.41.76.76,0,0,0,.07-.21Z" transform="translate(0 0)"/><path class="cls-1" d="M12.39,106.37v0Z" transform="translate(0 0)"/><path class="cls-1" d="M15.15,107.27l.06-.1Z" transform="translate(0 0)"/><path class="cls-1" d="M30.52,125.15l.05,0Z" transform="translate(0 0)"/><polygon class="cls-1" points="32.39 125.08 32.4 125.06 32.55 124.95 32.39 125.08"/><path class="cls-1" d="M19.12,109.09h0S19.12,109.06,19.12,109.09Z" transform="translate(0 0)"/><path class="cls-1" d="M24.69,114c-.26.15-.15.36-.46.51C24.32,114.39,24.49,114,24.69,114Z" transform="translate(0 0)"/><path class="cls-1" d="M11.65,107.41l0,0S11.65,107.42,11.65,107.41Z" transform="translate(0 0)"/><path class="cls-1" d="M24.23,114.47Z" transform="translate(0 0)"/><path class="cls-1" d="M20.5,110.35l-.1.1Z" transform="translate(0 0)"/><path class="cls-1" d="M19.12,109.89h.06S19.13,109.9,19.12,109.89Z" transform="translate(0 0)"/><path class="cls-1" d="M20.79,111.15s.06,0,.05,0l0,0S20.84,111.12,20.79,111.15Z" transform="translate(0 0)"/><path class="cls-1" d="M21.36,111.61l-.05,0v0Z" transform="translate(0 0)"/><path class="cls-1" d="M29.41,123.29l.25-.14C29.47,123.28,29.47,123.41,29.41,123.29Z" transform="translate(0 0)"/><path class="cls-1" d="M11.7,107.28a.3.3,0,0,0,0,.13v0A.44.44,0,0,1,11.7,107.28Z" transform="translate(0 0)"/><path class="cls-1" d="M19.24,113.16l.12,0A.12.12,0,0,1,19.24,113.16Z" transform="translate(0 0)"/><path class="cls-1" d="M26.23,119.31v0S26.21,119.34,26.23,119.31Z" transform="translate(0 0)"/><path class="cls-1" d="M19.59,113.44a.53.53,0,0,1,.19-.13l-.05.07Z" transform="translate(0 0)"/><path class="cls-1" d="M29.66,123.15Z" transform="translate(0 0)"/><path class="cls-1" d="M29.75,124c-.07.18.09,0,.37-.1-.25.24.16,0-.29.35a1.67,1.67,0,0,1,.46-.22c-.26.15-.17.28-.47.48.36-.21.35-.38.76-.56-.2.21-.21.36-.58.62.11,0,.26-.1.34-.06s0-.06.06-.09c-.18.28.18.26-.23.63.52-.39.21.17.66-.25,0,.06-.17.28-.26.37.41-.29.18,0,.46-.09-.22.19-.09.21-.2.35a.91.91,0,0,1,.22-.18c-.13.17,0,0,.26,0-.08.16-.33.2-.5.38.13,0,.27-.17.45-.27l-.36.37a1.13,1.13,0,0,0,.26-.11c-.1.11-.26.25,0,.17l0-.09.23-.11-.21.27a3.8,3.8,0,0,0,1.28-.7l0-.11c.15-.1.27-.12.29-.1a1.2,1.2,0,0,0,.44-.51c-.14-.15-.54.31-.73.26l.16-.32-.15.1c-.12.05,0-.08.07-.11-.22.16-.16-.07-.23-.11l.2-.11c.35-.48-.66.06-.51-.23l.26-.32-.29.17c.13-.17.34-.33.18-.35-.71,0-.35-.73-.89-.83a.3.3,0,0,1,.14,0c-.9.23.41-1-.32-.82l-.09.1c0-.17-.09.09-.31.12.32-.27.14-.36.21-.52-.06.06,0,.08-.07.14s-.29.19-.26.1c.43-.44.24-.58.29-.81-.23.15-.51.19-.91.41l.37-.38c-.18.06-.1,0,0-.19,0,0,.05.09.06.12l0,0s0,0,0,0,0,.06,0,.06c.25-.11.17-.13.43-.32,0,0,0-.2-.22,0,0,0-.07,0-.12,0s0-.08,0-.08l0,0-.08.05c-.18,0,.11-.41.24-.61-.27.32-.38.27-.61.45,0,0,.09.05.18.15l-.16.1c-.32.11.1-.32-.18-.32a.5.5,0,0,1-.15.15c-.1,0,.05-.18.18-.3-.23.17-.47.21-.41.08s.24-.25.16-.31l-.14.16c-.2,0,.18-.26,0-.23.08,0-.08.11-.13.12,0-.17.1-.24.36-.56l-.24.21c.08-.2.26-.6-.08-.32.54-.4.13-.4.06-.46s-.1.13-.15.18c.22-.43-.23-.31-.35-.45l-.39.29c-.05-.09.66-.74.57-.8l-.15.18c-.07-.2-.16-.23-.32-.29l-.24.21c.07-.14,0-.19.1-.33-.67.43,0-.66-.83-.25l.43-.42c-.06-.06-.06-.22-.42.06h0c-.33.32-.07,0-.18,0a.82.82,0,0,1,.29-.33c-.39,0-.4-.44-.9-.17,0-.31.21-.78,0-.92l-.05,0a.89.89,0,0,0-.72.34c0-.21.37-.78.05-.78l-.1.17c-.11,0,0-.21,0-.26s-.08.07-.13.12,0-.13,0-.19l-.11.13c-.37.12-.09-.56-.31-.66,0,.07-.15.19-.22.23.33-.47.05-.55.07-.71l-.11.2c.12-.39-.53.32-.41-.07l.3-.16c-.12,0-.09-.11.1-.28-.2.08-.31.31-.44.26-.11.11,0,.14-.18.26l-.41.18s-.06,0-.08,0c.49-.5-.08-.13.45-.57-.15-.21-.62,0-.57-.41-.52.44-.34-.27-.91.4-.09-.08-.05-.27.12-.59.07,0,0,.07,0,.12a.26.26,0,0,0,0-.36,3,3,0,0,1-.26.72,2.43,2.43,0,0,1,.09-.61l-.32.32c.15-.31-.3.22-.07-.18l.1-.09c-.15-.09.14-.43.06-.58l-.12.14c-.08,0,.13-.36-.18-.08l.07.08a2,2,0,0,1-.5.38c0-.13.31-.42.3-.48-.21.21-.11.11-.27.36a1,1,0,0,1,.1-.71l-.07.08c-.13,0,.12-.52-.1-.38v0c-.36.27.05-.49-.44.07-.13.08.11.05-.19.28s.32-.54.08-.47c0,0,0,0,0,.09a1,1,0,0,1-.16-.35c-.48.39-.22-.37-.78.08.2-.16.15-.25.22-.34a.3.3,0,0,1-.07.09c-.05,0,.09-.21.13-.3-.17.14,0-.27-.09-.18.1-.13,0-.12,0-.15,0,.2-.18.29-.3.51-.17,0,.29-.65.09-.65l-.25.19c.26-.37,0-.32.14-.45a1.6,1.6,0,0,0-.32.32c0-.12-.2,0-.06-.22l.12-.06c-.25,0,.05-.57-.25-.42l-.41.55c-.24.16.08-.41-.23-.13a.61.61,0,0,0,.21-.33c.05,0,0,.17.06.21l.13-.4.05.28c.09-.27.05-.22.24-.41,0-.25-.3.17-.24-.11-.09,0-.2.27-.32.36.06-.26-.45.27-.3-.06-.06,0,0,0-.08.17,0-.1-.07-.1,0-.28l.09,0c-.05,0,.11-.24-.07-.17.05-.16.22-.45.27-.42s-.15.07-.25.25c-.13-.09.36-.63.05-.46a.14.14,0,0,1,0,.09c-.06,0-.09,0-.08-.05.07.12-.35.42-.15.41-.23.28-.14,0-.26.07.08-.24.29-.42.36-.59-.06.09-.09.07-.15.09l.19-.2s0,0,0-.11v.13c-.08,0-.42.29-.36,0a.71.71,0,0,1-.26.39c0-.22-.09.08-.27.2-.07-.12.26-.41,0-.38a.62.62,0,0,1,.15-.18c-.18,0-.13-.17-.35-.07a.25.25,0,0,0,.19-.23c-.1.2-.21.11-.33.2l.07-.12a.26.26,0,0,0-.12.23s.06-.07.07,0-.32.54-.43.53.21-.45.3-.56c-.2,0,.23-.59,0-.49,0,0-.42.38-.53.37.13-.29.24-.12.34-.38-.57.56,0-.58-.46-.32l-.19.34c-.05,0-.11,0-.13-.08l.18-.14c0-.1-.14-.1-.26.17.07-.33-.05-.19-.19-.16.11,0,0,0,0,.16-.2.1-.14,0-.16-.13-.06.12-.21.28-.23.26.06-.25-.08-.27-.1-.43l-.06.09c-.07-.21-.51.13-.49-.25h0l0,0c.24-.27,0-.28,0-.44,0,.07-.14.2-.17.19.18-.29,0-.19.09-.34-.11.07-.2.35-.28.28s.07-.2.14-.3a.67.67,0,0,1-.3.22c0,.08.05,0,.05,0s-.08.08-.2.27c0,0,.15-.28,0-.21l-.09.26c-.05,0,0-.07,0-.09a2.1,2.1,0,0,1-.23.44c0-.24.34-.63.49-.89-.22.11-.14-.25-.22-.31l-.14.28a.41.41,0,0,1,0-.27l-.06,0a1.3,1.3,0,0,1-.18.43c0-.11-.17-.1,0-.48l0,.06c-.17.08-.42,0-.48.16,0-.18-.29,0-.09-.4,0-.13-.42.37-.21-.11-.21.2-.06.1-.19.38s.06-.46-.26,0c0-.21.08-.1.18-.35-.28.48-.2,0-.43.23.07-.22.1-.1.15-.35-.06.13-.11.13-.13.14l.15-.32-.49.71c.07-.42.31-.51.22-.74v0c-.22.3,0-.3-.24-.12.07,0-.06.16-.1.25v-.16a.2.2,0,0,1,0,.08c-.19.2,0-.16-.17,0,0,.08-.12.31-.2.41l.09-.4-.18.44c-.11,0,.1-.76-.25-.21v.09c-.06.1-.24.39-.19.15,0-.06.12-.32.14-.29l-.1.07a.61.61,0,0,0,0,.54.93.93,0,0,1,.13-.4c0,.12,0,.34,0,.46,0-.12.11-.31.15-.42s0,.21,0,.27a.83.83,0,0,0,.16-.26c0,.14,0,.2.19.09a.79.79,0,0,1,.16-.38c0,.24-.11.58-.08.85-.09.54.47-.12.4.28-.07.12-.2.17-.18.28.13-.25.13-.13.19-.22-.12.4.16,0,.08.26,0-.1.13-.16.21-.23.16-.31.15-.07.28-.57-.14.52.27,0,0,.75l-.08.07.2-.08h0c.08,0,0,.06.29-.21,0-.09,0-.12,0-.21.22-.23,0,.3.07.35.12-.22,0-.11.14-.37.07,0,0,.18,0,.27l.07-.13c.28-.2-.3.62,0,.27a2.39,2.39,0,0,1-.12.22c.11-.11.31-.28.32-.48,0,0,0,.16,0,.31a1.43,1.43,0,0,0-.24.28l.1.22s0-.12,0-.14c.58-.52.07.78.76.15-.15.18-.09.19-.15.33.11,0,.18.1.32,0l.06-.15c.07.27.06.55.22.54a1.19,1.19,0,0,0,.13-.25c-.07.3.51-.41.21.12l-.06,0c.22,0,.17.5.29.68.23-.28-.08-.1.19-.44.19,0,.14.3.34.28,0,0,0-.09,0-.11.26-.12-.21.29-.08.32a.7.7,0,0,1,.21-.25l-.13.27a2.1,2.1,0,0,0,.19-.31c-.16.35.12.23,0,.55.06-.07.22-.37.31-.47s.07.09,0,.23h0c.18-.18.25-.09.26-.14.16,0-.1.18-.15.41l-.17.08.09.16.05-.18c.14-.07,0,.23.11.27l-.15.15v.17c.25-.35.16,0,.4-.45.28-.06.06.47.18.6s0-.08.07-.14.06.19,0,.41c.07-.12.08-.17.14-.26.1.07-.08.24,0,.42.08-.16.14-.23.2-.25a.76.76,0,0,0-.15.28c.42-.74.33-.19.67-.77-.1.15-.15.57-.4.81v-.07c-.14.18-.05.14,0,.17a.69.69,0,0,1,.05-.13c0,.33.31.23.35.53,0-.08.06-.25.14-.28.24,0,.08.46.11.76.34-.43-.13-.2.17-.62a2.34,2.34,0,0,1,.2.89c.56-.58,0,.4.49,0-.17.2-.17.32-.11.37.11-.18.18-.14.26-.27-.09.23,0,.44.33,0-.3.41.13.08,0,.4.18-.09.08.2.27.16-.24.22,0,.19-.06.32a.17.17,0,0,1,0-.11c.2-.19-.05.27.11.19s.18-.23.23-.22c-.14.17-.17.48.05.31,0,0,0-.1.09-.18,0,.48.55.33.48.89l.21-.33c.46-.24-.31.56-.16.62.43.14,1.13,0,1.27.48,0,.1-.1.09-.21.2,0,0,.27-.24.18-.06l-.15.15c.51-.28.14.64.83.1-.09.36.39,0,.21.55.18-.09.19-.31.29-.29l-.07.37v0c-.28.58.85-.12.72.37v0c.1-.1.25-.19.25-.13a.8.8,0,0,1-.22.17.71.71,0,0,0,.1.52c.1-.2.18-.08.4-.28-.11.17-.24.2-.28.38s.36,0,.52,0c-.16.22-.06.21-.29.44.1.13.07.29.2.43l.09-.07c-.26.31.26,0,.12.17.1-.1.13-.16.21-.23l0,.15c.06-.11.32-.39.4-.37-.15.26-.15.12-.29.31l.29-.24c0,.07-.29.37-.42.4.14.14.14.4.31.49l.17-.18c0,.13.09.23.29.13a1.89,1.89,0,0,1-.2.2c-.17.31.3-.26.12.07a.9.9,0,0,1,.16-.24l-.06.38c.13-.12.53-.28.48-.1a.6.6,0,0,1-.23.14l0,.11.35-.25-.22.32.27-.23c0,.09-.33.42-.27.44.31,0,.37-.11.72-.21-.5.45.18.16-.16.51.52-.19.47.24.75.35l0-.06c.31-.11-.31.43-.13.43l.06-.08c.37-.11.29.31.16.6.06-.09.24-.21.25-.16s-.39.27-.24.25.17-.14.18-.12l-.21.27c.32,0,.66.07.65.36a1,1,0,0,0,.28-.22c0,.19-.07.5,0,.66l.32-.22c.05.06-.44.4-.11.27.06,0,0-.07.1-.2.33-.06-.24.3-.12.4l.33-.3c.28-.07-.11.24-.29.43-.31.44.75-.42.57,0-.15.16-.26.18-.41.34.18,0-.06.25.12.31.58-.32,0-.06.5-.36h-.19c.34-.13,0-.13.34-.35.14,0-.06.29-.11.44.24-.17,0-.11.31-.31l-.07.11c.07-.06.15-.13.13-.15.23-.15.05,0,.07.09s-.3.22-.48.33a.31.31,0,0,1,.1-.05c-.29.33.07.27-.15.54a.44.44,0,0,1,.15-.1s-.23.31-.28.44c.2-.09.51-.4.49-.22-.18.16-.56.36-.49.44A.58.58,0,0,1,29.75,124Zm-1-2.29v0h0Zm.09-.31s-.07.09-.16.15l-.06-.07C28.72,121.4,28.8,121.4,28.85,121.35Zm1.69-.82,0,0s0-.06,0-.07.12-.07.1,0Z" transform="translate(0 0)"/><path class="cls-1" d="M30.37,120.73a0,0,0,0,0,0,0l-.07,0,.07-.07Z" transform="translate(0 0)"/><path class="cls-1" d="M15.33,107.88h0l0,0Z" transform="translate(0 0)"/><polygon class="cls-1" points="26.27 119.59 26.33 119.54 26.29 119.6 26.27 119.59"/><path class="cls-1" d="M13.74,108.22l-.06.06Z" transform="translate(0 0)"/><path class="cls-1" d="M13.26,108l-.12.06A.62.62,0,0,1,13.26,108Z" transform="translate(0 0)"/><path class="cls-1" d="M12.85,108l.06-.12h0Z" transform="translate(0 0)"/><path class="cls-1" d="M17.83,111.62a0,0,0,0,1,0,0C17.83,111.71,17.82,111.68,17.83,111.62Z" transform="translate(0 0)"/><path class="cls-1" d="M16.76,110a.62.62,0,0,0,0,.16S16.65,110.1,16.76,110Z" transform="translate(0 0)"/><polygon class="cls-1" points="19.23 113.16 19.23 113.15 19.24 113.16 19.23 113.16"/><path class="cls-1" d="M16.79,110.15c-.06,0-.07,0-.07,0S16.8,110.1,16.79,110.15Z" transform="translate(0 0)"/><path class="cls-1" d="M11.29,107.3h0l0,0Z" transform="translate(0 0)"/><path class="cls-1" d="M11.29,107.26v-.05S11.31,107.22,11.29,107.26Z" transform="translate(0 0)"/><path class="cls-1" d="M11.29,107.12v.09S11.26,107.21,11.29,107.12Z" transform="translate(0 0)"/><path class="cls-1" d="M11.82,107.41l-.05.11Z" transform="translate(0 0)"/><path class="cls-1" d="M11.94,107.51s-.2.18-.21.09l0-.08C11.71,107.68,12,107.32,11.94,107.51Z" transform="translate(0 0)"/><path class="cls-1" d="M13.22,106.56h-.17c.08-.09.19-.23.15-.28C13.53,106,13,106.51,13.22,106.56Z" transform="translate(0 0)"/><path class="cls-1" d="M13.67,106.61c0-.09.09-.16.12-.22C13.77,106.51,13.77,106.54,13.67,106.61Z" transform="translate(0 0)"/><path class="cls-1" d="M16.27,108.16l.15-.25C16.44,108,16.36,108,16.27,108.16Z" transform="translate(0 0)"/><polygon class="cls-1" points="15.92 109.75 15.78 109.87 15.9 109.63 15.92 109.75"/><polygon class="cls-1" points="17.35 108.19 17.36 108.14 17.38 108.28 17.35 108.19"/><path class="cls-1" d="M21.44,111.31l-.24.27C21.21,111.5,21.46,111.18,21.44,111.31Z" transform="translate(0 0)"/><path class="cls-1" d="M22.9,113c.13-.12.26-.17.17,0C23,113,22.88,113.06,22.9,113Z" transform="translate(0 0)"/><polygon class="cls-1" points="28.05 117.23 28.11 117.11 28.09 117.24 28.05 117.23"/><path class="cls-1" d="M.05,132.94c0-.1-.07-.32,0-.28l.1.37Z" transform="translate(0 0)"/><path class="cls-1" d="M.14,132.2a3.76,3.76,0,0,1,.23.83c-.11-.35-.09-.2-.22-.61,0,0,0,.13,0,.26,0-.09,0,.09-.1-.13s0-.32.15-.1C.18,132.37.15,132.27.14,132.2Z" transform="translate(0 0)"/><path class="cls-1" d="M3.44,131v0S3.43,131,3.44,131Z" transform="translate(0 0)"/><path class="cls-1" d="M5.55,130.53a.22.22,0,0,1,0-.08A.13.13,0,0,1,5.55,130.53Z" transform="translate(0 0)"/><path class="cls-1" d="M5.88,130.07l0,0S5.87,130.05,5.88,130.07Z" transform="translate(0 0)"/><path class="cls-1" d="M3.44,131l0-.13C3.5,131,3.46,131,3.44,131Z" transform="translate(0 0)"/><path class="cls-1" d="M.78,133a.36.36,0,0,1-.05-.09l0,0Z" transform="translate(0 0)"/><path class="cls-1" d="M2.45,130.86h0l0-.15Z" transform="translate(0 0)"/><path class="cls-1" d="M1.72,130.93a3.29,3.29,0,0,1,.11.44,1.07,1.07,0,0,0-.08-.22C1.74,131.09,1.73,131,1.72,130.93Z" transform="translate(0 0)"/><path class="cls-1" d="M.69,131.7l0,0Z" transform="translate(0 0)"/><path class="cls-1" d="M3,130.71v0Z" transform="translate(0 0)"/><path class="cls-1" d="M23,133.31v-.05S23,133.31,23,133.31Z" transform="translate(0 0)"/><polygon class="cls-1" points="24.07 131.89 24.06 131.87 24.09 131.69 24.07 131.89"/><path class="cls-1" d="M6.51,129.6h0S6.5,129.58,6.51,129.6Z" transform="translate(0 0)"/><path class="cls-1" d="M12.79,129.55c-.07.29.11.37,0,.69C12.81,130.11,12.7,129.74,12.79,129.55Z" transform="translate(0 0)"/><path class="cls-1" d="M.79,133h0S.8,133,.79,133Z" transform="translate(0 0)"/><path class="cls-1" d="M12.8,130.24h0v0Z" transform="translate(0 0)"/><path class="cls-1" d="M8.1,129.66v.14A.88.88,0,0,1,8.1,129.66Z" transform="translate(0 0)"/><path class="cls-1" d="M7,130.21l0-.05S7,130.21,7,130.21Z" transform="translate(0 0)"/><path class="cls-1" d="M8.74,130.07s0-.07,0,0v0S8.75,130,8.74,130.07Z" transform="translate(0 0)"/><path class="cls-1" d="M9.36,130v.07l0,0Z" transform="translate(0 0)"/><path class="cls-1" d="M21.17,132.86c0-.08,0-.18.07-.28C21.2,132.81,21.28,132.9,21.17,132.86Z" transform="translate(0 0)"/><path class="cls-1" d="M.74,132.83a.62.62,0,0,0,.05.14s0,0,0,0Z" transform="translate(0 0)"/><path class="cls-1" d="M8.91,132.61l.1-.06A.12.12,0,0,1,8.91,132.61Z" transform="translate(0 0)"/><path class="cls-1" d="M16.86,132.35l0,0S16.86,132.39,16.86,132.35Z" transform="translate(0 0)"/><path class="cls-1" d="M9.29,132.59a.72.72,0,0,1,.05-.23v.09Z" transform="translate(0 0)"/><path class="cls-1" d="M21.24,132.58Z" transform="translate(0 0)"/><path class="cls-1" d="M21.77,133.06c.07.18.05-.07.17-.34,0,.35.11-.1,0,.45a2,2,0,0,1,.16-.48c-.08.3.05.31,0,.67a6.29,6.29,0,0,1,.13-.93,3.14,3.14,0,0,1,0,.84c.05-.1.1-.25.17-.29s0-.06,0-.1c.05.31.26,0,.22.59.09-.64.24,0,.27-.65a1.06,1.06,0,0,1,0,.44c.09-.5.13-.11.24-.4,0,.29.07.21.08.38a.84.84,0,0,1,0-.29c0,.22,0,0,.13-.21,0,.16-.08.38-.08.62.08-.1.07-.32.11-.52v.52a1.64,1.64,0,0,0,.09-.27c0,.15,0,.36.08.13l-.07,0,.08-.25,0,.34a4.4,4.4,0,0,0,.36-1.41l0-.1c0-.18.09-.28.12-.28a1.49,1.49,0,0,0,0-.67c-.18,0-.16.61-.3.72l-.09-.33,0,.17c0,.12,0-.08,0-.12,0,.26-.14.06-.21.09l.07-.22c-.08-.58-.38.53-.46.22l0-.42-.07.34c0-.21,0-.48-.1-.37-.42.54-.65-.24-1,.08a.45.45,0,0,1,.06-.14c-.42.82-.32-1-.68-.32v.13c-.12-.08,0,.13-.12.31,0-.42-.13-.35-.18-.51,0,.09,0,.08,0,.15s-.07.34-.1.26c0-.62-.19-.58-.3-.77-.05.27-.2.49-.32.93,0-.1,0-.31,0-.52-.08.17-.09,0-.11-.14l.11,0v0s0,0,0,0,0,0,0,.06c.09-.26,0-.21.07-.53-.05,0-.12-.12-.16.12,0,0-.05,0-.09.08s0-.08-.05,0v0l0,.1c-.11.13-.17-.37-.22-.6a2.57,2.57,0,0,1-.1.75s.08,0,.19,0,0,.09,0,.19c-.13.3-.13-.29-.29-.09a.46.46,0,0,1,0,.21c-.06.08-.08-.16-.07-.34-.05.29-.17.48-.21.35s0-.35-.09-.33l0,.2c-.12.16,0-.3-.15-.14,0-.08,0,.13,0,.17-.09-.12-.08-.23-.11-.65l0,.32c-.06-.2-.19-.6-.23-.17.09-.66-.16-.37-.24-.36s0,.16,0,.23c-.12-.45-.33,0-.49-.07l-.06.48c-.09,0,0-1-.12-1v.24a.3.3,0,0,0-.37,0l0,.32c0-.15-.09-.16-.13-.31-.17.78-.4-.45-.66.41l0-.6c-.08,0-.17-.12-.23.33h0c0,.47-.07,0-.13.11a1,1,0,0,1,0-.45c-.22.3-.5,0-.66.51-.19-.21-.32-.7-.54-.65v.07a1,1,0,0,0-.25.75c-.15-.13-.23-.82-.42-.6l0,.19c-.05.1-.12-.14-.14-.2a1,1,0,0,0,0,.18c-.05.17-.07-.1-.11-.16v.18c-.15.34-.37-.35-.57-.27,0,.05,0,.24,0,.32-.07-.57-.29-.43-.37-.56l.05.22c-.16-.37-.15.59-.3.22l.09-.33c-.06.1-.11,0-.1-.26-.07.19,0,.43-.12.48s.08.11,0,.31l-.15.42s0,.06-.08,0c0-.7-.12,0-.05-.72-.22-.05-.4.41-.59.09-.07.68-.37,0-.34.91-.1,0-.19-.17-.26-.52,0-.07,0,0,.07.08,0-.22-.16-.26-.21-.25a3.43,3.43,0,0,1,.25.7,2,2,0,0,1-.29-.52l0,.46c-.09-.33-.06.36-.15-.08v-.14c-.14,0-.15-.41-.29-.47V130c0,.07-.13-.35-.16.06l.09,0a2.93,2.93,0,0,1-.1.62c-.09-.09,0-.52-.09-.56a1.35,1.35,0,0,0,0,.45,1,1,0,0,1-.34-.6.38.38,0,0,0,0,.11c-.11.06-.23-.47-.28-.22l0,.05c-.07.43-.25-.4-.23.34,0,.14.09,0,0,.34s-.12-.63-.22-.41c0,0,0,0,0,.09a.84.84,0,0,1-.3-.15c-.08.61-.35-.14-.44.57,0-.25-.05-.29-.06-.4a1.05,1.05,0,0,1,0,.12s-.06-.22-.09-.32c0,.22-.14-.22-.16-.08,0-.15,0-.11-.09-.1.1.17.05.33.1.57-.12.09-.18-.67-.31-.54l-.05.3c0-.45-.16-.26-.17-.43a2.19,2.19,0,0,0,0,.46c-.06-.11-.13.13-.17-.14L8,130c-.15.18-.3-.46-.4-.15l.05.67c-.06.29-.18-.36-.22.06a.62.62,0,0,0,0-.38s.1.12.15.11l-.15-.38.19.17a.74.74,0,0,1-.07-.46c-.13-.21-.09.33-.21.07,0,.1,0,.34,0,.48-.11-.23-.12.5-.22.15,0,.07,0,0,.05.18-.07-.06-.1,0-.14-.23l0-.08s-.07-.25-.14-.09c-.06-.15-.12-.48-.07-.49s0,.15,0,.35c-.13,0-.13-.71-.23-.38a.12.12,0,0,1,0,.09c0,.05-.06.06-.08,0s0,.54.14.41c0,.36-.1.08-.13.22-.08-.23,0-.51-.1-.69a.23.23,0,0,1,0,.17v-.28s0,0-.09,0l.06.1c0,.06-.1.5-.22.25a.9.9,0,0,1,.06.47c-.13-.17,0,.11-.06.32-.11,0-.07-.48-.21-.29,0,0,0-.16,0-.24-.1.14-.18,0-.27.17a.26.26,0,0,0,0-.29c0,.22-.06.22-.09.36l0-.14a.33.33,0,0,0,.06.25s0-.09,0-.08a1.1,1.1,0,0,1,0,.69,1.33,1.33,0,0,1-.13-.62c-.11.16-.19-.61-.28-.38,0,0,0,.56-.12.62-.08-.31.07-.25,0-.51,0,.79-.34-.44-.47.05l.07.37s-.07.06-.13,0l0-.22c0-.08-.14,0-.07.29-.14-.29-.14-.11-.21,0,.09,0,0-.05.09.13-.08.2-.1.08-.18,0a.77.77,0,0,1,0,.35c-.1-.23-.2-.17-.31-.28l0,.11c-.17-.12-.26.43-.46.11h0v0c0-.37-.15-.24-.22-.38a1.07,1.07,0,0,1,0,.26c-.06-.34-.09-.17-.13-.32,0,.12.07.4,0,.39a.75.75,0,0,1-.08-.32.61.61,0,0,1-.07.36c0,.08,0,0,0,0s0,.11,0,.34c0,0-.07-.31-.1-.19l.09.26c0,.07,0,0-.07-.06a2.07,2.07,0,0,1,.1.49c-.15-.18-.13-.71-.18-1-.09.23-.23-.1-.32-.11l.06.31a.48.48,0,0,1-.12-.24H2.37a1.8,1.8,0,0,1,.13.45c-.09-.07-.17,0-.26-.39l0,.07c-.07.16-.25.29-.22.42-.13-.12-.21.14-.29-.27-.08-.08-.06.56-.19,0,0,.29,0,.11.09.41s-.22-.39-.14.2c-.11-.16,0-.12-.08-.38.09.55-.13.11-.15.44-.08-.21,0-.14-.1-.36,0,.13,0,.17,0,.18l-.08-.34.09.86c-.2-.38-.09-.59-.28-.72l0,0c0,.36-.16-.24-.22,0,0-.08,0,.16.07.25l-.08-.12s0,0,0,.08c0,.27-.07-.13-.09.11a1,1,0,0,1,.1.45L.54,132l.13.46c-.08.06-.36-.66-.27,0l0,.06c0,.11.07.46,0,.23,0-.05-.1-.32-.07-.31l0,.12a.7.7,0,0,0,.29.43,1.42,1.42,0,0,1-.14-.4c.08.09.18.28.26.37,0-.12-.1-.31-.14-.43s.09.2.15.22a1.37,1.37,0,0,0,0-.31c.09.12.14.14.18,0A.86.86,0,0,1,.77,132c.16.16.25.52.42.71.25.48.24-.38.41,0,0,.14,0,.26,0,.33-.06-.27,0-.18,0-.29.14.39.09-.11.19.16a.81.81,0,0,1,0-.31c-.07-.34.06-.15-.14-.62.21.49.18-.16.4.61v.1l.08-.18h0c0-.07.06,0,.07-.34,0-.08-.09-.08-.13-.15,0-.32.17.23.24.23,0-.24-.09-.07-.12-.38,0-.05.11.13.17.19l0-.13c.07-.34.16.67.17.19,0,.08,0,.16,0,.24a1,1,0,0,0-.06-.57s.11.11.16.26a1.51,1.51,0,0,0,0,.37l.19.11s0-.13-.06-.12c.08-.77.49.55.57-.36,0,.23,0,.2.09.35.06-.08.18,0,.22-.19l0-.15c.2.17.35.39.44.28A.89.89,0,0,0,4,132c.13.27.1-.64.21,0l0,.06c.15-.13.39.28.57.34,0-.37-.1,0-.12-.46.09-.15.25.14.36,0s0-.09,0-.11c.1-.25,0,.36.14.3a.7.7,0,0,1,0-.32l.07.28a1.83,1.83,0,0,0-.06-.35c.1.37.21.1.29.45,0-.1-.07-.43-.07-.56s.1,0,.15.15h0c0-.25.12-.23.09-.27s0,.2.14.41l-.06.17.15.06L5.75,132c0-.15.15.15.22.13v.21l.1.12c0-.43.1-.11,0-.59.14-.23.31.31.46.33,0,0,0-.08,0-.15s.15.11.22.33c0-.14,0-.18-.06-.29s.09.24.21.35a.57.57,0,0,1,0-.31,1,1,0,0,0,.07.31c-.16-.84.1-.36,0-1a3,3,0,0,1,.22.88l0-.06c0,.23.05.14.08.15a.33.33,0,0,1,0-.14c.18.27.32,0,.52.19,0-.09-.11-.23-.07-.31s.31.3.5.5c0-.54-.19-.06-.24-.58a2.17,2.17,0,0,1,.63.55c0-.8.23.31.32-.32,0,.27.07.36.14.36,0-.22,0-.23,0-.38.08.24.26.33.22-.19,0,.5.14,0,.21.32.06-.19.17.1.26-.06,0,.32.1.15.14.28a.24.24,0,0,1,0-.11c0-.27.13.24.17.07s0-.29,0-.32c0,.23.16.48.21.21,0,0,0-.12,0-.2.27.37.54-.11.82.34l-.06-.38c.15-.49.12.62.25.57.35-.19.72-.75,1.08-.51,0,.12,0,.14,0,.3,0-.05,0-.37.08-.17v.21c.16-.55.46.37.58-.49.16.33.27-.23.45.26.06-.19-.06-.36,0-.41l.17.32v0c.15.62.45-.67.66-.22v0c0-.15,0-.32.08-.27a.93.93,0,0,1,0,.27c.18.25.22.26.37.31-.06-.21.06-.18.08-.47,0,.19,0,.3,0,.46s.24-.22.35-.32c0,.27.09.2.08.52.13,0,.2.16.37.16v-.11c0,.41.16-.19.18,0,0-.14,0-.2,0-.31l.07.13c0-.12,0-.5,0-.54.06.28,0,.19,0,.42l0-.37a1.14,1.14,0,0,1,0,.57c.17,0,.33.2.48.14v-.24c.08.09.19.1.26-.11,0,.07,0,.2,0,.28.07.34,0-.4.12,0a1.08,1.08,0,0,1,0-.29l.19.31c0-.18.16-.57.24-.41a.57.57,0,0,1-.06.26l.05.09.07-.41.05.37,0-.35c.05.08,0,.53.09.5.2-.21.17-.33.33-.66,0,.68.2,0,.19.48.22-.5.44-.16.67-.28v-.07c.13-.3.06.53.18.4l0-.1c.17-.35.37,0,.46.3,0-.1,0-.32.06-.29s-.08.47,0,.35a.41.41,0,0,1,0-.22l0,.35c.2-.22.45-.43.61-.21a.89.89,0,0,0,0-.36c.14.09.26.39.38.47l.07-.39c.06,0,0,.6.09.27,0,0-.05,0-.05-.21.17-.28,0,.39.16.36l0-.44c.13-.25.08.24.08.5.07.54.21-.83.35-.42,0,.22-.06.32-.06.54.15-.1.12.21.26.12.17-.64-.06,0,.1-.6l-.12.13c.13-.33-.06-.1,0-.48.08-.11.13.23.2.38,0-.3-.09,0,0-.44l0,.12c0-.08,0-.19,0-.19.05-.27.05,0,.09,0a5.78,5.78,0,0,1-.1.57l0-.1c0,.43.21.13.23.48a.74.74,0,0,1,0-.18s0,.38.1.5c.07-.21.07-.64.16-.51s-.13.66,0,.66A.81.81,0,0,1,21.77,133.06Zm-2-.86,0,0h0Zm-.14-.28s0,.11,0,.22h-.08A.79.79,0,0,0,19.67,131.92Zm.56-1.78v0l0,0c0-.07,0-.13,0-.08Z" transform="translate(0 0)"/><path class="cls-1" d="M20.24,130.4a0,0,0,0,1,0,0l0,.07v-.1Z" transform="translate(0 0)"/><path class="cls-1" d="M3.42,131.08h0v0Z" transform="translate(0 0)"/><polygon class="cls-1" points="17.05 132.52 17.05 132.44 17.06 132.51 17.05 132.52"/><path class="cls-1" d="M2.59,132.32a.14.14,0,0,1,0,.09Z" transform="translate(0 0)"/><path class="cls-1" d="M2.18,132.47l0,.12A.31.31,0,0,1,2.18,132.47Z" transform="translate(0 0)"/><path class="cls-1" d="M1.88,132.68l0-.13h0Z" transform="translate(0 0)"/><path class="cls-1" d="M7.14,132.36h0C7.19,132.43,7.17,132.41,7.14,132.36Z" transform="translate(0 0)"/><path class="cls-1" d="M5.5,131.77l.07.15S5.53,132,5.5,131.77Z" transform="translate(0 0)"/><polygon class="cls-1" points="8.9 132.62 8.9 132.61 8.91 132.61 8.9 132.62"/><path class="cls-1" d="M5.64,131.9c0,.07,0,.06-.07,0S5.61,131.86,5.64,131.9Z" transform="translate(0 0)"/><path class="cls-1" d="M.5,133.1h0v-.05Z" transform="translate(0 0)"/><path class="cls-1" d="M.47,133.06l0,0S.46,133,.47,133.06Z" transform="translate(0 0)"/><path class="cls-1" d="M.39,133l.06.07S.42,133.05.39,133Z" transform="translate(0 0)"/><path class="cls-1" d="M.9,132.87l0,.11Z" transform="translate(0 0)"/><path class="cls-1" d="M1,132.87s0,.26-.08.2l0-.09C1,133.15,1,132.69,1,132.87Z" transform="translate(0 0)"/><path class="cls-1" d="M1.32,131.34l-.1.12c0-.13,0-.3-.06-.32C1.23,130.75,1.18,131.42,1.32,131.34Z" transform="translate(0 0)"/><path class="cls-1" d="M1.64,131.11c-.07-.05,0-.18,0-.25A.28.28,0,0,1,1.64,131.11Z" transform="translate(0 0)"/><path class="cls-1" d="M4.18,130.7l0-.28C4.19,130.45,4.15,130.53,4.18,130.7Z" transform="translate(0 0)"/><polygon class="cls-1" points="4.86 132.15 4.84 132.33 4.78 132.07 4.86 132.15"/><polygon class="cls-1" points="4.89 130.04 4.86 130 4.95 130.1 4.89 130.04"/><path class="cls-1" d="M9.24,129.76v.36C9.21,130.06,9.18,129.66,9.24,129.76Z" transform="translate(0 0)"/><path class="cls-1" d="M11.12,130.06c0-.18.07-.3.11-.12C11.18,130,11.15,130.11,11.12,130.06Z" transform="translate(0 0)"/><polygon class="cls-1" points="16.77 129.6 16.73 129.47 16.8 129.58 16.77 129.6"/></svg>