<svg id="Capa_1" data-name="Capa 1" xmlns="http://www.w3.org/2000/svg" viewBox="0 0 212.78 82.99"><defs><style>.cls-1{fill:#cdcccc;}</style></defs><path class="cls-1" d="M180.78,34c1-.06,2.42-.74,2.88,1,.1.38.4.26.68.13" transform="translate(0 0)"/><path class="cls-1" d="M186.64,41.25a9.9,9.9,0,0,0-4.22,2.28c-3.39,2.82-6,6.34-8.9,9.54-2.46,2.7-5.13,5.19-7.52,8-.55.63-.4,1.36-.46,2.07-.2,2-1.51,3-3.59,2.87s-2-1.65-1.82-3A6.52,6.52,0,0,0,159.3,59c-3.66-7.5-7.23-15.06-10.89-22.56-1.37-2.8-2.9-5.52-4.42-8.25-.87-1.56-2.6-1.44-3.78.32-2.66,4-5.25,8-7.88,12-3.18,4.83-6.32,9.69-9.57,14.47a4.9,4.9,0,0,0-1,4.45,3.4,3.4,0,0,1-1,3.78c-1.13.92-2.2.34-3.27-.09a2.2,2.2,0,0,1-1.24-3.08c.85-1.85.12-3.25-.74-4.67-3-5-5.86-10.21-8.42-15.51-.81-1.7-1.55-3.19-4-3.09a4,4,0,0,1-4.16-3.18A2.16,2.16,0,0,1,99,31.55a2.34,2.34,0,0,0,.47-2.62c-.17-.34-.2-.85.12-1,2.08-1,.8-2.39.37-3.65q-1.21-3.49-2.49-7c-.19-.52-.35-1.21-1.11-1.16s-.61.71-.83,1.14c-1.63,3.15-2.12,6.77-3.74,9.87-3.1,5.92-5.45,12.18-8.41,18.15-2.32,4.68-4.64,9.36-7.32,13.84-.78,1.31-1.41,2.56-.71,4.28.49,1.21-.35,2.34-1.6,3a3.4,3.4,0,0,1-3.71,0,1.67,1.67,0,0,1-.58-2.33c1.28-1.61.56-2.85-.49-4-2.57-2.85-4.69-6.07-7.45-8.78A71.27,71.27,0,0,1,52.65,40c-2.19-3.27-3.35-3.24-5.41.15-1.09,1.8-2.31,3.52-3.43,5.31-4.14,6.66-8.19,13.38-12.43,20-1.21,1.88-2.65,3.46-1.55,5.9.26.56-.21,1.12-.9,1.25a17.4,17.4,0,0,1-2.15.31c-1.32.06-2.73-.16-2.69-1.79,0-1.41.44-3.13,2.28-3.21,1.53-.06,2.12-.89,2.81-2q7.64-12.16,15.36-24.27a2,2,0,0,0,0-2.53c-1.82-3-1.06-4.84,2.3-5.91.83-.26,1.64-.58,2.45-.89,1.85-.72,3.28.32,2.89,2.29-.33,1.7.35,2.79,1.25,4.14C57.62,45,62.87,50.33,68,55.74a58.62,58.62,0,0,1,3.59,4.65c1.1,1.42,2.15,1.22,2.75-.34,1.89-4.9,4.71-9.32,6.89-14.08,1.9-4.14,3.7-8.37,5.85-12.4,1.43-2.69,1.69-5.84,3.55-8.34.58-.77.1-1.27-.84-1.49a3.72,3.72,0,0,0-3.44.89c-.62.52-1.33.71-1.92,0s-.15-1.26.3-1.75A3.62,3.62,0,0,0,86,20c-.1-1,.6-1.26,1.41-1.2a14.38,14.38,0,0,1,2.15.35c3.13.72,2.76,1.32,4.36-2.34A7.62,7.62,0,0,0,94.82,13c-.25-2.12,1.32-2.16,2.48-2.59a2.2,2.2,0,0,1,2.67,1,2.59,2.59,0,0,1-.32,3.4A1.81,1.81,0,0,0,99.24,17c2.16,4.9,4.22,9.84,6.38,14.74.35.79,1.38.91,1.93,1.76,1.19,1.88.65,4.08,1.73,6.06,2.36,4.33,4.12,9,6.91,13.1.75,1.11,1,2.51,1.83,3.65s1.33,1.35,2.19,0c4.24-6.59,8.55-13.12,12.81-19.7,2.17-3.35,4.27-6.73,6.4-10.1.13-.21.37-.36.1-.74-1-1.44-.82-2.29.71-3.56,1.29-1.07,3.82-1.38,4.65-.52a2.27,2.27,0,0,1,.24,2.47,4,4,0,0,0,.42,3.32q6.33,12.3,12.57,24.66c1.17,2.32,2.22,4.71,3.3,7.07.75,1.63,2.62,2.18,3.64.8,3.65-5,8.6-8.7,12.46-13.45,1.22-1.5,2.24-3.16,3.38-4.73.25-.35.68-.66.4-1.13s-.87-.33-1.35-.13" transform="translate(0 0)"/><path class="cls-1" d="M194.28,33.18c-.13-2.19-1.09-3.22-3.48-3.06-3.54.22-7.11-.24-10.65.36-.65.11-1.79.38-1.86-.47s1.08-.69,1.73-.72c4.57-.19,9.13-.33,13.7-.5,1,0,2.16.13,2.21-1.41,0-.93-.1-1.82-1.25-1.95s-2.22-.07-2.46,1.44a1.54,1.54,0,0,1-1.64,1.43,1.48,1.48,0,0,1-1.67-1.38c-.08-1.61-1.1-1.59-2.25-1.59q-7.41,0-14.82,0c-.74,0-1.55.2-2.23-.32a.83.83,0,0,1,1-.48c5.43.26,10.85-.41,16.29-.16,3.37.15,6.77-.6,10.19-.35,4.61.33,9.25-.33,13.85.39.91.15,2.14-.09,1.82,1.41s.71,3.7-1.76,3.81c-3.83.19-7.66.45-11.49.74-2.86.21-2.88-.08-3,2.85Zm11.92-7.62c-.57,0-1.15-.12-1.72-.14s-1.31-.33-1.64.2.21,1.29.57,1.74c1.43,1.8,3.58,1,5.41,1.27.88.14,2-.22,1.89-1.53a1.81,1.81,0,0,0-1.91-1.7A22.82,22.82,0,0,0,206.2,25.56Z" transform="translate(0 0)"/><path class="cls-1" d="M181.92,49.27a2,2,0,0,1,2.29-.84" transform="translate(0 0)"/><path class="cls-1" d="M86.85,80.92A3.81,3.81,0,0,1,86,78.2c.15-2.18-.94-2.71-2.91-2.61a72.41,72.41,0,0,1-8.07,0c-1.94-.13-2.64.71-2.76,2.44a16.8,16.8,0,0,1-.91,4.25c-.11.34-.24.79-.67.72s-.47-.61-.4-1c.14-.86.24-1.72.37-2.58.54-3.75.54-3.74-3.29-3.74-2,0-3.93.08-5.89,0-1,0-2.72.59-2.69-.74,0-1.17,1.81-.68,2.84-.72C64.08,74,66.55,74,69,74.05c1.27,0,2.38-.09,2.37-1.76,0-.39.15-.76.61-.74s.54.48.53.83c0,1.73,1.11,1.71,2.36,1.7,2.76,0,5.53,0,8.29,0,1.44,0,2.81.06,3.42-2.54.41,2.42,1.46,2.65,2.92,2.6,3.2-.13,6.4-.08,9.6,0,1.67,0,2.7-.41,2.52-2.32,0-.38-.2-1,.42-1.06a.88.88,0,0,1,.92,1c-.18,2.5,1.48,2.35,3.15,2.33,2.77,0,5.53,0,8.29,0,2.19,0,4.77.79,5.44-3,0,3.81,2.37,3,4.22,3s3.93,0,5.89,0c3.38,0,3.38,0,4.45-2.72.07,0,.2,0,.2,0,.92,3.1,3.36,2.92,5.85,2.82,2.33-.1,4.66,0,7,0,1.72,0,3.65.47,4.24-2.29.72,2.49,2.42,2.31,4.11,2.33,4,0,7.95.2,11.92.21,1.06,0,2.58.54,2.51-1.65,0-1,1-.62,1.44-.12,1.63,1.93,3.81,1.89,6,1.8l6.32-.32c1.23-.07,2.45-.11,2.05-1.93-.13-.62.35-.94.85-1.09a.57.57,0,0,1,.75.57c.16,3.57,2.81,2.34,4.74,2.46,2.2.14,4.41.24,6.93.37a2.5,2.5,0,0,1-2.54,1.16c-2,0-4.08-.06-6.11,0-3.21.14-3.71.64-4.43,3.67-.22.88.11,2.58-1.25,2.26-1-.24-.31-1.79-.06-2.72.8-3,.83-3.09-2.39-3.21-2.62-.09-5.24,0-7.86,0-1.28,0-2.2.22-1.67,1.86a2.93,2.93,0,0,1-.11,1.3c-.07.41-.05,1-.59,1s-.77-.44-.79-.86c-.17-3.31-2.29-3.53-4.94-3.41-3.77.17-7.56.1-11.34,0-1.85,0-2.94.56-2.76,2.64a23.87,23.87,0,0,1,0,3.05c0,.66-.15,1.46-1,1.4s-.57-.89-.59-1.41c-.05-1.31-.09-2.62,0-3.92s-.61-1.76-1.86-1.75c-3.71,0-7.42.06-11.13,0-1.48,0-2.14.49-2.06,2a13.62,13.62,0,0,1-.31,4.12c-.12.44-.23.9-.75.91-.69,0-.78-.56-.8-1.08,0-1.24-.12-2.48,0-3.71.11-1.63-.39-2.35-2.19-2.28-3.2.13-6.4.08-9.6,0-1.47,0-2.42.36-2.42,2a3,3,0,0,1-.23,1.06c-.24.63-.18,1.75-1.13,1.54s-.53-1.21-.46-1.89c.28-2.68.3-2.69-2.32-2.69-3.2,0-6.41,0-9.6,0-1.1,0-2.49-.6-3,1.27-.18.68-.89.12-1.11-.33-.48-1-1.33-1-2.22-1-3.42,0-6.84.06-10.26,0-1.78,0-2.58.47-2.28,2.38A13.64,13.64,0,0,1,86.85,80.92Z" transform="translate(0 0)"/><path class="cls-1" d="M10,50.29a7,7,0,0,1,4.61-.9c1.14.09,1.63-.33,1.61-1.44-.05-2.5-.1-5-.12-7.49,0-1.38-.75-1.7-2-1.63a7.05,7.05,0,0,1-4.2-.57c1.35,0,2.7,0,4.06,0s2.08-.6,2.18-2.07c.2-2.71-.56-5.34-.48-8,0-.95-.73-1.32-1.59-1.49a8.1,8.1,0,0,1-3.33-1.2c.92.05,1.84.14,2.75.15s2,.18,2.16-1.21-.61-1.8-1.79-1.89c-.27,0-.6,0-.7-.39.45-.88,2.26,0,2.12-1.31s-2-.84-2.88-1.81c.75-.7,1.67.11,2.64-.35-1.79-1.44-4.08.11-5.74-1.71,2.07-.14,4-.59,6.18.41-.13-2.17-.2-4.23-.38-6.28-.07-.82-.76-1-1.48-.86A11.57,11.57,0,0,1,9.06,10C6,9.59,2.88,8.82,0,10.88A6.93,6.93,0,0,1,6.67,8.77a24.31,24.31,0,0,0,6.93.53c1.53-.19,3-.81,4.46,0-2.55,2.68-1.32,5.91-1.14,8.93.06,1-.14,2.46,1.2,3.29.53.32-.3.59-.55.87a2.75,2.75,0,0,0-.31,2.88c.33,1,1.31.7,2.08.76,1,.07,2-.25,3.07.47-1.17,1-2.36.46-3.44.59-1.83.23-2.24,1.11-1.2,2.61.22.33.78.48.44,1.05-1.36,2.34-.28,4.78-.41,7.16A36.73,36.73,0,0,0,18,47.22c.54,2.72-.2,5.35-.08,8,.09,1.94.43,3.27,2.61,3.43a.75.75,0,0,1,.39.19,1.87,1.87,0,0,1,.27.36c-.62,1.11-2.7,0-2.83,1.79a27,27,0,0,0-.06,3.48c.13,2.1-.38,4.19,0,6.3.12.64,0,1.71-.84,1.77s-1-.89-1-1.64c0-2.83-.13-5.66,0-8.49.06-1.81-.43-2.78-2.42-2.63-.66,0-1.78.19-1.77-.72s1.13-.74,1.79-.71c1.85.08,2.46-.78,2.25-2.51a7.79,7.79,0,0,1,.14-1.51c.31-3.14-.54-4.07-3.71-4.07Z" transform="translate(0 0)"/><path class="cls-1" d="M22.42,38.48c1.38-1.79,2.83-3.52,4.11-5.37,2.7-3.91,4.77-8.36,3.71-13-.6-2.63-.32-5-.49-7.54C29.45,8.43,27.56,4.81,26,1.07A1.7,1.7,0,0,1,25.84,0a30.75,30.75,0,0,1,4.45,8.15c1,2.46.65,5.38,2.59,7.52a.79.79,0,0,1,0,.63c-1.76,6-1.77,12.51-5.69,17.79A26.37,26.37,0,0,1,23,39Z" transform="translate(0 0)"/><path class="cls-1" d="M35.9,81c-.17-1-.34-1.84-.45-2.68-.39-2.82-.66-3-3.6-2.85-1.66.1-3.33.13-5,.16a1.44,1.44,0,0,1-1.51-.85c1.44-.95,3.06-.52,4.59-.6a7.83,7.83,0,0,1,1.52.15c3.25.46,3.25.47,4.5-2.6a.77.77,0,0,1,.81.58c-.09,2.67,1.88,2.21,3.42,2.22,4.78,0,9.57-.08,14.35-.11a3.57,3.57,0,0,0,1.4-.47c.68-.29,1.3.66,1.21.86-1,2,.35,4.3-.88,6.49a3.53,3.53,0,0,1-.63-3.58c.34-1.55-.22-2.11-1.79-2.1-4.94,0-9.88,0-14.82-.06-1.84,0-2.48.69-2.39,2.44A3.55,3.55,0,0,1,35.9,81Z" transform="translate(0 0)"/><path class="cls-1" d="M165.31,9.14a11.16,11.16,0,0,1,5.85,0c1.51.41,1.79,1.48,1.7,2.84s-1.05,1.46-2.11,1.62a50.74,50.74,0,0,1-8,1c.84-1.36,2.06-1.09,3-1.31a18.84,18.84,0,0,1,3-.21c1-.05,2.18,0,2.24-1.46s-1-1.93-2.28-2C167.61,9.51,166.45,9.78,165.31,9.14Z" transform="translate(0 0)"/><path class="cls-1" d="M161.69,9.5c-1.8.84-3.73.39-5.61.52-1.05.07-2.2-.23-2.94.9a.79.79,0,0,1-1.12.31c-.52-.3-1.06-.79-1-1.35a10.34,10.34,0,0,1,1.05-3c.4-.71.94-.17,1,.34.38,2.09,1.9,2.1,3.47,2S160,8.73,161.69,9.5Z" transform="translate(0 0)"/><path class="cls-1" d="M17.89,6.06a11.6,11.6,0,0,1-5.48.81c-3.68-.17-7.35-.52-11-.81C.83,6,0,6.06,0,5.3s.83-.59,1.35-.59a6.38,6.38,0,0,1,2.15.17c4.28,1.56,8.67,1.31,13.08,1A5.6,5.6,0,0,1,17.89,6.06Z" transform="translate(0 0)"/></svg>