<svg id="Capa_1" data-name="Capa 1" xmlns="http://www.w3.org/2000/svg" viewBox="0 0 137.6 102.38"><defs><style>.cls-1{fill:#cdcccc;}</style></defs><path class="cls-1" d="M33.92,66.39v0s0-.06,0-.09Z" transform="translate(0 0)"/><path class="cls-1" d="M35.05,68.35l-1.12-1.93C33.59,67.44,34.5,67.8,35.05,68.35Z" transform="translate(0 0)"/><path class="cls-1" d="M32,46.67l-.15.4.56.48c0-.11.15-.27.12-.32A4.68,4.68,0,0,0,32,46.67Z" transform="translate(0 0)"/><path class="cls-1" d="M35.39,69.4l0-.19-.11-.14c0,.05-.13.12-.12.13A1.71,1.71,0,0,0,35.39,69.4Z" transform="translate(0 0)"/><path class="cls-1" d="M34.9,51.7l-.15.28.15.14a1,1,0,0,0,.13-.28S35,51.75,34.9,51.7Z" transform="translate(0 0)"/><path class="cls-1" d="M35.52,53v0l0,.07s0-.08,0-.11Z" transform="translate(0 0)"/><path class="cls-1" d="M35.16,52.84c.06.23.21.19.36.11l-.23-.4C35.24,52.64,35.13,52.76,35.16,52.84Z" transform="translate(0 0)"/><path class="cls-1" d="M33.91,66.4l0-.07s0,0,0,.06Z" transform="translate(0 0)"/><path class="cls-1" d="M33.52,66.41c.15.15.28.13.39,0l-.4-.18C33.51,66.28,33.48,66.37,33.52,66.41Z" transform="translate(0 0)"/><path class="cls-1" d="M27.13,28.2a8.86,8.86,0,0,0,.7,1.26,9.72,9.72,0,0,1,.3-1.66c.22-.57-.1-.65-.48-.85s-.48.2-.7.41C26.48,27.8,27.05,28,27.13,28.2Z" transform="translate(0 0)"/><path class="cls-1" d="M15.65,59.75h0a46.31,46.31,0,0,0-4.55,7.63c-.63,1.15-.24,2,1,2.44,6.74,2.39,13.44,4.89,20.21,7.18,10.82,3.66,21.7,7.15,32.53,10.76,4.59,1.52,9,3.66,13.74,4.62,2,.4,3.38.06,4.45-2,2.43-4.76,4.17-9.8,6.28-14.69,7.62-17.72,16.46-34.89,23.8-52.73.51-2-.58-2.89-2.29-3.21s-3.17-.44-4.75-.64a.87.87,0,0,1-.91-.18l-7.66-1.6L96.38,17a20.51,20.51,0,0,1-5.54-1c-.19.19-.38.37-.57.57L96.8,18a1.48,1.48,0,0,1,1.27.26c3.51.66,7.05,1.23,10.53,2,4.86,1.07,4.46.34,2.66,4.94-4,10.24-8.57,20.27-13.47,30.12-5.54,11.12-9.88,22.77-15,34.06-1.25,2.75-1.87,2.88-4.91,2.2-5.29-1.18-10.12-3.66-15.26-5.25-16.6-5.13-33-10.86-49.31-16.82-1.65-.6-2-1.12-1.11-2.79,1.23-2.27,3-4.32,3.5-6.94.93-.21,1-1.12,1.32-1.77q8.24-16.44,15.72-33.24c2.36-5.3,5-10.48,7.49-15.72h0c1-2,2.51-2.32,4.75-1.8,7,1.59,14,2.89,21,4.29.61.12,1.24.33,1.84-.19l-1-.32L43.51,6.25c-2.13-.43-3.11.39-3.32,2.76-.71-.27-.7.42-.86.74-1.84,3.76-4,7.33-5.65,11.2-.17.42-.11,1.23-1,1.1.14-1.42-.94-2.69-.51-4.17-.64-.42-.51-1-.41-1.66-.34,0-.34-.45-.5-.45-.58,0-.36.44-.31.71.34,1.53.72,3.06,1.08,4.59.12.62.25,1.24.42,2.06-.94-.42-.63-1.16-.93-1.61-.59-1.35-.58-2.93-1.6-4.13a30.53,30.53,0,0,0,1.62,6.18,2,2,0,0,1,.15,1.94C29.42,30.35,27.23,35.2,25,40,21.9,46.61,18.77,53.18,15.65,59.75Z" transform="translate(0 0)"/><path class="cls-1" d="M32.12,17.88l.05,0s0,0,0,0l-.06,0Z" transform="translate(0 0)"/><path class="cls-1" d="M32.26,35.64c-.65,1.43-1.31,2.84-1.95,4.27a1.16,1.16,0,0,0,.37,1.5A2.82,2.82,0,0,0,35,40.76c.32-.47.65-.92,1-1.39,1-1.57,1-1.57.69-2.6A23.8,23.8,0,0,1,34.16,41c-.91,1.44-1.89.33-2.74.1s-.51-1.09-.29-1.75C31.54,38.13,32.49,37.12,32.26,35.64Z" transform="translate(0 0)"/><path class="cls-1" d="M36.84,64.27,32.48,55l-.42.2,4.36,9.24Z" transform="translate(0 0)"/><path class="cls-1" d="M33.45,65.46,30.3,59.58l-.44.24,3.21,5.85Z" transform="translate(0 0)"/><path class="cls-1" d="M31.83,67.18c-.8-1.63-1.59-3.27-2.38-4.9A9.61,9.61,0,0,0,31.83,67.18Z" transform="translate(0 0)"/><path class="cls-1" d="M34.38,51.36c-.27-1.28-.55-2.57-1.81-3.32Z" transform="translate(0 0)"/><path class="cls-1" d="M135.76,82.35a5.72,5.72,0,0,0-.87-.58c-7.12-4.51-14.4-8.78-21.36-13.54a10.76,10.76,0,0,0-6.2-1.79c.52-1.15.9-2,1.34-2.92,6.08-12.12,11.64-24.48,16.89-37,2.95-7,1.3-10.14-6.15-11.84-.14,0-.27-.08-.41-.1-8-1.46-16.07-2.73-24.06-4.33-10.68-2.14-21.45-3.84-32.12-6C55.09,2.7,47.3,1.61,39.57.13a5.25,5.25,0,0,0-5.7,2.24A49,49,0,0,0,30,8.4c-9.25,17.91-18.44,35.86-27.31,54a28.85,28.85,0,0,0-2.52,6c-.46,1.89,0,3.41,1.67,4.34,3.24,1.8,6.31,3.92,9.84,5.23C28.59,84.2,45.55,90.3,62.76,95.73c8.23,2.59,16.22,5.86,25,6.57,6.1.49,9.58-1.18,12.31-6.61a140.65,140.65,0,0,0,5.9-14.2c.46-1.24.91-1.61,2.28-1.25,6.24,1.64,12.52,3.15,18.79,4.72a28.78,28.78,0,0,0,7.48,1.14c1.06,0,2.43.39,3-1S136.61,83.11,135.76,82.35ZM75.57,98.23c-18-5.92-36.12-11.52-53.77-18.49-6-2.37-12-4.67-17.94-7.28-3-1.32-3.36-2.24-2-5.22C8.28,53.18,15.17,39.35,22.37,25.68c3.34-6.34,6.54-12.75,9.92-19.07,3-5.62,3.74-5.92,10-4.86,19.07,3.22,38,6.93,57,10.46,7,1.3,14,2.35,20.91,4,5.72,1.34,6.73,5,4.54,10.06-6.76,15.75-14.69,31-22,46.47-3.45,7.37-6,15.17-10.15,22.21-2.49,4.19-4.11,5.26-8.9,5.3A42.51,42.51,0,0,1,75.57,98.23Zm28.56-19.71a1,1,0,0,0-1,.84.41.41,0,0,1-.33.18c-.25,0-.65-.08-.71-.23a1.21,1.21,0,0,1,0-1C102.59,77.56,103.13,78.17,104.13,78.52Zm-3.65,13.61q-1,2.22-2.12,4.36c-2.13,4.09-6.2,5.76-11.12,4.39a9.08,9.08,0,0,1,1.4-.19c6.46.39,9.13-3.87,11.12-9,1.83-4.71,3.71-9.4,5.6-14.09a3.68,3.68,0,0,1,1.24-2A111.22,111.22,0,0,1,100.48,92.13Zm28.17-7.85c-1.19-.43-2.37-.89-3.55-1.33h0l0,0h0c-1.1.43-1.61-.83-2.53-.89-.06-.5-.47-.65-.84-.84a2.14,2.14,0,0,0-1.19-.94l-.28.3,1.18.93h0l.37.47.71.12c-.2.62-.59.47-1,.2-1.59-.61-3.43-.45-4.91-1.46h0l0,0h0l0,0v0a9.52,9.52,0,0,1-4.15-.72c-.6-.29-.82-1.32-1.74-.95l0,.37a3.47,3.47,0,0,1,.37.31c-.2.32-.41.1-.62,0a4.12,4.12,0,0,1-2.21-2c-.52-1-.59-1.83.59-2.3a1.61,1.61,0,0,0,1-1.42c.46-.07.76.83,1.35.2-.44-.29-.62-1-1.32-.68,0-.46-.66-.93.62-1.35,2.28-.75,3.56.41,5.1,1.45,3,2,6.09,4,9.12,6A1.55,1.55,0,0,0,126,80c.56-.71.49-1.21-.42-1.67-2.28-1.17-4.06-3.13-6.45-4.16-.49-.21-.78-.88-1.15-1.34-.5-.16-1.5.49-1.31-.8l-.59-.2-1.54-1a2,2,0,0,1-1.27-.84l-.58-.22c-1.82-.83-3-.33-3.78,1.58a33.23,33.23,0,0,1-1.72,3.36c-.16.22,0,.83-.5.59s-.07-.59.25-.79c.46-1.29.88-2.6,1.4-3.87,1.27-3.09,1.9-3.24,4.61-1.18l.6.21,1.3.83,1.49,1.06.51.35a1.68,1.68,0,0,1,1.26.86c6.17,4,12.85,7.18,19,12A17.21,17.21,0,0,1,128.65,84.28ZM109.88,73.72v.36c-.33.35-.62,0-.61-.2S109.65,73.76,109.88,73.72Z" transform="translate(0 0)"/><path class="cls-1" d="M103,68c6-13.36,12.29-26.63,17.92-40.18a25.34,25.34,0,0,0,1.76-5.16c.57-3.09,0-4.14-3.1-4.79C109.75,15.76,99.87,14,90,12.06Q71.17,8.45,52.35,4.78C48.29,4,44.18,3.39,40.07,2.83c-2.09-.29-4.33-.59-5.55,1.83-1.7,3.37-3.34,6.78-5,10.18l.36.34c1.56-3,3.2-6.06,4.66-9.15a3.64,3.64,0,0,1,4.2-2.29c9.35,1,18.49,3.2,27.7,5C74,10.4,81.58,11.62,89.19,12.89l.9.15c7.83,1.81,15.74,3.22,23.64,4.67a6.36,6.36,0,0,1,2.62.56,5.69,5.69,0,0,1,.83.07c4.54.88,5.57,2.79,3.71,7-.54,1.24-.84,2.64-1.91,3.62l0,.05q-1.38,3.51-2.75,7c-3.27,8.06-6.78,16-10.77,23.72-2.8,5.43-5.25,11-7.8,16.55-.32.7-.56,1.17-1.21.39a7,7,0,0,1-.92,4.14c-2.13,4-4.14,8.13-6.35,12.12-1.71,3.1-3.34,3.58-6.79,2.86-15.31-3.18-29.78-9-44.4-14.31C26.88,77.49,16,73,4.79,69.33L4.35,69c-.42-1.7.3-3.18,1-4.63,1.36-2.91,2.78-5.8,4.17-8.69.42-.14.33-.54.43-.84.18-.54.71-.29,1.06-.47a2,2,0,0,0,.47,2l.29-.15c-.1-.65-.21-1.3-.31-1.94l-.37,0c-.05-.58-.48-1.25.35-1.61-.14.53.48,1,.11,1.59.33.05,1,.9.8-.36-.06-.38-.46-.79-.14-1.2-.2,0-.38-.25-.58-.22.19-.34-.26-.72-.06-1.06.36-.16.38-.51.43-.83.36-.18.37-.53.41-.86h0L13,48.55c.13-.28.27-.57.41-.85L13,47.38c-.35.19-.37.53-.42.86-.21.38-.43.76-.64,1.15h0l-.42.84h0L11.2,51h0L9.5,54.46h0l-.39.84C7.23,59.1,5,62.71,3.69,66.8c-.3,1-.57,1.92.44,2.65h0l.14.15A7.1,7.1,0,0,0,7,71.11q6,2.31,12,4.49C33.61,80.86,47.89,87,62.73,91.52c6.57,2,13,4.37,19.82,5.63,4.11.76,6.2-.17,8.22-3.79C95.37,85.14,99.12,76.52,103,68Z" transform="translate(0 0)"/><path class="cls-1" d="M27.8,19.39c.55-1.13,1.11-2.26,1.66-3.4l-.38-.31a10.15,10.15,0,0,0-1.66,3.4L26.4,21l-1.7,3.36.35.37a10.62,10.62,0,0,0,1.69-3.38A5.53,5.53,0,0,0,27.8,19.39Z" transform="translate(0 0)"/><path class="cls-1" d="M29.88,15.18l-.36-.34c-.38.16-.38.51-.44.84l.38.31Z" transform="translate(0 0)"/><path class="cls-1" d="M14.08,46.3c.36-.19.37-.53.41-.87L20.17,34.2a76.42,76.42,0,0,0,4.88-9.48l-.35-.37-4.92,9.49a95.82,95.82,0,0,0-5.69,11.32h0c-.13.28-.26.56-.4.84h0l-.23.54c-.37.17-.39.51-.43.84l.38.32.42-.84Z" transform="translate(0 0)"/><path class="cls-1" d="M118,78.27c-.38-.36-.64-1-1.59-.69l1.27,1c.88.68,1.76,1.36,2.63,2.05l.28-.3A8.9,8.9,0,0,0,118,78.27Z" transform="translate(0 0)"/><path class="cls-1" d="M115.74,78.4c.4.34.55,1.15,1.34.76a1.68,1.68,0,0,0-1.19-.91Z" transform="translate(0 0)"/><path class="cls-1" d="M126.8,80.43c-.11-.49-.48-.4-.82-.39C126.14,80.44,126.32,80.76,126.8,80.43Z" transform="translate(0 0)"/><path class="cls-1" d="M125.92,80.05H126l0,0,0,0,0,0h0l0,0Z" transform="translate(0 0)"/><path class="cls-1" d="M123.9,81.25h0l-.05,0c-.07-.39-.41-.47-.71-.6l-1.61-1.41h0L121,79l-1.18-1h0l-.48-.28-1.25-.84h0l-.53-.34c-.12-.26-.26-.47-.56-.18l.38.36h0a.43.43,0,0,0,.51.33,1.78,1.78,0,0,0,1.22.9l.47.38a1.88,1.88,0,0,0,1.2.91l.48.36a3.18,3.18,0,0,0,1.7,1.27c.19.37.38.77.87.39h0s0,0,0,0Z" transform="translate(0 0)"/><path class="cls-1" d="M125.64,82.53a1.09,1.09,0,0,0-.41-.17c0-.13-.24-.23-.45-.33,0-.29-.24-.37-.5-.34l-.13.11a.42.42,0,0,0,.52.35l.24.48,0,.06h.05l.16.26.69-.1C125.73,82.74,125.72,82.57,125.64,82.53Z" transform="translate(0 0)"/><path class="cls-1" d="M116.32,75.92a1.38,1.38,0,0,0,.14.27l.14-.15-.14-.26S116.32,75.89,116.32,75.92Z" transform="translate(0 0)"/><path class="cls-1" d="M113.8,76.53l-.5-.34-.61-.61h0l-.52-.38c-.16-.19-.28-.52-.56-.14,0,0,.24.23.36.35l.47.38c0,.39.36.47.64.59h0l.49.38h0l.51.33.39.35s.14-.12.14-.12-.23-.27-.35-.41Z" transform="translate(0 0)"/><path class="cls-1" d="M114.92,77.66s.21.25.32.38l.19-.17C115.34,77.61,115.23,77.37,114.92,77.66Z" transform="translate(0 0)"/><path class="cls-1" d="M115.43,77.87l-.19.17.5.36.15-.15A.4.4,0,0,0,115.43,77.87Z" transform="translate(0 0)"/><path class="cls-1" d="M110.46,78.59l-.41-.43-.42-.42-.44-.4c-.15-.22-.28-.52-.58-.17a3.12,3.12,0,0,0,.36.39h0l.45.4a.42.42,0,0,0,.44.4.39.39,0,0,0,.45.4c0,.27.16.41.43.39C111.05,78.8,110.69,78.72,110.46,78.59Z" transform="translate(0 0)"/><path class="cls-1" d="M110.74,79.15l0,0h.05v0Z" transform="translate(0 0)"/><path class="cls-1" d="M117.11,79.17l0,0h0l-.06,0h0Z" transform="translate(0 0)"/><path class="cls-1" d="M117.38,79.73l1.14,1h0l.48.38.25-.27a.41.41,0,0,0-.47-.38,1.83,1.83,0,0,0-1.22-.89c0-.28-.21-.36-.45-.37C116.79,79.53,117.15,79.6,117.38,79.73Z" transform="translate(0 0)"/><path class="cls-1" d="M116.59,80.43c-.07,0-.2.07-.31.1l.38.3C116.75,80.68,116.81,80.53,116.59,80.43Z" transform="translate(0 0)"/><path class="cls-1" d="M126.82,80.45l0,0h0l0,0h0Z" transform="translate(0 0)"/><path class="cls-1" d="M126.94,80.82s.12,0,.19,0l-.31-.32C126.71,80.61,126.73,80.74,126.94,80.82Z" transform="translate(0 0)"/><path class="cls-1" d="M119.61,81.15s-.23-.22-.36-.34l-.25.27C119.19,81.24,119.38,81.51,119.61,81.15Z" transform="translate(0 0)"/><path class="cls-1" d="M129.06,81.18a1.39,1.39,0,0,0,.28-.12c-.05,0-.1-.14-.14-.13a2.14,2.14,0,0,0-.28.12C129,81.1,129,81.19,129.06,81.18Z" transform="translate(0 0)"/><path class="cls-1" d="M123.87,81.29c-.32.35,0,.41.28.51l.13-.11C124.28,81.41,124.11,81.31,123.87,81.29Z" transform="translate(0 0)"/><path class="cls-1" d="M130.08,81.81l.29-.28c-.21-.18-.41-.41-.66-.08A4.42,4.42,0,0,0,130.08,81.81Z" transform="translate(0 0)"/><path class="cls-1" d="M130.68,82s-.2-.29-.31-.43l-.29.28C130.24,82,130.41,82.28,130.68,82Z" transform="translate(0 0)"/><path class="cls-1" d="M131.29,82.71l.53.32c.12.26.26.5.55.17a4.11,4.11,0,0,0-.34-.39l-.5-.34c-.13-.25-.28-.51-.57-.18,0,0,.21.28.33.42Z" transform="translate(0 0)"/><path class="cls-1" d="M132.86,83.73a1.23,1.23,0,0,0,.29-.13c-.05,0-.11-.14-.14-.13a1.85,1.85,0,0,0-.29.13C132.77,83.65,132.83,83.74,132.86,83.73Z" transform="translate(0 0)"/><path class="cls-1" d="M64.24,30.78c.35-.89,1.16-.76,1.8-.5,1,.41,2.21.29,3,1.17.06.06,0,.28-.07.39a18.28,18.28,0,0,0-2,3.21c-.63,1.75-1.89,1.3-3.15,1.23,1,.61,2.06,1.5,3.05.12s1.74-2.71,2.62-4.06c.57-.88.22-1.38-.6-1.8-3.57-1.85-4.7-1.47-6.19,2.13a3.18,3.18,0,0,1-.31.78c-.35.41-.63,1-1.09-.07-1.57-3.57-3.28-7.09-4.93-10.63-.33-.62,0-.67.47-.49.67-.43,1.62.7,1.8.14.4-1.19,1.45-2.07,1.5-3.38h0a2.56,2.56,0,0,0,1-3.05l-.07-.07-5.3-.6c-.41.19-.38-.14-.44-.37a.64.64,0,0,0-.36,0l-.3-.44c-.34.27-.1.46.1.64.83,1.18.1,2.11-.55,3-1.17,1.6-1.05,2.6.62,3.59a2.59,2.59,0,0,1,1,1.31c1,2,1.95,4,3,6,1.39,2.74,2.82,5.47,4.23,8.2C61.92,34.72,63.43,32.79,64.24,30.78Zm-7-14.84a18.83,18.83,0,0,1,3.05.72c1.52.74-1.07,1.52-.12,2.38-1,.21-.88,1.39-1.7,1.95-1-1.17-1.41-2.73-2.11-4.1C56,16.24,56.14,15.63,57.19,15.94Zm-1.48,1.35a11.61,11.61,0,0,1,2,3.83.4.4,0,0,1,.14.63c0,.05-.31-.08-.48-.13C54.58,20.91,54.1,19.71,55.71,17.29Z" transform="translate(0 0)"/><path class="cls-1" d="M49.9,39.61a24.15,24.15,0,0,1-2.44,4.46,27.08,27.08,0,0,1-2.89-5c1.74.56,3.11.24,4.47.63a4.09,4.09,0,0,0-3.1-1A2.55,2.55,0,0,1,43.18,37c-1.09-2.14-2.36-4.18-3.55-6.27a18.23,18.23,0,0,0,1.68,4c1,2.17,3.49,4,1.32,7,1.3-.23.89-1.32,1.65-1.69a14.65,14.65,0,0,1,1.24,2c.41,1,1.76,1.93,1.21,2.92s-1.85-.47-2.84,0c1.21,1.47,3.36.09,4.66,1.59C46.57,43.74,50.62,42.41,49.9,39.61Z" transform="translate(0 0)"/><path class="cls-1" d="M57.8,46.05h0Z" transform="translate(0 0)"/><path class="cls-1" d="M58.63,42.57c1.42-.92,1.18,1.22,2,1.6.06-1,.49-2.3-1.1-2.87-.22-.07-.26-.61-.41-.92-.56-1.16-1.14-2.32-1.71-3.48.22,1.41,1.1,2.59,1.32,3.88.25,1.46-1.77,1.88-2,3.69-1.6-2.82-2.41-5.52-4.23-7.65a10.65,10.65,0,0,0,.88,2.08c1,1.94,1.93,3.87,2.85,5.82.4.85-1.06,1.79-.11,2.47.36.25.61-1.32,1.6-1.15C56.33,44.47,57.76,43.13,58.63,42.57Z" transform="translate(0 0)"/><path class="cls-1" d="M75.37,38.46c-.17.34.18.76.52,1.06,2.21,2,4.82,1.51,6.13-1.1,2.31-4.59,2.31-4.58-2.73-5.34-.89-.13-1.7-.16-2,.94h0C76,35.18,76.07,37,75.37,38.46Zm4.17-4.78c1.09.53,2.53.15,3.42,1.2.23.27-2.36,5.17-2.8,5.26a5.08,5.08,0,0,1-3.52-.93c-.94-.55-.31-1.32-.13-2,.26-1.05,1-2,.83-3.15C78.1,34.14,78.65,33.24,79.54,33.68Z" transform="translate(0 0)"/><path class="cls-1" d="M78.46,67.05c-.29.42.06.88.35,1.11a8.48,8.48,0,0,0,4.58,1.71c1.41.09,1.49-1.54,1.88-2.45,2.28-5.3,1.83-4.19-2.91-5.81-.63-.21-1.12-.1-1.18.69h0C79.67,63.53,79.49,65.54,78.46,67.05Zm7-3.89c.74.17.73.61.44,1.24-.38.82-.62,1.7-.94,2.55-.73,1.88-1.52,2.88-4,1.81-1.92-.83-2.29-1.36-1.23-3.08a24.39,24.39,0,0,0,1.49-3.38C82.75,61.93,84,62.84,85.42,63.16Z" transform="translate(0 0)"/><path class="cls-1" d="M85.22,27.88c1.27,0,1.82-1.26,2.49-2.4,2.27-3.9,2.27-3.89-2-4.71-2.14-.41-4,1.36-4.41,4.22C81.1,26.41,82.71,27.72,85.22,27.88ZM82.41,24c1.14-2.82,3.22-3.6,5.93-2.24.29.15.52.32.37.59-.89,1.66-1.57,3.46-3,4.73-.22.19-.67.13-.81.15C82.52,27.17,81.63,25.88,82.41,24Z" transform="translate(0 0)"/><path class="cls-1" d="M75.25,51.84c-.54.87-1.62,0-2.5.19,2.33,1.35,2.54,1.29,3.56-1,.18-.38.38-.75.58-1.12,1.59-3.08,1.49-3.31-1.87-4.24-.2-.06-.39-.15-.59-.2-2.63-.74-2.24,1.78-2.87,2.92s-2.22,2.5,0,3.65c0,0,.12,0,.18,0-.54-1.25.27-5,1.48-5.85,1-.71,1.92.27,2.88.47.49.1,1.3.31,1,1A22.29,22.29,0,0,1,75.25,51.84Z" transform="translate(0 0)"/><path class="cls-1" d="M46.8,12.66c-.4-.14-.8-.27-1.2-.38-.93-.27-2.05-.84-2.58.38-.71,1.65-2.54,3.08-1.37,5.23,0,0,.24-.06.38-.09-.51-1.65.56-2.87,1.16-4.21.23-.52.42-1.29,1.32-1a9.43,9.43,0,0,1,3.3,1.27c.08.06,0,.39-.07.58A5.53,5.53,0,0,1,42.83,18c1.85.77,3.13,1.34,3.86-.8a8.27,8.27,0,0,1,1.09-1.78C49.09,13.57,49,13.4,46.8,12.66Z" transform="translate(0 0)"/><path class="cls-1" d="M69.77,25.11c.21-.94-.57-.76-1-.88s-1-.45-.92-1.16a4.25,4.25,0,0,1,5.84-3.92c.9.28.89.66.49,1.36-.73,1.26-1.4,2.56-2.1,3.84.78-.31,3.3-4,3.2-4.67s-.56-.74-1-.93c-3.18-1.29-4.9-.59-6.46,2.63C66.51,24,67.05,25,69.77,25.11Z" transform="translate(0 0)"/><path class="cls-1" d="M114.57,37.29l.15.7C114.68,37.76,114.63,37.52,114.57,37.29Z" transform="translate(0 0)"/><path class="cls-1" d="M115.52,35.68l-.9-3.74c-.67-1.5-.67-3.24-1.64-4.77-1.6,3.79.74,6.85,1.59,10.12-.38-1.66-.76-3.35-1.19-5.27C115,33,114.4,34.82,115.52,35.68Z" transform="translate(0 0)"/><path class="cls-1" d="M50.27,26.9c-1.19,1-1.58,2.75-2,4.28C48,32,48.1,32,49.5,32.64c-1.22-1.31-.19-2.38.18-3.47.29-.83.52-1.92,1.51-2.12s1,1.2,1.7,1.57c0-.39.07-.77.11-1.16a4.32,4.32,0,0,1,1.61.34c.88.6-.26,1.19-.16,1.83-.59.46-.78-.48-1.27-.37.68,2.4-.41,3.81-3.16,3.62,1.12.54,2.1,1.58,2.78.53s1.87-2,2-3.51c1.18-1.91,1.1-2.39-.9-2.89a5.09,5.09,0,0,1-3.11-2.36C51,25.56,51.16,26.12,50.27,26.9Z" transform="translate(0 0)"/><path class="cls-1" d="M98,25.6c-.14.21-.29.41-.43.61v0a8.88,8.88,0,0,1-.38,1.39c-.9,1.91.33,2.45,1.78,2.93s2.77,1,3.45-1.16a24.39,24.39,0,0,1,2-3.86c-1.74.49-1.89,2.18-2.53,3.45-.45.9-.76,1.51-2,1.24-2.37-.53-2.67-1-1.8-3.27C98.41,26.11,98.41,26.11,98,25.6Z" transform="translate(0 0)"/><path class="cls-1" d="M37.47,24.49a8,8,0,0,0-1.55,3.72,8.73,8.73,0,0,0,1.32-2.28c.81-2.19,2.2-1.52,3.71-.91,1.95.79.16,1.68.07,2.46a2.64,2.64,0,0,1-.77,1.64c.86-.57,2.66-3.34,2.46-3.84C42.27,24.2,38.22,23.57,37.47,24.49Z" transform="translate(0 0)"/><path class="cls-1" d="M95.59,43.72c1-1.53,1.92-3,2.86-4.58.39-.64.36-.66-.4-1.38l0,0c-.2-1.6-1.37-.64-2.12-.81v.3l.82.15,1.24.34a2.32,2.32,0,0,1-.9,2.06l-1.86,3.47c-.56.68-1.28.44-2,.28-3-.71-3.23-1.13-1.74-3.86.63-1.16,1.26-2.32,1.9-3.48-1.57.87-1.92,2.49-2.75,3.8-.62,1-1.36,2.13-.25,3.24C91.39,44.18,94.67,44.39,95.59,43.72Z" transform="translate(0 0)"/><path class="cls-1" d="M71.41,59.61l.06.08,0,0Z" transform="translate(0 0)"/><path class="cls-1" d="M66.82,57.87c-2.31.54-1.83,3.48-2.88,5.22-.38.63.05,1.13.68,1.27A10.58,10.58,0,0,1,66,59.44c1.47-2.46,3.13-.07,4.71,0a2.82,2.82,0,0,1,.68.17A4.3,4.3,0,0,0,66.82,57.87Z" transform="translate(0 0)"/><path class="cls-1" d="M50.21,58.57c-.32,1-.48,1,.84,1.66-.71-2.1.79-3.42,1.57-5,.41-.81.7.17,1.07.22.11-.49-.13-1.24,1-.85.62.22,1.22.92,2,.44-1.07-1.21-2.84-.83-4-1.9C52.33,55.3,50.78,56.7,50.21,58.57Z" transform="translate(0 0)"/><path class="cls-1" d="M56.64,55.07h0a.08.08,0,0,0,0,0Z" transform="translate(0 0)"/><path class="cls-1" d="M86.61,50.49s0-.06,0-.09A.31.31,0,0,0,86.61,50.49Z" transform="translate(0 0)"/><path class="cls-1" d="M88.16,49.69a33,33,0,0,0,3.42.72c-1.28-1-2.81-1-4.27-1.28-.55-.08-.92.31-.76.71a1,1,0,0,1,.07.56A1.28,1.28,0,0,1,88.16,49.69Z" transform="translate(0 0)"/><path class="cls-1" d="M85.91,51.88c-.1,1.24-1.63,2.35-.36,3.71-.29-1.8,1.35-3.21,1-5.06v0C86.48,51,86,51.38,85.91,51.88Z" transform="translate(0 0)"/><path class="cls-1" d="M54.93,60.69c-1,.82-1.76-.78-2.8-.35,2.06,1.48,2.11,1.53,3.7.06,1.3-1.2,1.33-3,1.71-4.57,0,0-.27-.18-.45-.28-.25,1,0,2.42-1.67,2.5C55.48,59,55.85,60,54.93,60.69Z" transform="translate(0 0)"/><path class="cls-1" d="M92.47,50.94c-1.89,1.56-.62,6.28-5.62,4.92C90.14,57.77,91.46,56.46,92.47,50.94Z" transform="translate(0 0)"/><path class="cls-1" d="M76.26,12.89l-5.45-.8-.06.06c1.73,1.17,3.74,1.12,5.69,1.35Z" transform="translate(0 0)"/><path class="cls-1" d="M38.68,58.42c.6,3.23,2.8,5.62,4.46,8.29Z" transform="translate(0 0)"/><path class="cls-1" d="M38.61,58.29l.07.13c0-.06,0-.12,0-.18Z" transform="translate(0 0)"/><path class="cls-1" d="M71.47,59.69l0,.05s0-.06,0-.1Z" transform="translate(0 0)"/><path class="cls-1" d="M67.63,65.32a3.06,3.06,0,0,0,1.25.74c.9.19,1.34-.44,1.43-1.16.23-1.76,2.36-3.1,1.18-5.16a27,27,0,0,1-1.32,4C69.81,65.05,69.2,65.82,67.63,65.32Z" transform="translate(0 0)"/><path class="cls-1" d="M38.56,48.46a29.42,29.42,0,0,0,3.57,6.48C40.82,52.85,40.42,50.24,38.56,48.46Z" transform="translate(0 0)"/><path class="cls-1" d="M38.45,48.35l.11.11-.06-.15s0,0,0,0a.13.13,0,0,1,0,.06Z" transform="translate(0 0)"/><path class="cls-1" d="M48.64,47.3,52.09,53A13.25,13.25,0,0,0,48.64,47.3Z" transform="translate(0 0)"/><path class="cls-1" d="M114.59,25.1c1,.64.6,1.9,1.22,2.71,0,.33.09.67.13,1a.73.73,0,0,0-.11-1c-.52-2.46-1-4.92-1.55-7.37l-.45.1c.12.81.23,1.61.35,2.41A2.28,2.28,0,0,1,114.59,25.1Z" transform="translate(0 0)"/><path class="cls-1" d="M114.59,25.1h0l0,0Z" transform="translate(0 0)"/><path class="cls-1" d="M43.19,48.29l-.11-.1.06.13,0,0,0-.05Z" transform="translate(0 0)"/><path class="cls-1" d="M43.08,48.19a32.68,32.68,0,0,0-3.64-6.1C40.69,44.1,41.1,46.62,43.08,48.19Z" transform="translate(0 0)"/><path class="cls-1" d="M115.6,31.93s.11-.09.11-.13l-.45-2.88a6.21,6.21,0,0,1-.73-3.8c-.59.19-.16-.9-.85-.65.2,2.54,1.37,4.86,1.73,7.37C115.47,31.87,115.53,31.93,115.6,31.93Z" transform="translate(0 0)"/><path class="cls-1" d="M114.54,25.06a.13.13,0,0,1,0,.06l.06,0Z" transform="translate(0 0)"/><path class="cls-1" d="M102,24.41c.46,0,1.17.67,1.08-.48-1.39.06-2.67-.83-4.09-.5-.14.37-.66.58-.36,1.32C99.67,23.2,100.87,24.36,102,24.41Z" transform="translate(0 0)"/><path class="cls-1" d="M35.58,53c.21,1.8,1.42,3.1,2.38,4.52C37.15,56.06,36.8,54.33,35.58,53Z" transform="translate(0 0)"/><path class="cls-1" d="M46.76,53.65l-2.69-3.91C44.87,52.22,45.64,53.29,46.76,53.65Z" transform="translate(0 0)"/><path class="cls-1" d="M46.76,53.65h.06Z" transform="translate(0 0)"/><path class="cls-1" d="M39.82,70.22l0,0h-.06v0h0l.05.09v-.14Z" transform="translate(0 0)"/><path class="cls-1" d="M39.85,70.33c0,1.34,1,2.16,1.75,3.11C41,72.4,40.44,71.36,39.85,70.33Z" transform="translate(0 0)"/><path class="cls-1" d="M63.59,43.9c-1.19.56-1.45,1.64-2,2.59l.52.24Z" transform="translate(0 0)"/><path class="cls-1" d="M54.67,13.91c-.42-.8-.84-1.59-1.27-2.38l-.51.34c.45.77.9,1.54,1.36,2.3Z" transform="translate(0 0)"/><path class="cls-1" d="M43.58,68.31c.35.72.7,1.43,1.15,2.33A2.18,2.18,0,0,0,43.58,68.31Z" transform="translate(0 0)"/><path class="cls-1" d="M38.63,40.71c-.16-.64,0-1.52-1.2-1.77Z" transform="translate(0 0)"/><path class="cls-1" d="M61.57,47l-1.43,1.75C61.52,48.91,61.52,48,61.57,47Z" transform="translate(0 0)"/><path class="cls-1" d="M38.46,48.29c.25-.84-.33-1.19-1.23-2C37.65,47.4,37.85,48,38.46,48.29Z" transform="translate(0 0)"/><path class="cls-1" d="M54.15,56v-.08l0,0v0Z" transform="translate(0 0)"/><path class="cls-1" d="M55,57.6a0,0,0,0,0,0,0,.11.11,0,0,0,0,.06Z" transform="translate(0 0)"/><path class="cls-1" d="M55,57.58c.19-.77-.34-1.17-.81-1.61A1.72,1.72,0,0,0,55,57.58Z" transform="translate(0 0)"/><path class="cls-1" d="M42.15,55.46l.75,1.13C43,56,42.88,55.64,42.15,55.46Z" transform="translate(0 0)"/><path class="cls-1" d="M64.84,40.3,65,40l-.49-.56c0,.09-.16.22-.14.26C64.52,39.91,64.69,40.1,64.84,40.3Z" transform="translate(0 0)"/><path class="cls-1" d="M43.17,48.34c-.27.68.24,1,.78,1.73C43.89,49,43.64,48.62,43.17,48.34Z" transform="translate(0 0)"/><path class="cls-1" d="M46.64,54.56s.21,0,.32,0l-.18-.91C46.14,53.86,46.52,54.25,46.64,54.56Z" transform="translate(0 0)"/><path class="cls-1" d="M46.78,53.66v0h0Z" transform="translate(0 0)"/><path class="cls-1" d="M38.94,69.14c.23.48.13,1.13.85,1C39.69,69.74,39.61,69.26,38.94,69.14Z" transform="translate(0 0)"/><path class="cls-1" d="M39.87,29.65c.14-.11.42-.12.27-.42h0l.11-.1-.1.06Z" transform="translate(0 0)"/><path class="cls-1" d="M64.19,38.77c-.07-.24-.14-.48-.2-.72,0,.23-.07.45-.09.68Z" transform="translate(0 0)"/><path class="cls-1" d="M64,38l0,0a.38.38,0,0,1,0-.1Z" transform="translate(0 0)"/><path class="cls-1" d="M57.8,46.05h0Z" transform="translate(0 0)"/><path class="cls-1" d="M57.55,46.8s.2,0,.3,0l-.09-.77C57.29,46.18,57.45,46.51,57.55,46.8Z" transform="translate(0 0)"/><path class="cls-1" d="M54.6,32l.26.09a.76.76,0,0,1,0-.15s-.1-.08-.13-.07A.58.58,0,0,0,54.6,32Z" transform="translate(0 0)"/><path class="cls-1" d="M55.21,33l.16-.14-.14-.16-.14.23Z" transform="translate(0 0)"/><path class="cls-1" d="M55.77,33.71l-.14-.16-.14.15.2.16Z" transform="translate(0 0)"/><path class="cls-1" d="M56.16,34.53,56,34.39a1.23,1.23,0,0,0-.12.26s.08.09.12.13Z" transform="translate(0 0)"/><path class="cls-1" d="M56.56,35.5a1,1,0,0,0-.11-.27c0,.05-.12.1-.11.13a1,1,0,0,0,.11.27C56.49,35.58,56.57,35.53,56.56,35.5Z" transform="translate(0 0)"/><path class="cls-1" d="M57.07,36.28a1.65,1.65,0,0,0-.26-.14s-.09.09-.13.13l.24.15Z" transform="translate(0 0)"/><path class="cls-1" d="M63.51,37.93a1.62,1.62,0,0,1,0,.19l.33-.12Z" transform="translate(0 0)"/><path class="cls-1" d="M64,38l-.12,0H64Z" transform="translate(0 0)"/><path class="cls-1" d="M38.92,41.34l.25.15.15-.14a1.38,1.38,0,0,0-.27-.14S39,41.3,38.92,41.34Z" transform="translate(0 0)"/><path class="cls-1" d="M57.11,55.47h-.06s0,0,0,.07h0s0,0,0-.08Z" transform="translate(0 0)"/><path class="cls-1" d="M56.67,55.09c-.19.44.13.37.38.38A.35.35,0,0,0,56.67,55.09Z" transform="translate(0 0)"/><path class="cls-1" d="M54.11,55.91c0-.24.06-.6-.39-.4C53.74,55.76,53.68,56.09,54.11,55.91Z" transform="translate(0 0)"/><path class="cls-1" d="M53.68,55.53h0l0,0v0h0a.11.11,0,0,1,0,.05Z" transform="translate(0 0)"/><path class="cls-1" d="M55,57.62c0,.24,0,.58.38.4C55.36,57.77,55.44,57.42,55,57.62Z" transform="translate(0 0)"/><path class="cls-1" d="M55,57.64l0,0v0Z" transform="translate(0 0)"/><path class="cls-1" d="M55.37,58v0h0v0Z" transform="translate(0 0)"/><path class="cls-1" d="M38.26,58.46l.29-.17-.42-.14Z" transform="translate(0 0)"/><path class="cls-1" d="M38.61,58.3l0-.06-.09,0Z" transform="translate(0 0)"/><path class="cls-1" d="M49,58.2h0c.33-.23.09-.51,0-.76,0,0-.18,0-.28,0,.09.24.18.48.26.72l0,.06Z" transform="translate(0 0)"/><path class="cls-1" d="M49.31,58.05l-.3.15.41.16C49.38,58.26,49.35,58.15,49.31,58.05Z" transform="translate(0 0)"/><path class="cls-1" d="M65.33,64.8s.13-.1.13-.13a2.24,2.24,0,0,0-.13-.27l-.15.15Z" transform="translate(0 0)"/><path class="cls-1" d="M37.19,65a1.58,1.58,0,0,0-.26-.13s-.09.08-.13.12l.25.16Z" transform="translate(0 0)"/><path class="cls-1" d="M37.3,65.78a1.39,1.39,0,0,0,.12.28s.13-.1.12-.13a1.09,1.09,0,0,0-.11-.27S37.3,65.75,37.3,65.78Z" transform="translate(0 0)"/><path class="cls-1" d="M38.05,66.7a1.58,1.58,0,0,0-.26-.13s-.09.08-.13.13l.24.14Z" transform="translate(0 0)"/><path class="cls-1" d="M38.17,67.48a1.53,1.53,0,0,0,.11.27s.13-.1.12-.14a1.53,1.53,0,0,0-.11-.27S38.16,67.44,38.17,67.48Z" transform="translate(0 0)"/><path class="cls-1" d="M43.35,67.76c0-.05.14-.11.13-.14a1.23,1.23,0,0,0-.13-.29,1.06,1.06,0,0,1-.15.15Z" transform="translate(0 0)"/><path class="cls-1" d="M38.53,68.39l.28.08v-.15s-.1-.09-.13-.08S38.58,68.34,38.53,68.39Z" transform="translate(0 0)"/><path class="cls-1" d="M16.57,48.63l-.46.12c-.13,1.43.77,2.57,1,4.22,1.75-3.2,1.13-5.95-.4-8.66.14,1.13-1.08,2-.59,3.16C16.67,47.69,16.43,48.24,16.57,48.63Zm.6,2a1.75,1.75,0,0,1,.09.38s-.08.1-.12.16a2.62,2.62,0,0,1-.09-.38C17.05,50.72,17.13,50.66,17.17,50.61ZM17,49.82c-.54-.34-.4-.71-.37-1Z" transform="translate(0 0)"/><path class="cls-1" d="M113.41,40.29a23.62,23.62,0,0,0-2.66-9.11C111.64,34.22,112.52,37.26,113.41,40.29Z" transform="translate(0 0)"/><path class="cls-1" d="M23.07,38.83h0l.67-.62h0a.41.41,0,0,0,.41-.44,2.91,2.91,0,0,0,.33-4.12c-.78-1.13-1.81-.68-2.69.09a4.82,4.82,0,0,0-1.69,2.54,2.22,2.22,0,0,0,.51,2.65A1.83,1.83,0,0,0,23.07,38.83Zm-2.15-2.9A15.72,15.72,0,0,1,22.07,34c1.76-.62,2.62,0,2.37,1.77a8.11,8.11,0,0,1-.63,1.72l-.34.41-.68.61C20.55,38.56,20.07,37.93,20.92,35.93Z" transform="translate(0 0)"/><path class="cls-1" d="M112.2,42a17.2,17.2,0,0,0-1.84-7.51C111,37,111.59,39.51,112.2,42Z" transform="translate(0 0)"/><path class="cls-1" d="M92.14,79.6h0v0h0S92.14,79.58,92.14,79.6Z" transform="translate(0 0)"/><path class="cls-1" d="M91.71,78.33h0v0a0,0,0,0,1,0,0h0Z" transform="translate(0 0)"/><path class="cls-1" d="M91.34,77.08v0s0,0,0,0a1.82,1.82,0,0,0-.14.19A.17.17,0,0,0,91.34,77.08Z" transform="translate(0 0)"/><path class="cls-1" d="M91.71,78.33c-.64-.22-.87-.57-.54-1.11-.34.07-1-.28-.7.61.77,2,1.53,4,2.43,6.36.26-1.44-.81-2.29-.35-3.34a.78.78,0,0,1-.41-1.25C91.53,79.33,91.32,78.93,91.71,78.33Z" transform="translate(0 0)"/><path class="cls-1" d="M92.55,80.84h0l0,0Z" transform="translate(0 0)"/><path class="cls-1" d="M94.8,78.47c-.36-2.52-.57-5.09-2.23-7.19C93.31,73.68,94.05,76.07,94.8,78.47Z" transform="translate(0 0)"/><path class="cls-1" d="M92.59,80.88l0-.06-.07,0Z" transform="translate(0 0)"/><path class="cls-1" d="M93,78.34l0,0,0,0Z" transform="translate(0 0)"/><path class="cls-1" d="M92.6,77.05l0,0s0,0,0,0l0,0Z" transform="translate(0 0)"/><path class="cls-1" d="M93,78.34v0l0,0Z" transform="translate(0 0)"/><path class="cls-1" d="M93.39,80A1.33,1.33,0,0,1,93,78.33c-.67-.24-.88-.64-.43-1.27-1.1-.15-.47-1.85-1.69-1.94-.07.72.75,1.2.49,1.94.53.28.56.73.41,1.25.61.27.58.74.42,1.27.64.25.69.69.44,1.24.56-.26.28.7.77.58V80l0,0h0a1.41,1.41,0,0,0,.26-.42C93.5,79.68,93.35,79.77,93.39,80Z" transform="translate(0 0)"/><path class="cls-1" d="M91.77,72.89c.07,1.74,1.15,2.82.83,4.16.6.26.51.77.42,1.27.42.39.87.76.67,1.3.28-.09.63-.12.44-.54C93.3,77.2,93.21,75,91.77,72.89Z" transform="translate(0 0)"/><path class="cls-1" d="M11.58,59.08c0-.48-.52-.92-.18-1.43-.64,0-.17-.88-.71-1-.08-.36.06-.81-.42-1-.36.47-.07.88.12,1.3.11.64.51,1.24.25,1.93l0,0h0a.67.67,0,0,0-.06.12.38.38,0,0,0,.09-.09c.51.47,1,1,.41,1.69a2.1,2.1,0,0,1,.84,2.51c.72-.13.94-.57.8-1.25l0,0h0a.13.13,0,0,0,0,0l-.06,0C11.91,61.09,12,60,11.58,59.08Z" transform="translate(0 0)"/><path class="cls-1" d="M7.15,64c-.69,1.27-.09,2.27.55,3.25a.82.82,0,0,0,.66.31c.32-.08.41-.38.5-.76C9.23,65.23,7.41,65.11,7.15,64Z" transform="translate(0 0)"/><path class="cls-1" d="M111.21,43c-.07-1.94-.23-3.86-1.57-5.4C110.16,39.37,110.69,41.17,111.21,43Z" transform="translate(0 0)"/><path class="cls-1" d="M28.73,18.88q.68,3,1.33,6C30.06,22.79,30,20.7,28.73,18.88Z" transform="translate(0 0)"/><path class="cls-1" d="M109.84,44.32c-.1-1.71-.06-3.44-1.3-4.81C109,41.11,109.41,42.71,109.84,44.32Z" transform="translate(0 0)"/><path class="cls-1" d="M91,84.36c-.21-1.94-.46-3.85-1.89-5.33Z" transform="translate(0 0)"/><path class="cls-1" d="M33.9,18.1c.26-1.47-.3-2.87-.06-4.34,0-.29,0-.76-.48-.76-.67,0-.51.5-.42.89Z" transform="translate(0 0)"/><path class="cls-1" d="M11,60.55v0l0,0v0l0,0Z" transform="translate(0 0)"/><path class="cls-1" d="M11,60.58c-.47-.46-.85-.94-.47-1.6-.25.17-.35-.1-.49-.27h0c-.16-.29-.18-.92-.57-.72s-.13.68.27.9c-.13,1,.89,1.9.5,3,.68.19.58.86.77,1.34.44,1.11.51-.24.78-.16A2.67,2.67,0,0,1,11,60.58Z" transform="translate(0 0)"/><path class="cls-1" d="M11.8,63.05l.08.07v0h0A.15.15,0,0,0,11.8,63.05Z" transform="translate(0 0)"/><path class="cls-1" d="M10.24,61.91a.08.08,0,0,0,0,0l-.05,0Z" transform="translate(0 0)"/><path class="cls-1" d="M32.18,17.88c.78.2,0,1.29.88,1.56a16.34,16.34,0,0,0-1.31-5.76c-.31,1.13.38,1.8,0,2.52C32.51,16.6,32.2,17.28,32.18,17.88Z" transform="translate(0 0)"/><path class="cls-1" d="M31.75,16.2l0,0v0h0A0,0,0,0,0,31.75,16.2Z" transform="translate(0 0)"/><path class="cls-1" d="M95.24,74a7.54,7.54,0,0,0-1.83-4.76Z" transform="translate(0 0)"/><path class="cls-1" d="M12.33,55c-.13,1.21.49,2,.63,2.94.09.57.87,1.09.25,1.73,1.18-.08.2-1.26.74-1.66C12.85,57.42,13.25,56,12.33,55Z" transform="translate(0 0)"/><path class="cls-1" d="M108.77,46.75a5.12,5.12,0,0,0-1.07-4.15C108.06,44,108.41,45.37,108.77,46.75Z" transform="translate(0 0)"/><path class="cls-1" d="M10.24,61.9l0,0v0Z" transform="translate(0 0)"/><path class="cls-1" d="M9.34,60.57c0-.44.17-.91-.5-1.22,0,.54-.14,1,.47,1.25a4.39,4.39,0,0,0,1.11,3.32c-.1-.87-.16-1.45-.22-2C9.48,61.75,10,60.73,9.34,60.57Z" transform="translate(0 0)"/><path class="cls-1" d="M12.33,52.58a.13.13,0,0,0,0-.06h-.06l-.1.11A.19.19,0,0,0,12.33,52.58Z" transform="translate(0 0)"/><path class="cls-1" d="M11.52,54.19a.16.16,0,0,0-.1,0v0h.05A.16.16,0,0,0,11.52,54.19Z" transform="translate(0 0)"/><path class="cls-1" d="M13.09,59.75h.06l0,0,0,0,.06-.07H13.1A.13.13,0,0,0,13.09,59.75Z" transform="translate(0 0)"/><path class="cls-1" d="M107.82,41.55c0-.11-.11-.36-.24-.42s-.39.06-.31.33.13.43.27.49S107.84,41.83,107.82,41.55Z" transform="translate(0 0)"/><path class="cls-1" d="M11.48,57.59h0a.21.21,0,0,0,0,.06h.08Z" transform="translate(0 0)"/><path class="cls-1" d="M11.85,57.64c0,.4,0,.81.05,1.22.55,0,.11,1,.76.89-.34.7.63,1.37.09,2.07,1.36-.45.2-1.39.34-2.07l-.35,0c-.12-.77-.05-1.61-.86-2.08.39-.51-.1-.94-.14-1.42l-.29.15,0,1.24Z" transform="translate(0 0)"/><path class="cls-1" d="M14,58l0,0h0l.06,0h0V58L14,58Z" transform="translate(0 0)"/><path class="cls-1" d="M16.1,47.47l0,0v0l0,0v.07l0,0Z" transform="translate(0 0)"/><path class="cls-1" d="M16.08,48.7v.06h0v0Z" transform="translate(0 0)"/><path class="cls-1" d="M16.08,48.7V47.52C15.4,47.91,15.45,48.31,16.08,48.7Z" transform="translate(0 0)"/><path class="cls-1" d="M96.36,76.6v.06l0,0,0,0,0,0v-.09Z" transform="translate(0 0)"/><path class="cls-1" d="M96,75.4c-.11.48-.16.94.39,1.2C96.37,76.15,96.54,75.65,96,75.4Z" transform="translate(0 0)"/><path class="cls-1" d="M13.07,53.86h0c.14.55-.19,1.24.48,1.62a1.9,1.9,0,0,0-.26-1.77l0,0,0,0L13,52.33c0-.33-.17-.84-.45-.76s-.09.61-.17,1l.37,0C12.73,53,12.53,53.54,13.07,53.86Z" transform="translate(0 0)"/><path class="cls-1" d="M14,56.77h0L14,58c.82-.38.57-.8,0-1.23h0c0-.46.29-1-.43-1.22C13.57,56,13.31,56.53,14,56.77Z" transform="translate(0 0)"/><path class="cls-1" d="M13.57,55.54v0h0a.07.07,0,0,0,0,.05Z" transform="translate(0 0)"/><path class="cls-1" d="M112.88,26.56a1.45,1.45,0,0,0-.17-.39c-.08.09-.21.16-.21.24a.91.91,0,0,0,.14.34C112.72,26.69,112.88,26.62,112.88,26.56Z" transform="translate(0 0)"/><path class="cls-1" d="M95.93,75.34v0l0,0,0,0,0,0v-.06Z" transform="translate(0 0)"/><path class="cls-1" d="M95.58,74.73c0,.29-.11.64.35.61,0-.23-.07-.46-.1-.69C95.74,74.68,95.58,74.7,95.58,74.73Z" transform="translate(0 0)"/></svg>