<svg id="Capa_1" data-name="Capa 1" xmlns="http://www.w3.org/2000/svg" viewBox="0 0 121.93 70.44"><defs><style>.cls-1{fill:#cdcccc;}</style></defs><path class="cls-1" d="M83.27,12.42c.07.17.24.28.59.26l0,0C83.66,12.31,83.44,12.28,83.27,12.42Z" transform="translate(0 0)"/><path class="cls-1" d="M83.11,16.16c-1.56,2.93,1.57,2.49,2.35,2.57a82.73,82.73,0,0,0,9.58,0,6.26,6.26,0,0,1,3.32.91,17,17,0,0,0,10,1.66c0,.17,0,.45.07.46,6,1.31,13.76-5.14,13.49-11.15-.12-2.72-3.8-7.76-6-7.68-4,.15-8.11-.64-12.16.65-2.91.92-6,1.93-9.16.55-.4-.17-1.63-.66-2.09.47a3.62,3.62,0,0,0-3.47-.12c-.34-.54-.69-.79-1.08-.13-.21-.71-1.12-.6-1.26-.49-2.39,2-4.63.35-6.92-.18C79,6,77.59,6,75.61,5.12a20.9,20.9,0,0,0-5.54-2c-.44-.06-1.66-.27-1-1.43-.52.43-.89.36-1-.34-.37-.07-.91.25-1-.32,0-.16.46-.42.72-.64-1.79-.85-3-.14-3.59,1.55-.27.8-.53,1.08-1.3,1h0c-1.77-.19-3.69-.68-4.15,1.94-.77,3.3,1.58,4.38,3.9,5.47h0a3.36,3.36,0,0,0,1.92,1c2,1.05-.52,1.66-.25,2.53-1.21,2.24-3.25,1.51-5,1.1-3.66-.9-7.25-2.11-10.89-3.12-3.32-.91-6.67-1.76-10-2.57-.77-.19-1.94-.58-2.08.68s1,1.1,1.86,1.24,1.88.35,2.82.52c5.06,1.61,10.4,2.19,15.29,4.43a15.82,15.82,0,0,0,8.21,1c.66-.07,1.31.06,1.38.67.1.81-.73.67-1.25.77-1.41.26-2.82.62-4.24.74-1.25.11-2.05.38-1.67,1.85a16.64,16.64,0,0,0,8.59-1.64,7.18,7.18,0,0,1,.83,2.37c-.29,5,2.6,8.19,6.07,10.93a45.37,45.37,0,0,0,9,5.09c5.11,2.38,11,3.89,16.84,2.58,4.14-.93,8.32-.93,12.48-1.42.61-.08,1.51.33,1.68-.59a1.15,1.15,0,0,0-1.4-1.38c-3,1.27-5.8-2.71-8.78-.27-.27,0-.63.18-.8.06-.82-.58-1,1.41-1.72.45s0-1.72.75-2.36l-2.11-1.35-1,.57a1.11,1.11,0,0,0,.25.45c.77-.15.89.15.56.78a1,1,0,0,1-.15.48c.07,3.2.07,3.2-2.22,2.65a.83.83,0,0,1-1-.51,2.78,2.78,0,0,1-3.2-.06c-1.06-.86.09-1.9.11-2.87,0-.64.84-1.09.39-1.83-3.32.23-6.65.44-10,.68-1.77.13-3.74.51-5.24-.38-4.16-2.43-7.65-5.68-9.46-10.27a5.15,5.15,0,0,1-.15-4.17c.71-1.42,2.1-.19,3-.71.38-.21.78-.38,1.17-.56,2.62.44,4.82-1.15,7.28-1.47-.2-.41-.44-1.1-.93-.78-1.92,1.27-4.33,1.09-6.28,2.21-.85-.53-1.74.12-2.6,0,0-3.11,3.11-2.37,4.55-3.68h0c2,.52,3.84-.88,5.79-.22,1.21-.06,1,1.23,1.69,1.72,1.78-.69,2.62-1.83,1.85-3.75a1.5,1.5,0,0,0,.6-2.34C86.43,9,86.37,8,86.3,7c1-.51,1-1.71,1.69-2.45a.86.86,0,0,0,1,.06c-1.11,3.48-2.74,6.8-3.14,10.51C85.64,16.85,84.8,17.8,83.11,16.16Zm27.66,4.66c-.79.14-1.7-.2-2.38.47-.41-.86-1.69-.22-2.13-1.48,4.42-.62,9.28-.33,12.39-4.43C117.61,18.18,114.77,20.13,110.77,20.82ZM113,15.77c1.84.67,2.85-1,4.46-1.6-1.52,2.83-4.23,2.91-6.81,3.65C110.93,16.22,112.86,17.11,113,15.77Zm6.22-1.51c.09,0,.26.12.39.18-.19.32-.23.85-.8.67A.66.66,0,0,1,119.25,14.26Zm-1-3.17c-.53,2.82-3,3.52-5.18,4.6C114.48,13.8,116.77,12.87,118.27,11.09Zm-9.6-6.88c-.29.19-.6.3-.88,0l.91-.36C108.69,4,108.73,4.17,108.67,4.21Zm-1.87.08a.65.65,0,0,1,.82-.09l-.81.34C106.8,4.45,106.76,4.32,106.8,4.29Zm-1.59.36a1,1,0,0,1-.3.22.53.53,0,0,1-.12,0C104.91,4.76,105,4.63,105.21,4.65ZM103.88,5,104,5l-.27,0A.48.48,0,0,1,103.88,5ZM97.55,8.51c.68-1,1.53-.78,2.44-.64,1.27-.48,2.84.46,4-.77l-1.25-.19c3.43-.52,6.87-3.22,10.19,0l1,0c-.12.7-.63.72-1.18.65-3.91,1.79-8.1,1.57-12.24,1.69a.51.51,0,0,1-.52-.39c.1.86-1,.86-1.39,1.32C98.68,9.45,96.62,9.85,97.55,8.51ZM111,12.7a1.05,1.05,0,0,1-1.35.56C109.7,12.39,110.48,12.77,111,12.7ZM98.53,10.42c1,1.33,2.49,1.43,3.9,1.84.51.14,1.25.47,1.34.84s-1,.07-1.12.78c-.47-.68-.89-.57-1.28.1-.47-.61-.89-.68-1.27,0-.11-.64-.49-.31-.83-.13L95.86,12Zm-3.12,4c.17-.83,1.06-.17,1.63,0l.85.05c.41-.27,1.13.27,1.4-.39.13.5.48.2.79.07.46.41.88.23,1.29-.09.47.52.88.24,1.29-.09.52,1.18,1.19.48,2,.26,1.6-.44,3.08-1.74,4.91-.91-.81,1.93-3.31,2-4.79,4.11,3.3-.61,5.19-2.73,7.63-3.68-3.64,3.2-7.39,6.15-13,5.64,1.26-1.95,3.64-1.09,5-2.77-1.83-.62-3.34.28-4.85.17-.89-.07-2.65.36-.92-1.42l-.92-.49-.84.16C96.37,14.89,95.22,15.3,95.41,14.4Zm10.28,22.07s.15,0,.24.05a1.37,1.37,0,0,1-.25.32s-.15,0-.23-.05A1.91,1.91,0,0,1,105.69,36.47ZM87.43,34.29c1.2.24,2.81-.83,3.39.46a5,5,0,0,1-.25,3.78c-1-1.08-2.89-.42-3.7-1.59A2.35,2.35,0,0,1,87.43,34.29ZM76.23,7.22c-.06.06-.12.15-.18.16-.27,0-.39-.1-.36-.34h0ZM64.58,10.9a2.33,2.33,0,0,0-1.85-1,1.46,1.46,0,0,1-.07.19,1.46,1.46,0,0,0,.07-.19L61.62,9A4.48,4.48,0,0,1,59,4.87c.73-.88,1.33-2.05,2.81-1.28l.92-.23a22.34,22.34,0,0,1,12.22,3.4.57.57,0,0,1,.76.27c-.08.53-.49.32-.81.31l-.95,0a.61.61,0,0,0-.8-.2c-.21-.27-.46-.41-.79-.21-.2-.32-.44-.5-.79-.22-.19-.37-.42-.58-.8-.2-.18-.4-.36-.83-.78-.23-.14-.58-.38-.75-.81-.18a1.52,1.52,0,0,0-2.36-.6c-.1-.76-.39-.71-.79-.23-.1-.71-.47-.42-.83-.15C64.21,4,62.7,5,61.63,4.29c-3.21,1.55-.26,2.84.17,4.24l.49-.24a1.85,1.85,0,0,0,1.87.89,1.93,1.93,0,0,0,1.87.91l.67.73c.22.1.63.22.62.29,0,.58-.44.34-.75.26Zm4.74-3.8c-.39-.23-.81-.47-.17-.83a1.22,1.22,0,0,1,.32.36,2.07,2.07,0,0,1,.47-.18.63.63,0,0,0,.79.2c.21.3.45.43.79.21.2.34.42.57.79.22.18.43.4.66.79.22.16.53.39.72.83.17.85,1.14.39,1.7-.92,1.51A7.94,7.94,0,0,1,69.32,7.1Zm1.5,3.16a1.52,1.52,0,0,1-.22.34s-.15,0-.24-.06c.07-.12.13-.24.19-.33ZM68.55,8.54a.64.64,0,0,0-.78-.2c-.22-.27-.42-.65-.8-.23a.8.8,0,0,0-1.08-.67c-.19-.31-.36-.74-.73-.33-.06-.63-1.93-1.36,0-1.88a.6.6,0,0,0,.79.21c.23.22.45.45.79.21.37,1,1.36,1.39,2,2.09C69.27,8.21,69.14,8.47,68.55,8.54Zm-2.14,8.27c-1.68-.25-1.71-1.74-2.1-3,.82.22,1-.64,1.46-1,1.4-1,.75.44,1,.78-.74.37-1,.86-.38,1.57C65.48,15.77,67,16.27,66.41,16.81Zm.07-1.62a1.61,1.61,0,0,0,.38-1.51l2.25-1.33C67.79,16.16,67.78,16.2,66.48,15.19ZM70,10.76c-.65.82-1.76-.72-2.8-.73-.37,0-.75-.55-1.11-.06a1.29,1.29,0,0,0-1.86-.84,1.3,1.3,0,0,0-1.86-.91c-.1-1.06-1.75-1.54-1.12-3,1.61.1,2.34,1.82,3.84,2,.23.25.42.69.81.24a.8.8,0,0,0,1.08.67c.21.32.4.71.8.24.16.42.33.79.71.32C68.47,9.85,71,9.45,70,10.76Zm.62,3.91s-.3-.22-.28-.25c.14-.28.28-.59.67-.55C71.13,14.27,70.91,14.51,70.58,14.67Zm.43-.85c-.39-.52.1-.68.43-.89,0,0,.19.15.29.23Zm4.24.23c-.92-.69-1.88,1-2.85,0A2.57,2.57,0,0,1,75,12.7c.58,0,1.37-.93,1.71.06S75.61,13.47,75.25,14.05ZM73.5,11.13c0,.85-.77.85-1.44,1l1-1.19c1.95-1.79,3.66-4,6.76-3.63Zm7.64-3.38c-.59.75-1.11.4-1.23-.46.81-1-2-.92-.59-2a1,1,0,0,1,1.52.11A1.82,1.82,0,0,1,81.14,7.75Zm3.24.79c.51-.4.62.48.79,1-.39.44-.77.89-1.15,1.34C83,9.91,83.83,9,84.38,8.54Zm-.47,4.09h0s0,0,0,0h-.08l-.77.89c0-.25-.16-.54-.08-.75a1,1,0,0,1,.26-.4,3,3,0,0,1,0-.85c0-.52.23-.83.79-.69l.54,1C84.31,12.07,83.85,12.13,83.91,12.63Zm2.54-7c-.06.44-.11.88-.17,1.32l-1.51.9c-.3-1.17.47-1.78,1-2.48.25-.38.51-.72,1-.44Zm8.4,8.33c0,.24.12.44.06.54-.19.29-.46.22-.63,0s0-.33-.07-.5Zm-.37-9.06L93.09,7.26c-.42,1-.84,2-1.27,3.06l-.21.79-.17.8-.12.82.48.82.59-1c-.16-.3-.2-.59.13-.81l.15-.69.25.06c0,.24-.07.47-.12.7s0,.57,0,.85a15.1,15.1,0,0,0,.52,4.91c-3,1.09-3.07-1.07-3.51-2.78,1-.5.37-1.65.9-2.33.07-.27.14-.54.2-.81s.15-.51.22-.76l.15-.66-.06-1h0c.11-.87,0-1.84,1.13-2.21A2.54,2.54,0,0,1,94.48,4.85Zm-3.23.57,1.21-.67-.57,1c-.23.71-.25,1.57-1.16,2C90.17,6.67,90.94,6.1,91.25,5.42Zm-1,2.81c.72-.22.55.68.84,1.07-.46.16-.73,1.06-1.25.53A1,1,0,0,1,90.27,8.23Zm-1.69,4.54c.19-.16.6-.35.74-.26,1,.6,0,1.59.41,2.32l-.34.89c0,.61.49,1.73-.2,1.7-1.18-.06-.62-1.25-.63-2,0-.09,0-.19-.07-.28C88.18,14.32,87.73,13.51,88.58,12.77Z" transform="translate(0 0)"/><path class="cls-1" d="M100,8.91a1.26,1.26,0,0,0-.11-.41A1.64,1.64,0,0,0,100,8.91Z" transform="translate(0 0)"/><path class="cls-1" d="M30.68,59.19c4.89,1,9.24-.51,13.35-3.06a3.06,3.06,0,0,0,1.5-4.1C44,47.56,41.44,43.55,39.75,39.2a8.16,8.16,0,0,0-6.49-5.63c-3.9-.86-5.16-.06-5.46,4,1.87-2,4.12-2.08,6.63-1.49.76.18,1.41.52,1.47,1,.07.66-.81.65-1.32.74-2.64.45-4.33,2.19-5.93,4.4-.53-.91-1-1.68-1.45-2.45.66-.27.26-.67.08-1a.68.68,0,0,0-.13,1.06h0c-.5,1.28.16,2.24.92,3.18A29.64,29.64,0,0,1,33,51.84l1-.58L34,49.89c-.72-1.76-1.43-3.53-2.16-5.28-.26-.61-1.73-.84-.74-1.81.65-.64,1.1-1.54,2.5-1.44.95.07,2-1,3-1.62.3.9,3.15-.72,1.8,1.79.73,1.09,1.72,2,1.71,3.5l1.07.36-.74.77c.49.36,1.58.16,1.2,1.32.21.62.23,1.56.66,1.81,3,1.75,2,3.1-.31,4.41-1.34.75-2.16,2.58-4.15,2a1.06,1.06,0,0,1-.54-.12c.29.26.57.68.13.85a1.14,1.14,0,0,1-1.37-.6c-.6.62-1.18,1.51-2,.27-2.39,1.7-3.23-.38-4.34-1.79L28.54,55l0,0c-3.84.1-7.21,2.18-11.13,2.4-3.07.17-4.7-.17-5-3.36-.76.84-1-1.37-1.79-.3a2,2,0,0,1,.24,1.73c.39.65.71,1.45.1,2s-1.23.08-1.8-.27c-1.65,0-3.09-.4-3.82-2.1a1,1,0,0,1,.19-1.09l0,0c-3.29-.56-3.3-3.08-3.25-5.63.11-.69.21-1.38.32-2.07-.12-2.76,1.62-5,2-7.63a.27.27,0,0,1,0-.14c-.38.38-1,.22-1.46.44a24.69,24.69,0,0,0-3,8C-.7,51.42,1.82,57.59,6,58.37c5.12,1,8.27,3.76,11.08,7.56.12.15.22.31.33.47.91-1.57-1.25-1.49-1.36-2.51l-.9-1.46-.6-1.18c.66,0,.68.6.92,1l.67.84a2.35,2.35,0,0,0,.43-.19c-.52-1-1-2-1.67-3.18,2.58-.23,5.27-1.64,7.2-.51,2.45,1.43,4.47.55,6.7.35C29.4,59.5,29.91,59,30.68,59.19Zm5.86-22.11A1.93,1.93,0,0,1,37,37c0,.09,0,.18-.07.28l-.42,0C36.49,37.25,36.49,37.1,36.54,37.08Zm.09,2.55-.46-.34c-1.73.93-3.79,1.07-5.41,2.26,1.55-1.48,3.11-2.93,5.5-2.73l.93.31ZM25.56,57.54c-.52-.28-.41-1.29.51-1.48a4.88,4.88,0,0,0,2.54-1c1,.5,1.59,1.45.53,2S26.73,58.2,25.56,57.54Z" transform="translate(0 0)"/><path class="cls-1" d="M40.42,46.19l0,0,0,0Z" transform="translate(0 0)"/><path class="cls-1" d="M5.81,54.1,5.68,54,5.56,54l.13,0Z" transform="translate(0 0)"/><path class="cls-1" d="M4.79,38.29h0v0l0,0a.24.24,0,0,0-.13.29A1,1,0,0,0,4.79,38.29Z" transform="translate(0 0)"/><path class="cls-1" d="M69.27,42.73c-5-3.71-10.08-7.37-15.12-11.06a4.62,4.62,0,0,0-5.42-.38c-1.92,1.17-4,3.05-3.44,5.24a12.32,12.32,0,0,0,6.24,8.09,77.06,77.06,0,0,1,7.09,4.28c.73.44,1.21.85.24,1.7-3.1,2.73-5.93,5.82-9.24,8.27-3.15,2.33-6.77,4-10.19,6,1.27,1,2.08-.23,3-.69,3.13-1.52,5.63-4.15,9-5.33l.4.64c-3.21,1.9-6.45,3.75-9.6,5.74-.64.4-2.13.17-1.73,1.69C45.41,65,49,61,54.83,60.06a23.77,23.77,0,0,0,15.34-9.82C72.76,46.59,72.83,45.36,69.27,42.73Zm-21.7-4c-1.83-1.71-1.47-3.24-.11-4.83s2.91-3.06,5.73-1.41A12,12,0,0,0,47.57,38.7Zm4.21,5.11c-2-1.27-3.15-3.17-2.65-5.5.56-2.57,2.78-3.64,5.19-4.34-1,1.4-2.39,2.59.23,3.81.61.28,0,.58-.15.84C53.56,40.32,53.18,42.23,51.78,43.81ZM58.6,57.18c-.89-1.61-3,.65-3.6-1-.92-2.24,1.71-2,2.56-3s1.58.07,2,.55C60.78,55.52,58.67,56,58.6,57.18ZM63,55,63,55l.08,0c-.07-.46-1.18-1.25.5-1.19.39,0,.63-1.54,1.72-1.61C66.1,54.29,63.8,54.08,63,55Zm2.31-2.93-.15-.93c.13.05.32.07.37.16C65.73,51.65,66.09,52.09,65.34,52.09Zm.7-2.56c.4,1,.56,1.42.79,2C66.22,51.11,65.88,50.78,66,49.53Zm.87-1.78a42.87,42.87,0,0,1-5.1,5c-1.53,1.32-2-.63-3.05-1.06,2.58-2.4,2.57-2.86,0-4.87a8.7,8.7,0,0,1-1.11-.87c-1-1.1-3.42-1.68-2.93-3.06a9,9,0,0,1,4-4.28,1.52,1.52,0,0,1,1.84-.15c2.5,1.66,5.32,3,7.48,5C69.23,44.55,67.88,46.57,66.91,47.75Z" transform="translate(0 0)"/><path class="cls-1" d="M26.73,26.4l-1,.71-7.57,5.3L19,33.88c1.89-1.25,3.81-2.46,5.67-3.75a48.84,48.84,0,0,1,17.61-8c1.79-.39,3.75,0,5.4-1.12A3.2,3.2,0,0,0,51,21c.43.47.84.61,1.2.11,0,.23.14.37.45.41.12-.21.24-.43.37-.64l-.68,0A1.07,1.07,0,0,0,51,21a4.58,4.58,0,0,0-3.34,0c-.86-.57-1.91.42-2.82-.29l1.47-.87a14,14,0,0,0,5.08-.2,2.06,2.06,0,0,0,2.16-.1,2.12,2.12,0,0,0-2.08-.29L49,18.91c-.84.53-2,0-2.75.85-2.79-.55-5.26.66-7.8,1.42.94.45.86.92-.07,1.21-4.69,1.45-8.85,4-13.8,6.73,3.08-2.83,6.28-4,9-5.85-1.38-.38-2.19.95-3.38,1.13A3.47,3.47,0,0,1,28,25.45Z" transform="translate(0 0)"/><path class="cls-1" d="M12.42,26.36h.11a.27.27,0,0,0-.08-.07,11.37,11.37,0,0,1,2.61-4.36c.06-.75.72-1,1.19-1.39a1.45,1.45,0,0,1,1.4-1.16c.09.71-.62.88-.84,1.35l-1.08,1.4-.5,1.11c-.4.26-.81.5-.67,1.09-1,.36-.75,2-2,2,.58.48,0,.91-.21,1.29-.38.86.12.68.6.59l2-3.78h0c.25-.37.49-.74.73-1.11,2.11-2.15,3.57-4.86,6-6.74a3.89,3.89,0,0,0-.13-2.24c-2.21,2.17-4.55,4.22-6.59,6.53-1.52,1.74-3.05,3.61-3.39,6.07l.95-.7Z" transform="translate(0 0)"/><path class="cls-1" d="M10.51,47.52a1.69,1.69,0,0,0,.47-.39C10.85,47.14,10.7,47.24,10.51,47.52Z" transform="translate(0 0)"/><path class="cls-1" d="M12.71,41.49l-1.38,4.44a1.46,1.46,0,0,1-.35,1.2c.28,0,.46.37.68.63,1-.42.8-1.43,1-2.21,1.2-3.75,2.69-7.33,5.73-10-.15-.32-.29-.63-.44-.94a.62.62,0,0,1-.83-.27c-1.09.28-1.2,1.59-2.13,2,0,.6-.46.87-.81,1.23-.23,1.16-1.33,2-1.26,3.26C13.2,41.17,13.13,41.4,12.71,41.49Z" transform="translate(0 0)"/><path class="cls-1" d="M23.55,14.4l3.74-1.65,1-.52c.06-.26.13-.53.2-.8-.58-.14-1.1-.35-1.14-1.06l-4.73,2.76C22.69,13.73,22.62,14.42,23.55,14.4Z" transform="translate(0 0)"/><path class="cls-1" d="M7.26,35.89l3.24-4.16c-1.51,0-1.49,2.16-3,2.1-1.28.54-1.47,2.48-3.16,2.51.15.64.31,1.28.47,1.92C6,37.9,6.26,36.5,7.26,35.89Z" transform="translate(0 0)"/><path class="cls-1" d="M34.87,67.6,33.75,68c-.9,2-2.82,1.13-4.26,1.62-.58.2-1.85-.85-1.76.81a18.78,18.78,0,0,0,8.39-1.91C36.13,67.65,35.29,67.9,34.87,67.6Z" transform="translate(0 0)"/><path class="cls-1" d="M9.35,30.21c.84,0,1-.39.74-1.11a2.17,2.17,0,0,0,1.39-2.23c-1,.38-1.27,1.26-1.45,2.19a1.25,1.25,0,0,0-.71,1.11L7.7,31.85C9.21,32.23,9.36,31.3,9.35,30.21Z" transform="translate(0 0)"/><path class="cls-1" d="M105.26,7.29c.47.12,1.17.06,1.07-.4-.15-.62-.68,0-1,.08-.47-.47-.86-.15-1.25.11C104.27,8,104.86,7.21,105.26,7.29Z" transform="translate(0 0)"/><path class="cls-1" d="M104,7.08l0,0h0s0,0-.07.07h0Z" transform="translate(0 0)"/><path class="cls-1" d="M61.24,44.07l2.07,1.32C63.1,44.34,62,44.42,61.24,44.07Z" transform="translate(0 0)"/><path class="cls-1" d="M63.31,45.39a.61.61,0,0,0,0,.13v-.1Z" transform="translate(0 0)"/><path class="cls-1" d="M64.82,46c.05.16.05.4.16.47a3.37,3.37,0,0,0,.72.23l-.11-.41Z" transform="translate(0 0)"/><path class="cls-1" d="M63.34,45.52l.09-.09-.08,0Z" transform="translate(0 0)"/><path class="cls-1" d="M63.68,45.19l-.25.24.43.09Z" transform="translate(0 0)"/></svg>