<svg id="Capa_1" data-name="Capa 1" xmlns="http://www.w3.org/2000/svg" viewBox="0 0 168.52 115.77"><defs><style>.cls-1{fill:#085eab;}</style></defs><path class="cls-1" d="M84.26.9C38.36.9,1.15,19,1.15,41.26S38.36,81.61,84.26,81.61s83.1-18.06,83.1-40.35S130.16.9,84.26.9m.21,78.87c-39.27,0-71.1-17.16-71.1-38.33S45.2,3.11,84.47,3.11s71.1,17.17,71.1,38.33S123.74,79.77,84.47,79.77Zm56.36-38.88c0-19.23-25.31-34.83-56.53-34.83S27.77,21.66,27.77,40.89,53.08,75.72,84.3,75.72s56.53-15.6,56.53-34.83M84.26,74.24c-25.14,0-45.52-14.76-45.52-33s20.38-33,45.52-33,45.51,14.76,45.51,33S109.4,74.24,84.26,74.24Z"/><path class="cls-1" d="M47.93,92.57h6.8v21.94h-6.8Zm11.68,21.94H77v-5.39H66.41V92.57h-6.8Zm33.22-6a4.36,4.36,0,0,1-6.11-.27q-1.12-1.38-1.12-5.11a8.09,8.09,0,0,1,.94-4.42,4.1,4.1,0,0,1,6.83-.23,4.25,4.25,0,0,1,.58,2l6.7.11a10.06,10.06,0,0,0-4.12-7.18,11.07,11.07,0,0,0-6.59-1.72q-5.35,0-8.28,3t-2.93,8.56a12.8,12.8,0,0,0,1.66,6.85,9.44,9.44,0,0,0,4,3.74,14.11,14.11,0,0,0,5.91,1.06,11.94,11.94,0,0,0,4.9-.87,8.23,8.23,0,0,0,3.23-2.59,12.54,12.54,0,0,0,2.37-5.63l-6.69-.12A5.39,5.39,0,0,1,92.83,108.52Zm11.45,5.66,18-.12v-4.92l-11,0v-3.53l9.07,0v-5.22l-9.07,0V96.94L122,97v-4.8l-17.69.12Z"/><path class="cls-1" d="M85.29,11.49c-17.73,0-32.1,13.31-32.1,29.74S67.56,71,85.29,71,117.4,57.65,117.4,41.23,103,11.49,85.29,11.49Zm15.23,28h0l0,0-.22,0A.55.55,0,0,1,100.52,39.47Zm-1.08-1.19a.06.06,0,0,1,.09,0s0,0,0,.07h0s0,0,0,.06a.13.13,0,0,1-.1,0s0-.05,0-.06h0S99.41,38.3,99.44,38.28Zm-5.9-4.58s.08,0,.08,0-.13.05-.18.1S93.49,33.72,93.54,33.7Zm-.21.57c-.13.1-.37,0-.55,0,.07-.07.19,0,.25-.09s-.1-.18,0-.2a.5.5,0,0,1,.34,0C93.28,34.08,93.38,34.23,93.33,34.27Zm-.17-1.54s0,0,.06,0,0,.05,0,.08,0,0-.06,0S93.14,32.77,93.16,32.73Zm.07-.44c0,.07-.16.17-.16.08s0-.19,0-.28C93.2,32.05,93.25,32.2,93.23,32.29Zm-.16-.71c0,.06,0,0-.07,0a1.13,1.13,0,0,1-.12-.21A.34.34,0,0,1,93.07,31.58Zm-.26,1.81c.08,0,0-.08.09-.08l.06,0c0,.07,0,.13-.11.11S92.8,33.4,92.81,33.39Zm-.15-1.78c-.15.11-.1-.1-.15-.23s0,0,0-.05,0,0,0,.05S92.73,31.56,92.66,31.61Zm-.57-.67c.17,0,.21.12.28.21A.47.47,0,0,1,92,31Zm-.51,2.91s0,.07,0,.08h0S91.55,33.88,91.58,33.85Zm-.17-3.3c0,.08-.37.11-.43-.08C91.17,30.47,91.51,30.32,91.41,30.55Zm-.24,2.92s0,0-.06,0,0,0,0-.06A0,0,0,0,1,91.17,33.47Zm-.46.44h.05s0,.06,0,.08-.05,0-.06,0A0,0,0,0,1,90.71,33.91Zm-2-3.55c.27-.07.55-.25.78-.17s.47,0,.69.11c0,0,0,.05,0,.06s-.16.09-.25.12a1.48,1.48,0,0,1-1.25,0S88.62,30.38,88.71,30.36Zm.35,3c0,.07-.1,0-.16,0s0,0,0-.06.05,0,.09,0,0,0,.06,0A0,0,0,0,1,89.06,33.39Zm-.59-.1h0s0,0,0,0,0,0,0,0,0,0,.06,0a.09.09,0,0,1,0,0,0,0,0,0,1,0,0s0,0,0,0,0,0,0,0,0-.06,0-.09a.14.14,0,0,1,0-.06ZM88,33.2s.07,0,.1,0,0,0,0,.06-.09,0-.12,0Zm-1.15-4.5c.06,0,.07.06.12,0s0,.05,0,.06-.11,0-.14,0S86.78,28.72,86.81,28.7Zm-.32-.2c0-.06.09-.05.12,0a.13.13,0,0,1,.06.1h0s0,0,0,.07a.19.19,0,0,1-.06-.07,1.15,1.15,0,0,1-.18,0Zm-.31-.21h.15s0,.05,0,.06,0-.07-.07,0,0,0-.08,0S86.09,28.31,86.18,28.29Zm-.67.56s0,0,.07,0,.21-.08.28-.17.07,0,.12,0c-.06.19-.17.35-.44.24C85.49,28.92,85.48,28.87,85.51,28.85Zm.17,1a.14.14,0,0,1-.14,0s0,0,0,0h0s.08,0,.12,0S85.69,29.87,85.68,29.89Zm-.77.75a.3.3,0,0,1,.16,0c.16,0,.31,0,.46,0a.37.37,0,0,0,.11,0l.06,0a.57.57,0,0,1,.18,0s0,0,0,0-.08,0-.13-.07-.09-.07-.11-.13,0-.1,0-.16a.12.12,0,0,0-.15-.1.2.2,0,0,1-.13,0l-.06,0s0,0,0,0,0,0,0-.06a.3.3,0,0,1,.24,0l.16,0A.28.28,0,0,0,86,30s0,0,.06,0l0-.05h0c.08,0,.15,0,.24,0s.24,0,.36,0a.45.45,0,0,1,.14.06c.05,0,.17,0,.17.08a.13.13,0,0,0,0,.07,1,1,0,0,0,.18,0s0,0,0,.06-.07,0-.1,0a.19.19,0,0,0,.18,0,.18.18,0,0,1,.19,0c.08.07,0,.19,0,.26h0a.56.56,0,0,0-.38,0s0,.06,0,.09-.12.08-.17.05,0-.07,0-.09a.12.12,0,0,0-.17,0s0,.05,0,.07a2.44,2.44,0,0,0-.22.31l-.06,0a.06.06,0,0,1-.06,0,.33.33,0,0,1-.07-.13s0,0,0-.06-.06,0-.05,0l0,0a.15.15,0,0,0-.13,0,.66.66,0,0,1-.32.08c-.17,0-.37-.12-.52,0s0,0,0,.05,0,0,0,0l-.06,0c-.09,0-.19-.07-.22-.16a0,0,0,0,1,0-.05S84.88,30.64,84.91,30.64Zm-1.55-3.32s0,.07.08.06,0,.06,0,.08S83.34,27.4,83.36,27.32Zm.08.21a.06.06,0,0,1,0,.06s-.08.08-.12,0,0-.11-.08-.16A.21.21,0,0,1,83.44,27.53Zm-.19.21s.07,0,.1,0,.08.08,0,.09S83.21,27.81,83.25,27.74ZM83,27.39c.08-.09.08,0,.15,0s-.06.13,0,.2S82.9,27.51,83,27.39ZM79.53,29.1a0,0,0,0,0,0,0c0-.07,0-.15,0-.2a.59.59,0,0,1,.22-.12h0a.9.9,0,0,1,.23-.08,2.14,2.14,0,0,1,.27-.06,1.15,1.15,0,0,1,.37-.06,3.24,3.24,0,0,1,.44,0c.09,0,.19,0,.27,0l.06,0a.57.57,0,0,0,.26,0c.07,0,.09.07.16.1l0,0a.76.76,0,0,0,.16.11c.08,0,.17,0,.26,0a.58.58,0,0,1,.19,0s0,0,0,.05.13,0,.19,0a.34.34,0,0,0,.09.08l.09,0a.43.43,0,0,1-.1-.09s0,0,0-.05-.1-.06-.17-.06-.05,0-.07,0h0a0,0,0,0,0,0,0s.08,0,.1,0,0,0,0,0a.1.1,0,0,1,.07,0,.75.75,0,0,0,.13.06s.06.05.09.05A.5.5,0,0,1,83,29s0,.05,0,.06l0,0H83a.45.45,0,0,0,.23,0c.06.07.13.05.2.07a.5.5,0,0,1,.11.1.1.1,0,0,0,.06.05h.12l.16.07.1,0h0s.08,0,.11,0a0,0,0,0,1,0,.05.32.32,0,0,0,0,.09,0,0,0,0,0,0,0c.13,0,.25,0,.37,0a.37.37,0,0,1,.14.07l.06,0s0,0,.08,0h0s.07,0,.1,0,0,.05,0,.06-.15,0-.22.07a1.11,1.11,0,0,1-.53.12,1.71,1.71,0,0,0-.39,0l-.26,0-.27.05h-.12c-.07,0,0-.08.06-.11l0,0a.82.82,0,0,1,.23-.11.05.05,0,0,0,0-.09h-.06a.61.61,0,0,0-.18-.05,2.44,2.44,0,0,1-.27,0s0,0-.07,0l-.05,0s0,0,0,0a.34.34,0,0,1-.09-.08.07.07,0,0,0,0-.05.46.46,0,0,1-.07-.14.12.12,0,0,0-.12,0h-.26s0,0,0,0-.1,0-.13,0a.6.6,0,0,1-.4-.16l-.06,0a1.54,1.54,0,0,0-.37,0,.19.19,0,0,1-.13,0c-.07,0-.16,0-.24,0a.06.06,0,0,1,0-.08s0,0,0,0,0,0,0,0,.11,0,.14,0a0,0,0,0,0,0,0,.78.78,0,0,0-.26,0,.66.66,0,0,0-.28,0,.2.2,0,0,0-.12.06c-.05,0-.05.09-.11.12s-.05,0-.07,0l0,0s-.11,0-.14,0a.11.11,0,0,0-.08,0l0,0s-.08,0-.1,0-.12.08-.19.11,0,0,0,0,0-.07,0-.06-.13,0-.16,0A.74.74,0,0,1,79.53,29.1Zm4,1.93h0c-.06,0-.11.06-.16.05L83.12,31c-.07,0-.08-.07-.14-.1s0,0-.06,0-.07,0-.1,0,0,0,0,0,0-.05,0-.06a.76.76,0,0,1,.2-.06.88.88,0,0,1,.36,0s0,0,0,0,.16.07.24.09.13,0,.19,0,0,.08.07.11,0,0,0,.05-.17,0-.25,0l0,0Zm-2.41-.64,0,0s0,0,0,0-.08,0-.13,0a.09.09,0,0,1-.06-.07l.05,0s.1,0,.13,0S81.13,30.36,81.13,30.39Zm-.88-1.16a.07.07,0,0,1,0-.05s.06-.05.09,0h0a.06.06,0,0,1,.08,0s0,.1.08.14a.06.06,0,0,1,0,.06.35.35,0,0,1-.25,0s0-.05,0-.07h0s0,0,0,0,.06,0,.07,0S80.3,29.25,80.25,29.23Zm-1.91.59s0,0-.07.06,0,0,0,0,0-.07,0-.1l0,0h0s0,0,0,0h0s0,0,0,0h0A0,0,0,0,1,78.34,29.82Zm-13.1-4.74s0,0-.06,0,0-.08,0-.12,0,0,0,.06S65.22,25.06,65.24,25.08ZM81,35.83s0,0,0,0l0,0A.13.13,0,0,1,81,35.83Zm.1,0h0s0,0,0,0-.06,0-.08,0,0,0,.06,0Zm0,.42s0,0,0,0,0,0,0,0h0s0,0,0,0A0,0,0,0,1,81.06,36.2Zm.1-.07s-.15,0-.06-.11.06,0,.08,0,0,0,0,.06S81.14,36.09,81.16,36.13Zm-.07-.28h0a0,0,0,0,1,0,0s0,0,0,0S81.07,35.87,81.09,35.85Zm.24.12a.18.18,0,0,1-.11-.1s0-.11,0-.13l-.11-.05a.21.21,0,0,0-.19,0s0,0,0,0-.06,0-.09-.06,0,0-.08,0-.11,0-.11,0,0,.1-.06.13-.09,0-.09,0l0,0h0a.06.06,0,0,1-.07,0s0,0,0-.07-.06,0-.06,0,0,0-.09,0h0s0,.05.06.07,0,0,0,0a.12.12,0,0,1-.1,0,.11.11,0,0,1-.09-.06c-.06,0,0-.1,0-.15s0-.11,0-.14-.3-.12-.44-.21-.12-.17-.2-.24a.1.1,0,0,0-.13,0s0,.05.07.06h0s0,.05,0,.08,0,0,0,0,0,0,0,0h-.09s-.06-.08-.09-.09a.28.28,0,0,1-.28-.32s0-.07,0-.11,0,0,0,0-.06-.08,0-.13,0,0,0-.07,0,0,0,0h0a1.5,1.5,0,0,0-.24-.18c-.06,0-.09-.09-.14-.13s0,0-.06,0a.93.93,0,0,0-.16-.18c-.12-.07-.19-.2-.3-.27a.11.11,0,0,1,0-.09s0,0,0,0l0,0s-.05-.06,0-.09,0,0,0,0l-.09,0h0v0s0,0,0,.05a0,0,0,0,1,0,0,.75.75,0,0,1-.16,0,1.22,1.22,0,0,1-.43,0,1.86,1.86,0,0,0-.2-.1l-.36-.1c-.07,0-.12-.08-.08-.13a0,0,0,0,0,0,0l0,0-.3,0a1.93,1.93,0,0,1-.24,0l-.17-.07a2.88,2.88,0,0,1-.34-.27.15.15,0,0,1-.06,0h0a.73.73,0,0,1-.22-.16s0,0,0,0,0-.06-.06-.08-.11-.1-.17-.16A.81.81,0,0,0,74.7,32c-.08-.06-.18-.1-.28-.16s0,0,0,0a.59.59,0,0,0-.31-.09h-.17l-.1,0a1.4,1.4,0,0,1-.52.18c-.19,0-.33-.12-.51-.15a1.41,1.41,0,0,1-.31-.08,2.89,2.89,0,0,1-.35-.19s0,0,0,0a.44.44,0,0,0-.2-.08,2.14,2.14,0,0,1-.38-.13l-.11-.07a1,1,0,0,0-.3-.1c-.07,0-.1-.06-.16-.08l-.06,0s0,0,0,0h0c0-.1-.15-.13-.24-.19s0-.08-.07-.1h0s-.08,0-.13,0a1.17,1.17,0,0,1-.42-.15l-.1,0a.66.66,0,0,1-.22-.12l-.05,0s0-.06,0-.08-.08-.11-.15-.16l0,0a.45.45,0,0,0-.22-.13.54.54,0,0,1-.29-.22.25.25,0,0,1,0-.07s-.06,0-.08-.06a.88.88,0,0,1-.06-.27s0-.05,0-.05.18,0,.14-.09-.06-.06,0-.1.1,0,.12-.08a.33.33,0,0,0,0-.22c0-.09-.1-.18-.15-.27s0-.1,0-.15,0-.05,0-.08-.09-.07-.13-.11,0-.05,0-.07S68.5,28,68.47,28s-.06-.14-.1-.21-.08,0-.1-.06a.09.09,0,0,1,0-.11l-.07-.05s-.08-.09-.12-.12-.14-.11-.2-.18-.07-.07-.07-.12,0-.08,0-.12,0,0,0-.05a.64.64,0,0,1-.1-.13c-.08,0-.17,0-.2-.05s0,0,0,0-.06-.05-.09-.09,0-.06,0-.09,0,0,0,0-.09,0-.14,0l0,0a.09.09,0,0,1,0-.05.19.19,0,0,1,.06-.17s0,0,0,0,0-.07,0-.1,0,0,0,0,0-.05,0-.07-.11,0-.17-.05,0-.08-.07-.12,0,0,0-.05,0-.06,0-.08l-.08,0s-.05,0-.09,0h0l0,0s-.09,0-.11-.07a.54.54,0,0,0,0-.11.33.33,0,0,0-.06-.08s0-.08-.07-.1l-.07,0c-.06,0,0-.13,0-.17s-.12-.06-.14-.12a.47.47,0,0,0,0-.09s0,0,0,0-.07,0-.1-.06a.49.49,0,0,1-.11-.14c0-.08,0-.15,0-.23s-.05-.1,0-.15a.34.34,0,0,0,0-.2.47.47,0,0,0-.06-.09s0-.05,0-.06a.33.33,0,0,1-.25-.25.59.59,0,0,1,0,.26.17.17,0,0,0,0,.17.83.83,0,0,0-.07.27.57.57,0,0,0,0,.18v.08a.24.24,0,0,0,.08.24s0,0,0,0,.14.09.13.15,0,0,0,.06a1.13,1.13,0,0,0,.08.24l0,.1s0,.06,0,.09,0,0,0,.06.07.16,0,.26,0-.09,0-.12h0l0,.09a.53.53,0,0,1,.06.1.42.42,0,0,1,0,.15s.05.1.07.16,0,.05,0,.07a.08.08,0,0,0,0,0c0,.1,0,.19.06.28s0,0,0,.05a0,0,0,0,1,0,.06s0,0,0,.06,0,0,0,.05,0,0,0,.09,0,0,0,0a.08.08,0,0,1,0,.07l0,0a.06.06,0,0,0,.07,0s0,0,.06-.06.11.13.17.19,0,0,0,.05a.47.47,0,0,0,.06.09v0a.16.16,0,0,1,.05.23.23.23,0,0,1-.19.09s0,0,0,0,0,0,0,0,0,0,0,0a.64.64,0,0,0,0-.07c0-.08-.07-.16-.12-.24s-.06,0-.08,0-.09-.15-.18-.21a.42.42,0,0,1-.14-.12S66,27,66,27,66,27,66,27s-.07-.07-.12-.08a.31.31,0,0,0,.08-.13c0-.07,0-.15.08-.21s0-.19-.06-.29-.09-.06-.13-.1a.4.4,0,0,1-.17-.26.09.09,0,0,1,0-.09s0,0-.08,0,0,0,0,0a.41.41,0,0,0,0-.09s-.08,0-.11-.05-.07-.07-.06-.12,0,0,0,0,0-.05,0-.06h0a0,0,0,0,1,0,0s-.07-.06-.07-.09a.18.18,0,0,1,0-.13h0s0-.05,0-.06,0-.05-.06-.07h.09a.08.08,0,0,0,.07,0s0,0,0,0,0,0,.07,0a.16.16,0,0,1,0-.13.11.11,0,0,0,0-.08.05.05,0,0,0,0,0,.18.18,0,0,1,0-.09.87.87,0,0,0-.11-.18l0,0s0-.07,0-.11a.5.5,0,0,0,0-.13,1.57,1.57,0,0,1,0-.3h0a.41.41,0,0,0,0-.11c0-.08,0-.14,0-.22s.07-.08,0-.13c-.1-.23,0-.48-.06-.72,0,0,0-.06,0-.05h0l1.4.77a.2.2,0,0,0,.1,0s0,0,0,0a5.92,5.92,0,0,0,1.32.14s0-.16.05-.16a3.34,3.34,0,0,1,.83.08l.06,0a.11.11,0,0,1,.07.06s0,.05,0,.06,0,0,.07,0h0a1.6,1.6,0,0,0,.42.44c.05.05,0,.15.06.23s0,.18.08.25a1.3,1.3,0,0,0,.45.39s.08,0,.11,0c.19-.11.24-.5.53-.35,0,0,.06,0,.1,0a.48.48,0,0,0,.24,0,.16.16,0,0,1,.08.05.83.83,0,0,0,.08.12s.08.06.11.1,0,0,0,.07.07,0,.09.07,0,0,0,0v.05c.07.11.07.24.16.33a.92.92,0,0,1,.15.25A.27.27,0,0,0,72,26c.11.09.06.25.08.38a.47.47,0,0,0,.25.34,1.68,1.68,0,0,0,.24.07.47.47,0,0,1,.09.06l0,0a1,1,0,0,1,.17,0c.07,0,.11.07.16.08a.21.21,0,0,0,.12,0c.06,0,.06.07,0,.1s0,.07,0,.09,0,0,.07,0-.06.13-.14.16-.1,0-.14,0,0,0,0,0,0,.13,0,.18-.1.05-.11.1,0,.12,0,.18v.05a.88.88,0,0,1,.06.36,2.37,2.37,0,0,0,0,.76.44.44,0,0,0,.17.22.11.11,0,0,1,0,.06,1.22,1.22,0,0,0-.07.17.19.19,0,0,0,0,.12s0,0,0,0a1.39,1.39,0,0,0,.06.13,1.79,1.79,0,0,0,.14.13.41.41,0,0,1,.1.13,1,1,0,0,0,.33.57.57.57,0,0,0,.38.11l.1.12a.48.48,0,0,0,.15.11.16.16,0,0,0,.15,0l.09-.06.13-.05a1.45,1.45,0,0,1,.36,0s.07,0,.09,0l.12-.05a.72.72,0,0,1,.36,0l0,0s0,.07.05.09a.25.25,0,0,0,.26-.08s0-.14,0-.17l.12,0,.1-.07c0-.08,0-.16.08-.23s.08-.08.1-.13a.84.84,0,0,0,.07-.26.78.78,0,0,1,0-.22c.07-.12.25-.12.38-.17s0,0,0,0a.77.77,0,0,0,.4,0l.09,0a.89.89,0,0,0,.15,0h.06a.27.27,0,0,1,.22,0s0,.05,0,.08.07-.06.1-.06a.58.58,0,0,1,.26,0,.11.11,0,0,1,.08.07s0,.06,0,.08,0,.06,0,.09,0,.07,0,.09l-.08.08c0,.06-.11.07-.14.12a.18.18,0,0,0,0,.09s0,0,0,0a.5.5,0,0,1,0,.12.15.15,0,0,1-.09.13l.07,0s0,0,0,0a.11.11,0,0,1-.08.11.08.08,0,0,1,0,.1,2.18,2.18,0,0,0-.09.23c0,.05,0,.1,0,.15l0,.09a.11.11,0,0,1,0,0s-.05,0-.05,0a.37.37,0,0,1,0-.18s0,0,0,0l0,0s0,0,0,0h0c0-.06,0-.12-.08-.12a.26.26,0,0,1-.08.13v0s0,0,0,0,.16,0,.13.1-.07.09-.09.14a.18.18,0,0,0,0,.12.87.87,0,0,1,0,.32.46.46,0,0,1-.35.37V32s0,.1.07.1.11-.06.16,0,0,0,0,0h0v0s.1,0,.13,0a.87.87,0,0,1,.48,0,1,1,0,0,0,.51-.05h.07c.08,0,.16,0,.23,0a.25.25,0,0,0,.17,0,.69.69,0,0,1,.25,0s.08,0,.13,0,.12,0,.18,0a.3.3,0,0,1,.15.07s.07.08.12.1l.21.08s0,0,0,0a.09.09,0,0,1,0,0l0,0a1.1,1.1,0,0,1-.08.57.71.71,0,0,0-.09.28,3.57,3.57,0,0,1-.1,1,.12.12,0,0,0,0,.1l0,.06,0,0s0,0,0,0a.93.93,0,0,0,.24.38.48.48,0,0,0,.2.17l.28.07s.09.07.1.11a.11.11,0,0,0,.08.07s.06.05.1.05a0,0,0,0,0,0,0s0,0,0-.07v0s.07,0,.1,0a.37.37,0,0,0,.14.07.44.44,0,0,0,.27,0c.07,0,.11-.09.19-.13a.69.69,0,0,1,.23-.07.09.09,0,0,0,0,0,.22.22,0,0,1,.13-.06l.06,0c.09,0,.14,0,.16.1s0,.12-.1.17,0,.1,0,.16.05,0,0,.05a2.07,2.07,0,0,1-.33.1s0,0,0,.07.19.11.23.21,0,.06,0,.09,0,0,0,.06-.07,0-.1,0,0,0,0,0a.11.11,0,0,0-.11.06s-.09,0-.14,0h-.08l0,0s0-.1,0-.14,0,0,0,0-.07,0-.08-.08h0S81.4,36,81.33,36ZM66,24.83l0,.05s0,0,0,0-.06-.1,0-.14h0S66,24.8,66,24.83Zm-.28-.15s0,0,0,0a.18.18,0,0,0,0,.1.32.32,0,0,1,0,.09s0,0-.07-.06,0-.06,0-.08S65.69,24.7,65.72,24.68Zm7.41,2.72s0,0,0,0l0,0h0l0,0s0-.05,0-.08.06,0,.07,0S73.13,27.37,73.13,27.4ZM81.42,36s0,0,0,0,0,0,0,0h0s0,0,0,.07h0l0-.05S81.41,36,81.42,36Zm6,25.42.1,0c0,.05,0,.05-.07.08S87.38,61.44,87.39,61.44ZM87.58,64h.1s0,0,0,0,0,0,0,0S87.58,64,87.58,64Zm.26-.46h0a.08.08,0,0,1,.05.09s0,.07-.06,0a.39.39,0,0,1-.08-.1s0,0,0,0a.08.08,0,0,1,.07,0Zm.09.16h0a0,0,0,0,1,0,0s0,.07,0,.1a.11.11,0,0,1-.12.07c-.06,0,0-.07,0-.1a.11.11,0,0,1,0-.08Zm-.18.25s0,0,.07,0a0,0,0,0,1,0,.08h0S87.73,64,87.75,63.93Zm-.11-.25s0,0,0,0,.12.14.12.22,0,0,0,0S87.66,63.75,87.64,63.68Zm.21.35h0v0s0,0,.06.07-.05.07-.08.06l-.06,0a0,0,0,0,1,0,0S87.84,64.07,87.85,64Zm-.15-.52s-.06,0-.09,0,.13-.07.2-.07Zm0,.68h0l0,0s0,0,0,0h0s0,0,0,.07S87.72,64.2,87.69,64.19Zm0,0c0-.08.16,0,.22,0a.09.09,0,0,0,.05-.12s-.07,0-.09-.09,0,0,0,0a.1.1,0,0,1,.11,0l0,0c0,.06,0,.11,0,.17a.67.67,0,0,0,.06.12.15.15,0,0,1-.06.2.05.05,0,0,1-.06,0,.86.86,0,0,0,0-.17c-.08,0,0,.11,0,.15s0,0-.08,0,0,0,0,0a.41.41,0,0,0,0-.09l-.05,0s0,0,0,0Zm.6.51-.1,0s.08,0,.1,0h0s0,.07.07.08,0,0,.06,0,0,.06,0,.09-.08,0-.1,0,0,0,0,0,0-.05-.08-.08,0,0,0,0,0,0,0,0a.22.22,0,0,1,.11,0Zm.13.54s0,0,0,0h0s0,0,0,0a0,0,0,0,1,0,0s-.05,0-.09,0,0,0,0,0h-.05s0,0,.05-.06,0,0,0,0,0,0,0,0h0Zm.2.31c.06,0,0,.11,0,.13s0-.07,0-.1,0-.05.07,0Zm0,0s-.05,0-.09,0a0,0,0,0,1,0,0s.07,0,.09,0,0,0,0,.05S88.66,65.56,88.65,65.55Zm-.08,0s0,0,0,0-.07,0-.07,0,.09,0,.12,0S88.58,65.59,88.57,65.59Zm0-.27s0,0,0,0,0-.08,0-.11,0,0,0,0a0,0,0,0,1,0,0S88.58,65.29,88.59,65.32ZM88.45,65s0,0,0,.08-.08,0-.11,0,0,0,0-.06l0,0h0Zm-.2-.08h0s.06.06,0,.09,0,0-.07,0-.06,0-.07,0S88.21,65,88.25,64.93Zm-.18,0s0,0,0-.07h0s0,0,0,0S88.1,65,88.07,65Zm-.3-.54s0,0,0,0,0,0,0,0h0s0,.06,0,.09,0,0,.06,0h0a1.05,1.05,0,0,0-.11-.07S87.76,64.43,87.77,64.41Zm.14.25a.1.1,0,0,1,.1,0c.07,0,0,.12-.05.15s-.06,0-.09,0S87.9,64.69,87.91,64.66Zm0,.26s0-.07,0-.11h0s0,0,0,0v0s0,0,0,.07S88,65,88,65,87.92,65,87.9,64.92Zm.23.4,0,.07,0,0a.21.21,0,0,1-.06-.1s0,0,0,0,0,0,0,0,0,0,0-.06h0s.08,0,.06.08l0,0S88.1,65.31,88.13,65.32Zm0-.16a0,0,0,0,1,0,0s0,0,0-.06a.06.06,0,0,1,.06,0h0S88.17,65.12,88.15,65.16Zm0,0s0,0,0,0h0a.06.06,0,0,1,0,.08l0,0s0,.07,0,.07S88.18,65.21,88.2,65.17Zm0,.34s0-.09,0-.14,0,0,0,0a0,0,0,0,1,0,0s.06,0,0,.08,0,0-.05.07S88.21,65.52,88.21,65.51Zm.08.16s0,0,0-.07a.73.73,0,0,1,.09-.08.08.08,0,0,1,.08,0s0,0,0,0-.06.06-.08.09Zm.2.3a.64.64,0,0,1-.1-.13s0,0,0,0,.14.07.22.09h.05s.07,0,.11.06.07,0,.1,0l0,0h0l0,0s0,0,0,0-.08,0-.12,0l-.12,0h-.17S88.5,66,88.49,66Zm.23-.2s0,0,.07,0h0a.07.07,0,0,1,0,.06,0,0,0,0,1-.05,0S88.68,65.78,88.72,65.77Zm.17.23h0Zm-.21.2s0,0,0,0,0-.05,0-.08,0,0,.06,0h0l0,0S88.7,66.18,88.68,66.2Zm.11,0s0,0,0-.07,0,0,.07,0,.07,0,.07.06-.1,0-.15,0S88.78,66.18,88.79,66.17Zm.22.27s0,0,0-.06,0,0,0,0,0,0,0,0S89,66.44,89,66.44Zm.23,0s0,0,0,0,0,0,0,0a.17.17,0,0,0-.12,0s0,0,0,0h0c-.07,0-.17,0-.15-.08s.11-.11.19-.15h.11a.48.48,0,0,1,.11.15s0,.08,0,.11A.11.11,0,0,1,89.24,66.39Zm-.09-.5s-.05,0,0,0l.06-.08s0,0,0,0a.07.07,0,0,1,.07,0s0,0,0,0,0,0,0,0a.3.3,0,0,1,.23,0,.07.07,0,0,1,.06.09l-.06.08s-.06.07-.1.08-.1,0-.08,0-.09.07-.09.12-.14.07-.2,0A.09.09,0,0,1,89,66a.22.22,0,0,0,.14,0S89.16,65.91,89.15,65.89Zm.21.71a0,0,0,0,1,0,0s0,0,0,0l0,0s0,0,0,0A.06.06,0,0,1,89.36,66.6Zm0-.09s0,0-.06,0,0,0,0-.07h0s.07,0,.08.07S89.41,66.5,89.39,66.51Zm.08-.11s0-.05,0-.06,0,0,0-.06l.07,0h0s0,0,0,0a.14.14,0,0,0,0,.09.71.71,0,0,0-.09.07S89.49,66.41,89.47,66.4Zm.39.35s0,0,0,0,0,0,0,0h.08l0,0S89.89,66.77,89.86,66.75Zm.31,0a.25.25,0,0,1-.19,0s0,0,0-.06h.09s0,0,0,0,.05,0,.08,0S90.19,66.78,90.17,66.79Zm0-.19-.07,0c-.13,0-.26,0-.38,0s-.12,0-.18,0,0,0,0,0,.17-.12.27-.07a.19.19,0,0,0,.17-.05s0,0,0,0,.07,0,.08,0,.16,0,.21,0,0,.06,0,0,0,0,0,0,.1,0,.15,0,0,0,0,0,0,0,0,0,0,0,.06,0a.68.68,0,0,1,.28,0h0s0,0,0,0h0s-.06.07-.09.08,0,0-.06,0a.17.17,0,0,1-.17,0s-.11,0-.15,0a.28.28,0,0,0-.13,0Zm-.57-.28,0,0s0,0,.06,0l0,0s0,.07,0,.1,0,0,0,0-.08,0-.11,0,0,0,0,0S89.64,66.35,89.65,66.32Zm.39-.08s0,0,0,.05a.07.07,0,0,1,0,.08s0,0,0,0-.08,0-.11,0,0-.11,0-.17,0,0,0,0,0,0,0,0a.07.07,0,0,1,.09,0S90,66.2,90,66.24Zm.24.48h0s0,0,.08,0,0,0,0,.07h-.09S90.27,66.73,90.28,66.72Zm.79.27a.12.12,0,0,1-.13.05s0-.06,0-.06a.36.36,0,0,1-.18,0s0-.07,0-.11-.07,0-.08,0,0,.11,0,.14-.1,0-.08-.06l-.09,0-.07-.06s0,0,0,0h0a0,0,0,0,1,0,0l.1,0s0,0,0,0l.07,0h0a.49.49,0,0,1,.17,0s0,0,0,.07.05,0,.08,0,0,.05,0,.05h0s0,.06.09.09Zm.2,0s0,0-.06,0,0,0,0-.07.07,0,.06,0S91.26,67,91.27,67Zm0-.27a.22.22,0,0,1-.06,0s-.09,0-.13,0-.06,0-.1,0-.19-.1-.11-.19h0a.42.42,0,0,1,.25,0,.13.13,0,0,1,.07,0s.07,0,.1,0A.33.33,0,0,1,91.3,66.75Zm.06.1s0,0,0,0a.07.07,0,0,1,.09,0h0A.05.05,0,0,1,91.36,66.85Zm0-.16s0,.07,0,0l0,0a.07.07,0,0,1,0-.07v0S91.39,66.68,91.39,66.69Zm.11.12a.18.18,0,0,1-.07-.1s0,0,0,0l0,0h0s0,.05,0,.08S91.53,66.83,91.5,66.81Zm.51-.26a.6.6,0,0,0-.11.06l-.09,0a.61.61,0,0,1-.4,0s0,0,0-.06a.07.07,0,0,0-.06,0l-.1,0a.47.47,0,0,1-.29,0,.21.21,0,0,0,0-.06h0a3.75,3.75,0,0,1-.47,0,.65.65,0,0,1-.19,0,.16.16,0,0,1-.07-.22c0-.07.14-.07.19-.12a0,0,0,0,0,0,0c-.11,0-.25,0-.33,0a.08.08,0,0,1,0-.12s.06,0,.07,0-.07,0-.11-.1v0s.06-.08.1,0a.15.15,0,0,1,.06,0s0,0,0,0,.06,0,0,0a.11.11,0,0,0,.08,0s0-.05,0-.06a.2.2,0,0,1,.13-.08s.06.07.11.06a.7.7,0,0,1,.19-.06s0,0,0,0a0,0,0,0,1,0,0s0,.1,0,.15,0,.06,0,.08l0,0s0,.07,0,.1v0l.11,0a2.3,2.3,0,0,0,.75.46s.1,0,.15,0,.13,0,.18,0S92,66.54,92,66.55Zm.44,0s0,0-.07,0,0,0-.07,0a0,0,0,0,0,0,0,.17.17,0,0,1-.14,0s-.06-.05,0-.08,0-.05.07-.06h0c.07,0,.15,0,.2,0h0S92.47,66.55,92.45,66.55Zm.9-1.5s-.09,0-.1,0,0-.06.07-.06S93.38,65,93.35,65.05Zm.05,0s0,0,.06,0,0,0,0,0,0,0-.07,0S93.4,65.1,93.4,65.08Zm.44,0c-.06,0-.14,0-.16.09s0,.07,0,.1h0l-.07,0c0-.08,0-.08-.11-.11s0,0,0,0a.12.12,0,0,0,.1,0s.09,0,.12,0-.07,0,0-.06h.09v0s-.13,0-.13-.11,0,0,0,0,.25,0,.38,0,0,0,0,0-.07.09-.13.11-.05,0-.07,0A0,0,0,0,0,93.84,65.12Zm-.17-.32v0s0,0,0,0,.06,0,.09,0v0a.06.06,0,0,1-.09,0Zm.18,0s0,0,0,0h0s0,0,0,0a0,0,0,0,1-.06,0A0,0,0,0,1,93.85,64.81Zm.79.29a.74.74,0,0,1-.39,0s0,0,0,0,.06.07,0,.08-.17,0-.23.06-.07,0-.07,0,.1-.2.19-.27a.24.24,0,0,0,.08-.15s0,0,.05,0,.06.07.1,0,0,.07,0,.1,0,0,0,0,.06,0,.08,0l.11,0s0,.08,0,.1S94.7,65.07,94.64,65.1Zm3.56-8.84c0,.08-.12.09-.13.16a.85.85,0,0,1-.19.38c0,.06-.13.05-.2.08s-.09,0-.12,0,0-.17,0-.21a.9.9,0,0,1,.26-.17s.08,0,.1,0-.08-.19,0-.28.14-.08.2-.14l.07,0A.46.46,0,0,1,98.2,56.26ZM108.3,43.9a1.28,1.28,0,0,1-.13.39.64.64,0,0,1-.21.31,4.19,4.19,0,0,0-.33.26s0,.11,0,.16a1,1,0,0,1-.32.22c-.06,0-.16,0-.22,0s-.14.24-.32.26,0,.07,0,.1-.19.08-.17.17a.12.12,0,0,1,0,.07,4.17,4.17,0,0,0-.36.37c0,.07-.14.06-.22,0s0,0-.06,0,0,0,0,0-.1,0-.12,0,0,.06,0,.08,0,.09,0,.13l0,0s-.08,0-.1.06,0,.09,0,.14-.08,0-.1.06,0,.08,0,.11h0s0-.11.1-.06,0,.12,0,.17a2.83,2.83,0,0,0-.08.87.61.61,0,0,1-.19.35l-.15.3a.34.34,0,0,1-.08.37c-.06.06-.15.1-.18.17s0,.43-.13.62-.28.15-.34.29a.67.67,0,0,1-.06.12,3.72,3.72,0,0,0-.5.56c-.06.1.09.22,0,.32s-.21.07-.3.1-.18.06-.19.15l-.08.1c-.33,0-.32,0-.32,0l-.25,0c-.11-.22-.09,0-.09,0s-.16.06-.16.06h-.14l0,0c0-.14-.15-.06-.28-.11,0,.19-.3.08-.4.21a.33.33,0,0,1-.26.12c-.18,0-.31.08-.47.08a1,1,0,0,0-.32.11c-.05,0,0,.09,0,.1a1.09,1.09,0,0,0-.42.29c-.06.09-.13.1-.21.16s0,0-.06,0c-.16,0-.11.2-.17.31s-.07,0-.08,0,.18.18.11.29-.06.09-.05.15a.72.72,0,0,0-.06.55.22.22,0,0,1-.14.22,1.16,1.16,0,0,0-.58.38,4.77,4.77,0,0,0-.41.7c-.11.17-.51.22-.48.43,0,0,0,.14,0,.14s-.27,0-.21-.17.1-.05.13-.07.38-.21.44-.38.17-.08.1-.15,0-.09-.09-.05A.84.84,0,0,0,98,55a.52.52,0,0,1-.06.13c-.19.24-.51.35-.68.61l0,.06h0a.11.11,0,0,1,0,.13c0,.05-.09.08-.11.12s0,.15,0,.2a1.46,1.46,0,0,0-.21.28c-.06.08-.17.11-.25.18s0,0,0,0a1.07,1.07,0,0,1-.19.13.79.79,0,0,1-.48,0,.71.71,0,0,0-.25,0s-.07.07-.11.06c-.21-.06-.32-.23-.51-.32s-.17,0-.25,0a.73.73,0,0,1-.21-.22l0-.07c-.06.13,0,.36.11.41a.83.83,0,0,1,.3.22.44.44,0,0,1,.16.14c.06.11-.17.16-.12.27a.37.37,0,0,0,.16.19c.07,0,.17-.05.16,0s0,.21,0,.29-.27.46-.51.59a2.68,2.68,0,0,1-1.16.32l-.25.05a.54.54,0,0,1-.55,0s-.06,0-.08,0,0,.08,0,.11,0,.08.08.09.06,0,.07,0,0,.13,0,.19,0,0,0,.06,0,0,0,0-.12,0-.13.07,0,.06,0,.09.1.07.1.13a.22.22,0,0,1,0,.17.09.09,0,0,1-.08.06s-.12,0-.16,0,0,0,0,0a.45.45,0,0,1-.36,0s0,0,0,0a2.18,2.18,0,0,1-.27-.11.66.66,0,0,0-.14,0c-.06,0,0-.08-.06-.11s-.11,0-.12.08a.31.31,0,0,0,0,.23s0,0,.06.06,0,0,0,0a.14.14,0,0,1,0,.11l-.06.06s0,.05,0,.07l.06,0a.25.25,0,0,1,.15,0s0,.07.08.1.08,0,.09,0,0,0,0,0,0,0,0-.07,0,0,0,0,0,0,.08,0h.08c.13,0,.07.19,0,.27s-.21.05-.31,0-.14,0-.18,0,.1.11.19.13c-.08.15-.27.22-.31.4a.74.74,0,0,0,0,.21c0,.05,0,.1,0,.14s0,0,0,0,0,.08-.08.12,0,0,0,.06-.1,0-.15,0,0,0,0,0-.09,0-.11,0a2,2,0,0,0-.31.27c-.1.12-.19.27-.12.4a.51.51,0,0,0,.49.33h0c.09,0,.18-.08.24,0s0,.06,0,.09h0c-.05.09,0,.2-.09.27s0,0,0,0,0,0,0,0,0,.07,0,.12h0s0,0,0,.05-.1,0-.11,0a.47.47,0,0,1-.1.1c0,.06-.14.07-.18.13s0,.1,0,.13a.72.72,0,0,0-.19.2s.15,0,.11.07a1,1,0,0,1-.11.24c-.07.07-.17.07-.26.1s-.07.17-.1.26a.81.81,0,0,1-.12.14,0,0,0,0,0,0,0s.11,0,.11,0a2.59,2.59,0,0,0,.26.46l.08,0s.11.06,0,.08-.29,0-.38,0-.32.1-.47.2,0,.07,0,.11,0,.06-.07,0a.26.26,0,0,1,0,.21s0,.08,0,.11,0,.08,0,.08-.25,0-.39-.08-.13,0-.1-.1.07,0,.1,0,.19,0,.22-.06.06-.11,0-.17a.33.33,0,0,0-.22-.14.89.89,0,0,0-.23,0,.34.34,0,0,0-.14.05c-.09.06,0,.23-.14.23a2,2,0,0,0-.16-.29s0,0,0-.05h.06s0,0,0,0c.17,0,.23-.12.33-.21s0,0,0-.07-.06.07-.1.09,0,0-.06-.06,0,.12-.07.17-.08,0-.09,0-.07.12-.11.06,0-.12-.07-.18,0-.1,0-.13v0c-.07,0-.12,0-.14-.09s0-.29-.15-.35-.19-.08-.16-.17.07-.3.24-.36c0,0,0,0,0,0s-.08,0-.13,0v0s-.08,0-.09,0,0-.11,0-.14,0-.16,0-.25,0,0-.08,0a.13.13,0,0,0,0-.06s-.1-.12,0-.13.14,0,.2,0h.23c0-.07-.17-.08-.11-.16a.16.16,0,0,0,0-.1c-.1,0-.3,0-.32.11s-.07,0-.08,0,0-.14.05-.14,0,0,0,0a.08.08,0,0,1,0-.14s.11,0,.13,0,0-.08,0-.08,0,0,0,0-.1,0-.14,0a.25.25,0,0,0,0-.07.8.8,0,0,0-.21-.15c-.1-.07,0,.1-.09.14s-.08,0-.09,0,.1-.23.2-.28.08-.07,0-.1-.06,0-.11,0,0,0,0-.06.11-.06.19-.06.06,0,0,0,.11.08.16.1.14.08.19,0,0-.11.06-.17,0-.09,0-.11a.22.22,0,0,1,0-.22.58.58,0,0,1,.23-.2s0-.08.1-.11,0-.09,0-.1-.15,0-.23,0,0,0,0,0v0h0c-.05,0,0-.09,0-.12s0-.13,0-.21,0,0,0,0,0-.09,0-.13,0,0,0-.05.06,0,.06,0-.06-.13,0-.19h0s0,0,0,0-.14-.12-.08-.16a.18.18,0,0,1,.07,0c-.06-.07,0-.14,0-.22s-.05-.05-.07-.06,0,0,0,0,0,.14-.11.15a.36.36,0,0,1-.19-.06.54.54,0,0,1-.18-.15.27.27,0,0,1-.06-.26c0-.06,0-.12,0-.19s0-.1,0-.16,0-.09,0-.15,0,0,0,0,0-.05,0-.07,0-.08,0-.09a.24.24,0,0,0,.08-.35c0-.05-.11-.09-.14-.14s0-.21,0-.32a.7.7,0,0,1,0-.29,1,1,0,0,1,.06-.16s0,0,.06,0,0-.16,0-.23a2.38,2.38,0,0,0,.15-.45.84.84,0,0,1,.06-.3.61.61,0,0,0,.07-.1c.1-.28-.16-.87.19-.87h0s0,0-.06,0,0-.12,0-.17-.06-.24-.06-.35a2.6,2.6,0,0,1,0-.26L88,55.28a1,1,0,0,1-.17-.36.29.29,0,0,1,0-.16.45.45,0,0,1,.11-.17s0-.08,0-.11h0a.33.33,0,0,0,0-.1c0-.08-.07-.17-.12-.25a.26.26,0,0,1,0-.21c0-.09.11-.17.15-.25s0-.11,0-.15a2.76,2.76,0,0,1,.08-.27c0-.07-.05-.15,0-.23a1.09,1.09,0,0,0,.07-.3,2.4,2.4,0,0,1,.07-.65c0-.1-.07-.19,0-.3h0c0-.2.09-.43-.1-.6,0,0,0-.09,0-.09a.23.23,0,0,0,.18-.1c0-.19,0-.37,0-.55s.1-.25,0-.33c-.24-.28,0-.63-.11-.94,0-.13-.13-.24-.12-.38s0-.11,0-.1h.05c-.24,0-.38-.22-.59-.32s-.12-.27-.24-.33-.57-.11-.86-.27a1.11,1.11,0,0,0-.43-.07c-.17,0-.24-.17-.39-.23a2.45,2.45,0,0,1-1-.83c-.07-.09.11-.26,0-.33a3.22,3.22,0,0,1-.39-.33c-.11-.14-.06-.33-.19-.48a1.12,1.12,0,0,1-.27-.31A.54.54,0,0,0,83.7,45a.58.58,0,0,1-.2-.22,1.07,1.07,0,0,0-.15-.37c0-.06-.16-.09-.19-.15s-.07-.07-.07-.1a.75.75,0,0,0-.13-.38c-.08-.17-.4-.19-.47-.39a.24.24,0,0,0-.08-.13c-.11-.11-.21-.25-.35-.29s-.43,0-.47-.21.13-.07.16-.14-.17-.21-.22-.33-.13-.24,0-.35l.18-.23s0-.13,0-.14l.18,0c.08,0,0-.17.15-.12a.38.38,0,0,1,.15.13.22.22,0,0,0-.08-.09c-.09-.05,0-.11,0-.11a1.79,1.79,0,0,1,.28-.2s.09-.17,0-.22-.14,0-.18,0-.12.14-.18.11a1,1,0,0,0-.39-.07V40.9c.09,0,.12-.07.14-.11s-.13-.27,0-.43c0,0,0,0-.09,0s.1-.07.09-.14,0,.05.09,0a.39.39,0,0,1,.19-.08.15.15,0,0,1,0-.09A.11.11,0,0,1,82,40c0-.13.18-.17.12-.3s.11,0,.11,0-.07-.17-.16-.24,0-.1,0-.1a.31.31,0,0,0,.2-.11c.07-.07.18-.08.28-.14s.11,0,.18,0,0-.08,0-.1l0-.05a.13.13,0,0,0,0,0c-.12-.15.12-.15.25-.18s-.08-.17,0-.26.09,0,.14,0c0-.18.3-.13.43-.2a0,0,0,0,0,0-.05h-.09c0-.09.1-.12.14-.17s0-.24.12-.32.12,0,.1,0-.22-.18-.17-.33,0-.07-.06-.08c.14-.07.08-.18.09-.28h-.06s-.11-.12,0-.15.25-.07.21-.2c-.09.06-.09-.08-.16-.06s.21-.16.11-.23a1,1,0,0,1-.27-.26v0h0a.16.16,0,0,1-.09,0c0-.07-.08-.14-.17-.16a0,0,0,0,1,0,0,.43.43,0,0,0,0-.16c0-.05,0-.09,0-.14s0,0,.08,0,0,0,0,0,.06,0,0-.06,0-.06,0-.05-.1.11-.15.07.12-.19.09-.25-.31,0-.35,0a.17.17,0,0,1-.17,0,.07.07,0,0,0-.06,0h0s0,0-.08,0l-.07-.07s-.06-.05-.09-.05a.3.3,0,0,1-.1,0v0a.56.56,0,0,1,.16-.07.9.9,0,0,0,.28,0h0c.06,0,.09,0,.14,0h.08s0,0,0,0,.13,0,.18,0l.07,0s.08,0,.12,0l.09,0c.07,0,.09.12.17.15h0l0,0a2.16,2.16,0,0,1,.39.41c0,.05,0-.06,0,0a.53.53,0,0,1,.11-.51s0-.08.12-.06.07-.1.1-.16.26-.11.29-.22,0-.24,0-.32a.8.8,0,0,1,.46-.27,4.13,4.13,0,0,0,1-.29,5.24,5.24,0,0,0,.48-.23c.07,0,0-.18.14-.2a.6.6,0,0,0,.22-.09c.09-.05.13.07.21.1s0,.09,0,.14h0s0,0,0,0a.49.49,0,0,1-.08.1,1.45,1.45,0,0,0-.22.21s.12.09.1.12,0,.22-.11.33-.28.47,0,.6a.29.29,0,0,0,.42-.23.31.31,0,0,0-.18-.3c-.08-.06,0-.11,0-.14a.16.16,0,0,1-.09-.06s0-.08,0-.09a3.29,3.29,0,0,1,.46-.23s.13,0,.15,0,.23-.08.35-.13,0,0,0-.05-.28-.08-.21-.17.29.07.37.22.06,0,.12.07.08-.1.16-.06,0,0,0,.05a.24.24,0,0,1,.23.06c.11.17.36.22.46.38a3.49,3.49,0,0,1,1.07-.13s0,0,0,.05.19.16.32.18a2.26,2.26,0,0,0,1.06-.18s-.12,0-.18-.06,0,0,0,0a2.76,2.76,0,0,1,.64,0c.49.09.44-.06.65.07-.15.13-.35,0-.49.06s0,.08,0,.09.14.17.24.19.08-.06.16,0,.06,0,.06.08a.56.56,0,0,1,.48.13s.09,0,.11,0c.19.12.09.31,0,.46.19,0,.38-.11.52-.06a.13.13,0,0,1,.07.13v0h0a.11.11,0,0,1,.11,0s.06.05.1.05.13,0,.14,0a1.55,1.55,0,0,0,.07.23c.07.12.26.16.29.29s-.09.18,0,.23.21,0,.3,0,0,0,0,0,0,.06.07.06.12.06.16.11a1.11,1.11,0,0,0,.23.19l0,0a.64.64,0,0,1,.24,0l.12,0c.08.07.1,0,.18,0a.42.42,0,0,0,.12.06.53.53,0,0,1,.15,0,.5.5,0,0,1,.27,0c.15,0,.28-.07.43,0s.07.08.14.08.16,0,.15,0h.07c.09,0,.12,0,.19.08l.13.07c.08,0,.2,0,.29,0s.2.2.32.27a.55.55,0,0,1,.25.25l0,0h0c.08.06.12.13.2.19s.16.23.25.35,0,.12,0,.15a.59.59,0,0,1,0,.08c.1.15,0,.34.09.47s.33.1.49.17a.83.83,0,0,1-.13.34.13.13,0,0,1-.07,0c-.16,0-.16.17-.27.24l-.07,0c-.07,0-.13,0-.18,0s-.13.19-.24.26a.07.07,0,0,0,0,.06s0,.09,0,.13-.09.08-.13.11a.62.62,0,0,1-.43.16l-.08,0c.08,0,.18,0,.21.06s0,.17,0,.23,0,.17.1.24a.36.36,0,0,1,.08.21s0,0,.09,0a1,1,0,0,1,0-.24s0,0,0-.08,0,0,0,0-.13-.17-.06-.26a.5.5,0,0,1,.22-.16.57.57,0,0,0,.31-.15s.06-.08,0-.13.08,0,.13,0,0,.11,0,.17,0,.08,0,.12,0,.06,0,.08,0,0,0,.07,0,0,0,0,0,.1.09.11a.31.31,0,0,0,.23,0c.11,0,.24.07.37,0s.1-.08.13,0,0,.08,0,.1a.12.12,0,0,1,0,.1s0,0,0,0,0,.06,0,.09,0,0,0,0h.06a1.28,1.28,0,0,0,.11-.27c0-.05.09-.07.15-.06s.09,0,.09-.07.08-.07.12-.1,0,0,0,0a.63.63,0,0,0,.23-.23.26.26,0,0,1,.26-.09.34.34,0,0,0,.2,0v0s.07-.05.09,0,.18.08.28.13a.15.15,0,0,1,.08.13c.06,0,.09,0,.14,0a.66.66,0,0,0,.2,0s0,0,0,0a.4.4,0,0,0,.11,0s.09.05.15.06,0,0,0,.07.13,0,.11.1a.46.46,0,0,1,.2,0c.06,0,.14.05.12.12s0,0,0,0,.11.09.17.13,0,0,0,0-.12,0-.08.1,0,.09,0,.09.05,0,.08,0-.14.14-.16.22.08.08.13.05a.34.34,0,0,0,.09-.18s0-.08.08-.06h.05c0,.06-.05.1-.06.15.08-.12.25-.06.37-.15s.07,0,.11,0a.1.1,0,0,0,0-.05c.1.05.24,0,.34.11s.11,0,.15.05,0,.09.09.11a.24.24,0,0,0,.22,0s0,.05.06,0,.06-.08.09,0a.57.57,0,0,0,.16.15s.09-.06.14-.05.09.05.15.05,0,0,0,.06a.59.59,0,0,0,.24-.11h.1s.08.05.1.09.09,0,.13,0,.1.09.15.13.08,0,.11,0a1.77,1.77,0,0,1,.41.29s0,.06,0,.07.08,0,.1,0a.78.78,0,0,1,.33.26.27.27,0,0,1,0,.15s.07,0,.1,0a1.63,1.63,0,0,0,.19.09.55.55,0,0,1,.29.25s.09,0,.13,0l.13.07s.11,0,.17,0,.1.07.18.08a.18.18,0,0,1,.1.09c0,.08,0,.19.1.28s0,.05,0,.08,0,.14,0,.19a.47.47,0,0,1,.06.21s0,0,0,0a.58.58,0,0,0,.06.17,0,0,0,0,1,0,.06C108.35,43.81,108.3,43.86,108.3,43.9ZM91,62.55s.11-.08.17-.14c-.07.1-.16.19-.23.28A.59.59,0,0,0,91,62.55Zm-.05,0s0,0,0,0h0Zm-2.89.94c.07,0,.11-.09.19-.06l0,0s0,.05,0,.07a0,0,0,0,1,0,0l-.16,0s0,0,0,0ZM87.88,61a.16.16,0,0,1,.06.13s0,.06-.06.09,0,.06,0,.09-.11.05-.17,0-.06,0-.07,0-.08,0-.09-.07a.09.09,0,0,1,0-.07s0-.09.06-.13a0,0,0,0,0,0-.06s0-.08,0-.12,0-.13,0-.2,0,0,0-.08,0-.06,0-.06.07.05.1.07h.14s0,0,.06.06,0,.06,0,.09,0,0,0,0-.12.13-.1.19Zm.29.78h0s.06,0,.07,0h.06v.07s0,0,0,0,0,0,0,0a.29.29,0,0,1-.14.08c-.06,0-.1,0-.09-.08s0,0,0,0v0l0,0v0s0-.06.06-.07Zm-.1.73h0s0,0,0,0,0,0-.07,0a0,0,0,0,1,0,0s0,0,0,0S88.06,62.49,88.07,62.49Zm-.27-1s0,0,0,0,0,0,.06,0S87.81,61.53,87.8,61.53Zm.07.09a.07.07,0,0,1,0,.05h0S87.84,61.63,87.87,61.62Zm-.07.14a.1.1,0,0,1-.12.05s0-.05.06-.08S87.8,61.74,87.8,61.76Zm-.11.27s-.09,0-.08-.05l0,0S87.71,62,87.69,62Zm.06.13s0,0,0,.06,0,0,0,0-.06,0,0-.07S87.73,62.16,87.75,62.16Zm0-.17s-.05-.05,0-.08h0s0,0,0,0h0a.06.06,0,0,1,.08,0C87.9,62,87.82,62,87.76,62Zm.08.34h0a.11.11,0,0,1,0,.11s0,0,0,0A.11.11,0,0,1,87.84,62.33Zm.06-.11s-.05,0,0,0a.06.06,0,0,1,.06,0l.06,0s.05,0,0,0A.12.12,0,0,1,87.9,62.22Zm.06.06s0,0,.05,0,0,.05,0,.08h0a.08.08,0,0,1,0,.11,0,0,0,0,1,0,0s0,0,0,0A.2.2,0,0,1,88,62.28ZM88,62s0,0,0,0,0-.09,0-.11,0,0,0,0,0,0,0,0Zm0-.2c-.07,0,0,0,0-.06H88S88,61.75,88,61.76Zm0-.16s0-.07,0-.07,0,0,0,0S88,61.61,87.94,61.6Zm-.39.35s0-.07,0-.08S87.63,61.94,87.55,62ZM99.67,39.1s.06,0,.06,0,0,0-.06,0a.11.11,0,0,1-.06-.13s0,0,.06,0,0,0,0,0S99.66,39.1,99.67,39.1Zm.06-.14a.11.11,0,0,1,.07-.06h0s0,.07,0,.07v0h0S99.72,39,99.73,39Zm-.29.31s0-.06,0-.09l0-.06h0s0,0,0,0,0,0,0,0,0,.06,0,.07S99.48,39.29,99.44,39.27Zm0,.16a.08.08,0,0,1-.07,0s0,0,0,0,0-.06.08,0A0,0,0,0,1,99.48,39.43Zm-.23.08s0,0-.06,0,0-.08,0-.13,0,0,0-.06,0,0,0,0,0,0,0,.05v0s0,0,0,0,.06,0,.07,0,0,0,0,0Zm0,.14,0,0h0s0-.06,0-.07h0S99.28,39.63,99.27,39.65Zm-.37,0a.05.05,0,0,1,.06,0,0,0,0,0,1,0,0s0,0,0,0,0,0,0,0a.93.93,0,0,1-.15.13.2.2,0,0,0-.08,0l-.05,0s0,0,0,0,0-.06,0-.08l.13-.05C98.91,39.8,98.91,39.75,98.9,39.69Zm.07-.06s0,0,0,0,0,0,0-.06.06,0,.07-.07,0,0,.07,0h0s0,0,0,0,0,0,0,0A.14.14,0,0,0,99,39.63Zm.1,0s.07,0,.1-.05,0,0,0,0,0,0-.07.07,0,.05-.06,0A0,0,0,0,1,99.07,39.63Zm-.5.35h0s0,0,0,0l-.09.06s0,0,0,0,0,0,0,0a0,0,0,0,1,0,0Z"/></svg>