<svg id="Capa_1" data-name="Capa 1" xmlns="http://www.w3.org/2000/svg" xmlns:xlink="http://www.w3.org/1999/xlink" viewBox="0 0 136.98 88.8"><defs><style>.cls-1{fill:url(#Degradado_sin_nombre_62);}</style><linearGradient id="Degradado_sin_nombre_62" y1="44.4" x2="136.98" y2="44.4" gradientUnits="userSpaceOnUse"><stop offset="0" stop-color="#0871b8"/><stop offset="1" stop-color="#e72479"/></linearGradient></defs><path class="cls-1" d="M136.41,42.2a76.52,76.52,0,0,0-17.17-22.67A75.44,75.44,0,0,0,62,.29,75.23,75.23,0,0,0,13.68,23.62,76.23,76.23,0,0,0,.4,42.8,3.38,3.38,0,0,0,.4,46,74.81,74.81,0,0,0,21.15,72.07,74.84,74.84,0,0,0,68.48,88.79,68.86,68.86,0,0,0,82,87.59a74.93,74.93,0,0,0,40.81-21.8,75.62,75.62,0,0,0,13.58-19.2A4.51,4.51,0,0,0,136.41,42.2Zm-68,37.65A35.42,35.42,0,0,1,33.15,44.34C33,25,49.21,8.94,68.57,9a35.45,35.45,0,1,1-.13,70.9ZM86.8,35.69c.44.93.45.93-.61.94H83.32c-.86,0-1.73-.05-2.59,0A1.66,1.66,0,0,1,79,35.72a6.39,6.39,0,0,0-11.37,1.05,6.36,6.36,0,0,0,3,8,6.27,6.27,0,0,0,8.3-2.14,2.16,2.16,0,0,1,2.17-1.11c2.12.06,4.26.06,6.38,0,.9,0,1.21.33,1.25,1.16a20,20,0,0,1-5.12,15.18,19.7,19.7,0,0,1-16.83,6.69A20.16,20.16,0,0,1,48.84,48.91a15.48,15.48,0,0,1-.43-3c0-.58.18-.85.79-.85,1.95,0,3.89,0,5.84,0a1.3,1.3,0,0,1,1,.42c1.68,1.68,3.35,3.37,5,5a1.09,1.09,0,0,1,.23,1.25,6.41,6.41,0,1,0,4.78-4.46,1.65,1.65,0,0,1-1.77-.54c-1.67-1.73-3.45-3.36-5.08-5.13a4.35,4.35,0,0,0-3.68-1.51c-1.91.1-3.83,0-5.74,0-.78,0-1-.15-.82-1A20.25,20.25,0,0,1,86.8,35.69ZM67.49,55a1.45,1.45,0,0,1-.07-2.89A1.45,1.45,0,1,1,67.49,55Zm6.16-17.33a1.42,1.42,0,0,1,1.4,1.5,1.37,1.37,0,0,1-1.48,1.4,1.39,1.39,0,0,1-1.41-1.48A1.42,1.42,0,0,1,73.65,37.64ZM68.49,13.91A30.5,30.5,0,1,0,99.05,44.36,30.51,30.51,0,0,0,68.49,13.91ZM93.67,44.46c.16,13.71-11.43,25.13-25.19,25.1a25.17,25.17,0,1,1,25.19-25.1Z"/></svg>