<svg id="Capa_1" data-name="Capa 1" xmlns="http://www.w3.org/2000/svg" xmlns:xlink="http://www.w3.org/1999/xlink" viewBox="0 0 91.24 91.28"><defs><style>.cls-1{fill:url(#Degradado_sin_nombre_5);}</style><linearGradient id="Degradado_sin_nombre_5" y1="45.64" x2="91.24" y2="45.64" gradientUnits="userSpaceOnUse"><stop offset="0" stop-color="#0d71b9"/><stop offset="1" stop-color="#5dbb9c"/></linearGradient></defs><path class="cls-1" d="M91.15,48.48c.77-12.79-3.33-23.95-11.78-33.56l.07-.09c1.48-1.48,3-3,4.44-4.43a.42.42,0,0,1,.33-.08A4.16,4.16,0,1,0,81,7a.48.48,0,0,1-.16.51c-.47.45-.93.92-1.39,1.38l-3,3.06A45.55,45.55,0,0,0,33.49,1.66,44.52,44.52,0,0,0,13.78,13,44.43,44.43,0,0,0,.15,42.06c-1,13.08,3.08,24.5,11.72,34.34a.25.25,0,0,1,0,.07c-1.49,1.49-3,3-4.47,4.46C7.29,81,7.14,81,7,81A8,8,0,0,0,5.4,81a4.1,4.1,0,0,0-3.27,4.83,4.15,4.15,0,0,0,8.15-1.55.46.46,0,0,1,.15-.48l4.25-4.24.21-.19c9.09,8,19.66,12.16,31.8,11.87A44.27,44.27,0,0,0,77.88,77.89,44.1,44.1,0,0,0,91.15,48.48ZM51.1,72.37a41.71,41.71,0,0,1-11.48,4.32,27.84,27.84,0,0,1-9.8.42A17.58,17.58,0,0,1,14.35,62.52,28.46,28.46,0,0,1,15,50.07a43,43,0,0,1,4.36-10.63l.1-.16c.71,1.11,1.37,2.2,2.1,3.24a1.17,1.17,0,0,1,.09,1.41,33.79,33.79,0,0,0-3.25,9.58,20.92,20.92,0,0,0,.36,9.76,13.26,13.26,0,0,0,6.76,8.28,15.36,15.36,0,0,0,5.21,1.58,26.25,26.25,0,0,0,11.5-1.32,37.9,37.9,0,0,0,5.62-2.35.44.44,0,0,1,.52,0l3.41,2.18.28.19Zm22.78-4.46a6.41,6.41,0,0,1-5.56,5.94,13.89,13.89,0,0,1-6.42-.76,40,40,0,0,1-8.49-4,83.39,83.39,0,0,1-12-8.87,105.58,105.58,0,0,1-8-7.72A86.79,86.79,0,0,1,21.73,37.06a36.25,36.25,0,0,1-3.82-8.61,13.89,13.89,0,0,1-.56-4.84,6.42,6.42,0,0,1,5.7-6.16,13.77,13.77,0,0,1,6,.69,32.2,32.2,0,0,1,6.87,3.05.47.47,0,0,0,.58,0,45.55,45.55,0,0,1,11-5.44A34,34,0,0,1,56.13,14a22.59,22.59,0,0,1,10.29,1.55,16.71,16.71,0,0,1,9.15,9,21.16,21.16,0,0,1,1.76,8.7,34.6,34.6,0,0,1-2.44,12.34,45.83,45.83,0,0,1-4.71,9.09.66.66,0,0,0,0,.81,31.75,31.75,0,0,1,3.1,7.12A14,14,0,0,1,73.88,67.91ZM43.55,21.76a35.51,35.51,0,0,1,9.4-3.3A21.09,21.09,0,0,1,63,18.69a13.44,13.44,0,0,1,9.67,10,19.57,19.57,0,0,1,.48,7,34.06,34.06,0,0,1-4,12.64c-.5,1-1,1.88-1.59,2.87A105.53,105.53,0,0,0,40.11,23.64C41.28,23,42.39,22.35,43.55,21.76ZM67.28,58.9s-.06-.06-.09-.1L67,59a47.57,47.57,0,0,1-5.45,5.81.36.36,0,0,1-.5.08c-.4-.22-.82-.4-1.22-.62-.8-.42-1.58-.86-2.39-1.31l.24-.24a55.2,55.2,0,0,0,7.16-7.58.33.33,0,0,0,0-.45,86.82,86.82,0,0,0-8.61-11.39,99.1,99.1,0,0,0-8.84-8.79,86,86,0,0,0-10.78-8.13.34.34,0,0,0-.45,0,51.9,51.9,0,0,0-6.06,5.42c-.61.64-1.21,1.3-1.86,2L26.23,30a37.73,37.73,0,0,1,6.3-6,28,28,0,0,0-5.08-2,11.3,11.3,0,0,0-3.6-.53,2.21,2.21,0,0,0-2.27,1.94,5.31,5.31,0,0,0-.08,1.26,13,13,0,0,0,.65,3.38A36.07,36.07,0,0,0,26,36.17a83.09,83.09,0,0,0,9.34,12.27,101.32,101.32,0,0,0,11.8,11.17,69.42,69.42,0,0,0,11.18,7.48,25.5,25.5,0,0,0,6.56,2.48,7.08,7.08,0,0,0,3.14.1,2,2,0,0,0,1.59-1.61,6.85,6.85,0,0,0,0-2.78A24.52,24.52,0,0,0,67.28,58.9ZM41,48.16a38.09,38.09,0,0,1-4.78-6.11,14.87,14.87,0,0,1-2.06-4.62A4.92,4.92,0,0,1,34.07,36a1.91,1.91,0,0,1,2.07-1.89,7.41,7.41,0,0,1,3,.72,26.81,26.81,0,0,1,5.94,3.69,45.49,45.49,0,0,1,7.93,8,24,24,0,0,1,3.66,6.21,7,7,0,0,1,.51,2.19,2.12,2.12,0,0,1-2.68,2.35A12,12,0,0,1,50.2,55.6,39.85,39.85,0,0,1,41,48.16Zm8,.12c.12.54-.23.87-.77.77a2.94,2.94,0,0,1-.84-.26,11.51,11.51,0,0,1-4.91-4.93,4.22,4.22,0,0,1-.26-.8c0-.6.19-.79.62-.78a3,3,0,0,1,1.55.55,12.15,12.15,0,0,1,4.16,4.24A4.63,4.63,0,0,1,49,48.28Z" transform="translate(0 0)"/></svg>