<svg id="Capa_1" data-name="Capa 1" xmlns="http://www.w3.org/2000/svg" xmlns:xlink="http://www.w3.org/1999/xlink" viewBox="0 0 97.76 92.58"><defs><style>.cls-1{fill:url(#Degradado_sin_nombre_7);}</style><linearGradient id="Degradado_sin_nombre_7" y1="46.29" x2="97.76" y2="46.29" gradientUnits="userSpaceOnUse"><stop offset="0" stop-color="#f9b03d"/><stop offset="0.26" stop-color="#e7267a"/><stop offset="0.66" stop-color="#0d71b9"/><stop offset="1" stop-color="#5dbb9c"/></linearGradient></defs><path class="cls-1" d="M77.37,86.64l-.23.24.23-.24ZM63.74,66.92h0l-.47-.14Zm34-8.09c-.09-2.6-.33-4.7-2.45-6.23a.92.92,0,0,1-.22-.24c-.92-.93-1.53-1.54-1.86-1.54s-1,.62-1.88,1.55l-.13.13a3.19,3.19,0,0,0-.31.33,3.63,3.63,0,0,1-3.41,1.51c-1.46-.1-3-.06-4.41,0h-.4a2.32,2.32,0,0,1-1.91-.78c-.61-.63-1.23-1.25-1.85-1.87-.85-.84-1.69-1.68-2.51-2.54a2.36,2.36,0,0,0-2-.8c-2.81,0-5.63,0-8.44,0H63.27A2.62,2.62,0,0,1,62,47.91l-.18-.1a4.31,4.31,0,0,1-1.1-.92c-.51-.54-.87-.93-1.47-.86a3.37,3.37,0,0,1-2.51-.86,3.08,3.08,0,0,1-.89-2.28,3.25,3.25,0,0,1,.89-2.4A2.93,2.93,0,0,1,59,39.64c1.89,0,3.09,1.32,3.13,3.42a2.46,2.46,0,0,0,2.08,2.06s.15,0,.22,0H67.1c2.5,0,5.09,0,7.63-.05a4.51,4.51,0,0,1,4,1.68A10.05,10.05,0,0,0,80,48a14,14,0,0,1,1.16,1.15c1.32,1.56,2.5,2.68,4.5,1.94a.81.81,0,0,1,.68.09,2.16,2.16,0,0,0,2-.59q4.33-4.37,8.7-8.66a1.16,1.16,0,0,0,.36-.91c0-1,0-2,0-2.94V35a1.67,1.67,0,0,0-.47-1.26c-1.57-1.55-3.12-3.11-4.68-4.67s-3.29-3.29-5-4.93a1.42,1.42,0,0,0-1.15-.54,3.06,3.06,0,0,1-2.36-.78,3.25,3.25,0,0,1-1-2.45A3,3,0,0,1,86,17.22a3.34,3.34,0,0,1,2.42.85,3.25,3.25,0,0,1,.83,2.41,1.5,1.5,0,0,0,.5,1.21l2.89,2.89v-.09c0-1.26,0-2.51,0-3.77V17a1.1,1.1,0,0,0-.37-.89c-1.16-1.13-2.31-2.29-3.45-3.44A1.91,1.91,0,0,0,87.38,12c-2,0-4,0-6.32,0a1.63,1.63,0,0,0-1.49.54,2.94,2.94,0,0,1-2.1,1,3.25,3.25,0,0,1-2.76-5.31A3.33,3.33,0,0,1,77.18,7a2.51,2.51,0,0,1,2,.85,2.24,2.24,0,0,0,2.38.68c-.94-1-1.95-1.91-2.93-2.81l-.09-.09-.4-.37c-.21-.21-.42-.41-.64-.6a.64.64,0,0,0-.32-.13c-1.83,0-3.67,0-5.51,0a3.43,3.43,0,0,1,.88,2.82c0,.63,0,1.27,0,1.9a25.31,25.31,0,0,1-.07,3.25c-.21,1.91.63,3.1,2,4.29,3.4,3.06,3.49,3.28,3.41,7.91,0,.65.11.8.14.83a.8.8,0,0,0,.55,0,5.83,5.83,0,0,1,6.18,2.59.92.92,0,0,0,.22.22,7.63,7.63,0,0,1,3.38,8.15,1.15,1.15,0,0,0,.51,1.17,3.21,3.21,0,0,1,1,2.3,3,3,0,0,1-.81,2.2,3.34,3.34,0,0,1-2.39,1h0a3.21,3.21,0,0,1-2.3-.95A3.08,3.08,0,0,1,83.5,40a3.27,3.27,0,0,1,1.06-2.33A1.17,1.17,0,0,0,85,36.5a12.49,12.49,0,0,1,0-2,2.31,2.31,0,0,0-.91-2.25,25,25,0,0,1-2-1.9l-.84-.88a1.55,1.55,0,0,0-1-.57,5.34,5.34,0,0,0-2.24,0A5.31,5.31,0,0,0,77.94,31a4,4,0,0,1-1.42,3.4c-.65.57-1.27,1.21-1.88,1.82-.45.47-.91.94-1.39,1.39a1.9,1.9,0,0,0-.64,1.48,3.12,3.12,0,0,1-3.3,3.2h0a3.09,3.09,0,0,1-3-3.31,3,3,0,0,1,.8-2.17A3.11,3.11,0,0,1,69.34,36h0a1.4,1.4,0,0,0,1.09-.49c.36-.36.72-.73,1.07-1.1a23.92,23.92,0,0,1,2.63-2.49c.08-.05.18-.17.2-.56.21-2.85.28-5.84.23-9.15a1.14,1.14,0,0,0-.37-.89c-3.1-3-6.17-6.12-9.25-9.2l-1.18-1.17a2.23,2.23,0,0,0-1.49-.6,2,2,0,0,0-1.4.61,3.5,3.5,0,0,1-4.53.29A3.5,3.5,0,0,1,56,6.6a3.34,3.34,0,0,1,2.48-1.12,2.4,2.4,0,0,1,2,.78c.73.82,1.51.8,2.61.77h.24a2.29,2.29,0,0,1,2,.64c.49.55,1.05,1.07,1.59,1.58a20,20,0,0,1,2.25,2.34V10.5c0-.94,0-1.88,0-2.81a1.33,1.33,0,0,0-.49-1.16L68.16,6a16.51,16.51,0,0,1-2.58-2.7C63.7.66,61.16-.36,57.61.12a2.06,2.06,0,0,0-1.4.55c-1.53,1.56-3.09,3.11-4.65,4.64a1.25,1.25,0,0,0-.41,1V8.41c0,2.74.05,5.58-.06,8.37a3.65,3.65,0,0,0,1.5,2.85,1.48,1.48,0,0,0,.22.19s.07-.08.17-.22a6.68,6.68,0,0,1,6-2.88c2.08,0,4.22.34,5.79,2.52a5.31,5.31,0,0,0,.7.73c.22.2.43.4.63.62a2,2,0,0,0,1.74.83,2.89,2.89,0,0,1,2.14.83,2.83,2.83,0,0,1,.84,2.08c0,2-1.12,3.37-2.81,3.5A3.44,3.44,0,0,1,65.44,27a2.63,2.63,0,0,1-.83-2,3.28,3.28,0,0,0-1.37-2.52l-.41-.4a11.25,11.25,0,0,1-1-1.06,5.08,5.08,0,0,0-2.75-.77,3.8,3.8,0,0,0-2.21.25c-.27.26-.53.53-.78.8a10,10,0,0,1-1.53,1.45c-2.66,1.89-3.75,4.41-3.51,8.18a3.8,3.8,0,0,0,1.18,2.39,9.91,9.91,0,0,1,.76,1,1.25,1.25,0,0,0,.23-.2c.37-.39.75-.76,1.13-1.14s.79-.78,1.17-1.19a2.8,2.8,0,0,1,2.62-1A2.53,2.53,0,0,0,60.5,30a2.76,2.76,0,0,1,2.12-.82,3.31,3.31,0,0,1,2.22,5.6,3.08,3.08,0,0,1-4.4-.07,2.16,2.16,0,0,0-3.06.05c-1.11,1.07-2.2,2.17-3.29,3.26-.85.86-1.71,1.71-2.57,2.56a1.29,1.29,0,0,0-.37,1v1.21c0,1.56,0,3.17,0,4.76-.07,2.11,0,3.44,1.69,4.23a.8.8,0,0,1,.39.45c1.55,2,2.85,3.31,5.2,2.72a1.79,1.79,0,0,1,.6,0,1.54,1.54,0,0,0,1.55-.59,2.71,2.71,0,0,1,2-1,3.24,3.24,0,0,1,2.55,5.45,3.39,3.39,0,0,1-2.56,1,2.52,2.52,0,0,1-1.89-.86c-.57-.71-1.18-.73-2.09-.7H57.36c-.44,0-.87,0-1.31,0a2.22,2.22,0,0,1-2.33-1.14c-.15-.29-.29-.35-.39-.35h0a2,2,0,0,1-.85.73l-.06.07-.07.06a.14.14,0,0,0,0,.06l0,.06-.19.16a1.25,1.25,0,0,1-.27.23,2.62,2.62,0,0,0-.78,2.37c.08,1.9,0,3.8,0,5.25a1.33,1.33,0,0,0,.33,1.07,8.14,8.14,0,0,1,1.3,1.33c.23.28.46.56.71.81s.44.3.43.3.14,0,.42-.35a15.91,15.91,0,0,1,3.56-3.37l0-.09a2.19,2.19,0,0,1,.79-1l.16-.07a11.3,11.3,0,0,1,3-.18c.49,0,1,0,1.46,0,.18,0,.31-.11.55-.36L66,61.74,69.78,58c.82-.83.82-1.18,0-2A3.31,3.31,0,0,1,70,51.24a3.33,3.33,0,0,1,4.51.35,3.24,3.24,0,0,1,.76,2.48A3.08,3.08,0,0,1,74,56.2c-.29.2-.29.38-.24.86v.14a3.09,3.09,0,0,1-1.08,2.67c-1.5,1.45-3,2.92-4.45,4.39-.79.79-1.57,1.57-2.37,2.35l-.1.12-.93.68a1.29,1.29,0,0,1-.48,0l-1,0c-.79,0-1.59,0-2.39,0a1.31,1.31,0,0,0-1,.36Q55.85,72,51.65,76.13a1.54,1.54,0,0,0-.5,1.21c0,3.33,0,6.65,0,10a1.84,1.84,0,0,0,.39,1.12,10.56,10.56,0,0,0,1.84,1.95,14,14,0,0,1,1.71,1.73,1.73,1.73,0,0,0,1.4.47c.56,0,1.14,0,1.73,0s1.22,0,1.85,0a1.45,1.45,0,0,0,1.2-.46q2.91-3,5.87-5.9c.4-.4.52-.57.45-1.06A2.8,2.8,0,0,1,68.23,83a3.23,3.23,0,0,1,2.33-1.17A3.16,3.16,0,0,1,74,84.58a3,3,0,0,1-.55,2.23,3.09,3.09,0,0,1-2.16,1,3.66,3.66,0,0,0-2.55,1.55,8.54,8.54,0,0,1,1.14,0c2.5.25,5,.14,6.69-2.4h0l.51-.54,0,0a.88.88,0,0,1,.29-.16.6.6,0,0,1,.08-.08.17.17,0,0,1,.06-.06,1.07,1.07,0,0,1,.37-.46,1,1,0,0,1,.47-.39.38.38,0,0,1,.09-.09l.11-.09.08-.1a.54.54,0,0,1,.18-.14.7.7,0,0,1,.06-.09l0,0s0,0,0-.05l.09-.42L79,74.5a1.61,1.61,0,0,1,.81-1.66A3.67,3.67,0,0,0,81,71.75a5.76,5.76,0,0,1,1-1c.22-.17.32-.27.2-.74a2.67,2.67,0,0,1,.34-2.12,3.16,3.16,0,0,1,2-1.4,3.25,3.25,0,0,1,2.39.43,3.08,3.08,0,0,1,1.4,2,3.24,3.24,0,0,1-.46,2.64,2.32,2.32,0,0,1-1.76.92,4.6,4.6,0,0,0-2.91,1.64c-.28.27-.56.53-.86.78,0,0-.07,0-.06.32V77c0,1.12,0,2.25,0,3.37a.88.88,0,0,0,0,.3s.07,0,.23,0H83a19.44,19.44,0,0,1,3,0,2.92,2.92,0,0,0,2.83-1.28A15.16,15.16,0,0,1,90.26,78a1.32,1.32,0,0,0,.41-1.1l0-1.74c0-1.83-.08-3.73.06-5.59.22-3-.46-4.79-2.34-6.27l-.51-.41c-.95-.78-1.71-1.4-2.92-1.24a13.4,13.4,0,0,1-3,0,2.81,2.81,0,0,0-2.77,1.14,16.75,16.75,0,0,1-2.85,2.81c-2.42,1.86-3.31,3.93-2.8,6.52a1.81,1.81,0,0,1,0,.57v.12a2.54,2.54,0,0,1-.85,2.35c-2,2-4.06,4-6,6l-.16.16a2.2,2.2,0,0,1-1.81.75h-1c-.31,0-.63,0-1,0a1.42,1.42,0,0,0-1.35.52,2.87,2.87,0,0,1-2.13,1,3.35,3.35,0,0,1-2.45-1,3.13,3.13,0,0,1-.9-2.32,3.2,3.2,0,0,1,1-2.27,3.7,3.7,0,0,1,4.54.19,2.85,2.85,0,0,0,3.39,0c.48-.43.94-.91,1.38-1.38a15.4,15.4,0,0,1,2.53-2.29c1.59-1.21,1.54-2.85,1.48-4.75,0-.4,0-.81,0-1.2V68.4a.86.86,0,0,0,0-.16,2.52,2.52,0,0,1,.9-2.28c2.15-2.11,4.39-4.35,6.84-6.85a2.56,2.56,0,0,1,2-.83c1.53,0,3.06,0,4.59,0h2.56a1.28,1.28,0,0,1,1.21.52,8,8,0,0,0,1.51,1.51l.71.62a9.56,9.56,0,0,1,.92,1,5.49,5.49,0,0,0,1.62,1.47,2.06,2.06,0,0,1,1,2,4.73,4.73,0,0,1,0,.53,5,5,0,0,0,0,.67,3.94,3.94,0,0,1,.75-.72C97,64.28,97.87,62.18,97.75,58.83Zm-63.26,8-.47.14h0ZM3,65.85a3.94,3.94,0,0,1,.75.72,5,5,0,0,0,0-.67c0-.18,0-.36,0-.53a2.06,2.06,0,0,1,1-2,5.49,5.49,0,0,0,1.62-1.47,9.56,9.56,0,0,1,.92-1L8,60.32a8.36,8.36,0,0,0,1.52-1.51,1.27,1.27,0,0,1,1.2-.52h2.56c1.53,0,3.07,0,4.6,0a2.55,2.55,0,0,1,2,.83c2.45,2.5,4.69,4.74,6.84,6.85a2.52,2.52,0,0,1,.9,2.28v.28c0,.39,0,.8,0,1.2-.06,1.9-.11,3.54,1.48,4.75a15,15,0,0,1,2.53,2.29c.44.47.9.95,1.38,1.38a2.87,2.87,0,0,0,3.4,0,3.69,3.69,0,0,1,4.53-.19,3.16,3.16,0,0,1,1,2.27,3.13,3.13,0,0,1-.9,2.32,3.35,3.35,0,0,1-2.45,1,2.87,2.87,0,0,1-2.13-1A1.42,1.42,0,0,0,35.08,82c-.32,0-.63,0-.95,0h-1a2.22,2.22,0,0,1-1.82-.75l-.16-.16c-2-2-4-4-6-6a2.54,2.54,0,0,1-.86-2.35v-.12a1.81,1.81,0,0,1,0-.57c.51-2.59-.38-4.66-2.8-6.52a16.75,16.75,0,0,1-2.85-2.81,2.81,2.81,0,0,0-2.77-1.14,13.4,13.4,0,0,1-3,0c-1.21-.16-2,.46-2.92,1.24l-.51.41c-1.88,1.48-2.56,3.29-2.34,6.27.14,1.86.1,3.76.06,5.59l0,1.74A1.35,1.35,0,0,0,7.5,78a15.16,15.16,0,0,1,1.34,1.5,2.92,2.92,0,0,0,2.83,1.28,19.45,19.45,0,0,1,3.05,0h.52c.16,0,.21,0,.23,0a.88.88,0,0,0,0-.3c0-1.12,0-2.25,0-3.37V75.15c0-.27,0-.28-.06-.32-.3-.25-.58-.51-.86-.78a4.6,4.6,0,0,0-2.91-1.64,2.35,2.35,0,0,1-1.76-.92,3.27,3.27,0,0,1-.46-2.64,3.08,3.08,0,0,1,1.4-2,3.25,3.25,0,0,1,2.39-.43,3.13,3.13,0,0,1,2,1.4A2.72,2.72,0,0,1,15.59,70c-.13.47,0,.57.19.74a5.76,5.76,0,0,1,1,1A3.67,3.67,0,0,0,18,72.84a1.61,1.61,0,0,1,.81,1.66l-.06,9.79.09.42s0,0,0,.05l0,0a.7.7,0,0,1,.06.09.54.54,0,0,1,.18.14.39.39,0,0,1,.08.1l.12.09.08.09a1,1,0,0,1,.47.39,1,1,0,0,1,.37.46l.07.06.07.08a.88.88,0,0,1,.29.16l0,0,.52.54h0c1.64,2.54,4.19,2.65,6.69,2.4a8.64,8.64,0,0,1,1.14,0,3.66,3.66,0,0,0-2.55-1.55,3.09,3.09,0,0,1-2.16-1,3,3,0,0,1-.55-2.23,3.16,3.16,0,0,1,3.4-2.78A3.23,3.23,0,0,1,29.53,83a2.76,2.76,0,0,1,.63,2.19c-.07.49.05.66.45,1.06q3,2.93,5.88,5.9a1.43,1.43,0,0,0,1.2.46c.62,0,1.24,0,1.84,0s1.17,0,1.73,0a1.75,1.75,0,0,0,1.41-.47,13.26,13.26,0,0,1,1.7-1.73,10.56,10.56,0,0,0,1.84-1.95,1.84,1.84,0,0,0,.39-1.12c0-3.32,0-6.64,0-10a1.51,1.51,0,0,0-.5-1.21Q41.93,72,37.79,67.8a1.3,1.3,0,0,0-1-.36c-.8,0-1.59,0-2.39,0l-1,0a1.34,1.34,0,0,1-.49,0L32,66.73l-.1-.12-2.37-2.35c-1.47-1.47-3-2.94-4.45-4.39A3.09,3.09,0,0,1,24,57.2v-.14c0-.48,0-.66-.24-.86a3.08,3.08,0,0,1-1.32-2.13,3.25,3.25,0,0,1,5.28-2.83A3.32,3.32,0,0,1,28,56c-.81.86-.81,1.21,0,2l3.74,3.75,2.09,2.09c.25.25.37.36.55.36.49,0,1,0,1.46,0a11.3,11.3,0,0,1,3,.18l.16.07a2.19,2.19,0,0,1,.79,1l0,.09a15.7,15.7,0,0,1,3.56,3.37c.28.33.41.35.42.35s.12,0,.43-.3a9.14,9.14,0,0,0,.71-.81,8.14,8.14,0,0,1,1.3-1.33,1.33,1.33,0,0,0,.33-1.07c0-1.45-.07-3.35,0-5.25a2.62,2.62,0,0,0-.78-2.37,1.25,1.25,0,0,1-.27-.23l-.19-.16.06-.06,0-.06-.07-.06-.06-.07a2,2,0,0,1-.85-.73h0c-.1,0-.24.06-.39.35a2.22,2.22,0,0,1-2.33,1.14c-.44,0-.87,0-1.31,0H39.16a2.16,2.16,0,0,0-2.09.7,2.51,2.51,0,0,1-1.89.86,3.42,3.42,0,0,1-2.56-1,3.24,3.24,0,0,1,2.55-5.45,2.69,2.69,0,0,1,2,1,1.54,1.54,0,0,0,1.55.59,1.79,1.79,0,0,1,.6,0c2.36.59,3.65-.75,5.2-2.72a.84.84,0,0,1,.39-.45c1.69-.79,1.77-2.12,1.69-4.23,0-1.59,0-3.2,0-4.76V41.58a1.26,1.26,0,0,0-.37-1c-.86-.85-1.72-1.7-2.57-2.56-1.09-1.09-2.18-2.19-3.29-3.26a2.16,2.16,0,0,0-3.06-.05,3.08,3.08,0,0,1-4.4.07,3.34,3.34,0,0,1-.15-4.41,3.3,3.3,0,0,1,2.37-1.19,2.76,2.76,0,0,1,2.12.82,2.53,2.53,0,0,0,2.36.75,2.79,2.79,0,0,1,2.62,1c.38.41.78.8,1.18,1.19s.76.75,1.12,1.14a1.25,1.25,0,0,0,.23.2,9.91,9.91,0,0,1,.76-1,3.8,3.8,0,0,0,1.18-2.39c.24-3.77-.84-6.29-3.51-8.18a10.53,10.53,0,0,1-1.53-1.45c-.25-.27-.51-.54-.77-.8a3.87,3.87,0,0,0-2.22-.25,5.08,5.08,0,0,0-2.75.77,11.25,11.25,0,0,1-1,1.06l-.41.4A3.28,3.28,0,0,0,33.15,25a2.63,2.63,0,0,1-.83,2,3.42,3.42,0,0,1-2.61.87c-1.69-.13-2.77-1.47-2.81-3.5a2.83,2.83,0,0,1,.84-2.08,2.89,2.89,0,0,1,2.14-.83,2,2,0,0,0,1.74-.83c.2-.22.41-.42.63-.62a5.31,5.31,0,0,0,.7-.73c1.57-2.18,3.71-2.5,5.79-2.52a6.68,6.68,0,0,1,6,2.88c.1.14.16.2.17.22a1.48,1.48,0,0,0,.22-.19,3.65,3.65,0,0,0,1.5-2.85c-.11-2.79-.08-5.63-.06-8.37V6.3a1.21,1.21,0,0,0-.41-1C44.64,3.78,43.08,2.23,41.55.67a2.06,2.06,0,0,0-1.4-.55c-3.55-.48-6.08.54-8,3.2A16.51,16.51,0,0,1,29.6,6l-.55.51a1.34,1.34,0,0,0-.5,1.16c0,.93,0,1.87,0,2.81v1.08a20.83,20.83,0,0,1,2.25-2.34c.54-.51,1.1-1,1.6-1.58a2.27,2.27,0,0,1,2-.64h.24c1.1,0,1.88,0,2.62-.77a2.36,2.36,0,0,1,2-.78A3.34,3.34,0,0,1,41.72,6.6a3.5,3.5,0,0,1-.3,4.64A3.5,3.5,0,0,1,36.89,11a2,2,0,0,0-1.4-.61,2.23,2.23,0,0,0-1.49.6l-1.18,1.17q-4.61,4.62-9.25,9.2a1.1,1.1,0,0,0-.36.89c-.06,3.31,0,6.3.22,9.15,0,.39.12.51.2.56a23.06,23.06,0,0,1,2.63,2.49c.36.37.71.74,1.07,1.1a1.41,1.41,0,0,0,1.09.49h0a3.1,3.1,0,0,1,2.25.83,3,3,0,0,1,.8,2.17,3.09,3.09,0,0,1-3,3.31h0a3.12,3.12,0,0,1-3.3-3.2,1.9,1.9,0,0,0-.64-1.48c-.48-.45-.94-.92-1.39-1.39-.61-.61-1.23-1.25-1.88-1.82A4,4,0,0,1,19.82,31a5.13,5.13,0,0,0-.14-2.13,5.34,5.34,0,0,0-2.24,0,1.51,1.51,0,0,0-1,.57c-.29.29-.57.59-.85.88a23.24,23.24,0,0,1-1.94,1.9,2.32,2.32,0,0,0-.92,2.25,12.49,12.49,0,0,1,0,2,1.17,1.17,0,0,0,.46,1.13A3.23,3.23,0,0,1,14.26,40a3,3,0,0,1-.87,2.28,3.2,3.2,0,0,1-2.3.95h0a3.37,3.37,0,0,1-2.39-1A3,3,0,0,1,7.87,40a3.21,3.21,0,0,1,1-2.3,1.16,1.16,0,0,0,.52-1.17,7.61,7.61,0,0,1,3.37-8.15.92.92,0,0,0,.22-.22,5.84,5.84,0,0,1,6.18-2.59.8.8,0,0,0,.55,0s.15-.18.14-.83c-.08-4.63,0-4.85,3.41-7.91,1.33-1.19,2.18-2.38,2-4.29a23.6,23.6,0,0,1-.06-3.25c0-.63,0-1.27,0-1.9a3.43,3.43,0,0,1,.88-2.82c-1.84,0-3.67,0-5.51,0a.67.67,0,0,0-.32.13c-.22.19-.43.39-.64.6l-.39.37-.1.09c-1,.9-2,1.83-2.93,2.81a2.24,2.24,0,0,0,2.38-.68,2.53,2.53,0,0,1,2-.85,3.28,3.28,0,0,1,2.12,5.72,3.34,3.34,0,0,1-2.41.81,3,3,0,0,1-2.1-1A1.62,1.62,0,0,0,16.71,12c-2.34,0-4.29,0-6.32,0A1.91,1.91,0,0,0,9,12.62c-1.14,1.15-2.29,2.31-3.45,3.44a1.14,1.14,0,0,0-.37.89v3.77c0,1.26,0,2.51,0,3.77v.09L8,21.69a1.52,1.52,0,0,0,.49-1.21,3.25,3.25,0,0,1,.83-2.41,3.34,3.34,0,0,1,2.42-.85,3,3,0,0,1,3.16,3.1A3.28,3.28,0,0,1,14,22.77a3.1,3.1,0,0,1-2.37.78,1.42,1.42,0,0,0-1.15.54C8.82,25.73,7.18,27.38,5.53,29S2.42,32.14.85,33.69A1.67,1.67,0,0,0,.38,35v3.13c0,1,0,2,0,2.94a1.19,1.19,0,0,0,.36.91c2.91,2.87,5.82,5.75,8.7,8.66a2.16,2.16,0,0,0,2,.59.82.82,0,0,1,.68-.09c2,.74,3.18-.38,4.5-1.94A14,14,0,0,1,17.77,48,10.05,10.05,0,0,0,19,46.76,4.51,4.51,0,0,1,23,45.08c2.54.06,5.13.06,7.63.05h2.71c.08,0,.18,0,.22,0a2.46,2.46,0,0,0,2.08-2.06c0-2.1,1.24-3.41,3.13-3.42a2.93,2.93,0,0,1,2.27.85,3.25,3.25,0,0,1,.89,2.4,3.08,3.08,0,0,1-.89,2.28,3.36,3.36,0,0,1-2.51.86c-.6-.07-1,.32-1.47.86a4.31,4.31,0,0,1-1.1.92l-.18.1a2.62,2.62,0,0,1-1.32.43H31.74c-2.81,0-5.63,0-8.44,0a2.37,2.37,0,0,0-1.95.8c-.82.86-1.66,1.7-2.5,2.54-.63.62-1.25,1.24-1.86,1.87a2.32,2.32,0,0,1-1.91.78h-.4c-1.45,0-2.95-.08-4.41,0a3.63,3.63,0,0,1-3.41-1.51,3.08,3.08,0,0,0-.3-.33l-.14-.13c-.93-.93-1.54-1.55-1.88-1.55s-.94.61-1.86,1.54a.77.77,0,0,1-.22.24C.34,54.13.1,56.23,0,58.83-.11,62.18.79,64.28,3,65.85Z" transform="translate(0 -0.01)"/></svg>