<svg id="Capa_1" data-name="Capa 1" xmlns="http://www.w3.org/2000/svg" xmlns:xlink="http://www.w3.org/1999/xlink" viewBox="0 0 92.74 92.74"><defs><style>.cls-1{fill:url(#Degradado_sin_nombre_16);}</style><linearGradient id="Degradado_sin_nombre_16" y1="46.37" x2="92.74" y2="46.37" gradientUnits="userSpaceOnUse"><stop offset="0" stop-color="#903f90"/><stop offset="1" stop-color="#5dbb9c"/></linearGradient></defs><path class="cls-1" d="M70.77,83.94a4.56,4.56,0,0,1-2.09,2.84c-5.55,3.26-11.66,4.91-18,6l-8.75,0c-20-3.28-33.73-14-40-33.51A83.92,83.92,0,0,1,0,49.81v-7.3a5.23,5.23,0,0,0,.33-1C2.7,21.76,15.61,6.73,34.8,1.52,37.32.83,39.93.5,42.5,0h7.73a12.22,12.22,0,0,0,1.41.37,45.35,45.35,0,0,1,17,5.4c2.1,1.13,2.72,2.55,1.9,4.11s-2.43,1.89-4.45.78A40.09,40.09,0,0,0,50.49,5.78,37.19,37.19,0,0,0,35.7,7.06c4.44,5.84,6.29,12.47,7.74,19.3,1.16,5.46,4.71,9.71,7.85,14.14,2.11,3,1.88,4.25-1.49,5.73a4.88,4.88,0,0,0-3.24,4.36c-.07,1.17.56,2.37.94,3.8l-5.29,2.94a17.86,17.86,0,0,0,4.32.31c1.14,0,1.6.28,1.64,1.59A31,31,0,0,0,49,65.75c1,3.88.15,5.85-3.78,6.94a31.8,31.8,0,0,1-6.56.78c-5.28.31-8.44,2.74-10.12,7.75-.41,1.24-.11,1.76,1,2.26,7.61,3.3,15.53,4.69,23.65,2.88,4.55-1,8.9-3,13.27-4.63C68.77,80.85,71.06,81.78,70.77,83.94Zm22-41.43a4.64,4.64,0,0,1-.34-1,45.1,45.1,0,0,0-9.3-23.37A40.39,40.39,0,0,0,79,13.51a2.51,2.51,0,0,0-3.68.07A2.61,2.61,0,0,0,75,17.27c.33.46.78.83,1.16,1.26,9.2,10.25,12.67,22.16,10.16,35.72A39.76,39.76,0,0,1,75.68,74.66c-1.79,1.89-1.6,4,.39,4.94,1.53.71,2.6-.07,3.59-1.1A44.25,44.25,0,0,0,90.49,60.24c1-3.4,1.51-7,2.25-10.43ZM71.82,22.16c-1.59-1.7-3.17-1.89-4.48-.65s-1.09,2.76.48,4.48c10.86,11.86,10.88,28.8.06,40.6-1.67,1.82-1.82,3.41-.43,4.63s2.91.82,4.47-.86a34.95,34.95,0,0,0-.1-48.2ZM64,30.22c-1.57-1.68-3.16-2-4.47-.89s-1.28,2.75.38,4.64a18.22,18.22,0,0,1,0,24.75c-1.6,1.81-1.76,3.26-.49,4.48s3,1,4.61-.8a23.85,23.85,0,0,0,6.24-16.2A24.14,24.14,0,0,0,64,30.22Z" transform="translate(0 0)"/></svg>