<svg id="Capa_1" data-name="Capa 1" xmlns="http://www.w3.org/2000/svg" xmlns:xlink="http://www.w3.org/1999/xlink" viewBox="0 0 182.85 71"><defs><style>.cls-1{fill:url(#Degradado_sin_nombre_5);}.cls-2{fill:url(#Degradado_sin_nombre_5-2);}</style><linearGradient id="Degradado_sin_nombre_5" y1="35.51" x2="23.86" y2="35.51" gradientUnits="userSpaceOnUse"><stop offset="0" stop-color="#0d71b9"/><stop offset="1" stop-color="#5dbb9c"/></linearGradient><linearGradient id="Degradado_sin_nombre_5-2" x1="10.4" y1="35.5" x2="182.85" y2="35.5" xlink:href="#Degradado_sin_nombre_5"/></defs><path class="cls-1" d="M23.85,48.58c0-1.95,0-3.91,0-5.86V28.31c0-2,0-4,0-5.95,0-1.08-.42-1.46-1.57-1.46H9c-2.52,0-5,0-7.55,0-1,0-1.46.41-1.48,1.37,0,.78,0,1.57,0,2.35Q0,36.55,0,48.48c0,1.25.42,1.65,1.74,1.65H22.18C23.4,50.13,23.84,49.71,23.85,48.58Z"/><path class="cls-2" d="M182.83,5.51c0-3.46-2.05-5.51-5.5-5.51H15.8c-3.36,0-5.39,2-5.39,5.39,0,4.45,0,8.91,0,13.37H24.72c1.24,0,1.68.44,1.69,1.68,0,2.27,0,4.54,0,6.82.83,0,1.67,0,2.5,0a1.6,1.6,0,0,1,1.72,1.67q0,6.57,0,13.16a1.61,1.61,0,0,1-1.72,1.68c-.83,0-1.66,0-2.5,0q0,3.36,0,6.72c0,1.3-.49,1.78-1.81,1.77H10.4c0,4.45,0,8.91,0,13.36a5.22,5.22,0,0,0,.47,2.53A5.09,5.09,0,0,0,15.81,71q80.81,0,161.62,0h.48a4.9,4.9,0,0,0,4.89-4.72C182.89,63.07,182.82,8.45,182.83,5.51ZM15.63,8.4a3.17,3.17,0,1,1,3.14-3.18A3.14,3.14,0,0,1,15.63,8.4Zm10.78,0a3.16,3.16,0,0,1-3.22-3.13,3.22,3.22,0,0,1,6.44,0A3.19,3.19,0,0,1,26.41,8.4ZM15.59,69a3.22,3.22,0,0,1-3.19-3.27,3.19,3.19,0,0,1,6.37.09A3.21,3.21,0,0,1,15.59,69Zm10.79,0a3.28,3.28,0,0,1-3.19-3.18,3.22,3.22,0,0,1,6.44,0A3.28,3.28,0,0,1,26.38,69ZM156.72,2.06a3.23,3.23,0,0,1,3.21,3.16,3.22,3.22,0,0,1-6.43.08A3.21,3.21,0,0,1,156.72,2.06Zm-10.05,0a3.25,3.25,0,0,1,3.24,3.24,3.22,3.22,0,0,1-6.44-.06A3.24,3.24,0,0,1,146.67,2.06Zm-30,0a3.14,3.14,0,0,1,3.12,3.21,3.18,3.18,0,0,1-6.36,0A3.15,3.15,0,0,1,116.67,2.06Zm-60.19,0a3.21,3.21,0,0,1,3.21,3.16,3.21,3.21,0,0,1-6.42,0A3.21,3.21,0,0,1,56.48,2.06Zm-20.06,0a3.21,3.21,0,0,1,3.22,3.15,3.21,3.21,0,0,1-6.42,0A3.21,3.21,0,0,1,36.42,2.06Zm0,66.92a3.27,3.27,0,0,1-3.22-3.17,3.21,3.21,0,0,1,6.42,0A3.27,3.27,0,0,1,36.44,69Zm10,0a3.24,3.24,0,0,1-3.16-3.22,3.13,3.13,0,0,1,3.19-3.15,3.16,3.16,0,0,1,3.21,3.13A3.26,3.26,0,0,1,46.42,69Zm0-60.58a3.15,3.15,0,0,1-3.18-3.16,3.21,3.21,0,0,1,6.41,0A3.15,3.15,0,0,1,46.43,8.4ZM56.47,69a3.28,3.28,0,0,1-3.21-3.19,3.22,3.22,0,0,1,6.43,0A3.27,3.27,0,0,1,56.47,69Zm10,0a3.17,3.17,0,0,1-3.17-3.18,3.12,3.12,0,0,1,3.13-3.19,3.18,3.18,0,0,1,3.25,3.2A3.25,3.25,0,0,1,66.5,69Zm0-60.58a3.1,3.1,0,0,1-3.12-3.19,3.12,3.12,0,0,1,3.18-3.15,3.21,3.21,0,0,1,3.2,3.16A3.16,3.16,0,0,1,66.45,8.4ZM76.54,69a3.17,3.17,0,0,1-3.18-3.26,3.1,3.1,0,0,1,3.2-3.11,3.15,3.15,0,0,1,3.16,3.18A3.24,3.24,0,0,1,76.54,69ZM76.46,8.4a3.08,3.08,0,0,1-3.1-3.2,3.1,3.1,0,0,1,3.18-3.14,3.2,3.2,0,0,1,3.18,3.17A3.15,3.15,0,0,1,76.46,8.4ZM86.6,69a3.17,3.17,0,0,1-3.22-3.23,3.18,3.18,0,0,1,6.35,0A3.19,3.19,0,0,1,86.6,69Zm0-60.58a3.08,3.08,0,0,1-3.17-3.14,3.18,3.18,0,1,1,6.35,0A3.1,3.1,0,0,1,86.55,8.4ZM96.6,69a3.2,3.2,0,0,1-3.22-3.24,3.19,3.19,0,0,1,6.37,0A3.19,3.19,0,0,1,96.6,69Zm0-60.58a3.13,3.13,0,0,1-3.18-3.25,3.19,3.19,0,0,1,6.37.12A3.1,3.1,0,0,1,96.56,8.4Zm10.09-6.34a3.15,3.15,0,0,1,3.13,3.21,3.19,3.19,0,1,1-3.13-3.21ZM106.6,69a3.21,3.21,0,0,1-3.2-3.27,3.19,3.19,0,0,1,6.38.09A3.19,3.19,0,0,1,106.6,69Zm10.07,0a3.2,3.2,0,0,1-3.24-3.22,3.18,3.18,0,0,1,6.36,0A3.18,3.18,0,0,1,116.67,69Zm10-66.92a3.08,3.08,0,0,1,3.16,3.15,3.06,3.06,0,0,1-3.1,3.19,3.15,3.15,0,0,1-3.25-3.18A3.19,3.19,0,0,1,126.63,2.06ZM126.7,69a3.24,3.24,0,0,1-3.26-3.21,3.15,3.15,0,0,1,3.18-3.16,3.08,3.08,0,0,1,3.17,3.13A3.15,3.15,0,0,1,126.7,69Zm10-66.92a3.1,3.1,0,0,1,3.14,3.17,3.07,3.07,0,0,1-3.13,3.17,3.16,3.16,0,0,1-3.24-3.21A3.23,3.23,0,0,1,136.68,2.06Zm0,66.92a3.28,3.28,0,0,1-3.26-3.22,3.18,3.18,0,0,1,3.2-3.15,3.08,3.08,0,0,1,3.17,3.14A3.15,3.15,0,0,1,136.71,69Zm10,0a3.28,3.28,0,0,1-3.24-3.23,3.22,3.22,0,0,1,6.44,0A3.29,3.29,0,0,1,146.71,69Zm10,0a3.26,3.26,0,0,1-3.22-3.27,3.21,3.21,0,0,1,6.42.08A3.27,3.27,0,0,1,156.72,69Zm-21-19.41A1.76,1.76,0,0,1,134,47.81V21.12a1.76,1.76,0,0,1,1.76-1.76H162.4a1.76,1.76,0,0,1,1.76,1.76V47.81a1.76,1.76,0,0,1-1.76,1.76ZM166.7,69a3.25,3.25,0,0,1-3.17-3.22,3.2,3.2,0,0,1,6.4,0A3.25,3.25,0,0,1,166.7,69Zm0-60.58a3.13,3.13,0,0,1-3.21-3.12,3.21,3.21,0,1,1,6.41,0A3.15,3.15,0,0,1,166.74,8.4Zm10.87-6.33a3.11,3.11,0,0,1,3.18,3.23,3.1,3.1,0,0,1-3.2,3.11,3.14,3.14,0,0,1-3.15-3.18A3.14,3.14,0,0,1,177.61,2.07Zm0,66.91a3.22,3.22,0,0,1-3.2-3.26,3.14,3.14,0,0,1,3.22-3.11,3.1,3.1,0,0,1,3.14,3.18A3.19,3.19,0,0,1,177.64,69Z"/></svg>