<svg id="Capa_1" data-name="Capa 1" xmlns="http://www.w3.org/2000/svg" xmlns:xlink="http://www.w3.org/1999/xlink" viewBox="0 0 116.64 89.63"><defs><style>.cls-1{fill:url(#Degradado_sin_nombre_16);}</style><linearGradient id="Degradado_sin_nombre_16" x1="116.64" y1="44.82" x2="0" y2="44.82" gradientUnits="userSpaceOnUse"><stop offset="0" stop-color="#903f90"/><stop offset="1" stop-color="#5dbb9c"/></linearGradient></defs><path class="cls-1" d="M20.84,18.77c0-4.61-.11-8.86,0-13.11A5.87,5.87,0,0,1,26.45.06C27.21,0,28,0,28.73,0H87.8c6,0,8,2.06,8,8.11,0,11.78,0,23.56,0,35.54-4.58.82-6.49,5.78-6.22,10.34H47.83V49.6c0-6.85,0-13.69,0-20.53,0-6.53-3.8-10.27-10.37-10.29C32,18.76,26.55,18.77,20.84,18.77ZM43.55,31.53H0V81.07H43.55ZM93.9,54.4V83.13h22.74V54.4ZM38.64,23q-16.86-.15-33.71,0C1.66,23-.28,25.63.11,29.1h43.4C43.84,25.58,41.91,23,38.64,23ZM89.4,56.38H48v6.13H89.4ZM0,83.58c-.09,3.82,1.82,6,5.39,6q16.41.07,32.82,0c3.57,0,5.48-2.2,5.37-6Zm68.57-6.76v-12H47.93v12ZM81,83.28c.45-3.37-.09-4.08-3.16-4.09q-14,0-28,0c-.59,0-1.18.1-1.87.16v3.93Zm16.17,6.33q8.09,0,16.16,0c3,0,3.62-.83,3.16-4H94.05C93.52,88.82,94.1,89.6,97.15,89.61ZM113.26,48q-8,0-15.94,0c-3.19,0-3.83.82-3.24,4h22.44C116.85,48.75,116.23,48,113.26,48Z"/></svg>