<svg id="Capa_1" data-name="Capa 1" xmlns="http://www.w3.org/2000/svg" xmlns:xlink="http://www.w3.org/1999/xlink" viewBox="0 0 32.94 89.63"><defs><style>.cls-1{fill:url(#Degradado_sin_nombre_10);}</style><linearGradient id="Degradado_sin_nombre_10" x1="2114.9" y1="44.81" x2="2081.96" y2="44.81" gradientTransform="matrix(-1, 0, 0, 1, 2114.9, 0)" gradientUnits="userSpaceOnUse"><stop offset="0" stop-color="#f9b03d"/><stop offset="1" stop-color="#e7267a"/></linearGradient></defs><path class="cls-1" d="M2.39,81.65a16.43,16.43,0,0,0,30.18-5.14,16.6,16.6,0,0,0-3.26-13.88,5,5,0,0,1-1-2.78c0-1.87,0-3.74,0-5.6H23.53V50.46h4.74c0-1.88,0-3.76,0-5.65H23.53V41h4.72c0-1.88,0-3.76,0-5.65H23.53V31.6h4.71V26H23.53V22.17h4.71c0-3.39,0-6.78,0-10.17A11.67,11.67,0,0,0,15.22.05C9.19.56,4.74,5.65,4.7,12.23c0,7.89,0,15.78,0,23.68h0c0,7.83,0,15.67,0,23.5A5.41,5.41,0,0,1,3.5,63,16.35,16.35,0,0,0,2.39,81.65ZM12.83,67.11a2.43,2.43,0,0,0,1.35-2.49c-.06-5.52,0-11,0-16.54,0-2.37,0-4.74,0-7.12,0-3.36,0-6.72,0-10.08a2.34,2.34,0,0,1,2.23-2.57c1.38,0,2.3,1,2.39,2.59,0,.33,0,.66,0,1,0,11,0,21.94,0,32.91A2.16,2.16,0,0,0,20,67,6.86,6.86,0,0,1,23.26,75,7,7,0,0,1,9.69,75,7,7,0,0,1,12.83,67.11Z" transform="translate(0 0)"/></svg>