<svg id="Capa_1" data-name="Capa 1" xmlns="http://www.w3.org/2000/svg" viewBox="0 0 289.71 115.29"><defs><style>.cls-1{fill:#1cba19;}.cls-2{fill:#fcd709;}</style></defs><path class="cls-1" d="M85.12,67.13c0-4.19,0-8.39,0-12.58a1,1,0,0,0-.66-1.07A6.89,6.89,0,0,1,81,44.65a.62.62,0,0,0-.14-.81C77.56,40.57,74.27,37.29,71,34a.88.88,0,0,0-1.08-.19,6.9,6.9,0,0,1-8.68-3.52A6.42,6.42,0,0,1,61,25.1a1.1,1.1,0,0,0-.31-1.41Q56,19,51.29,14.31A1.09,1.09,0,0,0,49.93,14a6,6,0,0,1-4.61,0,1,1,0,0,0-1.31.29c-.83.92-1.72,1.78-2.62,2.63-.42.39-.39.66,0,1,.88.84,1.75,1.68,2.57,2.57a1.07,1.07,0,0,0,1.36.34,6.91,6.91,0,1,1-4.51,7.8A6.1,6.1,0,0,1,41.13,25a1,1,0,0,0-.26-1.25c-.88-.83-1.74-1.68-2.56-2.57-.45-.48-.75-.45-1.21,0q-9.18,9.21-18.39,18.4C17.35,41,16,42.32,14.62,43.66a.93.93,0,0,0-.27,1.17,6.82,6.82,0,0,1-5,9.16,6.83,6.83,0,0,1-8.27-5.62,6.92,6.92,0,0,1,5.09-7.88,6.42,6.42,0,0,1,4.17.25.85.85,0,0,0,1.14-.27L26.63,25.3q7-7,14.07-14a1.28,1.28,0,0,0,.39-1.56,6.93,6.93,0,1,1,13.27-4A6.55,6.55,0,0,1,54.07,10a.66.66,0,0,0,.2.87c3.25,3.24,6.5,6.47,9.73,9.74a.93.93,0,0,0,1.18.19A6.93,6.93,0,0,1,74.07,25a6.4,6.4,0,0,1,0,4.54,1.16,1.16,0,0,0,.3,1.45c3.16,3.1,6.28,6.25,9.42,9.38.24.24.44.65.9.48s.43-.66.43-1.08c0-5.38,0-10.76,0-16.14a1.71,1.71,0,0,0-.55-1.31c-2.69-2.71-5.35-5.44-8-8.18A2.3,2.3,0,0,1,76.32,11c1.06-1.5,2.18-3,3.19-4.5a2.86,2.86,0,0,1,2.58-1.35H92.7a3,3,0,0,1,2.7,1.44c.91,1.41,1.93,2.76,2.92,4.12s1,2.39-.28,3.68c-2.62,2.67-5.23,5.35-7.85,8a1.71,1.71,0,0,0-.53,1.33c0,5.33,0,10.66,0,16A1.18,1.18,0,0,0,90.43,41a6.93,6.93,0,0,1-.14,12.52,1,1,0,0,0-.63,1q0,12.54,0,25.09a1,1,0,0,0,.65,1.08,6.4,6.4,0,0,1,3.91,4.91,6.93,6.93,0,0,1-13.13,4.18,6.89,6.89,0,0,1,3.2-9,1.23,1.23,0,0,0,.85-1.32C85.1,75.36,85.12,71.25,85.12,67.13Zm2.3-57.4a13.43,13.43,0,0,1-2.29,0,3.23,3.23,0,0,0-3.77,2c-.22.43-.24.65.11,1,1.81,1.83,3.61,3.67,5.39,5.54.44.48.71.43,1.13,0,1.61-1.69,3.26-3.36,4.9-5,.92-.94.93-.93.18-2a8.83,8.83,0,0,1-.67-1,1,1,0,0,0-1-.52C90.05,9.74,88.73,9.73,87.42,9.73Zm0,79.65A2.49,2.49,0,0,0,89.86,87a2.52,2.52,0,0,0-2.38-2.46A2.4,2.4,0,0,0,85,87,2.43,2.43,0,0,0,87.39,89.38Zm.08-44.54A2.34,2.34,0,0,0,85,47.23a2.46,2.46,0,0,0,2.41,2.41,2.53,2.53,0,0,0,2.45-2.39A2.44,2.44,0,0,0,87.47,44.84Zm-79.56,0A2.27,2.27,0,0,0,5.5,47.25a2.34,2.34,0,0,0,2.38,2.39,2.43,2.43,0,0,0,2.4-2.4A2.36,2.36,0,0,0,7.91,44.84ZM50,27.37A2.25,2.25,0,0,0,47.66,25a2.44,2.44,0,0,0-2.47,2.35,2.5,2.5,0,0,0,2.5,2.42A2.32,2.32,0,0,0,50,27.37ZM50,7.56A2.42,2.42,0,0,0,47.67,5a2.64,2.64,0,0,0-2.48,2.41,2.45,2.45,0,0,0,2.46,2.44A2.27,2.27,0,0,0,50,7.56ZM65.12,27.34A2.41,2.41,0,1,0,67.54,25,2.32,2.32,0,0,0,65.12,27.34Z"/><path class="cls-1" d="M5.63,91.3c0-5.59,0-11.19,0-16.78a1.11,1.11,0,0,0-.72-1.19,6.6,6.6,0,0,1-4-6.44,6.81,6.81,0,0,1,6.7-6.69,6.09,6.09,0,0,1,2.77.46.91.91,0,0,0,1.13-.24q4.76-4.8,9.56-9.56a.85.85,0,0,0,.22-1.1,7,7,0,0,1,4.84-9.3c4-.81,7.61,1.33,8.38,5.36A6.72,6.72,0,0,1,29.17,54a5.92,5.92,0,0,1-3.88-.31.68.68,0,0,0-.89.19q-4.87,4.91-9.78,9.77a1,1,0,0,0-.24,1.13,6.79,6.79,0,0,1-3.65,8.6,1,1,0,0,0-.69,1q0,14.64,0,29.28c0,.7.18.88.87.87,3.2,0,6.39,0,9.58,0a.87.87,0,0,0,1-.5A6.54,6.54,0,0,1,27.8,100,6.56,6.56,0,0,1,34.07,104a.85.85,0,0,0,.92.52q22.6,0,45.2,0c.57,0,.76-.26,1-.7a6.94,6.94,0,0,1,12.74.56,6.86,6.86,0,0,1-5.19,9.22,6.67,6.67,0,0,1-7.56-3.84,1.08,1.08,0,0,0-1.12-.73q-22.44,0-44.88,0a1.08,1.08,0,0,0-1.14.7,6.65,6.65,0,0,1-6.78,3.93,6.57,6.57,0,0,1-5.77-4,1,1,0,0,0-1-.63c-4.65,0-9.29,0-13.94,0-.67,0-.9-.15-.89-.87C5.64,102.59,5.63,96.94,5.63,91.3ZM87.4,104.44A2.38,2.38,0,0,0,85,106.85a2.5,2.5,0,0,0,2.4,2.44,2.54,2.54,0,0,0,2.45-2.49A2.47,2.47,0,0,0,87.4,104.44Zm-57.22,2.42a2.45,2.45,0,0,0-2.38-2.43,2.37,2.37,0,0,0-2.42,2.28,2.44,2.44,0,0,0,2.38,2.58A2.53,2.53,0,0,0,30.18,106.86ZM7.78,69.47a2.38,2.38,0,0,0,2.5-2.3A2.53,2.53,0,0,0,8,64.64,2.45,2.45,0,0,0,5.5,67,2.27,2.27,0,0,0,7.78,69.47Zm17.61-22.3a2.37,2.37,0,0,0,2.38,2.47,2.53,2.53,0,0,0,2.42-2.4,2.6,2.6,0,0,0-2.4-2.43A2.36,2.36,0,0,0,25.39,47.17Z"/><path class="cls-1" d="M129.51,95.47v11.47c0,1.5-.21,1.71-1.67,1.71h-1.51c-1,0-1.33-.37-1.33-1.34,0-3.09,0-6.18,0-9.26,0-.75-.16-1-.94-1-1.5.06-3,0-4.51,0-.62,0-.81.16-.81.8,0,3,0,6.06,0,9.09,0,1.38-.3,1.68-1.66,1.68h-1.66a1.07,1.07,0,0,1-1.21-1.16,5,5,0,0,1,0-.55v-23c0-1.41.35-1.76,1.78-1.78a12.47,12.47,0,0,1,1.5,0c1,.13,1.25.47,1.25,1.48,0,2.64,0,5.28,0,7.91,0,.76.2,1,1,1,1.51-.06,3,0,4.51,0,.59,0,.78-.17.78-.77,0-2.69,0-5.38,0-8.07,0-1.09.34-1.49,1.42-1.55a7.27,7.27,0,0,1,2.28.1.87.87,0,0,1,.76.87c0,.56,0,1.11,0,1.66Z"/><path class="cls-1" d="M133.58,18.52V6.89c0-1.34.28-1.63,1.61-1.66a15.63,15.63,0,0,1,1.81,0c1,.08,1.2.32,1.22,1.28,0,1.31,0,2.63,0,4,0,.9,0,1.79,0,2.69,0,.57.17.66.63.32,3.44-2.5,8.64-.47,10,3.57a7.44,7.44,0,0,1,.39,2.33q0,5.41,0,10.83c0,1.11-.36,1.46-1.47,1.46-.68,0-1.37,0-2.05,0-.89,0-1.19-.31-1.19-1.2,0-3.67,0-7.33,0-11a3,3,0,0,0-3-3.06,3.08,3.08,0,0,0-3.25,3c0,3.46,0,6.91,0,10.37,0,.31,0,.63,0,.94a.85.85,0,0,1-1,.91c-.71,0-1.43,0-2.14,0-1.22,0-1.49-.27-1.49-1.47,0-2.59,0-5.17,0-7.76Z"/><path class="cls-1" d="M119.49,57.13c0-2.68,0-5.37,0-8.06,0-.59-.17-.79-.76-.76-1.06,0-2.11,0-3.17,0s-1.33-.39-1.35-1.34c0-.55,0-1.11,0-1.66,0-1.07.36-1.42,1.43-1.43H128c1.15,0,1.41.26,1.41,1.38,0,.65,0,1.31,0,2a.94.94,0,0,1-1.06,1.08c-1.16,0-2.32,0-3.48,0-.57,0-.8.14-.8.74q0,8.14,0,16.29c0,.55.21.67.7.65,1.16,0,2.32,0,3.48,0,.88,0,1.14.26,1.15,1.12q0,1.06,0,2.13c0,.85-.28,1.12-1.14,1.14-1.08,0-2.17,0-3.25,0h-9.25c-1.23,0-1.53-.3-1.54-1.54,0-.56,0-1.11,0-1.66,0-.86.38-1.18,1.24-1.19,1.11,0,2.22,0,3.33,0,.56,0,.71-.17.7-.72C119.48,62.56,119.49,59.85,119.49,57.13Z"/><path class="cls-1" d="M180.38,62.34c-1.37,0-2.75,0-4.12,0-.42,0-.65.11-.6.58a7.07,7.07,0,0,0,.12,2,2.7,2.7,0,0,0,2.39,1.9c1.28.1,2.49,0,3.11-1.44a1.12,1.12,0,0,1,1.1-.64c.82,0,1.64,0,2.46,0a1,1,0,0,1,1,1.34,5.37,5.37,0,0,1-3.26,3.82,8.84,8.84,0,0,1-7.94,0,6.06,6.06,0,0,1-3.75-5.5c-.06-2.27-.08-4.54,0-6.8a6.21,6.21,0,0,1,4.39-5.88,8.56,8.56,0,0,1,8.08.78,6,6,0,0,1,2.87,5.4c0,1,0,2,0,2.92s-.37,1.44-1.34,1.48c-1.5,0-3,0-4.51,0Zm-1.85-3.68c.81,0,1.62,0,2.44,0,.4,0,.53-.14.56-.55a2.9,2.9,0,0,0-3-3.15,2.94,2.94,0,0,0-2.92,3.2c0,.37.14.51.51.5C177,58.64,177.74,58.65,178.53,58.66Z"/><path class="cls-1" d="M199.57,100.57c-1.42,0-2.85,0-4.27,0-.49,0-.63.16-.64.63,0,1.35,0,2.64,1.31,3.48a3.09,3.09,0,0,0,4.29-1.07,1.18,1.18,0,0,1,1.1-.63c.82,0,1.64,0,2.46,0s1,.38,1,1.05a3.63,3.63,0,0,1-1.09,2.47,7,7,0,0,1-4.34,2.37,9.25,9.25,0,0,1-6-.79,6.21,6.21,0,0,1-3.54-5.41,59.47,59.47,0,0,1,0-7.19,6.17,6.17,0,0,1,4.44-5.5,8.39,8.39,0,0,1,8.81,1.43,5.57,5.57,0,0,1,2,4.37c0,1.13,0,2.26,0,3.4a1.24,1.24,0,0,1-1.41,1.4C202.37,100.58,201,100.57,199.57,100.57Zm-2-3.63h2.37c.28,0,.55,0,.54-.41a4.1,4.1,0,0,0-.15-1.47A3,3,0,0,0,197,93.32a2.87,2.87,0,0,0-2.29,3c0,.45.14.61.59.6C196,96.92,196.78,96.94,197.54,96.94Z"/><path class="cls-1" d="M162.1,23.66c-1.4,0-2.79,0-4.19,0-.52,0-.68.19-.68.7,0,1.17,0,2.3,1,3.16a3.12,3.12,0,0,0,4.56-.79,1.17,1.17,0,0,1,1.08-.66q1.31,0,2.61,0c.7,0,1,.45.94,1.1a3.62,3.62,0,0,1-.91,2.14,7.1,7.1,0,0,1-5,2.67,8.76,8.76,0,0,1-6.39-1.39,6.16,6.16,0,0,1-2.68-5.26c0-1.9.1-3.8,0-5.7a6.65,6.65,0,0,1,5-6.8c3-.82,5.91-.51,8.36,1.67a5.61,5.61,0,0,1,2,4.46c0,1.08,0,2.16,0,3.24a1.28,1.28,0,0,1-1.45,1.46C164.9,23.67,163.5,23.66,162.1,23.66Zm-2-3.63h2.37c.25,0,.44,0,.51-.33a2.8,2.8,0,0,0-1.22-2.88,3,3,0,0,0-3.26,0,2.78,2.78,0,0,0-1.31,2.83c.06.35.25.41.55.41Z"/><path class="cls-1" d="M242.93,60.91a33.67,33.67,0,0,1,0,4,6.06,6.06,0,0,1-4.54,5.32,8.82,8.82,0,0,1-8.76-1.44,6,6,0,0,1-2.09-4.75q-.07-3.16,0-6.33c.08-3.88,2.92-6,6.1-6.51a9.13,9.13,0,0,1,5.84.8A6.15,6.15,0,0,1,243,57.74v3.17Zm-4.8,0c0-1.05,0-2.1,0-3.16a2.63,2.63,0,0,0-2.91-2.68c-1.78.09-2.9,1.05-2.91,2.71,0,2.1,0,4.21,0,6.31a2.66,2.66,0,0,0,2.94,2.68,2.54,2.54,0,0,0,2.87-2.62C238.15,63.08,238.13,62,238.13,60.92Z"/><path class="cls-1" d="M148.45,99.27v2.93a6.15,6.15,0,0,1-4.6,6.38,9,9,0,0,1-8-.92,5.78,5.78,0,0,1-2.76-5.18c0-2.06.09-4.12,0-6.17a6.25,6.25,0,0,1,4.5-6.41c3.15-1,6.2-.82,8.85,1.44a5.46,5.46,0,0,1,2,4.37C148.44,96.89,148.45,98.08,148.45,99.27Zm-4.75,0V96a2.62,2.62,0,0,0-2.77-2.61,2.72,2.72,0,0,0-3.06,2.42c-.06,2.32,0,4.64,0,7a2.17,2.17,0,0,0,1,1.73,3.39,3.39,0,0,0,2.39.6,2.54,2.54,0,0,0,2.49-2.54C143.71,101.43,143.7,100.35,143.7,99.27Z"/><path class="cls-1" d="M189.82,60.94V53.19c0-1.43.28-1.7,1.7-1.7h1.66a.9.9,0,0,1,1,.75c.12.58.33.48.73.18a6.4,6.4,0,0,1,8.38.45,6.74,6.74,0,0,1,2.09,5c0,3.72,0,7.44,0,11.15,0,.92-.39,1.31-1.28,1.32-.69,0-1.38,0-2.06,0-1,0-1.36-.35-1.36-1.39,0-3.56,0-7.12,0-10.68a2.93,2.93,0,0,0-3-3.21,3.15,3.15,0,0,0-3.26,3.22c0,3.48,0,7,0,10.44,0,1.43-.2,1.62-1.66,1.62h-1.35c-1.32,0-1.64-.3-1.64-1.61Z"/><path class="cls-1" d="M210.52,60.57c0-1.47,0-3,0-4.43,0-.62-.21-.78-.77-.73a13.45,13.45,0,0,1-1.42,0,1.06,1.06,0,0,1-1.15-1.2c0-2.53-.28-2.84,2.54-2.71.63,0,.83-.18.8-.81,0-1,0-2,0-3,0-.82.33-1.17,1.12-1.19s1.48,0,2.22,0A1,1,0,0,1,215,47.63c0,1,0,2.11,0,3.16,0,.57.17.72.72.71,2.37,0,4.75,0,7.12,0,1,0,1.36.33,1.37,1.38,0,2.54,0,2.54-2.51,2.54-2,0-4,0-5.93,0-.56,0-.79.1-.78.73,0,2.58,0,5.17,0,7.75a2.82,2.82,0,0,0,4.05,2.69,2.23,2.23,0,0,0,1.35-1.46,1.6,1.6,0,0,1,1.8-1.19c.5,0,1,0,1.5,0,1.1,0,1.54.66,1.28,1.75a6.34,6.34,0,0,1-5.57,5,8.66,8.66,0,0,1-6-1,5.83,5.83,0,0,1-2.87-5.13C210.52,63.21,210.52,61.89,210.52,60.57Z"/><path class="cls-1" d="M137.72,52.8a8.13,8.13,0,0,1,3.6-1.65,6.5,6.5,0,0,1,7.15,5,14.14,14.14,0,0,1,.27,2.83c0,3.29,0,6.59,0,9.89,0,1.25-.31,1.56-1.6,1.56-.58,0-1.16,0-1.74,0-1,0-1.38-.36-1.38-1.38V58.32a3,3,0,0,0-2.12-3.15,3.38,3.38,0,0,0-3.79,1.62,3.22,3.22,0,0,0-.32,1.69c0,3.45,0,6.91,0,10.36,0,1.24-.3,1.54-1.54,1.54-.58,0-1.16,0-1.74,0-1,0-1.37-.34-1.37-1.38q0-4.25,0-8.47c0-2.53,0-5.07,0-7.6,0-1.14.31-1.44,1.46-1.44h1.26C137.25,51.49,137.25,51.49,137.72,52.8Z"/><path class="cls-1" d="M167.42,99.2c0,2.69,0,5.38,0,8.07,0,1.06-.31,1.37-1.34,1.38-.66,0-1.32,0-2,0-.5,0-1-.19-1-.67-.15-.82-.46-.44-.83-.2a6.92,6.92,0,0,1-4.62,1.21,6.57,6.57,0,0,1-5.42-4.56,8.93,8.93,0,0,1-.34-2.41V91.41c0-1.42.24-1.65,1.66-1.66h1.66c1,0,1.33.29,1.33,1.31,0,3.48,0,7,0,10.45a3.25,3.25,0,0,0,1.41,3.07,3,3,0,0,0,3.15.1,2.83,2.83,0,0,0,1.68-2.65c0-3.56,0-7.12,0-10.68,0-1.27.33-1.6,1.57-1.61h1.82c.92,0,1.29.37,1.29,1.29C167.43,93.77,167.42,96.48,167.42,99.2Z"/><path class="cls-1" d="M183.41,95.64c-.45,0-.79,0-1.14,0a1.52,1.52,0,0,1-1.57-1,2.3,2.3,0,0,0-3.52-.89c-1.05.82-1,1.84.26,2.38q2.16,1,4.36,1.85a6,6,0,0,1,3.62,3.2c1,2.36.17,4.66-2,6.38-3,2.33-9.16,2.22-11.42-1.87a3.6,3.6,0,0,1-.54-1.78,1,1,0,0,1,1.05-1.13,21,21,0,0,1,2.38,0,1.54,1.54,0,0,1,1.34,1,2.83,2.83,0,0,0,3.72,1.19,1.62,1.62,0,0,0,.11-3,30.5,30.5,0,0,0-4.72-2.17A5.06,5.06,0,0,1,171.92,96a4.94,4.94,0,0,1,2.16-5.21,8,8,0,0,1,5.86-1.33,6.33,6.33,0,0,1,5,3.14,2.47,2.47,0,0,1,.45,2.51C184.94,96,184,95.54,183.41,95.64Z"/><path class="cls-1" d="M276.56,64.48h1a1.41,1.41,0,0,1,1.38.84,2.76,2.76,0,0,0,3.53,1.39,1.71,1.71,0,0,0,1.22-1.33,1.54,1.54,0,0,0-.72-1.63,20.81,20.81,0,0,0-4.17-2,10.21,10.21,0,0,1-2.35-1.25,5,5,0,0,1-.43-7.27c2.73-2.84,8.54-2.92,11,.1a6,6,0,0,1,1.27,2.25c.3,1.14-.15,1.73-1.31,1.74-.63,0-1.27,0-1.9,0a1.51,1.51,0,0,1-1.6-1,2.29,2.29,0,0,0-3.51-.89,1.29,1.29,0,0,0,.27,2.39q2.31,1,4.63,2a5.3,5.3,0,0,1,.49,9.93,8.27,8.27,0,0,1-8.82-.36,5.23,5.23,0,0,1-2.19-2.91c-.43-1.42,0-2,1.44-2Z"/><path class="cls-1" d="M253.09,70.38c-2.19,0-4.38,0-6.57,0-1.11,0-1.46-.36-1.48-1.47,0-2.42,0-2.45,2.37-2.45,1.44,0,1.44,0,1.44-1.47V53.2c0-1.51.2-1.71,1.75-1.71h1.66a.89.89,0,0,1,1,.71c.11.59.25.48.62.19a5.54,5.54,0,0,1,6.29-.59,5.77,5.77,0,0,1,3,4.63c.11,1-.24,1.41-1.19,1.48a11.68,11.68,0,0,1-2.29,0,1.21,1.21,0,0,1-1.06-.91c-.58-1.58-1.19-2-2.67-1.83a2.85,2.85,0,0,0-2.39,2.4c-.08,2.82,0,5.65-.06,8.47,0,.49.32.45.64.45h5.3c1.47,0,1.69.23,1.69,1.7,0,2.11-.11,2.22-2.23,2.22Z"/><path class="cls-1" d="M124.53,20.5v9.41c0,1.59-.19,1.79-1.74,1.79H121a.94.94,0,0,1-1-.9,8.59,8.59,0,0,1-.07-1c0-6.41,0-12.81,0-19.22,0-.7-.19-.91-.89-.88-1.16.06-2.32,0-3.48,0-.86,0-1.27-.39-1.3-1.23q0-1,0-2a1.1,1.1,0,0,1,1.14-1.22c2-.11,4,0,6,0h7c1.31,0,1.92.17,1.8,1.78,0,.47,0,1,0,1.42,0,.9-.38,1.27-1.31,1.28-1.21,0-2.42,0-3.63,0-.6,0-.77.18-.77.77C124.54,13.81,124.53,17.15,124.53,20.5Z"/><path class="cls-1" d="M162.5,55.66c0-1.15,0-2.1,0-3a1,1,0,0,1,1.1-1.11c.82,0,1.64,0,2.46,0a.94.94,0,0,1,1,1c0,2.18.34,4.41-.19,6.54a48.44,48.44,0,0,1-1.87,5.26c-.59,1.63-1.2,3.25-1.8,4.88-.4,1.06-.67,1.24-1.81,1.24-1.37,0-2.74,0-4.12,0a1.34,1.34,0,0,1-1.39-.95c-1.19-3.25-2.36-6.51-3.55-9.77A7.19,7.19,0,0,1,152,57.1c0-1.4,0-2.8,0-4.19,0-1.1.34-1.42,1.41-1.42h2.13c.8,0,1.1.31,1.1,1.1,0,1.58.07,3.17,0,4.75s.64,2.9,1.08,4.32,1,2.88,1.5,4.31c.07.19.06.46.35.46s.25-.28.32-.46c.84-2.34,1.73-4.67,2.48-7A12.48,12.48,0,0,0,162.5,55.66Z"/><path class="cls-2" d="M67.5,93.9A7,7,0,0,1,60.6,87a7,7,0,0,1,6.95-6.93A6.78,6.78,0,0,1,74.43,87,6.86,6.86,0,0,1,67.5,93.9Zm-2.44-7a2.47,2.47,0,1,0,2.58-2.37A2.56,2.56,0,0,0,65.06,86.87Z"/><path class="cls-2" d="M34.61,87a6.79,6.79,0,0,1-6.82,6.91A6.89,6.89,0,0,1,20.86,87a6.88,6.88,0,1,1,13.75,0ZM30.2,87a2.48,2.48,0,0,0-2.47-2.47A2.52,2.52,0,0,0,25.31,87,2.45,2.45,0,0,0,30.2,87Z"/><path class="cls-2" d="M40.75,87A6.9,6.9,0,1,1,47.6,93.9,6.94,6.94,0,0,1,40.75,87Zm4.45,0a2.44,2.44,0,0,0,2.42,2.49A2.56,2.56,0,0,0,50.12,87,2.59,2.59,0,0,0,47.7,84.5,2.49,2.49,0,0,0,45.2,86.93Z"/><path class="cls-2" d="M67.56,74A6.89,6.89,0,1,1,67.5,60.2,6.89,6.89,0,1,1,67.56,74Zm0-9.34a2.52,2.52,0,0,0-2.51,2.44,2.57,2.57,0,0,0,2.48,2.48A2.53,2.53,0,0,0,70,67.14,2.44,2.44,0,0,0,67.56,64.64Z"/><path class="cls-2" d="M47.57,54.07a6.82,6.82,0,0,1-6.83-6.88,6.9,6.9,0,0,1,13.8.05A6.8,6.8,0,0,1,47.57,54.07Zm.09-4.42a2.44,2.44,0,0,0,2.44-2.39,2.38,2.38,0,0,0-2.44-2.45,2.42,2.42,0,1,0,0,4.84Z"/><path class="cls-1" d="M273,43.47c.52,0,1.05,0,1.57.11s.79.41.5,1a2.22,2.22,0,0,1-.34.52c-1.22,1.2-2.43,2.4-3.67,3.57s-2.65.78-4,.65c-.44,0-.5-.5-.26-.87.37-.55.76-1.07,1.15-1.6s.75-.88,1.05-1.37A3.73,3.73,0,0,1,273,43.47Z"/></svg>