<?xml version="1.0" encoding="utf-8"?>
<!-- Generator: Adobe Illustrator 21.0.0, SVG Export Plug-In . SVG Version: 6.00 Build 0)  -->
<svg version="1.1" id="Layer_1" xmlns="http://www.w3.org/2000/svg" xmlns:xlink="http://www.w3.org/1999/xlink" x="0px" y="0px"
	 viewBox="0 0 85 85" style="enable-background:new 0 0 85 85;" xml:space="preserve">
<style type="text/css">
	.st0{fill:#B20023;}
	.st1{fill:#FFFFFF;}
	.st2{fill:#1A1A1A;}
</style>
<g>
	<g>
		<path class="st0" d="M42.5,0.3C19,0.3,0,19.2,0,42.5c0,23.3,19,42.2,42.5,42.2C66,84.7,85,65.8,85,42.5C85,19.2,66,0.3,42.5,0.3z
			 M42.5,79.8C21.7,79.9,4.9,63.2,5,42.5C5.1,21.9,21.8,5.2,42.5,5.2s37.5,16.7,37.5,37.3C80.1,63.1,63.3,79.7,42.5,79.8z"/>
	</g>
	<g>
		<path class="st0" d="M48.4,57.4c0.6-2.4,2.1-4.5,3.6-6c-1.5-0.7-2.5-2.2-2.5-3.9c0-0.1,0-0.2,0-0.2c-10.4,5.8-10.8,15.8-10.7,18.6
			c0.1,0,0.2,0,0.3,0c1.2,0,3.1,0,5.3-0.1c2.2-0.1,4.3-0.3,5.6-0.5C48.3,62.8,47.7,60.1,48.4,57.4z"/>
		<path class="st0" d="M68.1,51.9c-0.5-0.3-1.1-0.3-1.6,0c-1.6,1-3.5,6-2,7c0.6,0.4,1.3,0.5,1.9,0.2C68.3,58.1,69.6,52.9,68.1,51.9z
			"/>
		<g>
			<path class="st0" d="M70.1,52c-0.7-3.1-3.8-0.2-7.4-7.8c-3-6.5-2-12-19.3-19.7c-5.4-2.4-20.4-7-26.3-3.4c-6.3,3.9,1,14-0.1,17.1
				c-0.7,2-10.5,6.9-10,9.8c1.6,10.3,7.8,17.3,8.3,17.8c13.6,14,6.8,1.6,17.8,2.1c1.6,0.1,3.3-0.1,5-0.1c4.4,0,9.2-0.1,13.9-0.8
				C56.8,66.2,72.4,62.4,70.1,52z M21,42.4c-0.1-3.9-0.8-1.6-3.9-10.2c-1.1-3-7.8-15.4,15.6-10.4c2.4,0.5,9.9,2.5,9.9,5.5
				c0,2.5-2.5,5.9-4.9,4.1c-3-2.2-7.8-6.8-12.8-5.8c-8.4,1.7,3.1,10.3,3.3,13.4C28.3,41.6,21,45.7,21,42.4z M33.6,34.4
				c-0.6,1.4-2.3,2.3-3.2,2.4l0,0h0c-1.6,0-4.1-3.1-5-5.1c-0.7-1.7-0.3-2.6,0.2-3.1c0.5-0.4,1.1-0.7,1.8-0.7c1.4,0,3,1,5.2,3
				C34,32.4,33.8,33.7,33.6,34.4z M51.4,66.1c-4.7,0.7-9.5,0.7-13.9,0.8c-1.7,0-17-5.7-4.9-16.9c8.6-8,13.3-4.9,14.2-8.1
				c0.9-3,2.8-4.4,6.6-4.3c3.9,0.1,7.9,5.4,8.6,7.2l0.4,0.9c2.9,6.3,6.5,4.3,7.1,6.5C72,61.8,56.3,65.3,51.4,66.1z"/>
		</g>
		<ellipse class="st0" cx="53.8" cy="47.6" rx="2.5" ry="2.5"/>
		<path class="st0" d="M26.5,31.2c0.9,2.1,3.1,4.3,3.8,4.3l0,0c0.5,0,1.8-0.6,2.1-1.6c0.3-0.7,0-1.4-0.8-2.1
			c-1.9-1.8-3.3-2.7-4.3-2.7c-0.4,0-0.7,0.1-1,0.4C26.1,29.7,26.1,30.3,26.5,31.2z"/>
	</g>
</g>
</svg>
