<svg id="Capa_1" data-name="Capa 1" xmlns="http://www.w3.org/2000/svg" xmlns:xlink="http://www.w3.org/1999/xlink" viewBox="0 0 298.07 80.93"><defs><style>.cls-1{fill:#22244f;}.cls-2{fill:#904091;}.cls-3{fill:#5dbb9c;}.cls-4{fill:#e7267a;}.cls-5{fill:#f9b03d;}.cls-6{fill:url(#Degradado_sin_nombre_7);}.cls-7{fill:#fff;}</style><linearGradient id="Degradado_sin_nombre_7" x1="0.79" y1="40.01" x2="68.49" y2="40.01" gradientUnits="userSpaceOnUse"><stop offset="0" stop-color="#f9b03d"/><stop offset="0.26" stop-color="#e7267a"/><stop offset="0.66" stop-color="#0d71b9"/><stop offset="1" stop-color="#5dbb9c"/></linearGradient></defs><path class="cls-1" d="M126.36,9.48q8.19,0,8.19,9.65V33.24h-5.79V19.17c0-3.1-1.2-4.66-3.58-4.66a5,5,0,0,0-4.66,3.2c0,.29,0,.76,0,1.42V33.24h-5.79V19.17c0-3.1-1.21-4.66-3.62-4.66q-3,0-4.57,3.53v15.2H100.8V10h4.75l.33,2.73h.1a7.57,7.57,0,0,1,6.35-3.2q4.85,0,6.78,3.2h.09A8.47,8.47,0,0,1,126.36,9.48Z" transform="translate(-0.79 0.45)"/><path class="cls-1" d="M147.3,9.48a12.21,12.21,0,0,0-9.46,4.09l3,3.81c1.82-1.91,3.71-2.87,5.65-2.87,3.08,0,4.61,1.57,4.61,4.71H145.7q-4.33,0-6.57,1.81a6.37,6.37,0,0,0-2.23,5.25v.52a6.53,6.53,0,0,0,2,5,7.82,7.82,0,0,0,5.56,1.89,8.31,8.31,0,0,0,7.15-3.35h.09l.38,2.87h4.75v-14Q156.85,9.48,147.3,9.48Zm3.76,16.28A5.33,5.33,0,0,1,146.12,29a3.67,3.67,0,0,1-2.56-.8,2.8,2.8,0,0,1-.87-2.17,2.67,2.67,0,0,1,1.06-2.26,4.87,4.87,0,0,1,3-.8h4.33Z" transform="translate(-0.79 0.45)"/><polygon class="cls-1" points="148.49 8.1 143.17 8.1 145.57 5.01 152.06 5.01 148.49 8.1"/><path class="cls-1" d="M180.38,41.43h-5.79V31.17h-.09a7.63,7.63,0,0,1-5.93,2.55q-8.61,0-8.61-9.84V19.31q0-9.82,8.61-9.83a8,8,0,0,1,6.68,3.39h.1l.33-2.92h4.7Zm-5.79-16.7V18.42c-1-2.6-2.68-3.91-4.94-3.91-2.6,0-3.9,1.64-3.9,4.9v4.33q0,4.94,3.9,4.94Q173,28.68,174.59,24.73Z" transform="translate(-0.79 0.45)"/><path class="cls-1" d="M204.29,33.24h-4.75l-.33-2.82h-.1a7.81,7.81,0,0,1-6.54,3.3c-2.76,0-4.8-.8-6.12-2.38s-2-4-2-7.23V10h5.79V24q0,4.71,3.52,4.71c2.05,0,3.61-1.21,4.71-3.62V10h5.79Z" transform="translate(-0.79 0.45)"/><path class="cls-2" d="M214.1,5.45a3.63,3.63,0,0,1-4.94,0,3.4,3.4,0,0,1-1-2.51,3.28,3.28,0,0,1,1-2.45,3.38,3.38,0,0,1,2.47-.94,3.34,3.34,0,0,1,2.47,1,3.28,3.28,0,0,1,1,2.43A3.37,3.37,0,0,1,214.1,5.45Z" transform="translate(-0.79 0.45)"/><rect class="cls-1" x="207.92" y="10.4" width="5.79" height="23.3"/><path class="cls-1" d="M230.74,9.48q8.14,0,8.14,9.6V33.24h-5.79V19.17c0-3.1-1.19-4.66-3.58-4.66-2.1,0-3.7,1.2-4.8,3.58V33.24h-5.78V10h4.75l.33,2.82h.09A8.1,8.1,0,0,1,230.74,9.48Z" transform="translate(-0.79 0.45)"/><path class="cls-1" d="M251.63,9.48q9.56,0,9.56,9.79v14h-4.75l-.38-2.87H256a8.3,8.3,0,0,1-7.15,3.35,7.81,7.81,0,0,1-5.55-1.89,6.53,6.53,0,0,1-2-5v-.52A6.37,6.37,0,0,1,243.47,21q2.24-1.82,6.56-1.81h5.37q0-4.71-4.61-4.71-2.92,0-5.65,2.87l-3-3.81A12.19,12.19,0,0,1,251.63,9.48ZM255.4,23h-4.33a4.9,4.9,0,0,0-3,.8A2.7,2.7,0,0,0,247,26a2.8,2.8,0,0,0,.87,2.17,3.7,3.7,0,0,0,2.57.8,5.34,5.34,0,0,0,4.94-3.25Z" transform="translate(-0.79 0.45)"/><path class="cls-1" d="M282.84,26.19a6.73,6.73,0,0,1-2.47,5.55,10.87,10.87,0,0,1-6.95,2,15,15,0,0,1-10.3-3.58L266,26a11,11,0,0,0,7.53,2.87c2.44,0,3.67-.83,3.67-2.49a1.71,1.71,0,0,0-1-1.58,11.63,11.63,0,0,0-3.64-.87c-3-.34-5.17-1.06-6.47-2.16a6,6,0,0,1-2-4.85,6.66,6.66,0,0,1,2.52-5.41,10.16,10.16,0,0,1,6.66-2.07,13.27,13.27,0,0,1,8.85,2.82l-2.64,4a8.71,8.71,0,0,0-5.74-2,5.89,5.89,0,0,0-3,.63,2,2,0,0,0-1.06,1.82,1.55,1.55,0,0,0,1,1.43,11.13,11.13,0,0,0,3.46.78q4.65.46,6.66,2.16A6.31,6.31,0,0,1,282.84,26.19Z" transform="translate(-0.79 0.45)"/><path class="cls-3" d="M90.68,44a3.66,3.66,0,0,1-4.94,0,3.44,3.44,0,0,1-1-2.52,3.29,3.29,0,0,1,1-2.45,3.38,3.38,0,0,1,2.47-.94,3.32,3.32,0,0,1,2.47,1,3.26,3.26,0,0,1,1,2.42A3.41,3.41,0,0,1,90.68,44Z" transform="translate(-0.79 0.45)"/><path class="cls-4" d="M291.47,39.28a3.66,3.66,0,0,1-4.94,0,3.41,3.41,0,0,1-1-2.52,3.29,3.29,0,0,1,1-2.45,3.42,3.42,0,0,1,2.47-.94,3.31,3.31,0,0,1,2.47,1,3.26,3.26,0,0,1,1,2.42A3.38,3.38,0,0,1,291.47,39.28Z" transform="translate(-0.79 0.45)"/><rect class="cls-1" x="84.5" y="48.97" width="5.79" height="23.3"/><path class="cls-1" d="M107.32,48.05q8.15,0,8.14,9.6V71.82h-5.79V57.75q0-4.66-3.58-4.66-3.15,0-4.8,3.57V71.82H95.5V48.52h4.76l.33,2.82h.09A8.1,8.1,0,0,1,107.32,48.05Z" transform="translate(-0.79 0.45)"/><path class="cls-1" d="M126,53.51V64a3.23,3.23,0,0,0,.59,2.22,2.89,2.89,0,0,0,2.1.61h1.83v5h-3.29q-3.77,0-5.39-1.79t-1.63-5.93V53.51h-3v-5h3.15l1.13-7.1H126v7.1h4.52v5Z" transform="translate(-0.79 0.45)"/><path class="cls-1" d="M142.33,48.05q4.75,0,7.37,2.64c1.74,1.75,2.61,4.22,2.61,7.38V62h-14.4a5.68,5.68,0,0,0,1.2,4,4.84,4.84,0,0,0,3.69,1.27,6.54,6.54,0,0,0,5.27-2.92l4.05,3.11a11.3,11.3,0,0,1-9.65,4.85c-3.29,0-5.84-.9-7.64-2.68s-2.71-4.32-2.71-7.58V58.36q0-4.95,2.66-7.63T142.33,48.05Zm-4.42,10.17h9q0-5.13-4.57-5.13T137.91,58.22Z" transform="translate(-0.79 0.45)"/><path class="cls-1" d="M155.23,71.82V38.87H161V71.82Z" transform="translate(-0.79 0.45)"/><path class="cls-5" d="M170.83,44a3.66,3.66,0,0,1-4.94,0,3.41,3.41,0,0,1-1-2.52,3.26,3.26,0,0,1,1-2.45,3.36,3.36,0,0,1,2.47-.94,3.32,3.32,0,0,1,2.47,1,3.29,3.29,0,0,1,1,2.42A3.44,3.44,0,0,1,170.83,44Z" transform="translate(-0.79 0.45)"/><rect class="cls-1" x="164.65" y="48.97" width="5.79" height="23.3"/><path class="cls-1" d="M195.09,48.52V69.89q0,5.17-2.68,7.88c-1.79,1.8-4.36,2.71-7.72,2.71A13,13,0,0,1,175.23,77l2.68-4.1a9.08,9.08,0,0,0,6.4,2.73q5,0,5-5.27v-1.5h-.09a7.77,7.77,0,0,1-5.89,2.49q-8.61,0-8.61-9.84V57.89q0-9.84,8.61-9.84A8,8,0,0,1,190,51.39h.09l.33-2.87ZM184.41,66.26c2.22,0,3.86-1.25,4.89-3.76V56.85c-1-2.51-2.67-3.76-4.89-3.76q-3.91,0-3.91,4.89v3.39Q180.5,66.26,184.41,66.26Z" transform="translate(-0.79 0.45)"/><path class="cls-1" d="M208.64,48.05q4.76,0,7.37,2.64c1.74,1.75,2.61,4.22,2.61,7.38V62h-14.4a5.68,5.68,0,0,0,1.2,4,4.84,4.84,0,0,0,3.69,1.27,6.57,6.57,0,0,0,5.28-2.92l4,3.11a11.3,11.3,0,0,1-9.65,4.85c-3.29,0-5.84-.9-7.64-2.68s-2.71-4.32-2.71-7.58V58.36q0-4.95,2.66-7.63T208.64,48.05Zm-4.42,10.17h9q0-5.13-4.57-5.13T204.22,58.22Z" transform="translate(-0.79 0.45)"/><path class="cls-1" d="M233.35,48.05q8.15,0,8.14,9.6V71.82H235.7V57.75q0-4.66-3.57-4.66-3.16,0-4.8,3.57V71.82h-5.79V48.52h4.75l.33,2.82h.1A8.07,8.07,0,0,1,233.35,48.05Z" transform="translate(-0.79 0.45)"/><path class="cls-1" d="M252,53.51V64a3.23,3.23,0,0,0,.59,2.22,2.89,2.89,0,0,0,2.1.61h1.83v5h-3.29q-3.76,0-5.39-1.79t-1.62-5.93V53.51h-3v-5h3.15l1.13-7.1H252v7.1h4.52v5Z" transform="translate(-0.79 0.45)"/><path class="cls-1" d="M268.37,48.05c3.16,0,5.62.88,7.36,2.64s2.61,4.22,2.61,7.38V62h-14.4a5.68,5.68,0,0,0,1.2,4,4.85,4.85,0,0,0,3.7,1.27,6.57,6.57,0,0,0,5.27-2.92l4,3.11a11.3,11.3,0,0,1-9.64,4.85c-3.3,0-5.85-.9-7.65-2.68s-2.71-4.32-2.71-7.58V58.36q0-4.95,2.66-7.63T268.37,48.05Zm-4.43,10.17h9q0-5.13-4.56-5.13T263.94,58.22Z" transform="translate(-0.79 0.45)"/><path class="cls-1" d="M298.86,64.76a6.7,6.7,0,0,1-2.47,5.55,10.84,10.84,0,0,1-6.94,2,15,15,0,0,1-10.31-3.58l2.92-4.09a11.06,11.06,0,0,0,7.53,2.87q3.68,0,3.67-2.5a1.7,1.7,0,0,0-1-1.57,11.72,11.72,0,0,0-3.65-.87q-4.52-.52-6.47-2.17a6,6,0,0,1-1.95-4.85,6.68,6.68,0,0,1,2.52-5.41,10.11,10.11,0,0,1,6.65-2.07,13.24,13.24,0,0,1,8.85,2.82l-2.63,4a8.78,8.78,0,0,0-5.74-2,5.75,5.75,0,0,0-3,.64,2,2,0,0,0-1.06,1.81,1.54,1.54,0,0,0,1,1.43,11.29,11.29,0,0,0,3.46.78c3.11.31,5.33,1,6.66,2.17A6.25,6.25,0,0,1,298.86,64.76Z" transform="translate(-0.79 0.45)"/><path class="cls-6" d="M55,16.62H14.28a3,3,0,0,0-3,3V60.38a3,3,0,0,0,3,3H55a3,3,0,0,0,3-3V19.65A3,3,0,0,0,55,16.62Zm13.48,4.17v2.33h-7V20.79Zm-7,4.52h7v2.32h-7Zm0,4.51h7v2.33h-7Zm0,4.51h7v2.33h-7Zm0,4.52h7v2.33h-7Zm0,4.51h7v2.33h-7Zm0,4.52h7V50.2h-7Zm0,4.51h7v2.33h-7Zm0,4.52h7v2.32h-7ZM.79,20.79h7v2.33h-7Zm0,4.52h7v2.32h-7Zm0,4.51h7v2.33h-7Zm0,4.51h7v2.33h-7Zm0,4.52h7v2.33h-7Zm0,4.51h7v2.33h-7Zm0,4.52h7V50.2h-7Zm0,4.51h7v2.33h-7Zm0,4.52h7v2.32h-7ZM15.42,6.16h2.33v7H15.42Zm4.52,7v-7h2.32v7Zm4.51,0v-7h2.33v7Zm4.51,0v-7h2.33v7Zm4.52,0v-7h2.33v7Zm4.51,0v-7h2.33v7Zm4.52,0v-7h2.32v7Zm4.51,0v-7h2.33v7Zm4.52,0v-7h2.32v7ZM15.42,73.86v-7h2.33v7Zm4.52,0v-7h2.32v7Zm4.51,0v-7h2.33v7Zm4.51,0v-7h2.33v7Zm4.52,0v-7h2.33v7Zm4.51,0v-7h2.33v7Zm4.52,0v-7h2.32v7Zm4.51,0v-7h2.33v7Zm4.52,0v-7h2.32v7Z" transform="translate(-0.79 0.45)"/><path class="cls-7" d="M42.4,41.09V34.38a1.25,1.25,0,0,0-2.2-.82L35.55,39,34.3,36.26A1.24,1.24,0,0,0,32.19,36L23.48,46.76a2.78,2.78,0,0,0-1-.19,2.95,2.95,0,1,0,2.95,3,2.83,2.83,0,0,0-.18-1l7.61-9.41,1.22,2.67a1.26,1.26,0,0,0,2.09.3l3.73-4.35v3.33a2.94,2.94,0,0,0,1.25,5.61,2.94,2.94,0,0,0,1.25-5.61Zm5.66,6.32V32.61a3,3,0,1,0-2.5,0v14.8a2.92,2.92,0,0,0-1.7,2.66,3,3,0,1,0,4.2-2.66ZM45.88,29.82a.93.93,0,1,1,.93.93A.93.93,0,0,1,45.88,29.82Zm0,20.38a.93.93,0,1,1,.93.94A.93.93,0,0,1,45.88,50.2ZM40.3,43.73a.93.93,0,1,1,.93.93A.93.93,0,0,1,40.3,43.73ZM21.54,49.51a.93.93,0,1,1,.93.94A.93.93,0,0,1,21.54,49.51Z" transform="translate(-0.79 0.45)"/></svg>