<svg id="Capa_1" data-name="Capa 1" xmlns="http://www.w3.org/2000/svg" xmlns:xlink="http://www.w3.org/1999/xlink" viewBox="0 0 94.34 89.63"><defs><style>.cls-1{fill:url(#Degradado_sin_nombre_7);}</style><linearGradient id="Degradado_sin_nombre_7" y1="44.81" x2="94.34" y2="44.81" gradientUnits="userSpaceOnUse"><stop offset="0" stop-color="#f9b03d"/><stop offset="0.26" stop-color="#e7267a"/><stop offset="0.66" stop-color="#0d71b9"/><stop offset="1" stop-color="#5dbb9c"/></linearGradient></defs><path class="cls-1" d="M94.34,63.3c-.37,1.89-.62,3.81-1.13,5.66A28.42,28.42,0,0,1,52.77,86.32l-.73-.4c-.07,0-.13-.13-.1-.1C53.5,83.87,55.17,82,56.56,80a32.77,32.77,0,0,0,5.73-20.09A1.2,1.2,0,0,1,63,58.6,33.72,33.72,0,0,0,80,37.24c0-.2.13-.4.23-.68A26.87,26.87,0,0,1,87,42.12a28,28,0,0,1,7.14,16,4.53,4.53,0,0,0,.16.71ZM.05,62.49c.63,11.75,6.71,20.2,17.51,24.85C26,91,34.4,90.18,42.69,85.71a10.16,10.16,0,0,1-.88-.72A33.33,33.33,0,0,1,32,60a1.4,1.4,0,0,0-.86-1.49,32.73,32.73,0,0,1-14-14.09C15.87,42,15,39.3,13.85,36.61,4.56,42.67-.56,51.22.05,62.49ZM19.8,28.25a33.52,33.52,0,0,1,26.53,4.07,1.34,1.34,0,0,0,1.64,0A33.24,33.24,0,0,1,70.62,27.5c1.63.23,3.24.6,5,.94C75.17,18.08,70.88,9.85,62,4.48c-10.09-6.12-20.49-6-30.43.41C23.16,10.31,19.08,18.4,18.66,28.51Zm41.63,25A28.76,28.76,0,0,0,75,34.15a28.73,28.73,0,0,0-23.31,2.3A34.49,34.49,0,0,1,61.43,53.21Zm-28.56,0a34.38,34.38,0,0,1,9.69-16.76,28.71,28.71,0,0,0-23.33-2.27A28.8,28.8,0,0,0,32.87,53.2ZM47.28,82.36a28.51,28.51,0,0,0,9.53-21.17,34.37,34.37,0,0,1-19.18,0C36.5,67,42.37,79.84,47.28,82.36Zm-.22-42.53a28.39,28.39,0,0,0-9,15.71,28.58,28.58,0,0,0,18.14,0C55.86,50.88,51,42.54,47.06,39.83Z"/></svg>