<svg id="Capa_1" data-name="Capa 1" xmlns="http://www.w3.org/2000/svg" xmlns:xlink="http://www.w3.org/1999/xlink" viewBox="0 0 91.34 91.33"><defs><style>.cls-1{fill:url(#Degradado_sin_nombre_7);}</style><linearGradient id="Degradado_sin_nombre_7" y1="45.67" x2="91.34" y2="45.67" gradientUnits="userSpaceOnUse"><stop offset="0" stop-color="#f9b03d"/><stop offset="0.26" stop-color="#e7267a"/><stop offset="0.66" stop-color="#0d71b9"/><stop offset="1" stop-color="#5dbb9c"/></linearGradient></defs><path class="cls-1" d="M45.67,0A45.67,45.67,0,1,0,91.34,45.67,45.72,45.72,0,0,0,45.67,0ZM74.4,36.5a1.15,1.15,0,0,1,0,2.29H67.07V43.5H74.4a1.15,1.15,0,0,1,0,2.29H67.07v4.46H74.4a1.14,1.14,0,0,1,0,2.28H67.07V57H74.4a1.15,1.15,0,0,1,0,2.29H67.07V64a1.14,1.14,0,0,1-1.14,1.14H60.59v6.31a1.14,1.14,0,1,1-2.28,0V65.14H53.85v6.31a1.15,1.15,0,1,1-2.29,0V65.14H46.84v6.31A1.14,1.14,0,0,1,45.7,72.6h-.07a1.14,1.14,0,0,1-1.14-1.15V65.14H39.77v6.31a1.14,1.14,0,1,1-2.28,0V65.14H33v6.31a1.14,1.14,0,1,1-2.28,0V65.14H25.4A1.14,1.14,0,0,1,24.26,64V59.28H16.94a1.15,1.15,0,1,1,0-2.29h7.32V52.53H16.94a1.14,1.14,0,1,1,0-2.28h7.32V45.79H16.94a1.15,1.15,0,1,1,0-2.29h7.32V38.79H16.94a1.15,1.15,0,1,1,0-2.29h7.32V32H16.94a1.14,1.14,0,1,1,0-2.28h7.32v-5a1.14,1.14,0,0,1,1.14-1.14h5.35V17.34a1.14,1.14,0,0,1,2.28,0v6.32h4.46V17.34a1.14,1.14,0,1,1,2.28,0v6.32h4.72V17.34a1.14,1.14,0,0,1,1.14-1.14h.07a1.14,1.14,0,0,1,1.14,1.14v6.32h4.72V17.34a1.15,1.15,0,0,1,2.29,0v6.32h4.46V17.34a1.14,1.14,0,0,1,2.28,0v6.32h5.34a1.14,1.14,0,0,1,1.14,1.14v5H74.4a1.14,1.14,0,1,1,0,2.28H67.07V36.5ZM58.62,30.88H32.72A1.15,1.15,0,0,0,31.58,32V57a1.14,1.14,0,0,0,1.14,1.14h25.9A1.14,1.14,0,0,0,59.76,57V32A1.15,1.15,0,0,0,58.62,30.88Zm-7,10.74A3.33,3.33,0,1,1,55,38.29,3.34,3.34,0,0,1,51.64,41.62Z" transform="translate(0 0)"/></svg>