<svg id="Original" xmlns="http://www.w3.org/2000/svg" viewBox="0 0 283.46 204.71"><defs><style>.cls-1{fill:#00865e;}</style></defs><path class="cls-1" d="M135.47,149.6H111.26q1.11,2.5,2.95,6.46l-8.13,25h9.44l4.09-12.58h10.48L126,181.05h9.44l7.07-21.77a7.39,7.39,0,0,0-7-9.68m-3.33,12.57H121.65l1.7-5.24h10.49Z"/><polygon class="cls-1" points="181.02 149.6 151.95 149.6 149.56 156.94 159.38 156.94 151.55 181.05 160.98 181.05 168.82 156.94 178.63 156.94 181.02 149.6"/><path class="cls-1" d="M190.84,149.6a7.12,7.12,0,0,0-5.46,11.69l8.74,10.42a1.21,1.21,0,0,1-.93,2H177.83l-2.39,7.34h22.09A7.12,7.12,0,0,0,203,169.36l-8.75-10.42a1.22,1.22,0,0,1,.94-2h11.17l2.38-7.34H190.84Z"/><path class="cls-1" d="M80.51,154.75,75.1,171.4a7.4,7.4,0,0,0,7,9.69h19.17l-2.38-7.34H83.78L89.23,157h13.63l2.38-7.34H87.55a7.41,7.41,0,0,0-7,5.12"/><polygon class="cls-1" points="62.85 118.1 55.77 118.1 48.09 141.72 52.53 141.72 55.18 141.72 65.41 141.72 67.2 136.21 56.97 136.21 62.85 118.1"/><path class="cls-1" d="M44.46,132.27,46,127.55H33.91l1.28-3.94H49.25L51,118.1H26.15q.51,1.19,2.19,4.76l-6.12,18.86H45.81l-2.62-5.51H31.09l1.28-3.94Z"/><path class="cls-1" d="M93.73,141.72l-2.62-5.51H79l1.28-3.94H92.38l1.54-4.72H81.83l1.28-3.94H97.17L99,118.1H74.07q.51,1.19,2.19,4.76l-6.12,18.86Z"/><polygon class="cls-1" points="232.12 118.1 224.44 141.72 231.53 141.72 239.2 118.1 232.12 118.1"/><polygon class="cls-1" points="125.66 118.1 123.87 123.61 131.24 123.61 125.36 141.72 132.44 141.72 138.33 123.61 145.7 123.61 147.49 118.1 125.66 118.1"/><path class="cls-1" d="M220,118.1H201.8Q202.63,120,204,123l-6.1,18.77H205l5.88-18.11h7.88l-5.89,18.11H220l5.31-16.34A5.56,5.56,0,0,0,220,118.1"/><path class="cls-1" d="M103.59,141.72H118l-1.79-5.51H104.82l4.09-12.6h10.24l1.79-5.51H107.65a5.55,5.55,0,0,0-5.28,3.84L98.3,134.45a5.56,5.56,0,0,0,5.29,7.27"/><path class="cls-1" d="M259.46,123.61l1.79-5.51H248a5.55,5.55,0,0,0-5.28,3.84l-4.06,12.51a5.55,5.55,0,0,0,5.28,7.27h14.4l-1.79-5.51H245.13l4.09-12.6Z"/><path class="cls-1" d="M178.91,141.72h10.36a5.57,5.57,0,0,0,5.29-3.84l4.06-12.5a5.56,5.56,0,0,0-5.28-7.28H183a5.57,5.57,0,0,0-5.29,3.84l-4.06,12.51a5.55,5.55,0,0,0,5.28,7.27m5.33-18.11h7.87L188,136.21h-7.88Z"/><path class="cls-1" d="M156.14,132.27h2.61l3.07,9.45h7.08l-3.07-9.45a5.2,5.2,0,0,0,4.95-3.59l1.07-3.3a5.56,5.56,0,0,0-5.28-7.28H149.33l2.54,5.51h13.47l-1.28,3.94H150.59l-1.54,4.72L146,141.72h7.09Z"/><path class="cls-1" d="M203.25,89a5.83,5.83,0,1,0,0-4.11h-15a26,26,0,0,0,1.84-9l11-3a5.81,5.81,0,1,0-1.09-4L189.8,71.7a28.06,28.06,0,0,0-5-12.3A65.55,65.55,0,0,0,188.31,38a66.29,66.29,0,0,0-.83-10.55,4.61,4.61,0,0,0-5.68-3.72c-9.29,2.29-17.58,9-23.85,18.62a66.15,66.15,0,0,0-32.68.06c-6.2-9.58-14.39-16.28-23.58-18.63A4.61,4.61,0,0,0,96,27.53,66.93,66.93,0,0,0,95.15,38,65.55,65.55,0,0,0,98.68,59.4a28.16,28.16,0,0,0-5,12.3L83.48,68.92a5.82,5.82,0,1,0-1.08,4l11,3a26,26,0,0,0,1.83,9h-15a5.83,5.83,0,1,0,0,4.11h17a34.08,34.08,0,0,0,5.08,6.56L82.4,101a5.83,5.83,0,1,0,1.08,4L106,98.81c8.84,7,21.57,11.42,35.73,11.42s26.9-4.41,35.74-11.42L200,105a5.84,5.84,0,1,0,1.09-4l-20-5.44A33.75,33.75,0,0,0,186.2,89Zm5.44-4.32a2.27,2.27,0,1,1-2.26,2.27,2.27,2.27,0,0,1,2.26-2.27m-2.91-17.46a2.27,2.27,0,1,1-2.27,2.26,2.26,2.26,0,0,1,2.27-2.26M77.69,71.74A2.27,2.27,0,1,1,80,69.47a2.27,2.27,0,0,1-2.26,2.27M74.78,89.2A2.27,2.27,0,1,1,77,86.94a2.27,2.27,0,0,1-2.26,2.26m2.91,17.47A2.27,2.27,0,1,1,80,104.4a2.27,2.27,0,0,1-2.26,2.27m55.12-19.92A20.34,20.34,0,0,1,109.9,63.83a22.19,22.19,0,0,1,2.72-.18,20.33,20.33,0,0,1,20.19,23.1m20.57.19a20.52,20.52,0,0,1-2.73-.19,20.4,20.4,0,0,1,20.2-23.1,22.19,22.19,0,0,1,2.72.18,20.34,20.34,0,0,1-20.19,23.11m52.4,15.2a2.27,2.27,0,1,1-2.27,2.26,2.26,2.26,0,0,1,2.27-2.26"/></svg>