<svg id="Capa_1" data-name="Capa 1" xmlns="http://www.w3.org/2000/svg" xmlns:xlink="http://www.w3.org/1999/xlink" viewBox="0 0 97.64 90.95"><defs><style>.cls-1{fill:url(#Degradado_sin_nombre_5);}</style><linearGradient id="Degradado_sin_nombre_5" y1="45.47" x2="97.64" y2="45.47" gradientUnits="userSpaceOnUse"><stop offset="0" stop-color="#0d71b9"/><stop offset="1" stop-color="#5dbb9c"/></linearGradient></defs><path class="cls-1" d="M57.61,46.39a2.3,2.3,0,0,0-1.74.87,2.18,2.18,0,0,0-.7,1.61A3.22,3.22,0,0,0,56.57,51l.44.41c5.65,5.69,11.22,11.25,16.91,16.92,1.61,1.61,1.89,3.25.85,5A3.59,3.59,0,0,1,70.58,75a4.8,4.8,0,0,1-2.35-1.63l-4-4C60,65,55.6,60.52,51.21,56.14a2.77,2.77,0,0,1-.33-.45,2.43,2.43,0,0,0-1.58-1.3,2,2,0,0,0-1.62.65,2.62,2.62,0,0,0-1,1.88,3.75,3.75,0,0,0,1.47,2.6q4.56,4.54,9.12,9.13l7.78,7.78c1.16,1.16,1.9,2.24,1.75,3.75a3.77,3.77,0,0,1-6.24,2.53c-.43-.36-.58-.56-.59-1-.07-6.48-.92-7.93-6.35-9.82.75-3.08.61-5.32-.41-7s-3.1-3-6.4-3.79a1.13,1.13,0,0,1-.39-.14,2.34,2.34,0,0,1,0-.46v-.13c-.15-3.44-1.18-5.87-3.08-7.24s-4.48-1.6-7.73-.69a1.87,1.87,0,0,1-.46.08,2.85,2.85,0,0,1-.13-.36l-.08-.23c-1.09-3.1-3.19-5.22-5.76-5.81s-5.44.39-7.81,2.72C19.77,50.36,18.12,52,16,54.17a2.48,2.48,0,0,1-.56.48s-.11,0-.32-.25C14,53.17,12.73,52,11.55,50.83c-2.81-2.75-5.72-5.58-7.74-9.06a27.67,27.67,0,0,1,40.6-36c.45.34,1,.82,1.06,1.14,0,.17-.12.52-.84,1.21C37.71,14.86,30.8,21.84,24.11,28.58l-.65.66C20.6,32.13,20,35.9,22,39.1c2.41,4,6.43,5.76,10.23,4.57A9.6,9.6,0,0,0,36.07,41l4.1-4.08c2.88-2.87,5.86-5.84,8.75-8.81.29-.29.7-.68.95-.68h0c.13,0,.39.11.9.61,6.4,6.47,12.94,13,19.27,19.34q5.43,5.41,10.83,10.84a4.88,4.88,0,0,1,1.6,3.37,3.56,3.56,0,0,1-1.11,2.52c-1.66,1.63-3.91,1.42-5.9-.55-2.23-2.2-4.44-4.42-6.66-6.64-2.82-2.82-5.73-5.74-8.63-8.58a6,6,0,0,1-.45-.52A3.15,3.15,0,0,0,57.61,46.39ZM56,89.4a5,5,0,0,1-3.41,1.09h-.06l4.16-3.85.14-.13a2.13,2.13,0,0,1,0,.32A3,3,0,0,1,56,89.4ZM17.22,58.58c2.47-2.54,5-5.06,7.51-7.49A3.63,3.63,0,0,1,27.28,50a4,4,0,0,1,1.68.4,3.75,3.75,0,0,1,2.22,3.39,4.49,4.49,0,0,1-1.41,3l-2.89,2.89c-1.39,1.4-2.83,2.86-4.28,4.25-1.85,1.78-4.14,1.92-5.71.35S15.36,60.5,17.22,58.58Zm8.55,8.5c3.31-3.39,6.73-6.77,10-10l.06-.07a3.55,3.55,0,0,1,4.42-.88,3.65,3.65,0,0,1,2.14,3.8v0A3.72,3.72,0,0,1,41,62.54c-1.27,1.25-2.52,2.52-3.78,3.78-2,2-4.08,4.1-6.15,6.13-1.91,1.86-4,2-5.7.34S24,68.89,25.77,67.08Zm8.34,8.69c3.16-3.28,6.43-6.5,9.51-9.51a3.48,3.48,0,0,1,4.2-.91,3.64,3.64,0,0,1,2.35,3.4,3.8,3.8,0,0,1-1.25,3l-2.54,2.56c-2.22,2.23-4.51,4.53-6.8,6.75-1.82,1.77-4.11,1.88-5.68.26S32.43,77.52,34.11,75.77Zm8.14,9c2.84-3,5.41-5.61,7.86-7.84a3.5,3.5,0,0,1,2.4-1,3.72,3.72,0,0,1,2.71,1.21,3.49,3.49,0,0,1,.25,4.93c-2.17,2.38-4.52,4.67-6.81,6.88l-1.23,1.19a3.52,3.52,0,0,1-2.31.82,3.77,3.77,0,0,1-3.39-2.15A3.48,3.48,0,0,1,42.25,84.72ZM62.14,33.66,53.9,25.43c-.3-.29-.57-.57-.81-.82C51.64,23.14,50.91,22.4,50,22.4h0c-.94,0-1.66.73-3.08,2.18l-.88.88-4.11,4.12c-2.91,2.91-5.82,5.83-8.75,8.73-2.42,2.38-4.27,2.4-6.62,0s-2.29-4.25.09-6.65C34.9,23.38,42.4,15.87,50.13,8.21,55.71,2.67,62.38.06,71.13,0c10.85.6,19,6.12,23.62,15.94,4.78,10.2,3.62,20-3.45,29a57.23,57.23,0,0,1-5,5.34c-1.07,1.05-2.18,2.13-3.21,3.25-.32.34-.52.43-.59.43h0c-.14,0-.42-.34-.61-.56s-.27-.32-.41-.46Q71.81,43.32,62.14,33.66Z" transform="translate(0 0)"/></svg>