<svg id="Capa_1" data-name="Capa 1" xmlns="http://www.w3.org/2000/svg" viewBox="0 0 160.22 109.02"><defs><style>.cls-1{fill:#01979c;}.cls-2{fill:#02979c;}</style></defs><path class="cls-1" d="M159,40.56a6.94,6.94,0,0,0-.33,2,37.12,37.12,0,0,1-7.3,17.25,40.42,40.42,0,0,1-21.82,15.06,34.29,34.29,0,0,1-18.23,0,47.84,47.84,0,0,1-14.46-6.3A56.07,56.07,0,0,1,83.46,55.84,58.38,58.38,0,0,1,80,50.78c-.28-.45-.39-.34-.63,0a87.08,87.08,0,0,1-9,11.55,42.71,42.71,0,0,1-9,7.72,37.89,37.89,0,0,1-14.45,5.1,42.67,42.67,0,0,1-23.45-3.23c-8.63-3.8-15.24-9.76-19.27-18.4a34.26,34.26,0,0,1-2.87-9.11,5.37,5.37,0,0,1-.05-.8c0-2.11.08-4.23,0-6.34a24.42,24.42,0,0,1,1.4-8.94,39.81,39.81,0,0,1,18.88-23A32.19,32.19,0,0,1,38.06,1.2,56.65,56.65,0,0,1,47.87,2a42.41,42.41,0,0,1,18.82,8.89,68.8,68.8,0,0,1,12.5,13.51c.26.37.52.74.79,1.1a.46.46,0,0,0,.12.09c1.29-1.85,2.61-3.68,4-5.45a56.61,56.61,0,0,1,17-14.78,32.73,32.73,0,0,1,13.36-4.1c11.3-.89,21.61,1.87,30.59,9a35.58,35.58,0,0,1,13,19.76,35.08,35.08,0,0,1,.81,4.78c0,.15-.07.34.12.44ZM40.71,62.71c1.35,0,2.5-.09,3.64-.22a24.85,24.85,0,0,0,11.07-3.94,36.49,36.49,0,0,0,6.68-6.34A102.73,102.73,0,0,0,72.31,37.84c.18-.3.07-.48-.07-.71C71.11,35.39,70,33.65,68.76,32A53.67,53.67,0,0,0,57.37,20,28.3,28.3,0,0,0,44,14.41c-1.65-.21-3.32-.12-5-.24a19.36,19.36,0,0,0-10,1.88A26.6,26.6,0,0,0,16,29.69,21.71,21.71,0,0,0,21,55.1C26.59,60.3,33.38,62.51,40.71,62.71Zm79.08-48.85c-4.69,0-8.2.64-11.45,2.24a38.33,38.33,0,0,0-10.82,8.23,85.6,85.6,0,0,0-9.84,13.2c-.2.31-.08.52,0,.78A61.11,61.11,0,0,0,92.29,46a45.16,45.16,0,0,0,11.33,11.53,34.46,34.46,0,0,0,11.09,4.84,21.46,21.46,0,0,0,10.88.11,27.56,27.56,0,0,0,15.15-10.14,23.79,23.79,0,0,0,5.25-13,20.07,20.07,0,0,0-4.15-14.14A28.71,28.71,0,0,0,119.79,13.86Z"/><path class="cls-2" d="M130.37,99.48c0-5.72,0-11.36,0-17,0-.53.1-.71.66-.68,1.15,0,2.3,0,3.45,0,.37,0,.49.09.49.48q0,12.35,0,24.68c0,.39-.12.48-.49.47-1.7,0-3.41,0-5.11,0-.43,0-.55-.22-.69-.53l-7-15.77a6,6,0,0,0-.79-1.4v.69c0,5.44,0,10.88,0,16.31,0,.59-.17.72-.71.7q-1.64-.06-3.27,0c-.5,0-.64-.13-.64-.64,0-5.21,0-10.42,0-15.64,0-2.89,0-5.78,0-8.67,0-.6.19-.7.72-.69,1.58,0,3.16,0,4.74,0a.83.83,0,0,1,.91.58q3.67,8.28,7.39,16.54C130.08,99.1,130.1,99.32,130.37,99.48Z"/><path class="cls-2" d="M49.21,94.57c0-4.06,0-8.12,0-12.18,0-.47.09-.63.6-.62,2.74,0,5.5,0,8.25,0,3.36.05,6.28,1.11,8.34,3.94a12.21,12.21,0,0,1,2.13,5.82,19.3,19.3,0,0,1-.77,8.51,9.93,9.93,0,0,1-7.32,6.72,18,18,0,0,1-4.56.58c-2,0-4.07,0-6.1,0-.47,0-.57-.14-.57-.59C49.22,102.74,49.21,98.66,49.21,94.57Zm5-.07c0,2.71,0,5.41,0,8.12,0,.39.09.54.5.52.76,0,1.52,0,2.28,0a5.78,5.78,0,0,0,5.69-4.33,14.42,14.42,0,0,0-.41-9.63,4.81,4.81,0,0,0-3.61-3,17.07,17.07,0,0,0-3.91-.24c-.44,0-.55.15-.55.57C54.24,89.13,54.23,91.82,54.23,94.5Z"/><path class="cls-2" d="M158.27,94.13a23,23,0,0,1-1,6.84c-1.16,3.83-3.87,5.9-7.61,6.68-5.72,1.19-10.51-2.12-11.61-7.92a23.16,23.16,0,0,1,.1-10.18,11.52,11.52,0,0,1,3.43-6c2.65-2.33,5.73-2.62,9.06-2,4.28.86,6.16,3.83,7.1,7.71A19.66,19.66,0,0,1,158.27,94.13Zm-5.34.41c0-.63,0-1.27,0-1.9a11.72,11.72,0,0,0-1.13-4.5A3.71,3.71,0,0,0,149.34,86c-2.41-.51-4.28.24-5.35,2.22a7.9,7.9,0,0,0-.68,1.77,24,24,0,0,0-.29,7.28,10.07,10.07,0,0,0,.73,3.28,4.51,4.51,0,0,0,8.34-.06A15.47,15.47,0,0,0,152.93,94.54Z"/><path class="cls-2" d="M39.56,95.3a7,7,0,0,1,2.68,3.32c1.2,2.52,2.43,5,3.64,7.53.5,1,.31,1.34-.81,1.33-1.34,0-2.67,0-4,0a.58.58,0,0,1-.61-.44c-1.19-2.77-2.4-5.52-3.67-8.25a3.84,3.84,0,0,0-3.59-1.9c-.43,0-.34.34-.35.58,0,2.28-.05,4.56-.06,6.83,0,.89,0,1.77,0,2.65,0,.39-.08.53-.51.53-1.33,0-2.67,0-4,0-.46,0-.52-.17-.52-.57q0-7.87,0-15.76c0-2.91,0-5.82,0-8.74,0-.47.13-.57.58-.57,3,0,6-.07,9,.14a8,8,0,0,1,5,1.63,6.71,6.71,0,0,1,2.27,6.77A6.15,6.15,0,0,1,39.56,95.3Zm-6.77-5.88v3.07c0,.2,0,.42.28.42a10.23,10.23,0,0,0,4.52-.63,3.07,3.07,0,0,0,1.78-3.44,2.75,2.75,0,0,0-2.29-2.61,16,16,0,0,0-4-.27c-.35,0-.32.22-.32.45Z"/><path class="cls-2" d="M14.13,81.81c.94,0,1.88,0,2.83,0a.61.61,0,0,1,.72.52q2.92,10,5.91,20c.46,1.55.9,3.1,1.38,4.65.11.36.12.5-.33.49-1.54,0-3.08,0-4.62,0-.33,0-.45-.1-.54-.42-.37-1.41-.79-2.8-1.16-4.2-.09-.32-.21-.43-.54-.43-2.63,0-5.25,0-7.88,0-.39,0-.48.18-.57.48-.38,1.36-.78,2.72-1.15,4.08a.57.57,0,0,1-.66.51c-1.29,0-2.59,0-3.88,0-.51,0-.57-.12-.43-.58Q5.57,99,7.88,91.14c.87-3,1.76-5.89,2.61-8.84a.58.58,0,0,1,.68-.5C12.15,81.83,13.14,81.81,14.13,81.81Zm-.19,5.25a.51.51,0,0,0-.09.12q-1.53,5.35-3,10.69c-.09.31,0,.4.32.4h5.54c.28,0,.41,0,.31-.38C16,94.29,15,90.68,13.94,87.06Z"/><path class="cls-2" d="M90.57,91.39c0,2.28.09,5.07-.08,7.86a9.06,9.06,0,0,1-8.55,8.68,10.65,10.65,0,0,1-6.08-1.14,7.32,7.32,0,0,1-4-6.29c-.23-3.06-.08-6.11-.11-9.17s0-6,0-9c0-.57.18-.67.69-.65,1.26,0,2.51,0,3.76,0,.48,0,.62.11.61.6q0,6.75,0,13.48c0,1.23,0,2.47,0,3.7a4.12,4.12,0,0,0,4.94,4.2c2.29-.29,3.32-1.43,3.62-3.81a43.43,43.43,0,0,0,.1-5.47c0-4,0-8,0-12.07,0-.51.13-.65.64-.63,1.27,0,2.55,0,3.82,0,.46,0,.59.1.59.57C90.55,85.14,90.57,88,90.57,91.39Z"/><path class="cls-2" d="M100.51,94.37c0-2.67,0-5.33,0-8,0-.53-.15-.64-.65-.63-1.5,0-3,0-4.49,0-.39,0-.49-.1-.48-.48,0-1,0-2,0-3.08,0-.48.12-.61.61-.61,4.74,0,9.48,0,14.22,0,1.49,0,1.49,0,1.49,1.51,0,.68,0,1.36,0,2,0,.47-.09.64-.6.63-1.5,0-3,0-4.49,0-.38,0-.53.08-.53.5q0,8.19,0,16.37c0,.46.16.53.57.52,1.49,0,3,0,4.49,0,.42,0,.57.1.56.54,0,1,0,2.1,0,3.14,0,.39-.08.53-.51.53H95.39c-.35,0-.5-.07-.49-.47,0-1.08,0-2.17,0-3.26,0-.38.11-.48.49-.48,1.54,0,3.08,0,4.61,0,.41,0,.52-.11.52-.51C100.5,99.87,100.51,97.12,100.51,94.37Z"/><path class="cls-2" d="M155.26,5.73c-.16.54-.34,1.08-.49,1.62a.43.43,0,0,1-.48.35.39.39,0,0,1-.43-.33,7.27,7.27,0,0,0-.66-1.66c0,.52,0,1,0,1.54,0,.29,0,.45-.39.45s-.37-.2-.37-.47c0-.9,0-1.8,0-2.7,0-.21-.16-.56.28-.54s.78-.19.92.4.39,1.27.65,2.08c.26-.83.49-1.47.66-2.13s.57-.32.89-.34.25.3.25.49c0,.9,0,1.8,0,2.7,0,.28,0,.51-.39.51s-.35-.29-.36-.54V5.75Z"/><path class="cls-2" d="M150.35,6.18V5.69c0-.28.08-.62,0-.84s-.52-.11-.79-.12-.28-.21-.29-.41,0-.34.3-.34c.81,0,1.63,0,2.45,0,.3,0,.32.15.33.38s-.09.42-.35.36c-.81-.18-.84.3-.8.89s0,1.11,0,1.66c0,.31-.08.43-.41.43s-.44-.08-.42-.41S150.35,6.55,150.35,6.18Z"/><path class="cls-2" d="M40.28,40c-4.16,0-8.33,0-12.49,0-.49,0-.68-.09-.66-.63,0-1.45,0-2.91,0-4.37,0-.41.12-.51.52-.5q12.62,0,25.23,0c.45,0,.54.15.53.56,0,1.45,0,2.91,0,4.37,0,.46-.12.58-.58.58C48.65,40,44.47,40,40.28,40Z"/><path class="cls-2" d="M125.77,40.79c-1.09,0-2.17,0-3.26,0-.43,0-.56.11-.55.54,0,2.1,0,4.19,0,6.28,0,.47-.1.63-.61.62-2,0-3.94,0-5.91,0-.4,0-.51-.12-.51-.52,0-2.11,0-4.22,0-6.34,0-.45-.11-.59-.58-.58-2,0-4.1,0-6.15,0-.39,0-.53-.09-.53-.51q0-3,0-6c0-.44.16-.49.53-.49,2,0,4.07,0,6.1,0,.53,0,.64-.15.63-.65,0-2.09,0-4.19,0-6.28,0-.43.13-.55.55-.55q2.93,0,5.85,0c.48,0,.64.11.63.61,0,2.07,0,4.15,0,6.22,0,.49.1.66.63.65,2.18,0,4.35,0,6.53,0,.38,0,.53.08.52.5,0,2,0,4,0,6,0,.37-.1.49-.48.49C128,40.77,126.9,40.79,125.77,40.79Z"/></svg>