<svg id="Capa_1" data-name="Capa 1" xmlns="http://www.w3.org/2000/svg" viewBox="0 0 304.99 36.33"><defs><style>.cls-1{fill:#00875f;}</style></defs><path class="cls-1" d="M268.73,10.38h-12c.37.82.85,1.89,1.46,3.19l-4,12.38h4.67l2-6.23h5.19L264,26h4.67l3.5-10.77a3.66,3.66,0,0,0-3.48-4.8m-1.65,6.23h-5.19l.84-2.6h5.19Z"/><polygon class="cls-1" points="291.27 10.38 276.88 10.38 275.7 14.01 280.56 14.01 276.68 25.95 281.36 25.95 285.23 14.01 290.09 14.01 291.27 10.38"/><path class="cls-1" d="M298.28,14h5.53L305,10.38h-8.86a3.53,3.53,0,0,0-2.7,5.79l4.33,5.16a.6.6,0,0,1-.46,1h-7.61L288.51,26h10.94a3.52,3.52,0,0,0,2.7-5.79L297.82,15a.61.61,0,0,1,.46-1"/><path class="cls-1" d="M241.52,12.91l-2.68,8.25A3.66,3.66,0,0,0,242.33,26h9.49l-1.18-3.63h-7.5l2.7-8.31h6.74l1.18-3.63H245a3.67,3.67,0,0,0-3.49,2.53"/><polygon class="cls-1" points="98.23 10.38 93.56 10.38 88.5 25.95 91.42 25.95 93.17 25.95 99.91 25.95 101.09 22.32 94.35 22.32 98.23 10.38"/><path class="cls-1" d="M86.11,19.72l1-3.11h-8L80,14h9.27l1.18-3.63H74c.22.52.7,1.57,1.44,3.14L71.44,26H87l-1.73-3.63h-8l.84-2.6Z"/><path class="cls-1" d="M120.85,14,122,10.38H105.62c.22.52.71,1.57,1.45,3.14L103,26h15.55l-1.73-3.63h-8l.84-2.6h8l1-3.11h-8l.85-2.6Z"/><polygon class="cls-1" points="209.81 10.38 204.75 25.95 209.42 25.95 214.48 10.38 209.81 10.38"/><polygon class="cls-1" points="139.63 10.38 138.45 14.01 143.31 14.01 139.43 25.95 144.1 25.95 147.98 14.01 152.84 14.01 154.02 10.38 139.63 10.38"/><path class="cls-1" d="M201.81,10.38h-12c.37.82.85,1.89,1.46,3.19l-4,12.38h4.67L195.81,14H201L197.12,26h4.67l3.5-10.77a3.66,3.66,0,0,0-3.48-4.8"/><path class="cls-1" d="M124.28,12.91l-2.68,8.24a3.66,3.66,0,0,0,3.48,4.8h9.49l-1.18-3.63h-7.5l2.7-8.31h6.75l1.18-3.63h-8.76a3.65,3.65,0,0,0-3.48,2.53"/><path class="cls-1" d="M227.83,14,229,10.38h-8.76a3.65,3.65,0,0,0-3.48,2.53l-2.68,8.24a3.66,3.66,0,0,0,3.48,4.8h9.49l-1.18-3.63h-7.5l2.7-8.31Z"/><path class="cls-1" d="M184.24,10.38h-6.83a3.66,3.66,0,0,0-3.48,2.53l-2.68,8.24a3.67,3.67,0,0,0,3.48,4.8h6.83a3.67,3.67,0,0,0,3.49-2.53l2.68-8.25a3.67,3.67,0,0,0-3.49-4.79m-3.51,11.94h-5.19l2.7-8.31h5.19Z"/><path class="cls-1" d="M166.6,10.38H155.23L156.9,14h8.89l-.85,2.6h-8.88l-1,3.11L153,26h4.67l2-6.23h1.72l2,6.23h4.68l-2-6.23a3.43,3.43,0,0,0,3.26-2.37l.71-2.18a3.66,3.66,0,0,0-3.48-4.79"/><path class="cls-1" d="M56.33,27.42a2.44,2.44,0,1,0,0-1.72H50a11,11,0,0,0,.77-3.77l4.62-1.26A2.45,2.45,0,1,0,55,19l-4.28,1.17A11.85,11.85,0,0,0,48.59,15a27.57,27.57,0,0,0,1.48-9,27.86,27.86,0,0,0-.35-4.42A1.93,1.93,0,0,0,47.34.06c-3.9,1-7.38,3.77-10,7.81A27.12,27.12,0,0,0,30.53,7a27.59,27.59,0,0,0-6.91.87c-2.6-4-6-6.83-9.89-7.81a1.93,1.93,0,0,0-2.39,1.56A27.7,27.7,0,0,0,11,6a27.57,27.57,0,0,0,1.48,9,11.85,11.85,0,0,0-2.1,5.16L6.09,19a2.44,2.44,0,1,0-.45,1.67l4.62,1.26A11,11,0,0,0,11,25.7H4.73a2.44,2.44,0,1,0,0,1.72h7.15A13.81,13.81,0,0,0,14,30.17L5.64,32.46a2.41,2.41,0,0,0-2-1,2.44,2.44,0,1,0,2.43,2.67l9.45-2.58a24.3,24.3,0,0,0,15,4.79,24.3,24.3,0,0,0,15-4.79L55,34.12a2.44,2.44,0,1,0,2.43-2.67,2.41,2.41,0,0,0-2,1l-8.37-2.29a13.81,13.81,0,0,0,2.13-2.75Zm2.29-1.81a1,1,0,1,1,0,1.9.95.95,0,0,1,0-1.9M57.4,18.28a1,1,0,1,1,0,1.9,1,1,0,1,1,0-1.9M3.66,20.18a.95.95,0,1,1,1-.95.95.95,0,0,1-1,.95M2.44,27.51a.95.95,0,1,1,1-1,.95.95,0,0,1-1,1m1.22,7.33a1,1,0,1,1,0-1.9.95.95,0,0,1,0,1.9m23.13-8.36a8.74,8.74,0,0,1-1.14.08,8.52,8.52,0,0,1-8.47-9.69,8.52,8.52,0,0,1,9.61,9.61m8.62.08a8.74,8.74,0,0,1-1.14-.08,8.52,8.52,0,0,1,9.61-9.61,8.52,8.52,0,0,1-8.47,9.69m22,6.38a1,1,0,1,1-.95,1,.95.95,0,0,1,.95-1"/></svg>