<svg xmlns="http://www.w3.org/2000/svg" viewBox="0 0 256.76 87.13"><defs><style>.cls-1{isolation:isolate;}.cls-2{opacity:0.55;mix-blend-mode:screen;}.cls-3{fill:#fff;}</style></defs><g class="cls-1"><g id="Capa_1" data-name="Capa 1"><g class="cls-2"><path class="cls-3" d="M38.72,40.75c-.4.87-2.54.84-1,2.82.69.9-1.22,1.55-2.28,1.85C26.25,48,17,50.36,7.55,51.41A20.22,20.22,0,0,0,4.47,52c-.6.16-1.57.08-1.51,1,0,.76.8,1.1,1.42,1.4a4.83,4.83,0,0,0,3.33-.07l9.17-2.08c-.24.13-.46.27-.69.37-.71.29-1.54.46-1.38,1.52.07.44.23.89.75.87a2.36,2.36,0,0,0,2.12-1.22c.52-.93-.46-1.08-.87-1.52A38.72,38.72,0,0,1,25,50.28a6.74,6.74,0,0,1-.42.62c-.74.91-3.27.54-2.47,2.15.49,1,2.05-.92,3.25-1.31,1.37-.44.29-1.06-.43-1.39Q32.49,48,40.1,45.62a3.16,3.16,0,0,1,2.54.17c2.5,1.32,5,1.08,7.63.31,6.85-2.05,13.9-3.4,20.68-5.74.7-.24,1.79-1.16,2,.38.13,1,.88,2.48-1,3-3.1.91-6.17,1.92-9.25,2.88-.72.23-1.53.27-2,1,1.09,1.29,2.29.65,3.41.32,4.52-1.34,9-2.65,13.53-4.14a9.18,9.18,0,0,1,6.1,0c2.9,1,5.86,1.72,8.76,2.68,2.23.74,3.85,4.29,3,6.44-.43,1.12-1.57,1.33-2.55,1.61-3.66,1-7.34,2-11.2,3A7.48,7.48,0,0,0,89,58.91c4.35-1.3,8.65-2.74,12.94-4.23a12,12,0,0,1,7.2-.26c3.13.81,6.26,1.59,9.39,2.42,5.63,1.49,4.3,5,1.73,7.89-1.58,1.77-4,2.06-6,3a5.32,5.32,0,0,0-2.57,1.55c3,1.81,6.3,2.58,9.51,3.59,2.92.91,5.86,1.73,8.74,2.75s2.9,1.11,3-2.13c.16-6.55.37-13.1,1-19.62.08-.78.17-1.56.22-2.35.18-2.8,1.33-4.4,4.33-5.27,19.8-5.7,39.32-12.28,58.74-19.15,1.89-.67,3.84-1.19,5.77-1.73,1.57-.44,3.26-.62,4.49-2.74.79,4.28-.87,8.67,3.26,12-3.28,6.86-8.59,13.39-12.66,21A3.73,3.73,0,0,0,201.69,54q6.78-9.66,13.47-19.35a6.92,6.92,0,0,0,.57-1.38c-.85-.73-1.8.26-2.79-.54,13.91-4.56,27.91-8.35,41.25-14.37L229.54,12.4a5.79,5.79,0,0,1,3.57.22c6.75,1.42,13.48,2.93,20.24,4.26,2.52.49,3.62,1.65,3.38,4.27-.32,3.39-1.12,6.94-.44,10.16.85,4-1.67,4.72-4,6-7.49,4-15.74,6.2-23.55,9.47-22.39,9.39-45.36,17.24-68.2,25.44-7.06,2.53-14.31,4.54-21.28,7.37-2.72,1.1-5.58.17-8.21-.73-6.1-2.1-12.38-3.67-18.36-6.16a16,16,0,0,0-12.48.16c-3.77,1.47-7.71,3.06-11.84.77a3.61,3.61,0,0,0-2.81.19C72.75,78,59.75,81.49,47.08,86c-2.37.84-4.82,1.65-7.41.68-1.62-.61-3.17-1.29-3.11-3.37a4.16,4.16,0,0,1,2.85-4.24c5.67-2,11.3-4.16,17-6.21s11.34-4.06,17-6c1.54-.53,2.65-1.21,2.73-3,.07-1.65,1.33-2.08,2.68-2.37a8.52,8.52,0,0,0,3.63-1.21c-2.74-1.36-5.21-2.07-8-1.11-2.06.71-4.17,1.29-6.28,1.84-.8.21-2,1.16-2.32-.44-.23-1.27-.65-2.94,1.22-3.53,3.24-1,6.5-2,9.78-2.92a120.36,120.36,0,0,0,14.77-4.5c.7-.29,1.76-.46,1.75-1.35s-1.16-.82-1.83-1.1C87.92,45.6,84,45.06,80.18,44.34a3.23,3.23,0,0,0-1.53.18C71,47.06,63.28,49.19,55.46,51.06a12.74,12.74,0,0,0-1.87.91l2.53,1.14c-5.55,1.31-10.44,3.42-15.73,3.83,2.7-.79,5.41-1.56,8.11-2.37,1.48-.44,2.87-.77,3.44-2.7.5-1.64,2.56-1.11,3.87-1.7.68-.31,2.17,0,1.81-1.29-.3-1.05-1.48-.54-2.3-.33-1.69.43-3.4.8-5,1.37-3,1-6,1.65-9.19.56-1.74-.59-3.61-.13-5.42.33Q21.2,54.52,6.71,58.1c-2.33.58-6-1.68-6.62-3.94C-.37,52.45,1.11,52.21,2,52a61.72,61.72,0,0,1,6.9-1.46c7.42-1.24,14.73-2.93,22-4.68,1.3-.32,2.38-.55,2-2.31-.19-.87.62-1.21,1.28-1.41,1.49-.48,3-.87,4.52-1.29Zm171.64,8.11c.41.85-1,1.51-.17,2.5,1.82-.72,3.91-1.13,4.73-3.23a30.33,30.33,0,0,1,3.28-5.63c2.83-4.23,5.72-8.42,8.79-12.94-1.73.23-3,.39-3.93,1.72-1.93,2.9-3.83,5.83-5.92,8.61-2.27,3-4,6.47-6.88,9.06,1-2.74,3.06-4.81,4.65-7.18,2.25-3.37,4.64-6.64,7.08-10.11-2-.33-3.57-.11-4.57,1.31-4.31,6.12-8.86,12.07-12.8,18.44-.34.55-1.09,1.23-.56,1.85s1.43,0,2.13-.28C208.21,52.26,208.62,49.89,210.36,48.86ZM168.13,48c.8-3.22,3.22-5.69,4.24-8.88-2.18-.5-3.35.56-4.43,2.14-6.57,9.6-12.07,19.84-18,29.81-.3.5-.78,1-.12,1.67,1.38-.39,3.17-.32,3.88-1.76a66.59,66.59,0,0,1,3.72-6c3.27-5.25,6.11-10.77,9.85-15.72-.48,1-.88,2.08-1.45,3-2.46,4.22-5,8.38-7.45,12.61a19,19,0,0,0-2.52,5.34c2.44.23,3.12-1.39,3.87-2.84,3.85-7.44,8.22-14.57,12.79-21.59,1.74-2.68,3.47-5.38,5.29-8.22a3.71,3.71,0,0,0-4.39,2A75.79,75.79,0,0,1,168.13,48Zm15.77-1.7c2-4.88,5.71-8.74,8.22-13.8-3.49.68-6,1.9-7.67,4.67-4.89,8-9.9,16-14.82,24a11.6,11.6,0,0,0-2,4.88c2.59.16,4-1.29,5.26-3.2,3.5-5.4,6.63-11,10.56-16.15-.4.86-.73,1.76-1.21,2.57-2.5,4.21-5.05,8.38-7.56,12.58-.37.62-1.19,1.44-.46,2s1.64-.14,2.3-.71a4.65,4.65,0,0,0,1-1.21c4.14-7,9-13.51,13.5-20.28,2.44-3.68,4.94-7.34,7.64-11.35-2.68.08-4.34.91-5.65,2.8C190,37.52,187.27,42.13,183.9,46.26Zm-33.53,10c1.67-4.33,5-7.72,7-12-2.46-.33-3.6,1.22-4.68,2.82q-6,8.91-11.93,17.84a48,48,0,0,0-4.88,9.54,3.66,3.66,0,0,0,0,3.55l7.74-11.34c-1,3.12-3.15,5.61-4.66,8.44-.29.54-.7,1.18-.32,1.71s1.13.09,1.68-.06a15.74,15.74,0,0,0,10-7.89Q157.9,55.11,166.49,42c.24-.37.85-.72.29-1.41-2.26.23-3.36,1.88-4.42,3.61q-8.67,14-17.37,28.05c-.41.67-.68,1.54-2,1.82,5.74-11,13.22-20.52,19-31.36-2,0-2.77,1.19-3.59,2.33C155.71,48.72,153.4,52.74,150.37,56.25Zm-30.74,2C115.7,57.1,112,56.11,108.35,55a8.52,8.52,0,0,0-4.85.06c-7.34,1.89-14.14,5.58-21.76,6.55a4.5,4.5,0,0,0-2.68,1.23C81,64.65,80.29,65.62,78,66.3c-11.57,3.37-22.7,8-34.1,11.89-1.4.47-2.74,1.13-4.09,1.73-.51.23-.94.59-.63,1.21a1.14,1.14,0,0,0,1.23.79,13.46,13.46,0,0,0,1.73-.57C55.29,76.69,68.36,71.77,81.84,68c2.2-.62,4.2-.86,6.32.2a6.17,6.17,0,0,0,4.86.23q12-4.15,24-8.34A3.89,3.89,0,0,0,119.63,58.21Zm86.7-30.28c-7.58,10.44-14.08,21.22-20.83,31.93,2.55-.47,5.09-.5,6.5-3.36a93.35,93.35,0,0,1,4.94-8.32c1.27-2,2.65-4,4-6-2.43,5.28-5.6,10.08-8.3,15.55a5.66,5.66,0,0,0,3.85-1.84,12.27,12.27,0,0,0,1.09-1.48c3.75-5.88,7.51-11.76,11.23-17.67.36-.57,1.52-1.71,0-1.86-2-.21-1.66-1.43-1.75-2.56A11,11,0,0,0,206.33,27.93ZM160.61,69c3.14-.52,5.21-1.89,6.39-4.7A39.11,39.11,0,0,1,170,59c4.35-7.16,8.73-14.31,13.05-21.48.32-.53,1.21-1.1.59-1.8s-1.33-.12-2,0a5.69,5.69,0,0,0-3.32,2.79C172.53,47.1,167.37,56,162,64.8A8.14,8.14,0,0,0,160.61,69Zm18.54-6.53a6.71,6.71,0,0,0,4.88-3q10.17-15.2,20.37-30.37a7.63,7.63,0,0,0,.42-1c-3.2-.25-4.64,1.93-6.06,4-6.32,9.07-12.63,18.15-18.57,27.48A4.89,4.89,0,0,0,179.15,62.42ZM242,24.52c-3.06.87-5.67,1.09-7.31,3.55-3.09,4.64-6.28,9.21-9.39,13.84a6.15,6.15,0,0,0-1.44,3.41c3.13-.34,5.5-1.26,7-4.1s3.32-5.52,5-8.3S239.78,27.68,242,24.52ZM216.21,47.89c3.74-.32,4.52-.7,6.09-3q5.16-7.56,10.26-15.14c.44-.67,1.23-1.24,1-2.39-2.84.64-5.62,1.08-6.84,4.33a16.91,16.91,0,0,1-2.16,3.26C221.69,39.08,218.56,43,216.21,47.89ZM248.3,22.66c-2.57.21-4.6.76-5.94,2.72-3,4.37-6,8.75-8.93,13.15-.65,1-2,2.31-1.1,3.16,1.15,1.06,2.51-.35,3.63-1.08a2.69,2.69,0,0,0,1-1.16c1.19-3.07,3.54-5.35,5.31-8C244.17,28.56,246.5,26,248.3,22.66Zm-95.77,23a4.39,4.39,0,0,0-4.48,2.11A209.74,209.74,0,0,0,136.5,66.15a6.06,6.06,0,0,0-.58,4.95C141.6,62.39,147,54.19,152.53,45.66Zm102.73-26L242.61,38c3.25.11,4.33-.28,5.54-2.3,2.33-3.89,4.54-7.84,6.77-11.79A4.94,4.94,0,0,0,255.26,19.66Zm-2.42,1.21c-2.44.48-13.59,15.22-14.2,18.37,1.68.44,2.54-.56,3.36-1.79,2.52-3.77,5.11-7.48,7.6-11.26C250.69,24.55,252.12,23.1,252.84,20.87ZM147.36,47.32c-2.34-.23-3.7.4-4.63,2-2,3.46-4,6.91-6,10.39a6.28,6.28,0,0,0-.61,4.9C140,58.61,143.54,53.17,147.36,47.32ZM254.63,26.43l-5.19,9.19A7.53,7.53,0,0,0,254.63,26.43ZM141.86,49c-3.1,0-6.06,5.18-4.91,8.53Zm-56.37,6.6c1.28-.28,2.85-.38,2.8-2.46,0-.65,0-1.35-.9-1.08-1.33.39-3,.4-3,2.48C84.35,55.29,84.5,55.75,85.49,55.62Zm-5,1.28c1.26-.09,2.48-.29,2.85-1.77.12-.47.33-1.13-.25-1.38s-.88.37-1,.86c-.19.75-.36,1.3-.92.2-.37-.76-.91-.68-1.49-.27A1.51,1.51,0,0,0,79,56.15C79.18,57,79.88,56.86,80.47,56.9ZM64.14,44.45c0-.74-.31-1-.83-.93A8.82,8.82,0,0,0,59.44,45c-.34.26-.71.62-.48,1.09s.75.3,1.16.24c1.27-.17,2.21-1.34,3.62-1.21C63.88,45.11,64.06,44.58,64.14,44.45Z" transform="translate(0 0)"/><path class="cls-3" d="M182.21,24.92c-6.09-1.51-12.18-2.69-18.07-4.55C152.9,16.84,141.76,13,130.64,9.13a25.41,25.41,0,0,0-14.92-.68c-8.47,2.12-17,4.08-25.47,6.07a10.28,10.28,0,0,1-3.89.6c.4-1.32,1.59-1.35,2.52-1.59C99.29,10.9,109.86,9,120.19,6a11.28,11.28,0,0,1,7.45.6C143.28,13,159.87,16.22,176,21c2.5.74,5.05,1.37,7.56,2.09.94.27,2,.71,2.06,1.74,0,.84-1.15.9-1.83,1.17-7.65,3-15.73,4.65-23.58,7-4.77,1.43-9.66,2.45-14.36,4.06a8.35,8.35,0,0,1-7.43-.89c-5-2.92-9.85-2.46-14.54.64a3.81,3.81,0,0,1-3.15.59c-10.4-2.1-20.14-6.3-30.18-9.56-.52-.17-1.4-.23-1-1.14.28-.59.68-1.3,1.58-1a15.15,15.15,0,0,1,1.46.56c6,2.39,11.93,5,18,7.11,4.61,1.6,9.22,3,14.36.93a16.7,16.7,0,0,1,15.15,1.17,3.89,3.89,0,0,0,3.75.54c5.83-2.86,12.42-2.6,18.49-4.56,5.23-1.68,10.57-3,15.85-4.56A8.29,8.29,0,0,0,182.21,24.92Z" transform="translate(0 0)"/><path class="cls-3" d="M55.79,17.08c4-.95,7.55-1.83,11.14-2.68,17.67-4.16,35.3-8.47,52.81-13.25a12.76,12.76,0,0,1,6.72.21,81.5,81.5,0,0,1,8.07,2.23c5.64,2.14,11.18,2,16.92.4A131.91,131.91,0,0,1,169.16.55L145.82,6.16a16.07,16.07,0,0,0,5.58,2.22c7.35,1.91,14.71,3.73,22.06,5.64a3.66,3.66,0,0,0,3.77-.84c6.15-5.26,15.56-3.78,20.83.43a5.71,5.71,0,0,1,2.37,4.51c0,2,1,2.54,2.61,2.83,1.23.23,2.53.39,3.43,1.67-5.15-1.13-10.32-2.17-15.43-3.42C170,14,149,9,128.26,2.64c-4.17-1.28-8.32-.75-12.4.43C96.65,8.64,77,12.5,57.65,17.47A1.55,1.55,0,0,1,55.79,17.08Zm132.54.62a20.33,20.33,0,0,0,.7-5.32c.05-.54-.08-1.07-.78-1.1s-1.3.09-1.35.87C186.78,14,186.65,16,188.33,17.7Zm4.12-3c-.2-1.12.11-2.87-1.49-2.82-1.07,0-.92,1.67-.93,2.65s-.29,2.12,1.26,2C192.53,16.56,192.6,15.71,192.45,14.73Z" transform="translate(0 0)"/><path class="cls-3" d="M55.93,34.57c-.79-.39-.65-1-.64-1.46.06-4.19.13-8.38.24-12.57,0-1,0-2.36,1.68-1.73,10.16,3.67,20.33,7.31,30.46,11.08,14.47,5.38,29,10.52,43.74,15.18,1.19.38,3.09.72,2.58,2.28s-2.25.78-3.48.4C106.8,40.26,83.58,31.37,60.38,22.47c-3.44-1.32-3.43-1.4-3.9,2.32a32,32,0,0,0,0,7.05C56.58,32.75,57,33.75,55.93,34.57Z" transform="translate(0 0)"/><path class="cls-3" d="M34,58.66,17.1,62.57c1.81,2.19,3.69,2.72,6,2.06,11.15-3.12,22.33-6.18,33.49-9.29,3.17-.88,5.57,1.09,8,2.32,1,.49.71,2.53.24,3.69s-1.58.24-2.25-.05a16.08,16.08,0,0,0-10.46-.47C41.63,63.37,31.05,66,20.34,68c-2.65.51-4.07-1.13-5.82-2.18-1-.58.31-3.58,1.7-3.89,5.86-1.31,11.72-2.54,17.59-3.81Zm15.38,2c.58-.13,1.18-.23,1.76-.4.92-.26.93-1.14,1.15-1.86a.54.54,0,0,0-.5-.73c-.75,0-1,.47-1.25,1.07s-.5.68-.81.13-.62-.82-1.11-.2a1.56,1.56,0,0,0-.25,1.46A.75.75,0,0,0,49.41,60.61Z" transform="translate(0 0)"/><path class="cls-3" d="M135.48,43.65c-3,0-6.47-2.13-6.42-3.9s2.32-3.08,4.84-3.09c2.86,0,5.07,1.62,5.11,3.76S137.76,43.65,135.48,43.65ZM134,40.7c.65-.22,1.91.27,1.71-.88s-1.44-1.66-2.61-1.75c-.85-.06-2.1,0-2,1.09C131.3,40.68,132.91,40.4,134,40.7Z" transform="translate(0 0)"/><path class="cls-3" d="M76.94,16.21c2.37-.06,5.32,1.67,5.42,3.19S80,22.87,77.52,22.93A4.28,4.28,0,0,1,73,19.18C72.84,17.22,74.08,16.29,76.94,16.21Zm2.44,3.44c-1.49,0-1.5-1.93-2.77-2.11a1.63,1.63,0,0,0-2,1.55c0,1.61,1.22,2.26,2.56,2.42C78.19,21.63,78.86,20.83,79.38,19.65Z" transform="translate(0 0)"/><path class="cls-3" d="M175.16,0c11.46,1.42,22.59,4.42,33.73,7.38L175,.67Z" transform="translate(0 0)"/><path class="cls-3" d="M38.77,40.8c6.6-1.65,13.21-3.25,19.79-4.94,4-1,7.74.52,11.54,1.36a.71.71,0,0,1,.48.83c-.47.49-1,.21-1.44,0-5.08-2.08-10.2-1.83-15.4-.41-4.12,1.12-8.29,2.05-12.44,3.07a3.78,3.78,0,0,1-2.57,0Z" transform="translate(0 0)"/><path class="cls-3" d="M212.53,24.11c1.14.35,2.68.24,2.56,2.17-.1,1.47-.66,2.61-2.32,2.45s-3.39-.4-3.34-2.44C209.46,24.6,211.05,24.3,212.53,24.11Z" transform="translate(0 0)"/><path class="cls-3" d="M231.73,16.88c1.51.74,3.78.64,3.81,2.95,0,1.68-1.53,1.94-2.91,1.83-1.88-.15-4-.6-4.12-2.78C228.39,17.09,230.54,17.49,231.73,16.88Zm2.62,3c-1.14-.71-2-1.66-3.3-1.06-.42.19-.37.82-.06,1.13C232,21,233.08,20.79,234.35,19.88Z" transform="translate(0 0)"/><path class="cls-3" d="M89.49,22.88c0,.47.25,1.72-.87,1.76s-.73-1.21-.78-1.93c-.13-2-.38-3.83-2.55-4.72a1.11,1.11,0,0,1-.61-1.71c.51-.81,1.13-.34,1.77,0C88.88,17.71,89.5,20,89.49,22.88Z" transform="translate(0 0)"/><path class="cls-3" d="M170.85,1.81c1.23.08,2.55.58,2.64,1.68.1,1.29-1.34,1.64-2.45,1.62s-2.29-.4-2.25-1.9S170,2.07,170.85,1.81Z" transform="translate(0 0)"/></g></g></g></svg>