<svg id="Capa_1" data-name="Capa 1" xmlns="http://www.w3.org/2000/svg" xmlns:xlink="http://www.w3.org/1999/xlink" viewBox="0 0 103.24 92.58"><defs><style>.cls-1{fill:url(#Degradado_sin_nombre_10);}</style><linearGradient id="Degradado_sin_nombre_10" y1="46.29" x2="103.24" y2="46.29" gradientUnits="userSpaceOnUse"><stop offset="0" stop-color="#f9b03d"/><stop offset="1" stop-color="#e7267a"/></linearGradient></defs><path class="cls-1" d="M77.37,86.64l-.23.24.23-.24ZM63.74,66.91h0l-.47-.13Zm-29.25-.13-.47.13h0ZM3,65.84a4,4,0,0,1,.75.73,5.14,5.14,0,0,0,0-.68c0-.18,0-.35,0-.53a2.07,2.07,0,0,1,1-2,5.36,5.36,0,0,0,1.62-1.47,9.56,9.56,0,0,1,.92-1L8,60.31A8.36,8.36,0,0,0,9.47,58.8a1.27,1.27,0,0,1,1.2-.52h2.56c1.53,0,3.07,0,4.6,0a2.6,2.6,0,0,1,2,.84c2.45,2.5,4.69,4.74,6.84,6.85a2.52,2.52,0,0,1,.9,2.28v.27q0,.6,0,1.2c-.06,1.9-.11,3.54,1.48,4.76a15,15,0,0,1,2.53,2.28c.44.47.9,1,1.38,1.38a2.87,2.87,0,0,0,3.4,0,3.69,3.69,0,0,1,4.53-.2,3.21,3.21,0,0,1,.14,4.6,3.39,3.39,0,0,1-2.45,1,2.94,2.94,0,0,1-2.13-1A1.42,1.42,0,0,0,35.08,82c-.32,0-.63,0-.95,0s-.66,0-1,0a2.25,2.25,0,0,1-1.82-.75l-.16-.17c-2-2-4-4-6-6a2.55,2.55,0,0,1-.86-2.35v-.12a1.81,1.81,0,0,1,0-.57c.51-2.59-.38-4.66-2.8-6.52a17.53,17.53,0,0,1-2.85-2.81,2.8,2.8,0,0,0-2.77-1.15,12.85,12.85,0,0,1-3,0c-1.21-.16-2,.46-2.92,1.24l-.51.42c-1.88,1.47-2.56,3.28-2.34,6.26.14,1.87.1,3.76.06,5.6l0,1.73A1.35,1.35,0,0,0,7.5,78a15,15,0,0,1,1.34,1.49,2.92,2.92,0,0,0,2.83,1.28,19.45,19.45,0,0,1,3.05,0l.43,0h.09c.16,0,.21,0,.23,0a.92.92,0,0,0,0-.31c0-1.12,0-2.24,0-3.37V75.14c0-.26,0-.27-.06-.32-.3-.24-.58-.51-.86-.77a4.57,4.57,0,0,0-2.91-1.65,2.34,2.34,0,0,1-1.76-.91,3.29,3.29,0,0,1-.46-2.64,3.08,3.08,0,0,1,1.4-2,3.21,3.21,0,0,1,2.39-.44,3.11,3.11,0,0,1,2,1.41A2.7,2.7,0,0,1,15.59,70c-.13.47,0,.57.19.74a6.11,6.11,0,0,1,1,1A3.7,3.7,0,0,0,18,72.84a1.6,1.6,0,0,1,.81,1.65l-.06,9.79.09.42a.08.08,0,0,0,0,0l0,.06.06.08a.7.7,0,0,1,.18.14.44.44,0,0,1,.08.11.5.5,0,0,1,.12.08l.08.1a.91.91,0,0,1,.47.38,1,1,0,0,1,.37.46l.07.06.07.09a.88.88,0,0,1,.29.16h0l.52.54h0c1.64,2.55,4.19,2.66,6.69,2.4a10.78,10.78,0,0,1,1.14,0,3.73,3.73,0,0,0-2.55-1.55,3.12,3.12,0,0,1-2.16-1,3,3,0,0,1-.55-2.24,3.16,3.16,0,0,1,3.4-2.77A3.19,3.19,0,0,1,29.53,83a2.76,2.76,0,0,1,.63,2.19c-.07.49.05.66.45,1,2,2,3.93,3.92,5.88,5.91a1.4,1.4,0,0,0,1.2.45c.62,0,1.24,0,1.84,0s1.17,0,1.73,0a1.75,1.75,0,0,0,1.41-.47,13.17,13.17,0,0,1,1.7-1.72,10.61,10.61,0,0,0,1.84-2,1.81,1.81,0,0,0,.39-1.11c0-3.33,0-6.65,0-10a1.54,1.54,0,0,0-.5-1.22Q41.93,72,37.79,67.79a1.33,1.33,0,0,0-1-.36c-.8,0-1.59,0-2.39,0h-1a1.32,1.32,0,0,1-.49,0L32,66.73a1.27,1.27,0,0,0-.1-.12l-2.37-2.35c-1.47-1.48-3-3-4.45-4.39A3.1,3.1,0,0,1,24,57.2v-.14c0-.48,0-.66-.24-.87a3,3,0,0,1-1.32-2.13,3.17,3.17,0,0,1,3-3.54A3.23,3.23,0,0,1,28,56c-.81.86-.81,1.2,0,2,1.24,1.26,2.49,2.5,3.74,3.75l2.09,2.1c.25.24.37.35.55.35.49,0,1,0,1.46,0a10.91,10.91,0,0,1,3,.18l.16.06a2.24,2.24,0,0,1,.79,1l0,.09a15.92,15.92,0,0,1,3.56,3.37c.28.34.41.35.42.35s.12,0,.43-.3a10.69,10.69,0,0,0,.71-.8,8.19,8.19,0,0,1,1.3-1.34,1.32,1.32,0,0,0,.33-1.07c0-1.44-.07-3.35,0-5.25a2.6,2.6,0,0,0-.78-2.36,1.25,1.25,0,0,1-.27-.23l-.19-.17.06,0,0-.06a.23.23,0,0,1-.07-.07l-.06-.07a1.87,1.87,0,0,1-.85-.72v0c-.1,0-.24.07-.39.35a2.21,2.21,0,0,1-2.33,1.14H40.4c-.41,0-.82,0-1.24,0a2.2,2.2,0,0,0-2.09.7,2.47,2.47,0,0,1-1.89.86,3.38,3.38,0,0,1-2.56-1,3.23,3.23,0,0,1,2.55-5.44,2.71,2.71,0,0,1,2,1,1.54,1.54,0,0,0,1.55.6,1.54,1.54,0,0,1,.6,0c2.36.6,3.65-.74,5.2-2.72a.92.92,0,0,1,.39-.45c1.69-.78,1.77-2.12,1.69-4.22,0-1.59,0-3.21,0-4.77V41.57a1.27,1.27,0,0,0-.37-1c-.86-.84-1.72-1.7-2.57-2.55-1.09-1.1-2.18-2.19-3.29-3.27a2.17,2.17,0,0,0-3.06,0,3.08,3.08,0,0,1-4.4.06,3.34,3.34,0,0,1-.15-4.41,3.29,3.29,0,0,1,2.37-1.18,2.72,2.72,0,0,1,2.12.81,2.51,2.51,0,0,0,2.36.75,2.84,2.84,0,0,1,2.62,1c.38.41.78.81,1.18,1.2s.76.75,1.12,1.14a1.14,1.14,0,0,0,.23.19,9.76,9.76,0,0,1,.76-1,3.82,3.82,0,0,0,1.18-2.4c.24-3.76-.84-6.29-3.51-8.18a10.47,10.47,0,0,1-1.53-1.44c-.25-.28-.51-.55-.77-.8a3.87,3.87,0,0,0-2.22-.25,5,5,0,0,0-2.75.77,11.12,11.12,0,0,1-1,1.05l-.41.4A3.29,3.29,0,0,0,33.15,25a2.62,2.62,0,0,1-.83,2,3.42,3.42,0,0,1-2.61.87c-1.69-.12-2.77-1.46-2.81-3.5a2.84,2.84,0,0,1,.84-2.08,2.89,2.89,0,0,1,2.14-.83,2,2,0,0,0,1.74-.83c.2-.22.41-.42.63-.62a5.89,5.89,0,0,0,.7-.72c1.57-2.18,3.71-2.5,5.79-2.52a6.69,6.69,0,0,1,6,2.87c.1.14.16.2.17.22a.83.83,0,0,0,.22-.18c.83-.84,1.55-1.56,1.5-2.86-.11-2.79-.08-5.62-.06-8.36V6.3a1.2,1.2,0,0,0-.41-1C44.64,3.77,43.08,2.23,41.55.66a2.1,2.1,0,0,0-1.4-.55c-3.55-.47-6.08.54-8,3.21A17.36,17.36,0,0,1,29.6,6l-.55.5a1.35,1.35,0,0,0-.5,1.16c0,.94,0,1.88,0,2.81v1.09a20.94,20.94,0,0,1,2.25-2.35c.54-.5,1.1-1,1.6-1.58a2.32,2.32,0,0,1,2-.64h.24c1.1,0,1.88.05,2.62-.77a2.39,2.39,0,0,1,2-.78,3.42,3.42,0,0,1,2.48,1.12,3.49,3.49,0,0,1-.3,4.64A3.48,3.48,0,0,1,36.89,11a1.94,1.94,0,0,0-1.4-.62,2.19,2.19,0,0,0-1.49.61l-1.18,1.17c-3.07,3.07-6.15,6.15-9.25,9.19a1.12,1.12,0,0,0-.36.9c-.06,3.3,0,6.3.22,9.15,0,.38.12.5.2.56a23.9,23.9,0,0,1,2.63,2.48c.36.37.71.74,1.08,1.1a1.35,1.35,0,0,0,1.08.49h0a3.1,3.1,0,0,1,2.25.83,3,3,0,0,1,.8,2.18,3.08,3.08,0,0,1-3,3.3h0a3.12,3.12,0,0,1-3.3-3.19,1.88,1.88,0,0,0-.64-1.48c-.48-.45-.94-.92-1.39-1.39-.61-.62-1.23-1.26-1.88-1.83A4,4,0,0,1,19.82,31a5.16,5.16,0,0,0-.14-2.14,5.53,5.53,0,0,0-2.24,0,1.53,1.53,0,0,0-1,.58c-.29.28-.57.58-.85.88a23.14,23.14,0,0,1-1.94,1.89,2.32,2.32,0,0,0-.92,2.25,12.61,12.61,0,0,1,0,2,1.16,1.16,0,0,0,.46,1.12A3.23,3.23,0,0,1,14.26,40a3.07,3.07,0,0,1-.87,2.29,3.24,3.24,0,0,1-2.3.95h0a3.38,3.38,0,0,1-2.39-1A3,3,0,0,1,7.87,40a3.19,3.19,0,0,1,1-2.29,1.16,1.16,0,0,0,.52-1.17,7.63,7.63,0,0,1,3.37-8.16,1.08,1.08,0,0,0,.22-.21,5.83,5.83,0,0,1,6.18-2.6c.32.07.49,0,.55,0s.15-.18.14-.82c-.08-4.64,0-4.86,3.41-7.91,1.33-1.2,2.18-2.38,2-4.3a23.54,23.54,0,0,1-.06-3.25c0-.63,0-1.26,0-1.89a3.44,3.44,0,0,1,.88-2.83c-1.84,0-3.67,0-5.51,0a.67.67,0,0,0-.32.13c-.22.18-.43.39-.64.59l-.39.38-.1.09c-1,.9-2,1.82-2.93,2.8a2.25,2.25,0,0,0,2.38-.67,2.47,2.47,0,0,1,2-.85,3.27,3.27,0,0,1,2.12,5.71,3.25,3.25,0,0,1-2.41.81,2.92,2.92,0,0,1-2.1-1A1.57,1.57,0,0,0,16.71,12c-2.34,0-4.29,0-6.32,0a1.87,1.87,0,0,0-1.44.6Q7.24,14.35,5.5,16.05a1.16,1.16,0,0,0-.37.9v3.77c0,1.25,0,2.5,0,3.76v.09L8,21.68a1.49,1.49,0,0,0,.49-1.2,3.27,3.27,0,0,1,.83-2.42,3.33,3.33,0,0,1,2.42-.84,3,3,0,0,1,3.16,3.09A3.32,3.32,0,0,1,14,22.77a3.13,3.13,0,0,1-2.37.77,1.43,1.43,0,0,0-1.15.55C8.82,25.72,7.18,27.37,5.53,29L.85,33.69a1.65,1.65,0,0,0-.47,1.25v3.14c0,1,0,2,0,2.94a1.18,1.18,0,0,0,.36.9c2.91,2.88,5.82,5.76,8.7,8.66a2.14,2.14,0,0,0,2,.59.82.82,0,0,1,.68-.09c2,.75,3.18-.38,4.5-1.93A14,14,0,0,1,17.77,48,9.46,9.46,0,0,0,19,46.75,4.53,4.53,0,0,1,23,45.07c2.54.07,5.13.06,7.63,0h2.71c.08,0,.18,0,.22,0a2.45,2.45,0,0,0,2.08-2.06c0-2.09,1.24-3.4,3.13-3.42a2.93,2.93,0,0,1,2.27.86A3.21,3.21,0,0,1,42,42.88a3.09,3.09,0,0,1-.89,2.29,3.4,3.4,0,0,1-2.51.86c-.6-.07-1,.31-1.47.85a4.34,4.34,0,0,1-1.1.93l-.18.1a2.61,2.61,0,0,1-1.32.42H31.74c-2.81,0-5.63,0-8.44,0a2.37,2.37,0,0,0-1.95.8c-.82.86-1.66,1.7-2.5,2.54-.63.62-1.25,1.24-1.86,1.87a2.35,2.35,0,0,1-1.91.78h-.4a43.25,43.25,0,0,0-4.41,0,3.61,3.61,0,0,1-3.41-1.51,2.27,2.27,0,0,0-.3-.32l-.14-.14c-.93-.93-1.54-1.54-1.88-1.54s-.94.61-1.86,1.53a.69.69,0,0,1-.22.25C.34,54.12.1,56.23,0,58.82-.11,62.17.79,64.27,3,65.84Zm98.51-31.65a1.73,1.73,0,0,0,0-3.46H90.42V24h11.09a1.73,1.73,0,1,0,0-3.45H90.42V13a1.72,1.72,0,0,0-1.73-1.73H80.61V1.73a1.73,1.73,0,0,0-3.46,0v9.56H70.4V1.73a1.73,1.73,0,1,0-3.46,0v9.56H59.8V1.73a1.73,1.73,0,0,0-3.46,0v9.56h-5V22.23h26.3A1.72,1.72,0,0,1,79.35,24V61.77a1.72,1.72,0,0,1-1.73,1.73H51.32V74.08h5v9.56a1.73,1.73,0,0,0,3.46,0V74.08h7.14v9.56a1.73,1.73,0,0,0,3.46,0V74.08h6.75v9.56a1.73,1.73,0,0,0,3.46,0V74.08h8.08a1.72,1.72,0,0,0,1.73-1.73V65.2h11.09a1.73,1.73,0,1,0,0-3.45H90.42V55h11.09a1.73,1.73,0,0,0,0-3.46H90.42V44.79h11.09a1.73,1.73,0,0,0,0-3.46H90.42V34.19ZM72.1,34.4a5,5,0,1,0-5,5.05A5.05,5.05,0,0,0,72.1,34.4Z"/></svg>